<svg width="542" height="164" viewBox="0 0 542 164" fill="none" xmlns="http://www.w3.org/2000/svg">
<path d="M125.221 10.8621H471.849C510.592 10.8621 542 42.2697 542 81.0129C542 119.756 510.592 151.164 471.849 151.164H125.221V10.8621Z" fill="#E06C7E"/>
<path d="M214.601 68.815C213.605 68.815 212.608 68.5007 211.611 67.872C210.615 67.228 209.672 66.2083 208.782 64.813C207.893 63.4023 207.111 61.5623 206.436 59.293H206.666L207.356 59.5C208.046 61.3093 208.767 62.7353 209.518 63.778C210.285 64.8053 211.067 65.5413 211.864 65.986C212.662 66.4153 213.444 66.63 214.21 66.63C214.977 66.63 215.606 66.469 216.096 66.147C216.587 65.825 216.947 65.4263 217.177 64.951C217.407 64.4603 217.522 63.9773 217.522 63.502C217.522 63.1187 217.438 62.7277 217.269 62.329C217.101 61.9303 216.825 61.593 216.441 61.317C216.073 61.041 215.575 60.903 214.946 60.903C215.023 61.0563 215.077 61.225 215.107 61.409C215.153 61.5777 215.176 61.7387 215.176 61.892C215.176 62.536 214.985 63.0113 214.601 63.318C214.218 63.6093 213.781 63.755 213.29 63.755C212.631 63.755 212.094 63.5327 211.68 63.088C211.282 62.628 211.082 62.1373 211.082 61.616C211.082 61.0333 211.259 60.558 211.611 60.19C211.979 59.822 212.455 59.5767 213.037 59.454C212.853 59.224 212.608 59.0093 212.301 58.81C211.995 58.5953 211.642 58.4267 211.243 58.304H206.689L205.309 56.924V56.74H223.088L224.468 58.12V58.304H222.513V66.216C222.513 67.09 222.521 67.941 222.536 68.769C222.552 69.597 222.59 70.5937 222.651 71.759H222.398L221.777 71.368C221.639 70.8467 221.409 70.3023 221.087 69.735C220.781 69.1523 220.397 68.585 219.937 68.033C219.493 67.481 218.987 66.998 218.419 66.584C218.067 67.2587 217.553 67.803 216.878 68.217C216.219 68.6157 215.46 68.815 214.601 68.815ZM220.719 58.304H213.612C213.72 58.4573 213.819 58.6183 213.911 58.787C214.019 58.9557 214.134 59.1473 214.256 59.362C215.023 59.4233 215.698 59.615 216.28 59.937C216.863 60.259 217.354 60.673 217.752 61.179C218.151 61.6697 218.45 62.2063 218.649 62.789C218.849 63.3717 218.948 63.939 218.948 64.491C218.948 64.7517 218.925 65.0047 218.879 65.25C219.293 65.618 219.654 65.986 219.96 66.354C220.282 66.7067 220.589 67.1053 220.88 67.55L220.949 67.504C220.842 66.9367 220.773 66.193 220.742 65.273C220.727 64.3377 220.719 63.0343 220.719 61.363V58.304ZM228.48 71.989H228.227L226.663 70.77L226.709 58.304H224.708L223.328 56.924V56.74H226.64C226.288 56.3107 225.958 55.9273 225.651 55.59C225.36 55.2373 225.214 54.7927 225.214 54.256C225.214 53.6427 225.444 53.0523 225.904 52.485C226.38 51.9023 227.031 51.427 227.859 51.059C228.687 50.6757 229.653 50.484 230.757 50.484C231.769 50.484 232.804 50.668 233.862 51.036C234.936 51.404 235.971 51.9407 236.967 52.646C237.979 53.336 238.884 54.164 239.681 55.13L239.474 55.935H239.313C238.071 54.5703 236.806 53.6043 235.518 53.037C234.246 52.4543 233.004 52.163 231.792 52.163C230.811 52.163 229.968 52.3087 229.262 52.6C228.572 52.876 228.043 53.244 227.675 53.704C227.307 54.1487 227.123 54.6393 227.123 55.176C227.123 55.4213 227.169 55.6667 227.261 55.912C227.353 56.142 227.53 56.418 227.79 56.74H229.009L230.389 58.12V58.304H228.296L228.48 71.989ZM240.074 70.126C239.2 70.126 238.311 69.9573 237.406 69.62C236.501 69.2673 235.635 68.6923 234.807 67.895C233.979 67.0823 233.243 65.9783 232.599 64.583C231.97 63.1723 231.48 61.409 231.127 59.293H231.357L232.047 59.5C232.446 61.1253 232.929 62.4823 233.496 63.571C234.079 64.6597 234.715 65.526 235.405 66.17C236.095 66.7987 236.808 67.251 237.544 67.527C238.28 67.803 239.008 67.941 239.729 67.941C240.772 67.941 241.646 67.734 242.351 67.32C243.056 66.906 243.585 66.4 243.938 65.802C244.291 65.204 244.467 64.6443 244.467 64.123C244.467 63.7397 244.39 63.4023 244.237 63.111C244.084 62.8043 243.923 62.559 243.754 62.375C243.095 63.2337 242.428 63.8853 241.753 64.33C241.078 64.7593 240.258 64.974 239.292 64.974C238.127 64.974 237.23 64.6903 236.601 64.123C235.988 63.5403 235.681 62.8657 235.681 62.099C235.681 61.3937 235.903 60.857 236.348 60.489C236.793 60.1057 237.299 59.914 237.866 59.914C238.495 59.914 238.985 60.1133 239.338 60.512C239.691 60.9107 239.867 61.363 239.867 61.869C239.867 62.375 239.691 62.812 239.338 63.18L239.384 63.249C239.967 63.1263 240.542 62.8273 241.109 62.352C241.692 61.8613 242.267 61.1713 242.834 60.282L242.949 60.259C243.9 60.6883 244.574 61.3323 244.973 62.191C245.387 63.0343 245.594 63.9083 245.594 64.813C245.594 65.8097 245.372 66.7143 244.927 67.527C244.498 68.3243 243.869 68.9607 243.041 69.436C242.228 69.896 241.239 70.126 240.074 70.126ZM246.974 58.304H230.621L229.241 56.924V56.74H245.594L246.974 58.12V58.304ZM256.656 70.126C255.782 70.126 254.892 69.9573 253.988 69.62C253.083 69.2673 252.217 68.6923 251.389 67.895C250.561 67.0823 249.825 65.9783 249.181 64.583C248.552 63.1723 248.061 61.409 247.709 59.293H247.939L248.629 59.5C249.027 61.1253 249.51 62.4823 250.078 63.571C250.66 64.6597 251.297 65.526 251.987 66.17C252.677 66.7987 253.39 67.251 254.126 67.527C254.862 67.803 255.59 67.941 256.311 67.941C257.353 67.941 258.227 67.734 258.933 67.32C259.638 66.906 260.167 66.4 260.52 65.802C260.872 65.204 261.049 64.6443 261.049 64.123C261.049 63.7397 260.972 63.4023 260.819 63.111C260.665 62.8043 260.504 62.559 260.336 62.375C259.676 63.2337 259.009 63.8853 258.335 64.33C257.66 64.7593 256.84 64.974 255.874 64.974C254.708 64.974 253.811 64.6903 253.183 64.123C252.569 63.5403 252.263 62.8657 252.263 62.099C252.263 61.3937 252.485 60.857 252.93 60.489C253.374 60.1057 253.88 59.914 254.448 59.914C255.076 59.914 255.567 60.1133 255.92 60.512C256.272 60.9107 256.449 61.363 256.449 61.869C256.449 62.375 256.272 62.812 255.92 63.18L255.966 63.249C256.548 63.1263 257.123 62.8273 257.691 62.352C258.273 61.8613 258.848 61.1713 259.416 60.282L259.531 60.259C260.481 60.6883 261.156 61.3323 261.555 62.191C261.969 63.0343 262.176 63.9083 262.176 64.813C262.176 65.8097 261.953 66.7143 261.509 67.527C261.079 68.3243 260.451 68.9607 259.623 69.436C258.81 69.896 257.821 70.126 256.656 70.126ZM263.556 58.304H247.203L245.823 56.924V56.74H262.176L263.556 58.12V58.304ZM267.602 71.989H267.349L265.762 70.77V62.835C265.762 62.0223 265.701 61.2787 265.578 60.604C265.455 59.914 265.21 59.362 264.842 58.948C264.489 58.5187 263.96 58.304 263.255 58.304L262.174 56.924V56.74H262.404C262.987 56.74 263.493 56.8013 263.922 56.924C264.351 57.0467 264.727 57.2997 265.049 57.683C265.386 58.0663 265.693 58.6413 265.969 59.408L266.038 59.385C265.977 58.9863 265.938 58.6337 265.923 58.327C265.908 58.005 265.9 57.614 265.9 57.154V54.095H266.061L267.05 54.808L267.073 55.406C267.119 55.912 267.196 56.2647 267.303 56.464C267.426 56.648 267.671 56.74 268.039 56.74L269.419 58.12V58.304H268.453C268.146 58.304 267.901 58.2427 267.717 58.12C267.548 57.9973 267.403 57.8593 267.28 57.706L267.188 57.752L267.602 71.989ZM280.14 71.759H279.887L279.243 71.368C278.967 70.6013 278.484 69.827 277.794 69.045C277.104 68.2477 276.23 67.55 275.172 66.952C274.129 66.354 272.918 65.963 271.538 65.779L269.721 63.502C271.254 62.5667 272.734 61.731 274.16 60.995C275.601 60.2437 276.943 59.6073 278.185 59.086V58.304H269.652L268.272 56.924V56.74H280.577L281.957 58.12V58.304H280.002V66.216C280.002 67.09 280.01 67.941 280.025 68.769C280.04 69.597 280.079 70.5937 280.14 71.759ZM278.185 61.294C277.265 61.6927 276.345 62.122 275.425 62.582C274.505 63.0267 273.616 63.525 272.757 64.077L272.78 64.146C273.685 64.4833 274.605 64.9587 275.54 65.572C276.475 66.17 277.411 67.0517 278.346 68.217L278.415 68.171C278.308 67.6037 278.239 66.7373 278.208 65.572C278.193 64.4067 278.185 62.9807 278.185 61.294ZM288.584 71.782C287.756 71.782 287.005 71.575 286.33 71.161C285.671 70.7623 285.111 70.2257 284.651 69.551C284.191 68.861 283.839 68.102 283.593 67.274C283.348 66.4307 283.225 65.572 283.225 64.698C283.225 63.4713 283.471 62.306 283.961 61.202C284.467 60.098 285.219 59.155 286.215 58.373L286.192 58.304H282.19L280.81 56.924V56.74H290.125L291.505 58.12V58.304C290.693 58.304 289.903 58.465 289.136 58.787C288.37 59.109 287.68 59.592 287.066 60.236C286.468 60.8647 285.985 61.6467 285.617 62.582C285.265 63.502 285.088 64.5677 285.088 65.779C285.088 66.6837 285.196 67.5117 285.41 68.263C285.64 68.999 285.97 69.5817 286.399 70.011C286.844 70.4403 287.381 70.655 288.009 70.655C288.025 70.655 288.063 70.655 288.124 70.655C288.186 70.6397 288.247 70.6243 288.308 70.609V70.563C288.155 70.4097 288.04 70.241 287.963 70.057C287.887 69.8577 287.848 69.6583 287.848 69.459C287.848 69.0757 287.986 68.7307 288.262 68.424C288.538 68.102 288.929 67.941 289.435 67.941C289.911 67.941 290.332 68.0943 290.7 68.401C291.084 68.6923 291.275 69.1293 291.275 69.712C291.275 70.3253 291.022 70.8237 290.516 71.207C290.01 71.5903 289.366 71.782 288.584 71.782ZM301.816 71.759H301.563L300.919 71.368C300.673 70.586 300.213 69.7963 299.539 68.999C298.879 68.1863 298.036 67.4733 297.009 66.86C295.981 66.2467 294.801 65.8403 293.467 65.641L291.65 63.364C292.493 62.8427 293.375 62.329 294.295 61.823C295.23 61.3017 296.165 60.834 297.101 60.42C298.051 59.9907 298.987 59.6533 299.907 59.408V58.304H291.742L290.362 56.924V56.74H307.037L308.417 58.12V58.304H301.724V59.362C302.368 59.408 302.996 59.5767 303.61 59.868C304.238 60.144 304.806 60.5273 305.312 61.018C305.833 61.4933 306.239 62.0453 306.531 62.674C306.837 63.2873 306.991 63.962 306.991 64.698C306.991 65.3573 306.868 65.9017 306.623 66.331C306.393 66.745 306.094 67.0593 305.726 67.274C305.373 67.4733 305.005 67.573 304.622 67.573C304.146 67.573 303.725 67.4273 303.357 67.136C302.989 66.8447 302.805 66.446 302.805 65.94C302.805 65.4493 302.966 65.066 303.288 64.79C303.61 64.514 303.97 64.376 304.369 64.376C304.66 64.376 304.944 64.4603 305.22 64.629C305.511 64.7823 305.741 65.0277 305.91 65.365C306.063 65.1043 306.14 64.8283 306.14 64.537C306.14 64.077 305.94 63.6093 305.542 63.134C305.158 62.6433 304.629 62.2217 303.955 61.869C303.28 61.5163 302.536 61.317 301.724 61.271V66.216C301.724 67.09 301.724 67.941 301.724 68.769C301.739 69.597 301.77 70.5937 301.816 71.759ZM299.907 61.432C299.278 61.6313 298.642 61.8767 297.998 62.168C297.354 62.444 296.74 62.743 296.158 63.065C295.575 63.3717 295.077 63.6553 294.663 63.916L294.686 63.985C295.56 64.3377 296.449 64.836 297.354 65.48C298.274 66.1087 299.178 67.021 300.068 68.217H300.16C300.052 67.7263 299.983 66.9213 299.953 65.802C299.922 64.6827 299.907 63.226 299.907 61.432ZM319.126 71.759H318.873L318.229 71.368C317.953 70.6013 317.47 69.827 316.78 69.045C316.09 68.2477 315.216 67.55 314.158 66.952C313.115 66.354 311.904 65.963 310.524 65.779L308.707 63.502C310.24 62.5667 311.72 61.731 313.146 60.995C314.587 60.2437 315.929 59.6073 317.171 59.086V58.304H308.638L307.258 56.924V56.74H319.563L320.943 58.12V58.304H318.988V66.216C318.988 67.09 318.995 67.941 319.011 68.769C319.026 69.597 319.064 70.5937 319.126 71.759ZM317.171 61.294C316.251 61.6927 315.331 62.122 314.411 62.582C313.491 63.0267 312.601 63.525 311.743 64.077L311.766 64.146C312.67 64.4833 313.59 64.9587 314.526 65.572C315.461 66.17 316.396 67.0517 317.332 68.217L317.401 68.171C317.293 67.6037 317.224 66.7373 317.194 65.572C317.178 64.4067 317.171 62.9807 317.171 61.294ZM313.008 71.092C312.609 71.092 312.272 70.954 311.996 70.678C311.72 70.3867 311.582 70.0493 311.582 69.666C311.582 69.2673 311.72 68.9377 311.996 68.677C312.272 68.401 312.609 68.263 313.008 68.263C313.406 68.263 313.736 68.401 313.997 68.677C314.273 68.9377 314.411 69.2673 314.411 69.666C314.411 70.0493 314.273 70.3867 313.997 70.678C313.736 70.954 313.406 71.092 313.008 71.092ZM333.522 71.782C332.694 71.782 331.95 71.575 331.291 71.161C330.632 70.747 330.072 70.195 329.612 69.505C329.152 68.815 328.799 68.0483 328.554 67.205C328.309 66.3463 328.186 65.4723 328.186 64.583C328.186 63.4637 328.37 62.4363 328.738 61.501C329.106 60.5503 329.604 59.7223 330.233 59.017C330.877 58.3117 331.613 57.7597 332.441 57.361C333.284 56.9623 334.174 56.7553 335.109 56.74L336.489 58.12V58.304C335.83 58.304 335.124 58.4343 334.373 58.695C333.637 58.9557 332.939 59.3773 332.28 59.96C331.621 60.5427 331.084 61.3017 330.67 62.237C330.256 63.1723 330.049 64.307 330.049 65.641C330.049 66.5763 330.156 67.4273 330.371 68.194C330.601 68.9453 330.931 69.5433 331.36 69.988C331.805 70.4327 332.341 70.655 332.97 70.655C332.985 70.655 333.024 70.655 333.085 70.655C333.146 70.6397 333.208 70.6243 333.269 70.609V70.563C333.116 70.4097 333.001 70.241 332.924 70.057C332.847 69.8577 332.809 69.6583 332.809 69.459C332.809 69.0757 332.947 68.7307 333.223 68.424C333.499 68.102 333.89 67.941 334.396 67.941C334.871 67.941 335.293 68.0943 335.661 68.401C336.044 68.6923 336.236 69.1293 336.236 69.712C336.236 70.3407 335.983 70.839 335.477 71.207C334.971 71.5903 334.319 71.782 333.522 71.782ZM347.885 71.759H347.632L346.988 71.368C346.712 70.6013 346.229 69.8577 345.539 69.137C344.864 68.401 344.006 67.7647 342.963 67.228C341.92 66.6913 340.701 66.3387 339.306 66.17L337.627 64.031C338.378 63.4637 339.122 62.9347 339.858 62.444C340.594 61.938 341.307 61.4627 341.997 61.018C341.46 60.4507 340.954 60.0213 340.479 59.73C340.004 59.4387 339.513 59.2317 339.007 59.109C338.516 58.9863 337.964 58.925 337.351 58.925L335.35 56.924V56.74H348.322L349.702 58.12V58.304H347.747V66.216C347.747 67.09 347.755 67.941 347.77 68.769C347.785 69.597 347.824 70.5937 347.885 71.759ZM345.93 58.304H340.686L340.663 58.35C341.307 58.8867 341.936 59.4693 342.549 60.098C343.162 60.7113 343.745 61.3553 344.297 62.03C343.638 62.444 342.986 62.858 342.342 63.272C341.713 63.686 341.108 64.1153 340.525 64.56L340.548 64.629C341.437 64.9203 342.357 65.3573 343.308 65.94C344.274 66.5073 345.202 67.297 346.091 68.309L346.16 68.263C346.053 67.711 345.984 66.837 345.953 65.641C345.938 64.4297 345.93 62.9807 345.93 61.294V58.304ZM353.76 71.989H353.507L351.92 70.77V62.835C351.92 62.0223 351.859 61.2787 351.736 60.604C351.614 59.914 351.368 59.362 351 58.948C350.648 58.5187 350.119 58.304 349.413 58.304L348.332 56.924V56.74H348.562C349.145 56.74 349.651 56.8013 350.08 56.924C350.51 57.0467 350.885 57.2997 351.207 57.683C351.545 58.0663 351.851 58.6413 352.127 59.408L352.196 59.385C352.135 58.9863 352.097 58.6337 352.081 58.327C352.066 58.005 352.058 57.614 352.058 57.154V54.095H352.219L353.208 54.808L353.231 55.406C353.277 55.912 353.354 56.2647 353.461 56.464C353.584 56.648 353.829 56.74 354.197 56.74L355.577 58.12V58.304H354.611C354.305 58.304 354.059 58.2427 353.875 58.12C353.707 57.9973 353.561 57.8593 353.438 57.706L353.346 57.752L353.76 71.989ZM360.548 68.401L358.823 66.239C359.973 65.3957 360.763 64.6673 361.192 64.054C361.622 63.4253 361.836 62.9193 361.836 62.536C361.836 62.0453 361.576 61.8 361.054 61.8C361.039 61.8 360.893 61.823 360.617 61.869C360.357 61.8997 359.996 62.007 359.536 62.191C359.076 62.375 358.54 62.6893 357.926 63.134C357.896 63.1493 357.834 63.18 357.742 63.226C357.65 63.2567 357.551 63.272 357.443 63.272C357.106 63.272 356.776 63.0957 356.454 62.743C356.148 62.375 355.994 61.8383 355.994 61.133C355.994 60.351 356.201 59.6303 356.615 58.971C357.029 58.2963 357.589 57.7597 358.294 57.361C359.015 56.947 359.805 56.74 360.663 56.74C361.553 56.74 362.319 56.947 362.963 57.361C363.607 57.7597 364.144 58.258 364.573 58.856C365.018 59.454 365.371 60.0367 365.631 60.604L365.723 60.581C365.662 59.9983 365.624 59.431 365.608 58.879C365.593 58.3117 365.585 57.6907 365.585 57.016V56.74H367.885L369.265 58.12V58.304H367.172L367.356 71.989H367.103L365.539 70.77C365.539 70.3253 365.539 69.7657 365.539 69.091C365.539 68.401 365.539 67.7033 365.539 66.998C365.555 66.2773 365.562 65.641 365.562 65.089C365.562 64.537 365.562 64.169 365.562 63.985C365.562 63.755 365.524 63.4177 365.447 62.973C365.386 62.5283 365.271 62.053 365.102 61.547C364.934 61.041 364.696 60.558 364.389 60.098C364.098 59.6227 363.722 59.2393 363.262 58.948C362.802 58.6413 362.243 58.488 361.583 58.488C361.001 58.488 360.487 58.6183 360.042 58.879C359.598 59.1397 359.245 59.4617 358.984 59.845C358.724 60.2283 358.578 60.6117 358.547 60.995C359.268 60.7803 359.92 60.673 360.502 60.673C361.392 60.673 362.089 60.9567 362.595 61.524C363.117 62.0913 363.377 62.7813 363.377 63.594C363.377 64.2687 363.163 65.0123 362.733 65.825C362.304 66.6377 361.576 67.4963 360.548 68.401ZM373.312 71.989H373.059L371.472 70.77V62.835C371.472 62.0223 371.411 61.2787 371.288 60.604C371.166 59.914 370.92 59.362 370.552 58.948C370.2 58.5187 369.671 58.304 368.965 58.304L367.884 56.924V56.74H368.114C368.697 56.74 369.203 56.8013 369.632 56.924C370.062 57.0467 370.437 57.2997 370.759 57.683C371.097 58.0663 371.403 58.6413 371.679 59.408L371.748 59.385C371.687 58.9863 371.649 58.6337 371.633 58.327C371.618 58.005 371.61 57.614 371.61 57.154V54.095H371.771L372.76 54.808L372.783 55.406C372.829 55.912 372.906 56.2647 373.013 56.464C373.136 56.648 373.381 56.74 373.749 56.74L375.129 58.12V58.304H374.163C373.857 58.304 373.611 58.2427 373.427 58.12C373.259 57.9973 373.113 57.8593 372.99 57.706L372.898 57.752L373.312 71.989ZM381.756 71.782C380.928 71.782 380.177 71.575 379.502 71.161C378.843 70.7623 378.283 70.2257 377.823 69.551C377.363 68.861 377.01 68.102 376.765 67.274C376.52 66.4307 376.397 65.572 376.397 64.698C376.397 63.4713 376.642 62.306 377.133 61.202C377.639 60.098 378.39 59.155 379.387 58.373L379.364 58.304H375.362L373.982 56.924V56.74H383.297L384.677 58.12V58.304C383.864 58.304 383.075 58.465 382.308 58.787C381.541 59.109 380.851 59.592 380.238 60.236C379.64 60.8647 379.157 61.6467 378.789 62.582C378.436 63.502 378.26 64.5677 378.26 65.779C378.26 66.6837 378.367 67.5117 378.582 68.263C378.812 68.999 379.142 69.5817 379.571 70.011C380.016 70.4403 380.552 70.655 381.181 70.655C381.196 70.655 381.235 70.655 381.296 70.655C381.357 70.6397 381.419 70.6243 381.48 70.609V70.563C381.327 70.4097 381.212 70.241 381.135 70.057C381.058 69.8577 381.02 69.6583 381.02 69.459C381.02 69.0757 381.158 68.7307 381.434 68.424C381.71 68.102 382.101 67.941 382.607 67.941C383.082 67.941 383.504 68.0943 383.872 68.401C384.255 68.6923 384.447 69.1293 384.447 69.712C384.447 70.3253 384.194 70.8237 383.688 71.207C383.182 71.5903 382.538 71.782 381.756 71.782ZM396.068 71.759H395.815L395.171 71.368C394.895 70.6013 394.412 69.8577 393.722 69.137C393.048 68.401 392.189 67.7647 391.146 67.228C390.104 66.6913 388.885 66.3387 387.489 66.17L385.81 64.031C386.562 63.4637 387.305 62.9347 388.041 62.444C388.777 61.938 389.49 61.4627 390.18 61.018C389.644 60.4507 389.138 60.0213 388.662 59.73C388.187 59.4387 387.696 59.2317 387.19 59.109C386.7 58.9863 386.148 58.925 385.534 58.925L383.533 56.924V56.74H396.505L397.885 58.12V58.304H395.93V66.216C395.93 67.09 395.938 67.941 395.953 68.769C395.969 69.597 396.007 70.5937 396.068 71.759ZM394.113 58.304H388.869L388.846 58.35C389.49 58.8867 390.119 59.4693 390.732 60.098C391.346 60.7113 391.928 61.3553 392.48 62.03C391.821 62.444 391.169 62.858 390.525 63.272C389.897 63.686 389.291 64.1153 388.708 64.56L388.731 64.629C389.621 64.9203 390.541 65.3573 391.491 65.94C392.457 66.5073 393.385 67.297 394.274 68.309L394.343 68.263C394.236 67.711 394.167 66.837 394.136 65.641C394.121 64.4297 394.113 62.9807 394.113 61.294V58.304ZM401.944 71.989H401.691L400.104 70.77V62.835C400.104 62.0223 400.042 61.2787 399.92 60.604C399.797 59.914 399.552 59.362 399.184 58.948C398.831 58.5187 398.302 58.304 397.597 58.304L396.516 56.924V56.74H396.746C397.328 56.74 397.834 56.8013 398.264 56.924C398.693 57.0467 399.069 57.2997 399.391 57.683C399.728 58.0663 400.035 58.6413 400.311 59.408L400.38 59.385C400.318 58.9863 400.28 58.6337 400.265 58.327C400.249 58.005 400.242 57.614 400.242 57.154V54.095H400.403L401.392 54.808L401.415 55.406C401.461 55.912 401.537 56.2647 401.645 56.464C401.767 56.648 402.013 56.74 402.381 56.74L403.761 58.12V58.304H402.795C402.488 58.304 402.243 58.2427 402.059 58.12C401.89 57.9973 401.744 57.8593 401.622 57.706L401.53 57.752L401.944 71.989ZM408.731 68.401L407.006 66.239C408.156 65.3957 408.946 64.6673 409.375 64.054C409.805 63.4253 410.019 62.9193 410.019 62.536C410.019 62.0453 409.759 61.8 409.237 61.8C409.222 61.8 409.076 61.823 408.8 61.869C408.54 61.8997 408.179 62.007 407.719 62.191C407.259 62.375 406.723 62.6893 406.109 63.134C406.079 63.1493 406.017 63.18 405.925 63.226C405.833 63.2567 405.734 63.272 405.626 63.272C405.289 63.272 404.959 63.0957 404.637 62.743C404.331 62.375 404.177 61.8383 404.177 61.133C404.177 60.351 404.384 59.6303 404.798 58.971C405.212 58.2963 405.772 57.7597 406.477 57.361C407.198 56.947 407.988 56.74 408.846 56.74C409.736 56.74 410.502 56.947 411.146 57.361C411.79 57.7597 412.327 58.258 412.756 58.856C413.201 59.454 413.554 60.0367 413.814 60.604L413.906 60.581C413.845 59.9983 413.807 59.431 413.791 58.879C413.776 58.3117 413.768 57.6907 413.768 57.016V56.74H416.068L417.448 58.12V58.304H415.355L415.539 71.989H415.286L413.722 70.77C413.722 70.3253 413.722 69.7657 413.722 69.091C413.722 68.401 413.722 67.7033 413.722 66.998C413.738 66.2773 413.745 65.641 413.745 65.089C413.745 64.537 413.745 64.169 413.745 63.985C413.745 63.755 413.707 63.4177 413.63 62.973C413.569 62.5283 413.454 62.053 413.285 61.547C413.117 61.041 412.879 60.558 412.572 60.098C412.281 59.6227 411.905 59.2393 411.445 58.948C410.985 58.6413 410.426 58.488 409.766 58.488C409.184 58.488 408.67 58.6183 408.225 58.879C407.781 59.1397 407.428 59.4617 407.167 59.845C406.907 60.2283 406.761 60.6117 406.73 60.995C407.451 60.7803 408.103 60.673 408.685 60.673C409.575 60.673 410.272 60.9567 410.778 61.524C411.3 62.0913 411.56 62.7813 411.56 63.594C411.56 64.2687 411.346 65.0123 410.916 65.825C410.487 66.6377 409.759 67.4963 408.731 68.401ZM432.921 70.034C431.771 70.034 430.652 69.6813 429.563 68.976C428.474 68.2707 427.47 67.1283 426.55 65.549C425.63 63.9697 424.833 61.8843 424.158 59.293H424.388L425.078 59.5C425.753 61.6313 426.496 63.3103 427.309 64.537C428.122 65.7483 428.973 66.607 429.862 67.113C430.751 67.6037 431.641 67.849 432.53 67.849C433.373 67.849 434.102 67.6803 434.715 67.343C435.328 67.0057 435.804 66.5687 436.141 66.032C436.494 65.4953 436.67 64.9203 436.67 64.307C436.67 63.7857 436.555 63.295 436.325 62.835C436.095 62.3597 435.773 61.9687 435.359 61.662C434.945 61.3553 434.47 61.202 433.933 61.202C433.841 61.202 433.726 61.2097 433.588 61.225C433.465 61.2403 433.343 61.271 433.22 61.317C433.465 61.5317 433.642 61.7847 433.749 62.076C433.856 62.352 433.91 62.628 433.91 62.904C433.91 63.456 433.711 63.9467 433.312 64.376C432.913 64.79 432.4 64.997 431.771 64.997C431.403 64.997 431.035 64.9127 430.667 64.744C430.314 64.56 430.023 64.2917 429.793 63.939C429.563 63.5863 429.448 63.1417 429.448 62.605C429.448 62.007 429.601 61.478 429.908 61.018C430.215 60.5427 430.636 60.1747 431.173 59.914C431.71 59.638 432.315 59.5 432.99 59.5C433.91 59.5 434.746 59.7377 435.497 60.213C436.248 60.6883 436.839 61.3323 437.268 62.145C437.713 62.9423 437.935 63.8547 437.935 64.882C437.935 65.8633 437.72 66.745 437.291 67.527C436.862 68.309 436.271 68.9223 435.52 69.367C434.769 69.8117 433.902 70.034 432.921 70.034ZM439.361 58.304H423.882L422.502 56.924V56.74H437.981L439.361 58.12V58.304ZM445.315 64.79V64.859C446.219 65.2423 447.063 65.7483 447.845 66.377C448.642 66.9903 449.378 67.6727 450.053 68.424L450.122 68.378C450.06 67.964 450.014 67.4733 449.984 66.906C449.968 66.3387 449.953 65.641 449.938 64.813C449.938 63.9697 449.938 62.927 449.938 61.685V56.74H452.284L453.664 58.12V58.304H451.709V66.216C451.709 67.09 451.716 67.941 451.732 68.769C451.747 69.597 451.778 70.5937 451.824 71.759H451.571L450.95 71.368C450.781 70.862 450.474 70.31 450.03 69.712C449.585 69.114 449.01 68.5543 448.305 68.033C447.599 67.4963 446.764 67.0593 445.798 66.722C444.832 66.3847 443.751 66.216 442.555 66.216L441.221 63.732L441.313 63.64C441.389 63.6553 441.451 63.663 441.497 63.663C441.543 63.663 441.573 63.663 441.589 63.663C442.233 63.663 442.884 63.5557 443.544 63.341C444.218 63.1263 444.832 62.835 445.384 62.467C445.951 62.0837 446.403 61.662 446.741 61.202C447.078 60.7267 447.247 60.236 447.247 59.73C447.247 59.3007 447.109 58.925 446.833 58.603C446.557 58.281 446.143 58.12 445.591 58.12C445.192 58.12 444.786 58.2273 444.372 58.442C443.973 58.6413 443.62 58.9327 443.314 59.316C443.513 59.4847 443.651 59.6763 443.728 59.891C443.804 60.1057 443.843 60.3203 443.843 60.535C443.843 60.9797 443.689 61.3707 443.383 61.708C443.091 62.0453 442.662 62.214 442.095 62.214C441.497 62.214 441.006 62.0223 440.623 61.639C440.239 61.2557 440.048 60.7727 440.048 60.19C440.048 59.638 440.224 59.1013 440.577 58.58C440.929 58.0433 441.42 57.6063 442.049 57.269C442.693 56.9163 443.436 56.74 444.28 56.74C445.215 56.74 446.02 56.9547 446.695 57.384C447.369 57.798 447.883 58.327 448.236 58.971C448.604 59.5997 448.788 60.2437 448.788 60.903C448.788 61.777 448.473 62.559 447.845 63.249C447.216 63.9237 446.373 64.4373 445.315 64.79ZM453.694 72.817L453.073 72.196V72.012C454.207 71.9507 455.058 71.6133 455.626 71C456.193 70.402 456.477 69.666 456.477 68.792C456.477 68.2707 456.4 67.6573 456.247 66.952C456.109 66.2467 455.963 65.503 455.81 64.721C455.672 63.9237 455.603 63.157 455.603 62.421C455.603 61.501 455.733 60.7573 455.994 60.19C456.254 59.6073 456.638 59.0093 457.144 58.396L457.121 58.304H453.901L452.521 56.924V56.74H459.26V57.154C458.922 57.4607 458.616 57.7827 458.34 58.12C458.064 58.442 457.841 58.833 457.673 59.293C457.504 59.7377 457.42 60.305 457.42 60.995C457.42 61.7617 457.489 62.5513 457.627 63.364C457.78 64.1613 457.926 64.9433 458.064 65.71C458.217 66.4767 458.294 67.1897 458.294 67.849C458.294 68.815 458.094 69.6583 457.696 70.379C457.297 71.0997 456.753 71.667 456.063 72.081C455.373 72.495 454.583 72.7403 453.694 72.817ZM270.98 102.782C270.152 102.782 269.409 102.575 268.749 102.161C268.09 101.747 267.53 101.195 267.07 100.505C266.61 99.815 266.258 99.0483 266.012 98.205C265.767 97.3463 265.644 96.4723 265.644 95.583C265.644 94.4637 265.828 93.4363 266.196 92.501C266.564 91.5503 267.063 90.7223 267.691 90.017C268.335 89.3117 269.071 88.7597 269.899 88.361C270.743 87.9623 271.632 87.7553 272.567 87.74L273.947 89.12V89.304C273.288 89.304 272.583 89.4343 271.831 89.695C271.095 89.9557 270.398 90.3773 269.738 90.96C269.079 91.5427 268.542 92.3017 268.128 93.237C267.714 94.1723 267.507 95.307 267.507 96.641C267.507 97.5763 267.615 98.4273 267.829 99.194C268.059 99.9453 268.389 100.543 268.818 100.988C269.263 101.433 269.8 101.655 270.428 101.655C270.444 101.655 270.482 101.655 270.543 101.655C270.605 101.64 270.666 101.624 270.727 101.609V101.563C270.574 101.41 270.459 101.241 270.382 101.057C270.306 100.858 270.267 100.658 270.267 100.459C270.267 100.076 270.405 99.7307 270.681 99.424C270.957 99.102 271.348 98.941 271.854 98.941C272.33 98.941 272.751 99.0943 273.119 99.401C273.503 99.6923 273.694 100.129 273.694 100.712C273.694 101.341 273.441 101.839 272.935 102.207C272.429 102.59 271.778 102.782 270.98 102.782ZM283.756 102.805H283.503L282.836 102.391C282.56 101.624 282.338 100.812 282.169 99.953C282.016 99.079 281.939 98.1437 281.939 97.147C281.939 96.549 281.978 95.9357 282.054 95.307C282.146 94.6783 282.33 94.065 282.606 93.467L282.537 93.398C281.449 94.1647 280.536 95.008 279.8 95.928C279.064 96.848 278.42 97.6913 277.868 98.458H277.73L275.821 96.595V89.304H274.188L272.808 87.924V87.74H285.435L286.815 89.12V89.304H277.661V95.215L277.707 95.238C278.121 94.7627 278.612 94.2567 279.179 93.72C279.747 93.168 280.352 92.6237 280.996 92.087C281.64 91.5503 282.284 91.0673 282.928 90.638L285.619 92.616V92.754C284.745 93.5513 284.155 94.4713 283.848 95.514C283.542 96.5413 283.388 97.6453 283.388 98.826C283.388 99.4393 283.419 100.091 283.48 100.781C283.557 101.456 283.649 102.13 283.756 102.805ZM293.551 95.215V95.284C294.271 95.652 295.03 96.1657 295.828 96.825C296.64 97.4843 297.307 98.2817 297.829 99.217L297.898 99.171C297.806 98.6497 297.729 97.8447 297.668 96.756C297.606 95.6673 297.576 94.226 297.576 92.432V87.74H299.968L301.348 89.12V89.304H299.232L299.347 97.216C299.362 98.0133 299.377 98.849 299.393 99.723C299.423 100.582 299.462 101.594 299.508 102.759H299.255L298.611 102.368C298.35 101.479 297.867 100.597 297.162 99.723C296.472 98.849 295.575 98.0977 294.471 97.469C293.367 96.8403 292.079 96.4493 290.607 96.296L288.767 94.088L288.813 93.927C288.935 93.9423 289.05 93.95 289.158 93.95C289.265 93.95 289.388 93.95 289.526 93.95C290.752 93.95 291.772 93.812 292.585 93.536C293.397 93.2447 294.003 92.8767 294.402 92.432C294.816 91.972 295.023 91.5043 295.023 91.029C295.023 90.5843 294.846 90.1857 294.494 89.833C294.202 90.1857 293.819 90.523 293.344 90.845C292.884 91.167 292.362 91.4353 291.78 91.65C291.212 91.8493 290.63 91.949 290.032 91.949C289.572 91.949 289.127 91.88 288.698 91.742C288.284 91.604 287.939 91.3893 287.663 91.098C287.402 90.7913 287.272 90.4003 287.272 89.925C287.272 89.419 287.425 89.0433 287.732 88.798C288.038 88.5373 288.376 88.407 288.744 88.407C289.127 88.407 289.48 88.5373 289.802 88.798C290.139 89.0587 290.315 89.4573 290.331 89.994C290.591 89.9633 290.929 89.8713 291.343 89.718C291.757 89.5493 292.178 89.304 292.608 88.982C293.052 88.6447 293.428 88.2307 293.735 87.74L293.873 87.717C294.639 88.223 295.253 88.8517 295.713 89.603C296.173 90.339 296.403 91.1133 296.403 91.926C296.403 92.6467 296.18 93.2983 295.736 93.881C295.306 94.4637 294.578 94.9083 293.551 95.215ZM307.973 102.782C307.145 102.782 306.394 102.575 305.719 102.161C305.06 101.762 304.5 101.226 304.04 100.551C303.58 99.861 303.228 99.102 302.982 98.274C302.737 97.4307 302.614 96.572 302.614 95.698C302.614 94.4713 302.86 93.306 303.35 92.202C303.856 91.098 304.608 90.155 305.604 89.373L305.581 89.304H301.579L300.199 87.924V87.74H309.514L310.894 89.12V89.304C310.082 89.304 309.292 89.465 308.525 89.787C307.759 90.109 307.069 90.592 306.455 91.236C305.857 91.8647 305.374 92.6467 305.006 93.582C304.654 94.502 304.477 95.5677 304.477 96.779C304.477 97.6837 304.585 98.5117 304.799 99.263C305.029 99.999 305.359 100.582 305.788 101.011C306.233 101.44 306.77 101.655 307.398 101.655C307.414 101.655 307.452 101.655 307.513 101.655C307.575 101.64 307.636 101.624 307.697 101.609V101.563C307.544 101.41 307.429 101.241 307.352 101.057C307.276 100.858 307.237 100.658 307.237 100.459C307.237 100.076 307.375 99.7307 307.651 99.424C307.927 99.102 308.318 98.941 308.824 98.941C309.3 98.941 309.721 99.0943 310.089 99.401C310.473 99.6923 310.664 100.129 310.664 100.712C310.664 101.325 310.411 101.824 309.905 102.207C309.399 102.59 308.755 102.782 307.973 102.782ZM320.169 101.034C319.019 101.034 317.9 100.681 316.811 99.976C315.723 99.2707 314.718 98.1283 313.798 96.549C312.878 94.9697 312.081 92.8843 311.406 90.293H311.636L312.326 90.5C313.001 92.6313 313.745 94.3103 314.557 95.537C315.37 96.7483 316.221 97.607 317.11 98.113C318 98.6037 318.889 98.849 319.778 98.849C320.622 98.849 321.35 98.6803 321.963 98.343C322.577 98.0057 323.052 97.5687 323.389 97.032C323.742 96.4953 323.918 95.9203 323.918 95.307C323.918 94.7857 323.803 94.295 323.573 93.835C323.343 93.3597 323.021 92.9687 322.607 92.662C322.193 92.3553 321.718 92.202 321.181 92.202C321.089 92.202 320.974 92.2097 320.836 92.225C320.714 92.2403 320.591 92.271 320.468 92.317C320.714 92.5317 320.89 92.7847 320.997 93.076C321.105 93.352 321.158 93.628 321.158 93.904C321.158 94.456 320.959 94.9467 320.56 95.376C320.162 95.79 319.648 95.997 319.019 95.997C318.651 95.997 318.283 95.9127 317.915 95.744C317.563 95.56 317.271 95.2917 317.041 94.939C316.811 94.5863 316.696 94.1417 316.696 93.605C316.696 93.007 316.85 92.478 317.156 92.018C317.463 91.5427 317.885 91.1747 318.421 90.914C318.958 90.638 319.564 90.5 320.238 90.5C321.158 90.5 321.994 90.7377 322.745 91.213C323.497 91.6883 324.087 92.3323 324.516 93.145C324.961 93.9423 325.183 94.8547 325.183 95.882C325.183 96.8633 324.969 97.745 324.539 98.527C324.11 99.309 323.52 99.9223 322.768 100.367C322.017 100.812 321.151 101.034 320.169 101.034ZM326.609 89.304H311.13L309.75 87.924V87.74H325.229L326.609 89.12V89.304ZM338.124 96.825L336.077 95.836V95.721C336.613 95.1997 336.974 94.778 337.158 94.456C337.357 94.134 337.457 93.7813 337.457 93.398C337.457 92.9993 337.365 92.639 337.181 92.317C336.997 91.995 336.69 91.834 336.261 91.834C335.985 91.834 335.755 91.8953 335.571 92.018C335.402 92.1253 335.233 92.2403 335.065 92.363C334.896 92.4857 334.666 92.547 334.375 92.547C334.022 92.547 333.731 92.4243 333.501 92.179C333.271 91.9337 333.156 91.6423 333.156 91.305C333.156 90.937 333.294 90.5383 333.57 90.109C333.846 89.6643 334.229 89.2503 334.72 88.867C335.226 88.4683 335.824 88.1463 336.514 87.901C337.219 87.6403 337.993 87.51 338.837 87.51C340.155 87.51 341.305 87.878 342.287 88.614C343.283 89.3347 344.196 90.5153 345.024 92.156L345.116 92.133C345.054 91.5503 345.016 90.9447 345.001 90.316C344.985 89.672 344.978 88.9053 344.978 88.016V87.74H347.278L348.658 89.12V89.304H346.565L346.749 102.989H346.496L344.932 101.77C344.932 101.448 344.932 101.026 344.932 100.505C344.932 99.9683 344.932 99.401 344.932 98.803C344.947 98.1897 344.955 97.6147 344.955 97.078C344.955 96.526 344.955 96.0737 344.955 95.721C344.955 95.353 344.955 95.1537 344.955 95.123C344.955 94.6323 344.832 94.0573 344.587 93.398C344.341 92.7387 343.996 92.11 343.552 91.512C342.586 92.3093 341.673 93.145 340.815 94.019C339.956 94.893 339.059 95.8283 338.124 96.825ZM338.469 93.444C338.944 92.9687 339.473 92.455 340.056 91.903C340.654 91.351 341.344 90.7377 342.126 90.063C341.742 89.787 341.328 89.5647 340.884 89.396C340.439 89.2273 339.971 89.143 339.481 89.143C338.883 89.143 338.277 89.2733 337.664 89.534C337.066 89.7793 336.56 90.155 336.146 90.661L336.192 90.73C336.82 90.7607 337.349 90.983 337.779 91.397C338.208 91.811 338.423 92.3783 338.423 93.099C338.423 93.1143 338.423 93.145 338.423 93.191C338.423 93.237 338.415 93.306 338.4 93.398L338.469 93.444ZM352.699 102.989H352.446L350.859 101.77V93.835C350.859 93.0223 350.798 92.2787 350.675 91.604C350.552 90.914 350.307 90.362 349.939 89.948C349.586 89.5187 349.057 89.304 348.352 89.304L347.271 87.924V87.74H347.501C348.084 87.74 348.59 87.8013 349.019 87.924C349.448 88.0467 349.824 88.2997 350.146 88.683C350.483 89.0663 350.79 89.6413 351.066 90.408L351.135 90.385C351.074 89.9863 351.035 89.6337 351.02 89.327C351.005 89.005 350.997 88.614 350.997 88.154V85.095H351.158L352.147 85.808L352.17 86.406C352.216 86.912 352.293 87.2647 352.4 87.464C352.523 87.648 352.768 87.74 353.136 87.74L354.516 89.12V89.304H353.55C353.243 89.304 352.998 89.2427 352.814 89.12C352.645 88.9973 352.5 88.8593 352.377 88.706L352.285 88.752L352.699 102.989ZM365.237 102.759H364.984L364.34 102.368C364.064 101.601 363.581 100.827 362.891 100.045C362.201 99.2477 361.327 98.55 360.269 97.952C359.226 97.354 358.015 96.963 356.635 96.779L354.818 94.502C356.351 93.5667 357.831 92.731 359.257 91.995C360.698 91.2437 362.04 90.6073 363.282 90.086V89.304H354.749L353.369 87.924V87.74H365.674L367.054 89.12V89.304H365.099V97.216C365.099 98.09 365.106 98.941 365.122 99.769C365.137 100.597 365.175 101.594 365.237 102.759ZM363.282 92.294C362.362 92.6927 361.442 93.122 360.522 93.582C359.602 94.0267 358.712 94.525 357.854 95.077L357.877 95.146C358.781 95.4833 359.701 95.9587 360.637 96.572C361.572 97.17 362.507 98.0517 363.443 99.217L363.512 99.171C363.404 98.6037 363.335 97.7373 363.305 96.572C363.289 95.4067 363.282 93.9807 363.282 92.294ZM359.119 102.092C358.72 102.092 358.383 101.954 358.107 101.678C357.831 101.387 357.693 101.049 357.693 100.666C357.693 100.267 357.831 99.9377 358.107 99.677C358.383 99.401 358.72 99.263 359.119 99.263C359.517 99.263 359.847 99.401 360.108 99.677C360.384 99.9377 360.522 100.267 360.522 100.666C360.522 101.049 360.384 101.387 360.108 101.678C359.847 101.954 359.517 102.092 359.119 102.092ZM373.681 102.782C372.853 102.782 372.102 102.575 371.427 102.161C370.768 101.762 370.208 101.226 369.748 100.551C369.288 99.861 368.936 99.102 368.69 98.274C368.445 97.4307 368.322 96.572 368.322 95.698C368.322 94.4713 368.568 93.306 369.058 92.202C369.564 91.098 370.316 90.155 371.312 89.373L371.289 89.304H367.287L365.907 87.924V87.74H375.222L376.602 89.12V89.304C375.79 89.304 375 89.465 374.233 89.787C373.467 90.109 372.777 90.592 372.163 91.236C371.565 91.8647 371.082 92.6467 370.714 93.582C370.362 94.502 370.185 95.5677 370.185 96.779C370.185 97.6837 370.293 98.5117 370.507 99.263C370.737 99.999 371.067 100.582 371.496 101.011C371.941 101.44 372.478 101.655 373.106 101.655C373.122 101.655 373.16 101.655 373.221 101.655C373.283 101.64 373.344 101.624 373.405 101.609V101.563C373.252 101.41 373.137 101.241 373.06 101.057C372.984 100.858 372.945 100.658 372.945 100.459C372.945 100.076 373.083 99.7307 373.359 99.424C373.635 99.102 374.026 98.941 374.532 98.941C375.008 98.941 375.429 99.0943 375.797 99.401C376.181 99.6923 376.372 100.129 376.372 100.712C376.372 101.325 376.119 101.824 375.613 102.207C375.107 102.59 374.463 102.782 373.681 102.782ZM387.327 102.759H387.074L386.43 102.368C386.154 101.601 385.671 100.827 384.981 100.045C384.291 99.2477 383.417 98.55 382.359 97.952C381.316 97.354 380.105 96.963 378.725 96.779L376.908 94.502C378.441 93.5667 379.921 92.731 381.347 91.995C382.788 91.2437 384.13 90.6073 385.372 90.086V89.304H376.839L375.459 87.924V87.74H387.764L389.144 89.12V89.304H387.189V97.216C387.189 98.09 387.196 98.941 387.212 99.769C387.227 100.597 387.265 101.594 387.327 102.759ZM385.372 92.294C384.452 92.6927 383.532 93.122 382.612 93.582C381.692 94.0267 380.802 94.525 379.944 95.077L379.967 95.146C380.871 95.4833 381.791 95.9587 382.727 96.572C383.662 97.17 384.597 98.0517 385.533 99.217L385.602 99.171C385.494 98.6037 385.425 97.7373 385.395 96.572C385.379 95.4067 385.372 93.9807 385.372 92.294ZM400.693 102.759H400.44L399.773 102.345C399.681 101.854 399.543 101.272 399.359 100.597C399.191 99.9223 398.961 99.2323 398.669 98.527C398.393 97.8063 398.048 97.1317 397.634 96.503C397.22 95.8743 396.73 95.353 396.162 94.939C395.61 94.525 394.959 94.2873 394.207 94.226L394.184 94.295C394.506 94.4943 394.752 94.755 394.92 95.077C395.089 95.3837 395.173 95.7133 395.173 96.066C395.173 96.6027 394.966 97.101 394.552 97.561C394.154 98.021 393.579 98.251 392.827 98.251C392.03 98.251 391.394 97.9903 390.918 97.469C390.443 96.9323 390.205 96.296 390.205 95.56C390.205 94.778 390.504 94.0957 391.102 93.513C391.7 92.915 392.559 92.616 393.678 92.616C394.276 92.616 394.882 92.7387 395.495 92.984C396.124 93.2293 396.73 93.674 397.312 94.318C397.895 94.9467 398.424 95.8513 398.899 97.032L398.968 97.009C398.907 96.5797 398.853 96.0277 398.807 95.353C398.761 94.6783 398.738 93.697 398.738 92.409V89.304H389.377L387.997 87.924V87.74H401.153L402.533 89.12V89.304H400.578V97.216C400.578 98.09 400.586 98.941 400.601 99.769C400.617 100.597 400.647 101.594 400.693 102.759Z" fill="white"/>
<ellipse cx="84.6552" cy="82" rx="84.6552" ry="82" fill="#E25A6F"/>
<path d="M58.2593 79L56.8226 76.6009C53.4091 70.9067 53.7068 61.7436 60.9804 55.9608C64.2955 53.2646 68.5621 51.8543 72.9268 52.0119C77.2915 52.1695 81.4326 53.8834 84.5217 56.8108C90.9298 62.7183 90.9263 71.3957 87.6652 76.5746L86.6024 78.278L85.138 76.8864C85.0624 76.8176 84.9929 76.7429 84.9302 76.6633L84.7744 76.4532C83.3653 74.0529 81.2281 72.1092 78.6399 70.8739C78.174 70.6671 77.8109 70.2971 77.6269 69.8417C77.4429 69.3864 77.4523 68.8811 77.6532 68.4322C77.9807 67.557 78.0654 66.6167 77.899 65.7016C77.4109 62.9743 74.4786 60.9034 71.619 61.2808C68.389 61.7042 66.1733 64.3297 66.5819 67.2605C66.6377 67.6464 66.7174 68.0289 66.8207 68.4059C66.8692 68.6094 66.9211 68.8161 66.9696 69.0262L67.2362 70.2011L66.0799 70.7295C63.3417 71.9895 61.0913 74.0345 59.6476 76.5746L58.2593 79ZM80.9663 68.5798C82.8965 69.6281 84.5998 71.0134 85.9861 72.6626C86.7541 70.2815 86.8127 67.7455 86.1553 65.3349C85.4979 62.9243 84.1501 60.733 82.2611 59.0031C79.744 56.6129 76.3669 55.213 72.8068 55.0839C69.2467 54.9549 65.7667 56.1063 63.0645 58.3074C60.9097 60.0102 59.331 62.2765 58.5251 64.8239C57.7193 67.3712 57.722 70.0871 58.5328 72.633C59.9154 70.9846 61.6138 69.5983 63.5388 68.547C63.473 68.2582 63.4142 67.9596 63.3726 67.6445C62.7425 63.1154 66.2495 58.8916 71.1863 58.2581C75.7734 57.6411 80.3051 60.8246 81.084 65.1994C81.284 66.3223 81.244 67.4719 80.9663 68.5798Z" fill="#F0F0F0"/>
<path d="M72.2954 85C76.3884 84.9888 80.3233 83.4373 83.2987 80.6614C83.4501 80.5617 83.5582 80.4095 83.6016 80.2349C83.645 80.0603 83.6205 79.876 83.533 79.7184C82.9401 78.2421 82.0568 76.8965 80.9341 75.7593C79.8115 74.6221 78.4719 73.7159 76.9926 73.093C76.8566 73.0236 76.704 72.992 76.5512 73.0017C76.3983 73.0115 76.2511 73.0621 76.1252 73.1483C73.551 74.6267 70.9664 74.6095 68.3712 73.1483C68.252 73.0853 68.1212 73.0467 67.9866 73.0348C67.852 73.0229 67.7163 73.038 67.5877 73.0792C66.0951 73.6964 64.743 74.6028 63.6112 75.7449C62.4794 76.887 61.591 78.2417 60.9984 79.7287C60.9143 79.878 60.8892 80.0528 60.9279 80.2193C60.9667 80.3858 61.0665 80.5323 61.2082 80.6303C64.1998 83.4372 68.1691 85.0016 72.2954 85Z" fill="#F0F0F0"/>
<path d="M68.1409 66.5294C68.1161 66.972 68.2016 67.4142 68.3925 67.8299C68.5833 68.2455 68.8756 68.6263 69.2522 68.9496C69.6287 69.273 70.0818 69.5324 70.5849 69.7127C71.088 69.893 71.6308 69.9904 72.1814 69.9993C72.732 70.0082 73.2793 69.9284 73.7909 69.7644C74.3026 69.6005 74.7683 69.3559 75.1606 69.0449C75.5529 68.734 75.864 68.363 76.0754 67.9538C76.2868 67.5447 76.3943 67.1056 76.3915 66.6625C76.3958 66.5988 76.3958 66.535 76.3915 66.4714C76.4164 66.0291 76.3312 65.5872 76.1408 65.1718C75.9504 64.7565 75.6587 64.3759 75.2828 64.0525C74.907 63.7292 74.4545 63.4695 73.9521 63.2889C73.4498 63.1083 72.9076 63.0103 72.3574 63.0008C71.8073 62.9912 71.2604 63.0703 70.7488 63.2333C70.2372 63.3963 69.7712 63.6399 69.3784 63.9499C68.9855 64.2599 68.6736 64.63 68.4611 65.0384C68.2486 65.4468 68.1397 65.8853 68.1409 66.328V66.5294Z" fill="#F0F0F0"/>
<path d="M64.3615 113C62.2554 112.998 60.2229 112.249 58.6477 110.894C57.0725 109.54 56.0634 107.674 55.8109 105.649C55.7697 105.306 55.7491 104.962 55.749 104.617V96.5641C55.7483 95.5966 56.1298 94.6656 56.8152 93.962C57.5007 93.2584 58.4381 92.8356 59.4352 92.7804C63.3412 92.5973 69.2191 91.0133 70.9299 90.5308C71.6642 90.3236 72.4474 90.3476 73.1667 90.5994C73.886 90.8512 74.5041 91.3177 74.9321 91.9318L76.7219 94.4842C79.3912 93.0932 85.86 89.4925 90.6695 84.8336C95.6164 80.0416 99.2579 73.8785 100.656 71.3261L98.0074 69.5857C97.3712 69.1745 96.8867 68.5777 96.6242 67.8818C96.3617 67.1859 96.3348 66.4272 96.5474 65.7155C97.0489 64.0516 98.6945 58.3511 98.8765 54.5807C98.9318 53.6139 99.3669 52.7043 100.093 52.0385C100.818 51.3726 101.78 51.0011 102.779 51H111.134C113.414 51.0026 115.6 51.8789 117.216 53.4376C118.832 54.9963 119.745 57.1108 119.757 59.3195C119.756 59.662 119.736 60.0042 119.695 60.3444C118.986 65.6969 117.539 70.9329 115.39 75.9118C112.228 83.2693 107.594 89.9478 101.755 95.5624C95.9546 101.22 89.0572 105.712 81.4593 108.78C76.3237 110.855 70.9246 112.254 65.4058 112.94C65.0592 112.979 64.7105 112.999 64.3615 113ZM71.9193 93.5025C71.8828 93.4974 71.8458 93.4974 71.8093 93.5025C70.0195 94.0083 63.8359 95.6689 59.5932 95.8719C59.4182 95.8821 59.2539 95.9567 59.1338 96.0804C59.0137 96.2041 58.947 96.3676 58.9473 96.5374V104.617C58.9428 105.362 59.1019 106.099 59.414 106.779C59.7262 107.459 60.1843 108.067 60.7579 108.563C61.3315 109.058 62.0074 109.43 62.7406 109.653C63.4739 109.875 64.2478 109.945 65.0108 109.855C70.242 109.207 75.3595 107.881 80.226 105.912C87.4275 103 93.965 98.7398 99.464 93.376C105.003 88.0446 109.401 81.7059 112.405 74.7238C114.446 70.0064 115.823 65.0446 116.5 59.9717C116.527 59.762 116.539 59.5508 116.538 59.3394C116.533 57.9499 115.96 56.6188 114.944 55.6382C113.927 54.6575 112.551 54.1073 111.117 54.1082H102.783C102.603 54.1018 102.428 54.1636 102.295 54.2806C102.162 54.3975 102.082 54.5602 102.071 54.7338C101.872 58.8336 100.144 64.8303 99.6186 66.5707C99.5978 66.648 99.6025 66.7297 99.6321 66.8043C99.6616 66.8789 99.7146 66.9427 99.7835 66.9867L104.744 70.2512L104.153 71.4559C103.971 71.822 99.6873 80.4409 92.9127 87.0033C86.3478 93.3627 77.2612 97.7022 76.8765 97.8819L75.6295 98.4742L72.2628 93.6689C72.2258 93.6166 72.176 93.574 72.1179 93.545C72.0597 93.5159 71.995 93.5013 71.9296 93.5025H71.9193Z" fill="#F0F0F0"/>
</svg>
