<svg width="546" height="164" viewBox="0 0 546 164" fill="none" xmlns="http://www.w3.org/2000/svg">
<path d="M121 11H476C514.66 11 546 42.3401 546 81C546 119.66 514.66 151 476 151H121V11Z" fill="#137EB9"/>
<path d="M185.409 67.896L183.473 66.95V66.84C183.898 66.4147 184.199 66.0553 184.375 65.762C184.551 65.4687 184.639 65.1387 184.639 64.772C184.639 64.3907 184.551 64.046 184.375 63.738C184.199 63.43 183.906 63.276 183.495 63.276C183.231 63.276 183.018 63.3347 182.857 63.452C182.696 63.5547 182.534 63.6647 182.373 63.782C182.212 63.8847 181.992 63.936 181.713 63.936C181.376 63.936 181.097 63.8187 180.877 63.584C180.657 63.3493 180.547 63.0707 180.547 62.748C180.547 62.396 180.672 62.0147 180.921 61.604C181.185 61.1787 181.552 60.7827 182.021 60.416C182.505 60.0347 183.077 59.7267 183.737 59.492C184.412 59.2573 185.152 59.14 185.959 59.14C187.22 59.14 188.306 59.4773 189.215 60.152C190.124 60.8267 190.938 61.8973 191.657 63.364L191.745 63.342C191.686 62.77 191.65 62.22 191.635 61.692C191.62 61.164 191.613 60.4747 191.613 59.624V59.36H193.835L195.155 60.68V60.856H193.285V69.15C193.285 69.194 193.285 69.4433 193.285 69.898C193.3 70.338 193.314 70.91 193.329 71.614C193.358 72.318 193.395 73.0953 193.439 73.946H193.197L192.581 73.572C192.39 73 192.163 72.5453 191.899 72.208C191.65 71.856 191.32 71.5993 190.909 71.438C190.498 71.2767 189.956 71.196 189.281 71.196C188.973 71.196 188.584 71.2107 188.115 71.24C187.646 71.2693 187.147 71.306 186.619 71.35C186.106 71.3793 185.614 71.4087 185.145 71.438C184.676 71.4673 184.287 71.482 183.979 71.482C183.04 71.482 182.204 71.328 181.471 71.02C180.752 70.6973 180.188 70.25 179.777 69.678C179.366 69.0913 179.161 68.3947 179.161 67.588C179.161 67.1187 179.227 66.642 179.359 66.158C179.506 65.674 179.696 65.2413 179.931 64.86H180.129L180.635 65.19C180.488 65.5127 180.378 65.8427 180.305 66.18C180.232 66.5027 180.195 66.8107 180.195 67.104C180.195 67.9107 180.459 68.534 180.987 68.974C181.515 69.414 182.388 69.634 183.605 69.634C183.957 69.634 184.39 69.6193 184.903 69.59C185.431 69.5607 185.966 69.5313 186.509 69.502C187.052 69.4727 187.514 69.458 187.895 69.458C188.672 69.458 189.376 69.568 190.007 69.788C190.638 69.9933 191.29 70.4627 191.965 71.196L192.053 71.152C191.892 70.8587 191.774 70.4993 191.701 70.074C191.628 69.6487 191.591 69.194 191.591 68.71V66.202C191.591 65.7033 191.488 65.168 191.283 64.596C191.078 64.024 190.792 63.4813 190.425 62.968C189.53 63.716 188.694 64.486 187.917 65.278C187.154 66.0553 186.318 66.928 185.409 67.896ZM185.585 64.816C186.23 64.2 186.817 63.65 187.345 63.166C187.888 62.6673 188.474 62.1393 189.105 61.582C188.738 61.318 188.342 61.1053 187.917 60.944C187.492 60.7827 187.044 60.702 186.575 60.702C186.003 60.702 185.424 60.8267 184.837 61.076C184.265 61.3107 183.781 61.67 183.385 62.154L183.429 62.22C184.03 62.2493 184.536 62.462 184.947 62.858C185.358 63.254 185.563 63.7967 185.563 64.486C185.563 64.5007 185.563 64.53 185.563 64.574C185.563 64.618 185.556 64.684 185.541 64.772L185.585 64.816ZM199.026 73.946H198.784L197.266 72.78V65.19C197.266 64.4127 197.207 63.7013 197.09 63.056C196.973 62.396 196.738 61.868 196.386 61.472C196.049 61.0613 195.543 60.856 194.868 60.856L193.834 59.536V59.36H194.054C194.611 59.36 195.095 59.4187 195.506 59.536C195.917 59.6533 196.276 59.8953 196.584 60.262C196.907 60.6287 197.2 61.1787 197.464 61.912L197.53 61.89C197.471 61.5087 197.435 61.1713 197.42 60.878C197.405 60.57 197.398 60.196 197.398 59.756V56.83H197.552L198.498 57.512L198.52 58.084C198.564 58.568 198.637 58.9053 198.74 59.096C198.857 59.272 199.092 59.36 199.444 59.36L200.764 60.68V60.856H199.84C199.547 60.856 199.312 60.7973 199.136 60.68C198.975 60.5627 198.835 60.4307 198.718 60.284L198.63 60.328L199.026 73.946ZM206.464 67.06V67.126C207.33 67.4927 208.136 67.9767 208.884 68.578C209.647 69.1647 210.351 69.8173 210.996 70.536L211.062 70.492C211.004 70.096 210.96 69.6267 210.93 69.084C210.916 68.5413 210.901 67.874 210.886 67.082C210.886 66.2753 210.886 65.278 210.886 64.09V59.36H213.13L214.45 60.68V60.856H212.58V68.424C212.58 69.26 212.588 70.074 212.602 70.866C212.617 71.658 212.646 72.6113 212.69 73.726H212.448L211.854 73.352C211.693 72.868 211.4 72.34 210.974 71.768C210.549 71.196 209.999 70.6607 209.324 70.162C208.65 69.6487 207.85 69.2307 206.926 68.908C206.002 68.5853 204.968 68.424 203.824 68.424L202.548 66.048L202.636 65.96C202.71 65.9747 202.768 65.982 202.812 65.982C202.856 65.982 202.886 65.982 202.9 65.982C203.516 65.982 204.14 65.8793 204.77 65.674C205.416 65.4687 206.002 65.19 206.53 64.838C207.073 64.4713 207.506 64.068 207.828 63.628C208.151 63.1733 208.312 62.704 208.312 62.22C208.312 61.8093 208.18 61.45 207.916 61.142C207.652 60.834 207.256 60.68 206.728 60.68C206.347 60.68 205.958 60.7827 205.562 60.988C205.181 61.1787 204.844 61.4573 204.55 61.824C204.741 61.9853 204.873 62.1687 204.946 62.374C205.02 62.5793 205.056 62.7847 205.056 62.99C205.056 63.4153 204.91 63.7893 204.616 64.112C204.338 64.4347 203.927 64.596 203.384 64.596C202.812 64.596 202.343 64.4127 201.976 64.046C201.61 63.6793 201.426 63.2173 201.426 62.66C201.426 62.132 201.595 61.6187 201.932 61.12C202.27 60.6067 202.739 60.1887 203.34 59.866C203.956 59.5287 204.668 59.36 205.474 59.36C206.369 59.36 207.139 59.5653 207.784 59.976C208.43 60.372 208.921 60.878 209.258 61.494C209.61 62.0953 209.786 62.7113 209.786 63.342C209.786 64.178 209.486 64.926 208.884 65.586C208.283 66.2313 207.476 66.7227 206.464 67.06ZM218.285 73.946H218.043L216.547 72.78L216.591 60.856H214.677L213.357 59.536V59.36H216.525C216.188 58.9493 215.872 58.5827 215.579 58.26C215.3 57.9227 215.161 57.4973 215.161 56.984C215.161 56.3973 215.381 55.8327 215.821 55.29C216.276 54.7327 216.899 54.278 217.691 53.926C218.483 53.5593 219.407 53.376 220.463 53.376C221.431 53.376 222.421 53.552 223.433 53.904C224.46 54.256 225.45 54.7693 226.403 55.444C227.371 56.104 228.236 56.896 228.999 57.82L228.801 58.59H228.647C227.459 57.2847 226.249 56.3607 225.017 55.818C223.8 55.2607 222.612 54.982 221.453 54.982C220.514 54.982 219.708 55.1213 219.033 55.4C218.373 55.664 217.867 56.016 217.515 56.456C217.163 56.8813 216.987 57.3507 216.987 57.864C216.987 58.0987 217.031 58.3333 217.119 58.568C217.207 58.788 217.376 59.052 217.625 59.36H218.791L220.111 60.68V60.856H218.109L218.285 73.946ZM231.465 73.726H231.223L230.629 73.352C230.453 72.7947 230.211 72.2227 229.903 71.636C229.595 71.0347 229.191 70.47 228.693 69.942C228.209 69.3993 227.585 68.9373 226.823 68.556C226.573 68.9813 226.236 69.348 225.811 69.656C225.385 69.9493 224.879 70.096 224.293 70.096C223.501 70.096 222.899 69.8613 222.489 69.392C222.078 68.908 221.873 68.38 221.873 67.808C221.873 67.2507 222.071 66.7447 222.467 66.29C222.877 65.8207 223.457 65.586 224.205 65.586C224.63 65.586 225.077 65.6887 225.547 65.894C225.708 65.7767 225.789 65.564 225.789 65.256C225.789 64.8307 225.613 64.4127 225.261 64.002C224.909 63.5767 224.469 63.188 223.941 62.836C223.413 62.484 222.877 62.1907 222.335 61.956C221.792 61.7067 221.33 61.5453 220.949 61.472L219.013 59.536V59.36H231.905L233.225 60.68V60.856H231.355V68.424C231.355 69.26 231.362 70.074 231.377 70.866C231.391 71.658 231.421 72.6113 231.465 73.726ZM229.617 60.856H223.699L223.677 60.9C225.041 61.9853 225.994 63.0193 226.537 64.002C227.094 64.97 227.373 65.8573 227.373 66.664C227.373 66.8107 227.358 66.9647 227.329 67.126C227.798 67.5513 228.238 68.0133 228.649 68.512C229.059 69.0107 229.419 69.4947 229.727 69.964L229.793 69.92C229.734 69.5533 229.69 69.1207 229.661 68.622C229.646 68.1233 229.631 67.5147 229.617 66.796C229.617 66.0627 229.617 65.1607 229.617 64.09V60.856ZM243.079 73.726H242.837L242.221 73.352C241.987 72.604 241.547 71.8487 240.901 71.086C240.271 70.3087 239.464 69.6267 238.481 69.04C237.499 68.4533 236.369 68.0647 235.093 67.874L233.355 65.696C234.162 65.1973 235.005 64.706 235.885 64.222C236.78 63.7233 237.675 63.276 238.569 62.88C239.479 62.4693 240.373 62.1467 241.253 61.912V60.856H233.443L232.123 59.536V59.36H248.073L249.393 60.68V60.856H242.991V61.868C243.607 61.912 244.209 62.0733 244.795 62.352C245.397 62.616 245.939 62.9827 246.423 63.452C246.922 63.9067 247.311 64.4347 247.589 65.036C247.883 65.6227 248.029 66.268 248.029 66.972C248.029 67.6027 247.912 68.1233 247.677 68.534C247.457 68.93 247.171 69.2307 246.819 69.436C246.482 69.6267 246.13 69.722 245.763 69.722C245.309 69.722 244.905 69.5827 244.553 69.304C244.201 69.0253 244.025 68.644 244.025 68.16C244.025 67.6907 244.179 67.324 244.487 67.06C244.795 66.796 245.14 66.664 245.521 66.664C245.8 66.664 246.071 66.7447 246.335 66.906C246.614 67.0527 246.834 67.2873 246.995 67.61C247.142 67.3607 247.215 67.0967 247.215 66.818C247.215 66.378 247.025 65.9307 246.643 65.476C246.277 65.0067 245.771 64.6033 245.125 64.266C244.48 63.9287 243.769 63.738 242.991 63.694V68.424C242.991 69.26 242.991 70.074 242.991 70.866C243.006 71.658 243.035 72.6113 243.079 73.726ZM241.253 63.848C240.652 64.0387 240.043 64.2733 239.427 64.552C238.811 64.816 238.225 65.102 237.667 65.41C237.11 65.7033 236.633 65.9747 236.237 66.224L236.259 66.29C237.095 66.6273 237.946 67.104 238.811 67.72C239.691 68.3213 240.557 69.194 241.407 70.338H241.495C241.393 69.8687 241.327 69.0987 241.297 68.028C241.268 66.9573 241.253 65.564 241.253 63.848ZM262.338 67.896L260.402 66.95V66.84C260.827 66.4147 261.128 66.0553 261.304 65.762C261.48 65.4687 261.568 65.1387 261.568 64.772C261.568 64.3907 261.48 64.046 261.304 63.738C261.128 63.43 260.834 63.276 260.424 63.276C260.16 63.276 259.947 63.3347 259.786 63.452C259.624 63.5547 259.463 63.6647 259.302 63.782C259.14 63.8847 258.92 63.936 258.642 63.936C258.304 63.936 258.026 63.8187 257.806 63.584C257.586 63.3493 257.476 63.0707 257.476 62.748C257.476 62.396 257.6 62.0147 257.85 61.604C258.114 61.1787 258.48 60.7827 258.95 60.416C259.434 60.0347 260.006 59.7267 260.666 59.492C261.34 59.2573 262.081 59.14 262.888 59.14C264.149 59.14 265.234 59.4773 266.144 60.152C267.053 60.8267 267.867 61.8973 268.586 63.364L268.674 63.342C268.615 62.77 268.578 62.22 268.564 61.692C268.549 61.164 268.542 60.4747 268.542 59.624V59.36H270.764L272.084 60.68V60.856H270.214V69.15C270.214 69.194 270.214 69.4433 270.214 69.898C270.228 70.338 270.243 70.91 270.258 71.614C270.287 72.318 270.324 73.0953 270.368 73.946H270.126L269.51 73.572C269.319 73 269.092 72.5453 268.828 72.208C268.578 71.856 268.248 71.5993 267.838 71.438C267.427 71.2767 266.884 71.196 266.21 71.196C265.902 71.196 265.513 71.2107 265.044 71.24C264.574 71.2693 264.076 71.306 263.548 71.35C263.034 71.3793 262.543 71.4087 262.074 71.438C261.604 71.4673 261.216 71.482 260.908 71.482C259.969 71.482 259.133 71.328 258.4 71.02C257.681 70.6973 257.116 70.25 256.706 69.678C256.295 69.0913 256.09 68.3947 256.09 67.588C256.09 67.1187 256.156 66.642 256.288 66.158C256.434 65.674 256.625 65.2413 256.86 64.86H257.058L257.564 65.19C257.417 65.5127 257.307 65.8427 257.234 66.18C257.16 66.5027 257.124 66.8107 257.124 67.104C257.124 67.9107 257.388 68.534 257.916 68.974C258.444 69.414 259.316 69.634 260.534 69.634C260.886 69.634 261.318 69.6193 261.832 69.59C262.36 69.5607 262.895 69.5313 263.438 69.502C263.98 69.4727 264.442 69.458 264.824 69.458C265.601 69.458 266.305 69.568 266.936 69.788C267.566 69.9933 268.219 70.4627 268.894 71.196L268.982 71.152C268.82 70.8587 268.703 70.4993 268.63 70.074C268.556 69.6487 268.52 69.194 268.52 68.71V66.202C268.52 65.7033 268.417 65.168 268.212 64.596C268.006 64.024 267.72 63.4813 267.354 62.968C266.459 63.716 265.623 64.486 264.846 65.278C264.083 66.0553 263.247 66.928 262.338 67.896ZM262.514 64.816C263.159 64.2 263.746 63.65 264.274 63.166C264.816 62.6673 265.403 62.1393 266.034 61.582C265.667 61.318 265.271 61.1053 264.846 60.944C264.42 60.7827 263.973 60.702 263.504 60.702C262.932 60.702 262.352 60.8267 261.766 61.076C261.194 61.3107 260.71 61.67 260.314 62.154L260.358 62.22C260.959 62.2493 261.465 62.462 261.876 62.858C262.286 63.254 262.492 63.7967 262.492 64.486C262.492 64.5007 262.492 64.53 262.492 64.574C262.492 64.618 262.484 64.684 262.47 64.772L262.514 64.816ZM282.225 73.638C280.978 73.638 279.746 73.2493 278.529 72.472C277.326 71.6947 276.204 70.4407 275.163 68.71C274.121 66.9647 273.219 64.662 272.457 61.802H272.677L273.337 62C273.923 63.8333 274.554 65.366 275.229 66.598C275.918 67.83 276.629 68.8127 277.363 69.546C278.111 70.2647 278.866 70.7853 279.629 71.108C280.391 71.416 281.154 71.57 281.917 71.57C282.694 71.57 283.347 71.4453 283.875 71.196C284.417 70.932 284.821 70.5947 285.085 70.184C285.363 69.7733 285.503 69.3333 285.503 68.864C285.503 68.2627 285.305 67.7493 284.909 67.324C284.527 66.884 284.065 66.664 283.523 66.664C283.361 66.664 283.193 66.686 283.017 66.73C283.266 66.906 283.442 67.1187 283.545 67.368C283.662 67.6027 283.721 67.852 283.721 68.116C283.721 68.6733 283.523 69.0987 283.127 69.392C282.745 69.6853 282.32 69.832 281.851 69.832C281.323 69.832 280.831 69.6633 280.377 69.326C279.937 68.974 279.717 68.468 279.717 67.808C279.717 67.1187 279.988 66.5393 280.531 66.07C281.073 65.586 281.726 65.3073 282.489 65.234L282.511 65.168C281.939 64.8747 281.469 64.4347 281.103 63.848C280.751 63.2613 280.479 62.6307 280.289 61.956H280.223C279.871 63.0853 279.533 63.914 279.211 64.442C278.903 64.9553 278.609 65.2853 278.331 65.432C278.067 65.564 277.825 65.63 277.605 65.63C276.475 65.63 275.515 64.838 274.723 63.254L275.383 62.748H275.537C275.727 63.2173 275.911 63.5253 276.087 63.672C276.277 63.8187 276.468 63.892 276.659 63.892C276.805 63.892 276.974 63.826 277.165 63.694C277.355 63.562 277.575 63.2833 277.825 62.858C278.074 62.4327 278.345 61.7653 278.639 60.856H272.303L270.983 59.536V59.36H286.999L288.319 60.68V60.856H285.767C286.06 61.1493 286.295 61.5013 286.471 61.912C286.647 62.308 286.735 62.7187 286.735 63.144C286.735 63.7893 286.522 64.3247 286.097 64.75C285.671 65.1753 285.121 65.4173 284.447 65.476L284.425 65.542C285.114 65.85 285.664 66.3487 286.075 67.038C286.5 67.7273 286.713 68.5267 286.713 69.436C286.713 70.668 286.309 71.68 285.503 72.472C284.711 73.2493 283.618 73.638 282.225 73.638ZM283.545 60.856H280.751C280.809 61.296 280.956 61.7287 281.191 62.154C281.425 62.5793 281.733 62.9313 282.115 63.21C282.511 63.4887 282.965 63.628 283.479 63.628C283.992 63.628 284.403 63.4887 284.711 63.21C285.019 62.9313 285.173 62.6087 285.173 62.242C285.173 61.9193 285.041 61.6113 284.777 61.318C284.513 61.01 284.102 60.856 283.545 60.856ZM292.18 73.946H291.938L290.42 72.78V65.19C290.42 64.4127 290.362 63.7013 290.244 63.056C290.127 62.396 289.892 61.868 289.54 61.472C289.203 61.0613 288.697 60.856 288.022 60.856L286.988 59.536V59.36H287.208C287.766 59.36 288.25 59.4187 288.66 59.536C289.071 59.6533 289.43 59.8953 289.738 60.262C290.061 60.6287 290.354 61.1787 290.618 61.912L290.684 61.89C290.626 61.5087 290.589 61.1713 290.574 60.878C290.56 60.57 290.552 60.196 290.552 59.756V56.83H290.706L291.652 57.512L291.674 58.084C291.718 58.568 291.792 58.9053 291.894 59.096C292.012 59.272 292.246 59.36 292.598 59.36L293.918 60.68V60.856H292.994C292.701 60.856 292.466 60.7973 292.29 60.68C292.129 60.5627 291.99 60.4307 291.872 60.284L291.784 60.328L292.18 73.946ZM304.173 73.726H303.931L303.315 73.352C303.051 72.6187 302.589 71.878 301.929 71.13C301.269 70.3673 300.433 69.7 299.421 69.128C298.424 68.556 297.265 68.182 295.945 68.006L294.207 65.828C295.674 64.9333 297.089 64.134 298.453 63.43C299.832 62.7113 301.115 62.1027 302.303 61.604V60.856H294.141L292.821 59.536V59.36H304.591L305.911 60.68V60.856H304.041V68.424C304.041 69.26 304.048 70.074 304.063 70.866C304.078 71.658 304.114 72.6113 304.173 73.726ZM302.303 63.716C301.423 64.0973 300.543 64.508 299.663 64.948C298.783 65.3733 297.932 65.85 297.111 66.378L297.133 66.444C297.998 66.7667 298.878 67.2213 299.773 67.808C300.668 68.38 301.562 69.2233 302.457 70.338L302.523 70.294C302.42 69.7513 302.354 68.9227 302.325 67.808C302.31 66.6933 302.303 65.3293 302.303 63.716ZM316.931 68.05L314.973 67.104V66.994C315.487 66.4953 315.831 66.092 316.007 65.784C316.198 65.476 316.293 65.1387 316.293 64.772C316.293 64.3907 316.205 64.046 316.029 63.738C315.853 63.43 315.56 63.276 315.149 63.276C314.885 63.276 314.665 63.3347 314.489 63.452C314.328 63.5547 314.167 63.6647 314.005 63.782C313.844 63.8993 313.624 63.958 313.345 63.958C313.008 63.958 312.729 63.8407 312.509 63.606C312.289 63.3713 312.179 63.0927 312.179 62.77C312.179 62.418 312.311 62.0367 312.575 61.626C312.839 61.2007 313.206 60.8047 313.675 60.438C314.159 60.0567 314.731 59.7487 315.391 59.514C316.066 59.2647 316.807 59.14 317.613 59.14C318.875 59.14 319.975 59.492 320.913 60.196C321.867 60.8853 322.739 62.0147 323.531 63.584L323.619 63.562C323.561 63.0047 323.524 62.4253 323.509 61.824C323.495 61.208 323.487 60.4747 323.487 59.624V59.36H325.687L327.007 60.68V60.856H325.005L325.181 73.946H324.939L323.443 72.78C323.443 72.472 323.443 72.0687 323.443 71.57C323.443 71.0567 323.443 70.514 323.443 69.942C323.458 69.3553 323.465 68.8053 323.465 68.292C323.465 67.764 323.465 67.3313 323.465 66.994C323.465 66.642 323.465 66.4513 323.465 66.422C323.465 65.9527 323.348 65.4027 323.113 64.772C322.879 64.1413 322.549 63.54 322.123 62.968C321.199 63.7307 320.327 64.53 319.505 65.366C318.684 66.202 317.826 67.0967 316.931 68.05ZM317.261 64.816C317.716 64.3613 318.222 63.87 318.779 63.342C319.351 62.814 320.011 62.2273 320.759 61.582C320.393 61.318 319.997 61.1053 319.571 60.944C319.146 60.7827 318.699 60.702 318.229 60.702C317.657 60.702 317.078 60.8267 316.491 61.076C315.919 61.3107 315.435 61.67 315.039 62.154L315.083 62.22C315.685 62.2493 316.191 62.462 316.601 62.858C317.012 63.254 317.217 63.7967 317.217 64.486C317.217 64.5007 317.217 64.53 317.217 64.574C317.217 64.618 317.21 64.684 317.195 64.772L317.261 64.816ZM330.873 73.946H330.631L329.113 72.78V65.19C329.113 64.4127 329.054 63.7013 328.937 63.056C328.82 62.396 328.585 61.868 328.233 61.472C327.896 61.0613 327.39 60.856 326.715 60.856L325.681 59.536V59.36H325.901C326.458 59.36 326.942 59.4187 327.353 59.536C327.764 59.6533 328.123 59.8953 328.431 60.262C328.754 60.6287 329.047 61.1787 329.311 61.912L329.377 61.89C329.318 61.5087 329.282 61.1713 329.267 60.878C329.252 60.57 329.245 60.196 329.245 59.756V56.83H329.399L330.345 57.512L330.367 58.084C330.411 58.568 330.484 58.9053 330.587 59.096C330.704 59.272 330.939 59.36 331.291 59.36L332.611 60.68V60.856H331.687C331.394 60.856 331.159 60.7973 330.983 60.68C330.822 60.5627 330.682 60.4307 330.565 60.284L330.477 60.328L330.873 73.946ZM336.441 73.946H336.199L334.703 72.78L334.747 60.856H332.833L331.513 59.536V59.36H334.681C334.344 58.9493 334.029 58.5827 333.735 58.26C333.457 57.9227 333.317 57.4973 333.317 56.984C333.317 56.3973 333.537 55.8327 333.977 55.29C334.432 54.7327 335.055 54.278 335.847 53.926C336.639 53.5593 337.563 53.376 338.619 53.376C339.587 53.376 340.577 53.552 341.589 53.904C342.616 54.256 343.606 54.7693 344.559 55.444C345.527 56.104 346.393 56.896 347.155 57.82L346.957 58.59H346.803C345.615 57.2847 344.405 56.3607 343.173 55.818C341.956 55.2607 340.768 54.982 339.609 54.982C338.671 54.982 337.864 55.1213 337.189 55.4C336.529 55.664 336.023 56.016 335.671 56.456C335.319 56.8813 335.143 57.3507 335.143 57.864C335.143 58.0987 335.187 58.3333 335.275 58.568C335.363 58.788 335.532 59.052 335.781 59.36H336.947L338.267 60.68V60.856H336.265L336.441 73.946ZM343.615 72.912C342.779 72.912 342.053 72.7213 341.437 72.34C340.836 71.944 340.366 71.438 340.029 70.822C339.706 70.1913 339.545 69.5313 339.545 68.842C339.545 68.6367 339.56 68.3947 339.589 68.116C339.633 67.8373 339.692 67.5807 339.765 67.346C340.586 67.1407 341.32 66.752 341.965 66.18C342.61 65.608 343.124 64.9187 343.505 64.112C343.886 63.2907 344.077 62.418 344.077 61.494C344.077 61.2447 344.062 61.032 344.033 60.856H338.489L337.169 59.536V59.36H343.329C343.036 58.9053 342.706 58.3993 342.339 57.842C341.972 57.27 341.657 56.6833 341.393 56.082C341.129 55.466 340.997 54.8793 340.997 54.322C340.997 53.7207 341.158 53.2513 341.481 52.914C341.818 52.5767 342.236 52.408 342.735 52.408C343.072 52.408 343.395 52.496 343.703 52.672C344.011 52.848 344.246 53.1927 344.407 53.706L344.275 53.838C344.084 53.7793 343.886 53.75 343.681 53.75C343.3 53.75 342.992 53.86 342.757 54.08C342.522 54.2853 342.405 54.6007 342.405 55.026C342.405 55.6273 342.61 56.2947 343.021 57.028C343.432 57.7613 343.93 58.5387 344.517 59.36H348.521L349.841 60.68V60.856H345.617C346.042 61.4573 346.46 62.1173 346.871 62.836C347.296 63.54 347.648 64.2953 347.927 65.102C348.206 65.894 348.345 66.7227 348.345 67.588C348.345 68.6 348.14 69.5093 347.729 70.316C347.318 71.108 346.754 71.7387 346.035 72.208C345.331 72.6773 344.524 72.912 343.615 72.912ZM345.155 61.714L345.089 61.736C345.236 62.2787 345.309 62.8287 345.309 63.386C345.309 64.706 344.913 65.8793 344.121 66.906C343.344 67.9327 342.31 68.6807 341.019 69.15C341.004 69.2233 340.99 69.2967 340.975 69.37C340.975 69.4287 340.975 69.4653 340.975 69.48C340.975 70.1253 341.158 70.6313 341.525 70.998C341.906 71.3647 342.405 71.548 343.021 71.548C343.388 71.548 343.784 71.4747 344.209 71.328C344.649 71.1813 345.067 70.932 345.463 70.58C345.859 70.228 346.182 69.7587 346.431 69.172C346.68 68.5853 346.805 67.852 346.805 66.972C346.805 65.9747 346.644 65.0213 346.321 64.112C345.998 63.188 345.61 62.3887 345.155 61.714ZM356.169 73.748C355.377 73.748 354.658 73.55 354.013 73.154C353.382 72.7727 352.847 72.2593 352.407 71.614C351.967 70.954 351.629 70.228 351.395 69.436C351.16 68.6293 351.043 67.808 351.043 66.972C351.043 65.7987 351.277 64.684 351.747 63.628C352.231 62.572 352.949 61.67 353.903 60.922L353.881 60.856H350.053L348.733 59.536V59.36H357.643L358.963 60.68V60.856C358.185 60.856 357.43 61.01 356.697 61.318C355.963 61.626 355.303 62.088 354.717 62.704C354.145 63.3053 353.683 64.0533 353.331 64.948C352.993 65.828 352.825 66.8473 352.825 68.006C352.825 68.8713 352.927 69.6633 353.133 70.382C353.353 71.086 353.668 71.6433 354.079 72.054C354.504 72.4647 355.017 72.67 355.619 72.67C355.633 72.67 355.67 72.67 355.729 72.67C355.787 72.6553 355.846 72.6407 355.905 72.626V72.582C355.758 72.4353 355.648 72.274 355.575 72.098C355.501 71.9073 355.465 71.7167 355.465 71.526C355.465 71.1593 355.597 70.8293 355.861 70.536C356.125 70.228 356.499 70.074 356.983 70.074C357.437 70.074 357.841 70.2207 358.193 70.514C358.559 70.7927 358.743 71.2107 358.743 71.768C358.743 72.3547 358.501 72.8313 358.017 73.198C357.533 73.5647 356.917 73.748 356.169 73.748ZM369.859 73.726H369.617L369.001 73.352C368.737 72.6187 368.275 71.9073 367.615 71.218C366.969 70.514 366.148 69.9053 365.151 69.392C364.153 68.8787 362.987 68.5413 361.653 68.38L360.047 66.334C360.765 65.7913 361.477 65.2853 362.181 64.816C362.885 64.332 363.567 63.8773 364.227 63.452C363.713 62.9093 363.229 62.4987 362.775 62.22C362.32 61.9413 361.851 61.7433 361.367 61.626C360.897 61.5087 360.369 61.45 359.783 61.45L357.869 59.536V59.36H370.277L371.597 60.68V60.856H369.727V68.424C369.727 69.26 369.734 70.074 369.749 70.866C369.763 71.658 369.8 72.6113 369.859 73.726ZM367.989 60.856H362.973L362.951 60.9C363.567 61.4133 364.168 61.9707 364.755 62.572C365.341 63.1587 365.899 63.7747 366.427 64.42C365.796 64.816 365.173 65.212 364.557 65.608C363.955 66.004 363.376 66.4147 362.819 66.84L362.841 66.906C363.691 67.1847 364.571 67.6027 365.481 68.16C366.405 68.7027 367.292 69.458 368.143 70.426L368.209 70.382C368.106 69.854 368.04 69.018 368.011 67.874C367.996 66.7153 367.989 65.3293 367.989 63.716V60.856ZM363.963 73.088C363.581 73.088 363.259 72.956 362.995 72.692C362.731 72.4133 362.599 72.0907 362.599 71.724C362.599 71.3427 362.731 71.0273 362.995 70.778C363.259 70.514 363.581 70.382 363.963 70.382C364.344 70.382 364.659 70.514 364.909 70.778C365.173 71.0273 365.305 71.3427 365.305 71.724C365.305 72.0907 365.173 72.4133 364.909 72.692C364.659 72.956 364.344 73.088 363.963 73.088ZM385.33 70.91C384.376 70.91 383.423 70.6093 382.47 70.008C381.516 69.392 380.614 68.4167 379.764 67.082C378.913 65.7327 378.165 63.9727 377.52 61.802H377.74L378.4 62C379.06 63.7307 379.749 65.0947 380.468 66.092C381.201 67.0747 381.949 67.7787 382.712 68.204C383.474 68.6147 384.222 68.82 384.956 68.82C385.689 68.82 386.29 68.666 386.76 68.358C387.229 68.05 387.574 67.6687 387.794 67.214C388.014 66.7447 388.124 66.2827 388.124 65.828C388.124 65.4613 388.043 65.0873 387.882 64.706C387.72 64.3247 387.456 64.002 387.09 63.738C386.738 63.474 386.261 63.342 385.66 63.342C385.733 63.4887 385.784 63.65 385.814 63.826C385.858 63.9873 385.88 64.1413 385.88 64.288C385.88 64.904 385.696 65.3587 385.33 65.652C384.963 65.9307 384.545 66.07 384.076 66.07C383.445 66.07 382.932 65.8573 382.536 65.432C382.154 64.992 381.964 64.5227 381.964 64.024C381.964 63.4667 382.132 63.012 382.47 62.66C382.822 62.308 383.276 62.0733 383.834 61.956C383.658 61.736 383.423 61.5307 383.13 61.34C382.836 61.1347 382.499 60.9733 382.118 60.856H377.762L376.442 59.536V59.36H393.448C394.005 59.36 394.489 59.4187 394.9 59.536C395.31 59.6533 395.67 59.8953 395.978 60.262C396.3 60.6287 396.594 61.1787 396.858 61.912L396.924 61.89C396.85 61.494 396.806 61.1347 396.792 60.812C396.792 60.4893 396.792 60.1373 396.792 59.756V56.83H396.946L397.892 57.512L397.914 57.996C397.958 58.524 398.031 58.8833 398.134 59.074C398.251 59.2647 398.486 59.36 398.838 59.36L400.158 60.68V60.856H399.234C398.94 60.856 398.706 60.7973 398.53 60.68C398.368 60.5627 398.229 60.4307 398.112 60.284L398.024 60.328L398.42 73.946H398.178L396.66 72.78V65.19C396.66 64.4127 396.601 63.7013 396.484 63.056C396.366 62.396 396.132 61.868 395.78 61.472C395.442 61.0613 394.936 60.856 394.262 60.856H392.898V68.424C392.898 69.26 392.905 70.074 392.92 70.866C392.934 71.658 392.971 72.6113 393.03 73.726H392.788L392.194 73.352C392.062 72.8533 391.842 72.3327 391.534 71.79C391.24 71.2327 390.874 70.69 390.434 70.162C390.008 69.634 389.524 69.172 388.982 68.776C388.644 69.4213 388.153 69.942 387.508 70.338C386.877 70.7193 386.151 70.91 385.33 70.91ZM384.384 60.856C384.486 61.0027 384.582 61.1567 384.67 61.318C384.772 61.4793 384.882 61.6627 385 61.868C385.733 61.9267 386.378 62.11 386.936 62.418C387.493 62.726 387.962 63.122 388.344 63.606C388.725 64.0753 389.011 64.5887 389.202 65.146C389.392 65.7033 389.488 66.246 389.488 66.774C389.488 67.0233 389.466 67.2653 389.422 67.5C389.818 67.852 390.162 68.204 390.456 68.556C390.764 68.8933 391.057 69.2747 391.336 69.7L391.402 69.656C391.299 69.1133 391.233 68.402 391.204 67.522C391.189 66.6273 391.182 65.3807 391.182 63.782V60.856H384.384ZM405.23 68.05L403.272 67.104V66.994C403.786 66.4953 404.13 66.092 404.306 65.784C404.497 65.476 404.592 65.1387 404.592 64.772C404.592 64.3907 404.504 64.046 404.328 63.738C404.152 63.43 403.859 63.276 403.448 63.276C403.184 63.276 402.964 63.3347 402.788 63.452C402.627 63.5547 402.466 63.6647 402.304 63.782C402.143 63.8993 401.923 63.958 401.644 63.958C401.307 63.958 401.028 63.8407 400.808 63.606C400.588 63.3713 400.478 63.0927 400.478 62.77C400.478 62.418 400.61 62.0367 400.874 61.626C401.138 61.2007 401.505 60.8047 401.974 60.438C402.458 60.0567 403.03 59.7487 403.69 59.514C404.365 59.2647 405.106 59.14 405.912 59.14C407.174 59.14 408.274 59.492 409.212 60.196C410.166 60.8853 411.038 62.0147 411.83 63.584L411.918 63.562C411.86 63.0047 411.823 62.4253 411.808 61.824C411.794 61.208 411.786 60.4747 411.786 59.624V59.36H413.986L415.306 60.68V60.856H413.304L413.48 73.946H413.238L411.742 72.78C411.742 72.472 411.742 72.0687 411.742 71.57C411.742 71.0567 411.742 70.514 411.742 69.942C411.757 69.3553 411.764 68.8053 411.764 68.292C411.764 67.764 411.764 67.3313 411.764 66.994C411.764 66.642 411.764 66.4513 411.764 66.422C411.764 65.9527 411.647 65.4027 411.412 64.772C411.178 64.1413 410.848 63.54 410.422 62.968C409.498 63.7307 408.626 64.53 407.804 65.366C406.983 66.202 406.125 67.0967 405.23 68.05ZM405.56 64.816C406.015 64.3613 406.521 63.87 407.078 63.342C407.65 62.814 408.31 62.2273 409.058 61.582C408.692 61.318 408.296 61.1053 407.87 60.944C407.445 60.7827 406.998 60.702 406.528 60.702C405.956 60.702 405.377 60.8267 404.79 61.076C404.218 61.3107 403.734 61.67 403.338 62.154L403.382 62.22C403.984 62.2493 404.49 62.462 404.9 62.858C405.311 63.254 405.516 63.7967 405.516 64.486C405.516 64.5007 405.516 64.53 405.516 64.574C405.516 64.618 405.509 64.684 405.494 64.772L405.56 64.816ZM426.344 73.726H426.102L425.464 73.33C425.376 72.8607 425.244 72.3033 425.068 71.658C424.907 71.0127 424.687 70.3527 424.408 69.678C424.144 68.9887 423.814 68.3433 423.418 67.742C423.022 67.1407 422.553 66.642 422.01 66.246C421.482 65.85 420.859 65.6227 420.14 65.564L420.118 65.63C420.426 65.8207 420.661 66.07 420.822 66.378C420.983 66.6713 421.064 66.9867 421.064 67.324C421.064 67.8373 420.866 68.314 420.47 68.754C420.089 69.194 419.539 69.414 418.82 69.414C418.057 69.414 417.449 69.1647 416.994 68.666C416.539 68.1527 416.312 67.544 416.312 66.84C416.312 66.092 416.598 65.4393 417.17 64.882C417.742 64.31 418.563 64.024 419.634 64.024C420.206 64.024 420.785 64.1413 421.372 64.376C421.973 64.6107 422.553 65.036 423.11 65.652C423.667 66.2533 424.173 67.1187 424.628 68.248L424.694 68.226C424.635 67.8153 424.584 67.2873 424.54 66.642C424.496 65.9967 424.474 65.058 424.474 63.826V60.856H415.52L414.2 59.536V59.36H426.784L428.104 60.68V60.856H426.234V68.424C426.234 69.26 426.241 70.074 426.256 70.866C426.271 71.658 426.3 72.6113 426.344 73.726ZM431.982 73.946H431.74L430.222 72.78V65.19C430.222 64.4127 430.163 63.7013 430.046 63.056C429.928 62.396 429.694 61.868 429.342 61.472C429.004 61.0613 428.498 60.856 427.824 60.856L426.79 59.536V59.36H427.01C427.567 59.36 428.051 59.4187 428.462 59.536C428.872 59.6533 429.232 59.8953 429.54 60.262C429.862 60.6287 430.156 61.1787 430.42 61.912L430.486 61.89C430.427 61.5087 430.39 61.1713 430.376 60.878C430.361 60.57 430.354 60.196 430.354 59.756V56.83H430.508L431.454 57.512L431.476 58.084C431.52 58.568 431.593 58.9053 431.696 59.096C431.813 59.272 432.048 59.36 432.4 59.36L433.72 60.68V60.856H432.796C432.502 60.856 432.268 60.7973 432.092 60.68C431.93 60.5627 431.791 60.4307 431.674 60.284L431.586 60.328L431.982 73.946ZM443.974 73.726H443.732L443.116 73.352C442.852 72.6187 442.39 71.878 441.73 71.13C441.07 70.3673 440.234 69.7 439.222 69.128C438.225 68.556 437.066 68.182 435.746 68.006L434.008 65.828C435.475 64.9333 436.89 64.134 438.254 63.43C439.633 62.7113 440.916 62.1027 442.104 61.604V60.856H433.942L432.622 59.536V59.36H444.392L445.712 60.68V60.856H443.842V68.424C443.842 69.26 443.85 70.074 443.864 70.866C443.879 71.658 443.916 72.6113 443.974 73.726ZM442.104 63.716C441.224 64.0973 440.344 64.508 439.464 64.948C438.584 65.3733 437.734 65.85 436.912 66.378L436.934 66.444C437.8 66.7667 438.68 67.2213 439.574 67.808C440.469 68.38 441.364 69.2233 442.258 70.338L442.324 70.294C442.222 69.7513 442.156 68.9227 442.126 67.808C442.112 66.6933 442.104 65.3293 442.104 63.716ZM438.122 73.088C437.741 73.088 437.418 72.956 437.154 72.692C436.89 72.4133 436.758 72.0907 436.758 71.724C436.758 71.3427 436.89 71.0273 437.154 70.778C437.418 70.514 437.741 70.382 438.122 70.382C438.504 70.382 438.819 70.514 439.068 70.778C439.332 71.0273 439.464 71.3427 439.464 71.724C439.464 72.0907 439.332 72.4133 439.068 72.692C438.819 72.956 438.504 73.088 438.122 73.088ZM458.669 67.896L456.733 66.95V66.84C457.158 66.4147 457.459 66.0553 457.635 65.762C457.811 65.4687 457.899 65.1387 457.899 64.772C457.899 64.3907 457.811 64.046 457.635 63.738C457.459 63.43 457.165 63.276 456.755 63.276C456.491 63.276 456.278 63.3347 456.117 63.452C455.955 63.5547 455.794 63.6647 455.633 63.782C455.471 63.8847 455.251 63.936 454.973 63.936C454.635 63.936 454.357 63.8187 454.137 63.584C453.917 63.3493 453.807 63.0707 453.807 62.748C453.807 62.396 453.931 62.0147 454.181 61.604C454.445 61.1787 454.811 60.7827 455.281 60.416C455.765 60.0347 456.337 59.7267 456.997 59.492C457.671 59.2573 458.412 59.14 459.219 59.14C460.48 59.14 461.565 59.4773 462.475 60.152C463.384 60.8267 464.198 61.8973 464.917 63.364L465.005 63.342C464.946 62.77 464.909 62.22 464.895 61.692C464.88 61.164 464.873 60.4747 464.873 59.624V59.36H467.095L468.415 60.68V60.856H466.545V69.15C466.545 69.194 466.545 69.4433 466.545 69.898C466.559 70.338 466.574 70.91 466.589 71.614C466.618 72.318 466.655 73.0953 466.699 73.946H466.457L465.841 73.572C465.65 73 465.423 72.5453 465.159 72.208C464.909 71.856 464.579 71.5993 464.169 71.438C463.758 71.2767 463.215 71.196 462.541 71.196C462.233 71.196 461.844 71.2107 461.375 71.24C460.905 71.2693 460.407 71.306 459.879 71.35C459.365 71.3793 458.874 71.4087 458.405 71.438C457.935 71.4673 457.547 71.482 457.239 71.482C456.3 71.482 455.464 71.328 454.731 71.02C454.012 70.6973 453.447 70.25 453.037 69.678C452.626 69.0913 452.421 68.3947 452.421 67.588C452.421 67.1187 452.487 66.642 452.619 66.158C452.765 65.674 452.956 65.2413 453.191 64.86H453.389L453.895 65.19C453.748 65.5127 453.638 65.8427 453.565 66.18C453.491 66.5027 453.455 66.8107 453.455 67.104C453.455 67.9107 453.719 68.534 454.247 68.974C454.775 69.414 455.647 69.634 456.865 69.634C457.217 69.634 457.649 69.6193 458.163 69.59C458.691 69.5607 459.226 69.5313 459.769 69.502C460.311 69.4727 460.773 69.458 461.155 69.458C461.932 69.458 462.636 69.568 463.267 69.788C463.897 69.9933 464.55 70.4627 465.225 71.196L465.313 71.152C465.151 70.8587 465.034 70.4993 464.961 70.074C464.887 69.6487 464.851 69.194 464.851 68.71V66.202C464.851 65.7033 464.748 65.168 464.543 64.596C464.337 64.024 464.051 63.4813 463.685 62.968C462.79 63.716 461.954 64.486 461.177 65.278C460.414 66.0553 459.578 66.928 458.669 67.896ZM458.845 64.816C459.49 64.2 460.077 63.65 460.605 63.166C461.147 62.6673 461.734 62.1393 462.365 61.582C461.998 61.318 461.602 61.1053 461.177 60.944C460.751 60.7827 460.304 60.702 459.835 60.702C459.263 60.702 458.683 60.8267 458.097 61.076C457.525 61.3107 457.041 61.67 456.645 62.154L456.689 62.22C457.29 62.2493 457.796 62.462 458.207 62.858C458.617 63.254 458.823 63.7967 458.823 64.486C458.823 64.5007 458.823 64.53 458.823 64.574C458.823 64.618 458.815 64.684 458.801 64.772L458.845 64.816ZM472.242 73.946H472L470.504 72.78L470.548 60.856H468.634L467.314 59.536V59.36H470.482C470.144 58.9493 469.829 58.5827 469.536 58.26C469.257 57.9227 469.118 57.4973 469.118 56.984C469.118 56.3973 469.338 55.8327 469.778 55.29C470.232 54.7327 470.856 54.278 471.648 53.926C472.44 53.5593 473.364 53.376 474.42 53.376C475.388 53.376 476.378 53.552 477.39 53.904C478.416 54.256 479.406 54.7693 480.36 55.444C481.328 56.104 482.193 56.896 482.956 57.82L482.758 58.59H482.604C481.416 57.2847 480.206 56.3607 478.974 55.818C477.756 55.2607 476.568 54.982 475.41 54.982C474.471 54.982 473.664 55.1213 472.99 55.4C472.33 55.664 471.824 56.016 471.472 56.456C471.12 56.8813 470.944 57.3507 470.944 57.864C470.944 58.0987 470.988 58.3333 471.076 58.568C471.164 58.788 471.332 59.052 471.582 59.36H472.748L474.068 60.68V60.856H472.066L472.242 73.946ZM482.935 72.076C481.835 72.076 480.764 71.7387 479.723 71.064C478.682 70.3893 477.721 69.2967 476.841 67.786C475.961 66.2753 475.198 64.2807 474.553 61.802H474.773L475.433 62C476.078 64.0387 476.79 65.6447 477.567 66.818C478.344 67.9767 479.158 68.798 480.009 69.282C480.86 69.7513 481.71 69.986 482.561 69.986C483.368 69.986 484.064 69.8247 484.651 69.502C485.238 69.1793 485.692 68.7613 486.015 68.248C486.352 67.7347 486.521 67.1847 486.521 66.598C486.521 66.0993 486.411 65.63 486.191 65.19C485.971 64.7353 485.663 64.3613 485.267 64.068C484.871 63.7747 484.416 63.628 483.903 63.628C483.815 63.628 483.705 63.6353 483.573 63.65C483.456 63.6647 483.338 63.694 483.221 63.738C483.456 63.9433 483.624 64.1853 483.727 64.464C483.83 64.728 483.881 64.992 483.881 65.256C483.881 65.784 483.69 66.2533 483.309 66.664C482.928 67.06 482.436 67.258 481.835 67.258C481.483 67.258 481.131 67.1773 480.779 67.016C480.442 66.84 480.163 66.5833 479.943 66.246C479.723 65.9087 479.613 65.4833 479.613 64.97C479.613 64.398 479.76 63.892 480.053 63.452C480.346 62.9973 480.75 62.6453 481.263 62.396C481.776 62.132 482.356 62 483.001 62C483.881 62 484.68 62.2273 485.399 62.682C486.118 63.1367 486.682 63.7527 487.093 64.53C487.518 65.2927 487.731 66.1653 487.731 67.148C487.731 68.0867 487.526 68.93 487.115 69.678C486.704 70.426 486.14 71.0127 485.421 71.438C484.702 71.8633 483.874 72.076 482.935 72.076ZM489.095 60.856H474.289L472.969 59.536V59.36H487.775L489.095 60.68V60.856ZM221.171 99.91C220.218 99.91 219.264 99.6093 218.311 99.008C217.358 98.392 216.456 97.4167 215.605 96.082C214.754 94.7327 214.006 92.9727 213.361 90.802H213.581L214.241 91C214.901 92.7307 215.59 94.0947 216.309 95.092C217.042 96.0747 217.79 96.7787 218.553 97.204C219.316 97.6147 220.064 97.82 220.797 97.82C221.53 97.82 222.132 97.666 222.601 97.358C223.07 97.05 223.415 96.6687 223.635 96.214C223.855 95.7447 223.965 95.2827 223.965 94.828C223.965 94.4613 223.884 94.0873 223.723 93.706C223.562 93.3247 223.298 93.002 222.931 92.738C222.579 92.474 222.102 92.342 221.501 92.342C221.574 92.4887 221.626 92.65 221.655 92.826C221.699 92.9873 221.721 93.1413 221.721 93.288C221.721 93.904 221.538 94.3587 221.171 94.652C220.804 94.9307 220.386 95.07 219.917 95.07C219.286 95.07 218.773 94.8573 218.377 94.432C217.996 93.992 217.805 93.5227 217.805 93.024C217.805 92.4667 217.974 92.012 218.311 91.66C218.663 91.308 219.118 91.0733 219.675 90.956C219.499 90.736 219.264 90.5307 218.971 90.34C218.678 90.1347 218.34 89.9733 217.959 89.856H213.603L212.283 88.536V88.36H229.289C229.846 88.36 230.33 88.4187 230.741 88.536C231.152 88.6533 231.511 88.8953 231.819 89.262C232.142 89.6287 232.435 90.1787 232.699 90.912L232.765 90.89C232.692 90.494 232.648 90.1347 232.633 89.812C232.633 89.4893 232.633 89.1373 232.633 88.756V85.83H232.787L233.733 86.512L233.755 86.996C233.799 87.524 233.872 87.8833 233.975 88.074C234.092 88.2647 234.327 88.36 234.679 88.36L235.999 89.68V89.856H235.075C234.782 89.856 234.547 89.7973 234.371 89.68C234.21 89.5627 234.07 89.4307 233.953 89.284L233.865 89.328L234.261 102.946H234.019L232.501 101.78V94.19C232.501 93.4127 232.442 92.7013 232.325 92.056C232.208 91.396 231.973 90.868 231.621 90.472C231.284 90.0613 230.778 89.856 230.103 89.856H228.739V97.424C228.739 98.26 228.746 99.074 228.761 99.866C228.776 100.658 228.812 101.611 228.871 102.726H228.629L228.035 102.352C227.903 101.853 227.683 101.333 227.375 100.79C227.082 100.233 226.715 99.69 226.275 99.162C225.85 98.634 225.366 98.172 224.823 97.776C224.486 98.4213 223.994 98.942 223.349 99.338C222.718 99.7193 221.992 99.91 221.171 99.91ZM220.225 89.856C220.328 90.0027 220.423 90.1567 220.511 90.318C220.614 90.4793 220.724 90.6627 220.841 90.868C221.574 90.9267 222.22 91.11 222.777 91.418C223.334 91.726 223.804 92.122 224.185 92.606C224.566 93.0753 224.852 93.5887 225.043 94.146C225.234 94.7033 225.329 95.246 225.329 95.774C225.329 96.0233 225.307 96.2653 225.263 96.5C225.659 96.852 226.004 97.204 226.297 97.556C226.605 97.8933 226.898 98.2747 227.177 98.7L227.243 98.656C227.14 98.1133 227.074 97.402 227.045 96.522C227.03 95.6273 227.023 94.3807 227.023 92.782V89.856H220.225ZM238.608 89.856H236.21L234.89 88.536V88.36H237.288L238.608 89.68V89.856ZM244.064 97.644L242.238 96.148C243.162 95.488 243.807 94.9307 244.174 94.476C244.54 94.0213 244.724 93.6473 244.724 93.354C244.724 92.958 244.496 92.76 244.042 92.76C243.983 92.76 243.682 92.826 243.14 92.958C242.612 93.0753 241.922 93.4347 241.072 94.036C241.042 94.0507 240.984 94.08 240.896 94.124C240.808 94.1533 240.712 94.168 240.61 94.168C240.287 94.168 239.979 94.0067 239.686 93.684C239.392 93.3467 239.246 92.8553 239.246 92.21C239.246 91.5207 239.429 90.89 239.796 90.318C240.177 89.7313 240.69 89.262 241.336 88.91C241.996 88.5433 242.729 88.36 243.536 88.36C244.401 88.36 245.142 88.558 245.758 88.954C246.388 89.3353 246.909 89.812 247.32 90.384C247.745 90.9413 248.082 91.4987 248.332 92.056L248.42 92.034C248.346 91.462 248.302 90.912 248.288 90.384C248.288 89.8413 248.288 89.2547 248.288 88.624V88.36H250.51L251.83 89.68V89.856H249.872L249.938 98.59C249.938 98.8247 249.945 99.1987 249.96 99.712C249.974 100.211 249.996 100.753 250.026 101.34C250.055 101.927 250.084 102.462 250.114 102.946H249.872L249.256 102.572C249.05 101.853 248.801 101.333 248.508 101.01C248.229 100.673 247.877 100.46 247.452 100.372C247.041 100.269 246.528 100.218 245.912 100.218C245.208 100.218 244.482 100.255 243.734 100.328C242.986 100.401 242.348 100.438 241.82 100.438C240.382 100.438 239.216 100.093 238.322 99.404C237.427 98.7 236.98 97.7247 236.98 96.478C236.98 95.554 237.192 94.7107 237.618 93.948H237.816L238.322 94.278C238.204 94.5567 238.116 94.8427 238.058 95.136C238.014 95.4293 237.992 95.7007 237.992 95.95C237.992 96.786 238.248 97.4387 238.762 97.908C239.29 98.3627 240.192 98.59 241.468 98.59C241.834 98.59 242.289 98.5753 242.832 98.546C243.389 98.502 243.873 98.48 244.284 98.48C245.076 98.48 245.824 98.5827 246.528 98.788C247.232 98.9787 247.899 99.4113 248.53 100.086L248.596 100.064C248.478 99.6387 248.398 99.0667 248.354 98.348C248.31 97.6147 248.288 96.896 248.288 96.192V95.51C248.288 95.2167 248.251 94.8427 248.178 94.388C248.119 93.9333 248.009 93.4567 247.848 92.958C247.686 92.4447 247.459 91.968 247.166 91.528C246.872 91.088 246.498 90.7287 246.044 90.45C245.604 90.1713 245.068 90.032 244.438 90.032C243.895 90.032 243.418 90.1347 243.008 90.34C242.597 90.5307 242.274 90.78 242.04 91.088C241.805 91.396 241.673 91.704 241.644 92.012C242.348 91.8067 242.978 91.704 243.536 91.704C244.357 91.704 244.995 91.968 245.45 92.496C245.919 93.0093 246.154 93.6107 246.154 94.3C246.154 94.828 245.992 95.3487 245.67 95.862C245.347 96.3753 244.812 96.9693 244.064 97.644ZM264.792 104.706H264.638C263.347 103.665 262.123 102.799 260.964 102.11C259.82 101.421 258.691 100.856 257.576 100.416C256.461 99.976 255.303 99.624 254.1 99.36L252.648 96.654L252.758 96.544C253.565 96.852 254.188 97.05 254.628 97.138C255.068 97.226 255.449 97.27 255.772 97.27C256.359 97.27 256.953 97.1893 257.554 97.028C258.155 96.852 258.705 96.6173 259.204 96.324C259.717 96.016 260.128 95.664 260.436 95.268C260.759 94.8573 260.92 94.4173 260.92 93.948C260.92 93.4347 260.729 93.0533 260.348 92.804C259.981 92.54 259.563 92.408 259.094 92.408C258.683 92.408 258.302 92.4887 257.95 92.65C257.847 93.398 257.547 93.992 257.048 94.432C256.564 94.8573 255.977 95.07 255.288 95.07C254.745 95.07 254.283 94.9307 253.902 94.652C253.535 94.3733 253.352 93.9847 253.352 93.486C253.352 92.9727 253.528 92.5473 253.88 92.21C254.247 91.858 254.694 91.5867 255.222 91.396C255.75 91.1907 256.278 91.0587 256.806 91C256.747 90.5893 256.542 90.208 256.19 89.856H252.054L250.734 88.536V88.36H262.592L263.912 89.68V89.856H257.686C257.745 90.032 257.789 90.2153 257.818 90.406C257.862 90.5967 257.906 90.7947 257.95 91C259.226 91.088 260.26 91.4693 261.052 92.144C261.859 92.804 262.262 93.6693 262.262 94.74C262.262 95.84 261.873 96.72 261.096 97.38C260.319 98.04 259.329 98.5387 258.126 98.876V98.942C259.417 99.646 260.473 100.291 261.294 100.878C262.115 101.45 262.775 101.963 263.274 102.418C263.787 102.887 264.191 103.298 264.484 103.65L264.792 104.706ZM267.741 102.946H267.499L266.003 101.78L266.047 89.856H264.133L262.813 88.536V88.36H266.025C265.996 87.4213 265.732 86.5853 265.233 85.852C264.735 85.104 263.965 84.5173 262.923 84.092C261.882 83.652 260.533 83.432 258.875 83.432C257.453 83.432 256.389 83.5787 255.685 83.872C254.981 84.1507 254.629 84.444 254.629 84.752C254.629 84.8547 254.695 84.9867 254.827 85.148C254.959 85.3093 255.245 85.39 255.685 85.39C256.037 85.39 256.485 85.346 257.027 85.258C257.57 85.1553 258.105 85.104 258.633 85.104C259.499 85.104 260.247 85.346 260.877 85.83C261.508 86.2993 261.933 87.1793 262.153 88.47H260.635C260.753 88.3087 260.833 88.1547 260.877 88.008C260.921 87.8467 260.943 87.7073 260.943 87.59C260.943 87.2527 260.804 87.018 260.525 86.886C260.232 86.754 259.873 86.688 259.447 86.688C259.095 86.688 258.714 86.7247 258.303 86.798C257.878 86.8713 257.431 86.908 256.961 86.908C255.993 86.908 255.209 86.7027 254.607 86.292C253.991 85.8667 253.683 85.3167 253.683 84.642C253.683 83.85 254.123 83.19 255.003 82.662C255.869 82.134 257.108 81.87 258.721 81.87C259.909 81.87 261.031 82.024 262.087 82.332C263.143 82.64 264.075 83.124 264.881 83.784C265.703 84.444 266.348 85.2947 266.817 86.336C267.301 87.3773 267.551 88.6313 267.565 90.098L267.741 102.946ZM279.332 102.946H279.09L277.594 101.78L277.638 89.856H275.724L274.404 88.536V88.36H277.572C277.234 87.9493 276.919 87.5827 276.626 87.26C276.347 86.9227 276.208 86.4973 276.208 85.984C276.208 85.3973 276.428 84.8327 276.868 84.29C277.322 83.7327 277.946 83.278 278.738 82.926C279.53 82.5593 280.454 82.376 281.51 82.376C282.478 82.376 283.468 82.552 284.48 82.904C285.506 83.256 286.496 83.7693 287.45 84.444C288.418 85.104 289.283 85.896 290.046 86.82L289.848 87.59H289.694C288.506 86.2847 287.296 85.3607 286.064 84.818C284.846 84.2607 283.658 83.982 282.5 83.982C281.561 83.982 280.754 84.1213 280.08 84.4C279.42 84.664 278.914 85.016 278.562 85.456C278.21 85.8813 278.034 86.3507 278.034 86.864C278.034 87.0987 278.078 87.3333 278.166 87.568C278.254 87.788 278.422 88.052 278.672 88.36H279.838L281.158 89.68V89.856H279.156L279.332 102.946ZM291.015 102.726H290.773L290.157 102.352C289.923 101.604 289.483 100.849 288.837 100.086C288.207 99.3087 287.4 98.6267 286.417 98.04C285.435 97.4533 284.305 97.0647 283.029 96.874L281.291 94.696C282.098 94.1973 282.941 93.706 283.821 93.222C284.716 92.7233 285.611 92.276 286.505 91.88C287.415 91.4693 288.309 91.1467 289.189 90.912V89.856H281.379L280.059 88.536V88.36H296.009L297.329 89.68V89.856H290.927V90.868C291.543 90.912 292.145 91.0733 292.731 91.352C293.333 91.616 293.875 91.9827 294.359 92.452C294.858 92.9067 295.247 93.4347 295.525 94.036C295.819 94.6227 295.965 95.268 295.965 95.972C295.965 96.6027 295.848 97.1233 295.613 97.534C295.393 97.93 295.107 98.2307 294.755 98.436C294.418 98.6267 294.066 98.722 293.699 98.722C293.245 98.722 292.841 98.5827 292.489 98.304C292.137 98.0253 291.961 97.644 291.961 97.16C291.961 96.6907 292.115 96.324 292.423 96.06C292.731 95.796 293.076 95.664 293.457 95.664C293.736 95.664 294.007 95.7447 294.271 95.906C294.55 96.0527 294.77 96.2873 294.931 96.61C295.078 96.3607 295.151 96.0967 295.151 95.818C295.151 95.378 294.961 94.9307 294.579 94.476C294.213 94.0067 293.707 93.6033 293.061 93.266C292.416 92.9287 291.705 92.738 290.927 92.694V97.424C290.927 98.26 290.927 99.074 290.927 99.866C290.942 100.658 290.971 101.611 291.015 102.726ZM289.189 92.848C288.588 93.0387 287.979 93.2733 287.363 93.552C286.747 93.816 286.161 94.102 285.603 94.41C285.046 94.7033 284.569 94.9747 284.173 95.224L284.195 95.29C285.031 95.6273 285.882 96.104 286.747 96.72C287.627 97.3213 288.493 98.194 289.343 99.338H289.431C289.329 98.8687 289.263 98.0987 289.233 97.028C289.204 95.9573 289.189 94.564 289.189 92.848ZM308.365 102.726H308.123L307.485 102.33C307.397 101.861 307.265 101.303 307.089 100.658C306.927 100.013 306.707 99.3527 306.429 98.678C306.165 97.9887 305.835 97.3433 305.439 96.742C305.043 96.1407 304.573 95.642 304.031 95.246C303.503 94.85 302.879 94.6227 302.161 94.564L302.139 94.63C302.447 94.8207 302.681 95.07 302.843 95.378C303.004 95.6713 303.085 95.9867 303.085 96.324C303.085 96.8373 302.887 97.314 302.491 97.754C302.109 98.194 301.559 98.414 300.841 98.414C300.078 98.414 299.469 98.1647 299.015 97.666C298.56 97.1527 298.333 96.544 298.333 95.84C298.333 95.092 298.619 94.4393 299.191 93.882C299.763 93.31 300.584 93.024 301.655 93.024C302.227 93.024 302.806 93.1413 303.393 93.376C303.994 93.6107 304.573 94.036 305.131 94.652C305.688 95.2533 306.194 96.1187 306.649 97.248L306.715 97.226C306.656 96.8153 306.605 96.2873 306.561 95.642C306.517 94.9967 306.495 94.058 306.495 92.826V89.856H297.541L296.221 88.536V88.36H308.805L310.125 89.68V89.856H308.255V97.424C308.255 98.26 308.262 99.074 308.277 99.866C308.291 100.658 308.321 101.611 308.365 102.726ZM314.002 102.946H313.76L312.242 101.78V94.19C312.242 93.4127 312.184 92.7013 312.066 92.056C311.949 91.396 311.714 90.868 311.362 90.472C311.025 90.0613 310.519 89.856 309.844 89.856L308.81 88.536V88.36H309.03C309.588 88.36 310.072 88.4187 310.482 88.536C310.893 88.6533 311.252 88.8953 311.56 89.262C311.883 89.6287 312.176 90.1787 312.44 90.912L312.506 90.89C312.448 90.4793 312.411 90.12 312.396 89.812C312.382 89.4893 312.374 89.1373 312.374 88.756V85.83H312.528L313.496 86.556L314.002 102.946ZM328.917 100.922C327.891 100.922 326.93 100.629 326.035 100.042C325.141 99.4407 324.356 98.4433 323.681 97.05C323.021 95.642 322.515 93.728 322.163 91.308H322.383L323.043 91.506C323.542 93.97 324.231 95.8107 325.111 97.028C325.991 98.2453 327.15 98.854 328.587 98.854C329.57 98.854 330.318 98.6267 330.831 98.172C331.345 97.7173 331.601 97.2333 331.601 96.72C331.601 96.5147 331.557 96.3093 331.469 96.104C331.381 95.884 331.257 95.6933 331.095 95.532C330.758 95.8253 330.347 96.0673 329.863 96.258C329.379 96.4487 328.888 96.544 328.389 96.544C327.759 96.544 327.179 96.39 326.651 96.082C326.123 95.774 325.698 95.356 325.375 94.828C325.067 94.3 324.913 93.706 324.913 93.046C324.913 92.4887 325.038 91.946 325.287 91.418C325.551 90.89 325.977 90.3913 326.563 89.922L326.541 89.856H321.833L320.513 88.536V88.36H337.783L339.103 89.68V89.856H330.655C330.377 89.9733 330.098 90.098 329.819 90.23C330.245 90.89 330.714 91.3153 331.227 91.506C331.741 91.682 332.232 91.77 332.701 91.77C333.215 91.77 333.699 91.704 334.153 91.572C334.608 91.4253 335.048 91.242 335.473 91.022L337.959 92.98V93.112C336.933 93.9187 336.214 94.806 335.803 95.774C335.407 96.7273 335.209 97.7467 335.209 98.832C335.209 99.4187 335.253 100.049 335.341 100.724C335.429 101.399 335.547 102.081 335.693 102.77H335.451L334.813 102.374C334.549 101.597 334.329 100.79 334.153 99.954C333.977 99.118 333.889 98.2967 333.889 97.49C333.889 96.742 333.977 95.994 334.153 95.246C334.344 94.4833 334.674 93.772 335.143 93.112L335.077 93.068C334.857 93.1413 334.63 93.2 334.395 93.244C334.161 93.2733 333.933 93.288 333.713 93.288C332.833 93.288 331.961 93.0533 331.095 92.584C330.23 92.1147 329.541 91.4767 329.027 90.67C328.309 91.1247 327.678 91.6453 327.135 92.232C326.593 92.8187 326.321 93.4053 326.321 93.992C326.321 94.2853 326.409 94.52 326.585 94.696C326.776 94.8573 327.033 94.938 327.355 94.938C327.722 94.938 328.147 94.828 328.631 94.608C329.13 94.388 329.643 94.0653 330.171 93.64L330.281 93.618C331.088 94.0287 331.689 94.5567 332.085 95.202C332.481 95.8327 332.679 96.5587 332.679 97.38C332.679 98.436 332.357 99.294 331.711 99.954C331.066 100.599 330.135 100.922 328.917 100.922ZM342.979 102.946H342.737L341.219 101.78V94.19C341.219 93.4127 341.16 92.7013 341.043 92.056C340.926 91.396 340.691 90.868 340.339 90.472C340.002 90.0613 339.496 89.856 338.821 89.856L337.787 88.536V88.36H338.007C338.564 88.36 339.048 88.4187 339.459 88.536C339.87 88.6533 340.229 88.8953 340.537 89.262C340.86 89.6287 341.153 90.1787 341.417 90.912L341.483 90.89C341.424 90.5087 341.388 90.1713 341.373 89.878C341.358 89.57 341.351 89.196 341.351 88.756V85.83H341.505L342.451 86.512L342.473 87.084C342.517 87.568 342.59 87.9053 342.693 88.096C342.81 88.272 343.045 88.36 343.397 88.36L344.717 89.68V89.856H343.793C343.5 89.856 343.265 89.7973 343.089 89.68C342.928 89.5627 342.788 89.4307 342.671 89.284L342.583 89.328L342.979 102.946ZM355.763 102.726H355.521L354.883 102.33C354.795 101.861 354.663 101.303 354.487 100.658C354.326 100.013 354.106 99.3527 353.827 98.678C353.563 97.9887 353.233 97.3433 352.837 96.742C352.441 96.1407 351.972 95.642 351.429 95.246C350.901 94.85 350.278 94.6227 349.559 94.564L349.537 94.63C349.845 94.8207 350.08 95.07 350.241 95.378C350.403 95.6713 350.483 95.9867 350.483 96.324C350.483 96.8373 350.285 97.314 349.889 97.754C349.508 98.194 348.958 98.414 348.239 98.414C347.477 98.414 346.868 98.1647 346.413 97.666C345.959 97.1527 345.731 96.544 345.731 95.84C345.731 95.092 346.017 94.4393 346.589 93.882C347.161 93.31 347.983 93.024 349.053 93.024C349.625 93.024 350.205 93.1413 350.791 93.376C351.393 93.6107 351.972 94.036 352.529 94.652C353.087 95.2533 353.593 96.1187 354.047 97.248L354.113 97.226C354.055 96.8153 354.003 96.2873 353.959 95.642C353.915 94.9967 353.893 94.058 353.893 92.826V89.856H344.939L343.619 88.536V88.36H356.203L357.523 89.68V89.856H355.653V97.424C355.653 98.26 355.661 99.074 355.675 99.866C355.69 100.658 355.719 101.611 355.763 102.726ZM363.865 102.748C363.073 102.748 362.355 102.55 361.709 102.154C361.079 101.773 360.543 101.259 360.103 100.614C359.663 99.954 359.326 99.228 359.091 98.436C358.857 97.6293 358.739 96.808 358.739 95.972C358.739 94.7987 358.974 93.684 359.443 92.628C359.927 91.572 360.646 90.67 361.599 89.922L361.577 89.856H357.749L356.429 88.536V88.36H365.339L366.659 89.68V89.856C365.882 89.856 365.127 90.01 364.393 90.318C363.66 90.626 363 91.088 362.413 91.704C361.841 92.3053 361.379 93.0533 361.027 93.948C360.69 94.828 360.521 95.8473 360.521 97.006C360.521 97.8713 360.624 98.6633 360.829 99.382C361.049 100.086 361.365 100.643 361.775 101.054C362.201 101.465 362.714 101.67 363.315 101.67C363.33 101.67 363.367 101.67 363.425 101.67C363.484 101.655 363.543 101.641 363.601 101.626V101.582C363.455 101.435 363.345 101.274 363.271 101.098C363.198 100.907 363.161 100.717 363.161 100.526C363.161 100.159 363.293 99.8293 363.557 99.536C363.821 99.228 364.195 99.074 364.679 99.074C365.134 99.074 365.537 99.2207 365.889 99.514C366.256 99.7927 366.439 100.211 366.439 100.768C366.439 101.355 366.197 101.831 365.713 102.198C365.229 102.565 364.613 102.748 363.865 102.748ZM375.531 101.076C374.431 101.076 373.361 100.739 372.319 100.064C371.278 99.3893 370.317 98.2967 369.437 96.786C368.557 95.2753 367.795 93.2807 367.149 90.802H367.369L368.029 91C368.675 93.0387 369.386 94.6447 370.163 95.818C370.941 96.9767 371.755 97.798 372.605 98.282C373.456 98.7513 374.307 98.986 375.157 98.986C375.964 98.986 376.661 98.8247 377.247 98.502C377.834 98.1793 378.289 97.7613 378.611 97.248C378.949 96.7347 379.117 96.1847 379.117 95.598C379.117 95.0993 379.007 94.63 378.787 94.19C378.567 93.7353 378.259 93.3613 377.863 93.068C377.467 92.7747 377.013 92.628 376.499 92.628C376.411 92.628 376.301 92.6353 376.169 92.65C376.052 92.6647 375.935 92.694 375.817 92.738C376.052 92.9433 376.221 93.1853 376.323 93.464C376.426 93.728 376.477 93.992 376.477 94.256C376.477 94.784 376.287 95.2533 375.905 95.664C375.524 96.06 375.033 96.258 374.431 96.258C374.079 96.258 373.727 96.1773 373.375 96.016C373.038 95.84 372.759 95.5833 372.539 95.246C372.319 94.9087 372.209 94.4833 372.209 93.97C372.209 93.398 372.356 92.892 372.649 92.452C372.943 91.9973 373.346 91.6453 373.859 91.396C374.373 91.132 374.952 91 375.597 91C376.477 91 377.277 91.2273 377.995 91.682C378.714 92.1367 379.279 92.7527 379.689 93.53C380.115 94.2927 380.327 95.1653 380.327 96.148C380.327 97.0867 380.122 97.93 379.711 98.678C379.301 99.426 378.736 100.013 378.017 100.438C377.299 100.863 376.47 101.076 375.531 101.076ZM381.691 89.856H366.885L365.565 88.536V88.36H380.371L381.691 89.68V89.856ZM392.705 97.05L390.747 96.104V95.994C391.26 95.4953 391.605 95.092 391.781 94.784C391.972 94.476 392.067 94.1387 392.067 93.772C392.067 93.3907 391.979 93.046 391.803 92.738C391.627 92.43 391.334 92.276 390.923 92.276C390.659 92.276 390.439 92.3347 390.263 92.452C390.102 92.5547 389.94 92.6647 389.779 92.782C389.618 92.8993 389.398 92.958 389.119 92.958C388.782 92.958 388.503 92.8407 388.283 92.606C388.063 92.3713 387.953 92.0927 387.953 91.77C387.953 91.418 388.085 91.0367 388.349 90.626C388.613 90.2007 388.98 89.8047 389.449 89.438C389.933 89.0567 390.505 88.7487 391.165 88.514C391.84 88.2647 392.58 88.14 393.387 88.14C394.648 88.14 395.748 88.492 396.687 89.196C397.64 89.8853 398.513 91.0147 399.305 92.584L399.393 92.562C399.334 92.0047 399.298 91.4253 399.283 90.824C399.268 90.208 399.261 89.4747 399.261 88.624V88.36H401.461L402.781 89.68V89.856H400.779L400.955 102.946H400.713L399.217 101.78C399.217 101.472 399.217 101.069 399.217 100.57C399.217 100.057 399.217 99.514 399.217 98.942C399.232 98.3553 399.239 97.8053 399.239 97.292C399.239 96.764 399.239 96.3313 399.239 95.994C399.239 95.642 399.239 95.4513 399.239 95.422C399.239 94.9527 399.122 94.4027 398.887 93.772C398.652 93.1413 398.322 92.54 397.897 91.968C396.973 92.7307 396.1 93.53 395.279 94.366C394.458 95.202 393.6 96.0967 392.705 97.05ZM393.035 93.816C393.49 93.3613 393.996 92.87 394.553 92.342C395.125 91.814 395.785 91.2273 396.533 90.582C396.166 90.318 395.77 90.1053 395.345 89.944C394.92 89.7827 394.472 89.702 394.003 89.702C393.431 89.702 392.852 89.8267 392.265 90.076C391.693 90.3107 391.209 90.67 390.813 91.154L390.857 91.22C391.458 91.2493 391.964 91.462 392.375 91.858C392.786 92.254 392.991 92.7967 392.991 93.486C392.991 93.5007 392.991 93.53 392.991 93.574C392.991 93.618 392.984 93.684 392.969 93.772L393.035 93.816ZM406.647 102.946H406.405L404.887 101.78V94.19C404.887 93.4127 404.828 92.7013 404.711 92.056C404.593 91.396 404.359 90.868 404.007 90.472C403.669 90.0613 403.163 89.856 402.489 89.856L401.455 88.536V88.36H401.675C402.232 88.36 402.716 88.4187 403.127 88.536C403.537 88.6533 403.897 88.8953 404.205 89.262C404.527 89.6287 404.821 90.1787 405.085 90.912L405.151 90.89C405.092 90.5087 405.055 90.1713 405.041 89.878C405.026 89.57 405.019 89.196 405.019 88.756V85.83H405.173L406.119 86.512L406.141 87.084C406.185 87.568 406.258 87.9053 406.361 88.096C406.478 88.272 406.713 88.36 407.065 88.36L408.385 89.68V89.856H407.461C407.167 89.856 406.933 89.7973 406.757 89.68C406.595 89.5627 406.456 89.4307 406.339 89.284L406.251 89.328L406.647 102.946ZM418.639 102.726H418.397L417.781 102.352C417.517 101.619 417.055 100.878 416.395 100.13C415.735 99.3673 414.899 98.7 413.887 98.128C412.89 97.556 411.731 97.182 410.411 97.006L408.673 94.828C410.14 93.9333 411.555 93.134 412.919 92.43C414.298 91.7113 415.581 91.1027 416.769 90.604V89.856H408.607L407.287 88.536V88.36H419.057L420.377 89.68V89.856H418.507V97.424C418.507 98.26 418.514 99.074 418.529 99.866C418.544 100.658 418.58 101.611 418.639 102.726ZM416.769 92.716C415.889 93.0973 415.009 93.508 414.129 93.948C413.249 94.3733 412.398 94.85 411.577 95.378L411.599 95.444C412.464 95.7667 413.344 96.2213 414.239 96.808C415.134 97.38 416.028 98.2233 416.923 99.338L416.989 99.294C416.886 98.7513 416.82 97.9227 416.791 96.808C416.776 95.6933 416.769 94.3293 416.769 92.716ZM412.787 102.088C412.406 102.088 412.083 101.956 411.819 101.692C411.555 101.413 411.423 101.091 411.423 100.724C411.423 100.343 411.555 100.027 411.819 99.778C412.083 99.514 412.406 99.382 412.787 99.382C413.168 99.382 413.484 99.514 413.733 99.778C413.997 100.027 414.129 100.343 414.129 100.724C414.129 101.091 413.997 101.413 413.733 101.692C413.484 101.956 413.168 102.088 412.787 102.088ZM426.717 102.748C425.925 102.748 425.206 102.55 424.561 102.154C423.93 101.773 423.395 101.259 422.955 100.614C422.515 99.954 422.177 99.228 421.943 98.436C421.708 97.6293 421.591 96.808 421.591 95.972C421.591 94.7987 421.825 93.684 422.295 92.628C422.779 91.572 423.497 90.67 424.451 89.922L424.429 89.856H420.601L419.281 88.536V88.36H428.191L429.511 89.68V89.856C428.733 89.856 427.978 90.01 427.245 90.318C426.511 90.626 425.851 91.088 425.265 91.704C424.693 92.3053 424.231 93.0533 423.879 93.948C423.541 94.828 423.373 95.8473 423.373 97.006C423.373 97.8713 423.475 98.6633 423.681 99.382C423.901 100.086 424.216 100.643 424.627 101.054C425.052 101.465 425.565 101.67 426.167 101.67C426.181 101.67 426.218 101.67 426.277 101.67C426.335 101.655 426.394 101.641 426.453 101.626V101.582C426.306 101.435 426.196 101.274 426.123 101.098C426.049 100.907 426.013 100.717 426.013 100.526C426.013 100.159 426.145 99.8293 426.409 99.536C426.673 99.228 427.047 99.074 427.531 99.074C427.985 99.074 428.389 99.2207 428.741 99.514C429.107 99.7927 429.291 100.211 429.291 100.768C429.291 101.355 429.049 101.831 428.565 102.198C428.081 102.565 427.465 102.748 426.717 102.748ZM439.769 102.726H439.527L438.911 102.352C438.647 101.619 438.185 100.878 437.525 100.13C436.865 99.3673 436.029 98.7 435.017 98.128C434.019 97.556 432.861 97.182 431.541 97.006L429.803 94.828C431.269 93.9333 432.685 93.134 434.049 92.43C435.427 91.7113 436.711 91.1027 437.899 90.604V89.856H429.737L428.417 88.536V88.36H440.187L441.507 89.68V89.856H439.637V97.424C439.637 98.26 439.644 99.074 439.659 99.866C439.673 100.658 439.71 101.611 439.769 102.726ZM437.899 92.716C437.019 93.0973 436.139 93.508 435.259 93.948C434.379 94.3733 433.528 94.85 432.707 95.378L432.729 95.444C433.594 95.7667 434.474 96.2213 435.369 96.808C436.263 97.38 437.158 98.2233 438.053 99.338L438.119 99.294C438.016 98.7513 437.95 97.9227 437.921 96.808C437.906 95.6933 437.899 94.3293 437.899 92.716ZM452.554 102.726H452.312L451.674 102.33C451.586 101.861 451.454 101.303 451.278 100.658C451.117 100.013 450.897 99.3527 450.618 98.678C450.354 97.9887 450.024 97.3433 449.628 96.742C449.232 96.1407 448.763 95.642 448.22 95.246C447.692 94.85 447.069 94.6227 446.35 94.564L446.328 94.63C446.636 94.8207 446.871 95.07 447.032 95.378C447.193 95.6713 447.274 95.9867 447.274 96.324C447.274 96.8373 447.076 97.314 446.68 97.754C446.299 98.194 445.749 98.414 445.03 98.414C444.267 98.414 443.659 98.1647 443.204 97.666C442.749 97.1527 442.522 96.544 442.522 95.84C442.522 95.092 442.808 94.4393 443.38 93.882C443.952 93.31 444.773 93.024 445.844 93.024C446.416 93.024 446.995 93.1413 447.582 93.376C448.183 93.6107 448.763 94.036 449.32 94.652C449.877 95.2533 450.383 96.1187 450.838 97.248L450.904 97.226C450.845 96.8153 450.794 96.2873 450.75 95.642C450.706 94.9967 450.684 94.058 450.684 92.826V89.856H441.73L440.41 88.536V88.36H452.994L454.314 89.68V89.856H452.444V97.424C452.444 98.26 452.451 99.074 452.466 99.866C452.481 100.658 452.51 101.611 452.554 102.726Z" fill="white"/>
<circle cx="82" cy="82" r="82" fill="#016CA7"/>
<path d="M114.177 109.358C115.626 109.91 115.998 110.461 116 111.965C116 112.905 116 113.846 116 114.787C115.978 116.134 115.148 116.991 113.812 116.991C108.781 117.003 103.75 117.003 98.7198 116.991C97.3836 116.991 96.5393 116.139 96.5172 114.787C96.4952 113.719 96.4952 112.648 96.5172 111.583C96.5466 110.238 97.3787 109.417 98.7198 109.378C99.427 109.358 100.134 109.378 100.993 109.378C100.788 108.597 100.641 107.908 100.406 107.254C100.335 107.154 100.241 107.072 100.133 107.014C100.025 106.956 99.9046 106.923 99.7819 106.919C98.2817 106.892 96.784 106.904 95.2838 106.904H63.6356C63.4325 107.69 63.2343 108.467 63.0018 109.376C63.8094 109.376 64.4702 109.376 65.1554 109.376C66.6458 109.395 67.4754 110.208 67.4925 111.683C67.5072 112.702 67.5097 113.719 67.4925 114.735C67.4656 116.127 66.6336 116.974 65.2508 116.977C60.247 116.987 55.2415 116.987 50.2344 116.977C48.8468 116.977 48.0171 116.122 48 114.735C48 113.844 48 112.954 48 112.065C48 110.419 48.301 109.954 49.6715 109.385C49.6715 107.426 49.5712 105.481 49.6984 103.563C49.8428 101.358 50.1879 99.1804 50.4497 96.9904C50.8927 93.4116 51.321 89.8278 51.8129 86.2563C52.3488 82.3541 53.0365 78.4788 54.7325 74.8754C55.4538 73.307 56.468 71.891 57.7206 70.7038C57.9386 70.4462 58.0552 70.1178 58.0485 69.7803C58.0681 64.058 58.0485 58.3357 58.0632 52.6135C58.0632 49.7376 59.7763 48.0131 62.6567 48.0131C73.6091 48.0131 84.5598 48.009 95.509 48.0009C95.7984 47.9923 96.0863 48.0465 96.3529 48.1598C96.6195 48.2732 96.8584 48.4429 97.0532 48.6574C99.7876 51.4238 102.537 54.1755 105.301 56.9125C105.514 57.107 105.683 57.346 105.794 57.6126C105.906 57.8791 105.958 58.1669 105.947 58.4558C105.925 62.2184 105.947 65.9834 105.927 69.746C105.913 69.9553 105.947 70.1651 106.027 70.3589C106.107 70.5527 106.231 70.7253 106.39 70.863C108.541 72.8643 109.681 75.4536 110.523 78.2118C111.683 81.9719 112.121 85.8913 112.647 89.7837C113.107 93.2572 113.763 96.7087 114.086 100.192C114.331 102.887 114.213 105.623 114.248 108.342C114.25 108.673 114.204 108.998 114.177 109.358ZM64.3649 104.783H99.6595C99.6784 104.726 99.6884 104.666 99.6889 104.606C99.0192 101.078 98.9662 97.4601 99.5323 93.9137C99.5984 93.4753 99.4148 93.2817 99.082 93.0735C97.2971 91.9598 95.5196 90.8321 93.7494 89.6906C92.4083 88.8284 91.7426 87.5889 91.9873 86.0162C92.4009 83.3021 95.2691 82.0038 97.6161 83.4466C99.498 84.6004 101.346 85.8056 103.211 86.9863C103.384 87.0965 103.57 87.1871 103.778 87.3023V59.0118C102.163 59.0118 100.597 59.0388 99.0233 59.0118C97.9446 58.9984 96.9141 58.5628 96.1525 57.7981C95.3909 57.0335 94.9587 56.0007 94.9485 54.921C94.9241 53.7525 94.9485 52.5816 94.9485 51.4132C94.9485 50.9943 94.9485 50.5754 94.9485 50.132H62.8207C60.8629 50.132 60.1679 50.8326 60.1679 52.7801V87.3415C60.4884 87.1479 60.7014 87.0279 60.902 86.8956C62.6788 85.7705 64.4555 84.6428 66.2322 83.5127C67.0545 82.9885 67.9306 82.7093 68.9071 82.8783C70.4856 83.1502 71.6211 84.2158 71.9392 85.7027C72.1264 86.4497 72.0685 87.2371 71.7741 87.9487C71.4797 88.6602 70.9645 89.258 70.3045 89.6539C68.5596 90.7905 66.8244 91.9198 65.0379 92.9951C64.4848 93.3258 64.4604 93.6835 64.4971 94.2199C64.6317 96.1943 64.8005 98.1736 64.7859 100.15C64.7761 101.684 64.5167 103.22 64.3649 104.783ZM58.0632 73.6433L57.8503 73.5625C57.3608 74.4982 56.7955 75.4046 56.3819 76.3697C54.7202 80.1862 54.1794 84.2697 53.6483 88.3458C53.1784 91.8977 52.8554 95.4741 52.2216 98.9918C51.6367 102.24 51.808 105.471 51.8642 108.717C51.8832 108.932 51.9175 109.146 51.967 109.356H60.8433C61.2544 107.886 61.6656 106.524 62.0278 105.138C63.0458 101.253 62.9259 97.3334 62.297 93.4116C62.1722 92.635 62.4193 92.1868 63.063 91.7777C65.0477 90.5529 67.0227 89.306 68.9634 88.0127C69.392 87.7158 69.7225 87.298 69.9129 86.8123C70.1332 86.1975 69.8517 85.612 69.2913 85.2275C69.0232 85.0301 68.6991 84.9236 68.3662 84.9236C68.0334 84.9236 67.7093 85.0301 67.4412 85.2275C64.9596 86.8074 62.4854 88.3972 59.977 89.9356C59.5772 90.1657 59.1068 90.2407 58.6554 90.1463C58.0877 89.9968 58.0632 89.4114 58.0656 88.8749C58.0656 86.9667 58.0656 85.0609 58.0656 83.1526L58.0632 73.6433ZM105.934 73.4351C105.934 78.7091 105.949 83.7699 105.912 88.8308C105.899 89.3157 105.709 89.779 105.379 90.134C104.921 90.5725 104.4 90.2124 103.93 89.916C101.579 88.4168 99.2239 86.9209 96.8648 85.4283C96.575 85.226 96.2543 85.0721 95.9152 84.9727C95.5515 84.8898 95.1701 84.9439 94.8437 85.1246C94.5173 85.3053 94.2689 85.6001 94.1458 85.9525C93.8522 86.7046 94.0895 87.4223 94.8531 87.9122C96.9023 89.2301 98.958 90.5366 101.02 91.8316C101.291 91.9703 101.506 92.1969 101.631 92.4742C101.756 92.7514 101.783 93.0629 101.708 93.3577C101.204 96.5422 100.949 99.7266 101.541 102.911C101.94 105.067 102.555 107.183 103.081 109.346H112.219C112.219 107.421 112.241 105.54 112.219 103.663C112.217 102.546 112.15 101.429 112.018 100.319C111.602 97.1742 111.093 94.0411 110.68 90.8958C110.171 87.0181 109.772 83.1257 108.695 79.3484C108.103 77.3006 107.351 75.3262 105.934 73.4351ZM50.1316 114.853H65.3292V111.541H50.1316V114.853ZM113.868 111.539H98.6611V114.89H113.866L113.868 111.539ZM102.036 56.8929L97.0556 51.9031C97.0556 52.8829 97.0018 54 97.0703 55.1023C97.094 55.5656 97.2885 56.0037 97.6162 56.3318C97.944 56.6599 98.3817 56.8546 98.8446 56.8782C99.9508 56.9395 101.062 56.8929 102.036 56.8929Z" fill="#F0F0F0"/>
<path d="M81.0084 66.7562C83.2157 67.9207 84.8059 69.6339 85.5179 72.0802C85.7995 73.0951 85.9495 74.1453 85.9641 75.2023C86.0282 77.6336 85.9879 80.07 85.9831 82.5038C85.9831 83.6908 85.6722 84 84.5235 84H70.4846C69.3145 84 69.0274 83.6908 69.025 82.4265C69.025 80.2794 69.0914 78.1274 69.0107 75.9828C68.8541 71.8258 70.4063 68.7237 73.9949 66.7387C72.737 65.4046 72.0511 63.8361 72.2623 61.9409C72.3318 61.2179 72.539 60.5169 72.8718 59.8799C73.2045 59.2428 73.6559 58.6826 74.199 58.2328C75.2342 57.3523 76.5483 56.9165 77.877 57.0132C79.2056 57.1099 80.45 57.7319 81.3597 58.754C83.3842 61.0257 83.2727 64.1528 81.0084 66.7562ZM83.9348 81.8305C83.9348 79.267 84.101 76.7259 83.8945 74.2198C83.6097 70.7286 81.0464 68.3172 77.7853 68.1327C76.2722 68.0411 74.7781 68.5235 73.5749 69.4919C72.3718 70.4603 71.5396 71.8505 71.2299 73.4093C70.9759 74.7335 71.059 76.1324 71.0305 77.499C71.002 78.9378 71.0305 80.3792 71.0305 81.8305H83.9348ZM77.5266 59.138C77.096 59.1323 76.6686 59.217 76.2696 59.3872C75.8706 59.5574 75.5079 59.8095 75.2028 60.1289C74.8977 60.4482 74.6564 60.8284 74.493 61.247C74.3296 61.6656 74.2474 62.1143 74.2513 62.5668C74.2465 63.4735 74.5848 64.3451 75.1917 64.9898C75.7986 65.6344 76.6244 65.9994 77.4874 66.0043C78.3504 66.0093 79.18 65.6539 79.7935 65.0162C80.4071 64.3786 80.7545 63.5109 80.7592 62.6042C80.7687 62.1521 80.6919 61.7026 80.5333 61.2822C80.3746 60.8618 80.1374 60.4791 79.8356 60.1566C79.5338 59.8342 79.1736 59.5786 78.7762 59.4049C78.3788 59.2312 77.9523 59.143 77.5218 59.1455L77.5266 59.138Z" fill="#F0F0F0"/>
<path d="M91.8056 80.5898C92.9062 79.2445 93.9683 77.9584 95.0256 76.6591C95.6817 75.8631 96.292 75.7875 96.7294 76.4355C97.1667 77.0835 97.0802 77.9189 96.4242 78.7215C95.1634 80.2719 93.8986 81.8167 92.6298 83.3561C91.9089 84.2442 91.4283 84.2179 90.7843 83.2508C90.3037 82.5239 89.8062 81.7937 89.3425 81.0437C88.8787 80.2938 88.8931 79.4945 89.3425 78.9485C89.7918 78.4025 90.3613 78.4551 90.8636 79.159C91.164 79.6293 91.4788 80.1129 91.8056 80.5898Z" fill="#F0F0F0"/>
<path d="M91.8007 61.0396C92.9397 59.8199 94.0116 58.6636 95.093 57.5187C95.7117 56.86 96.292 56.8312 96.7308 57.418C97.1697 58.0048 97.069 58.6837 96.4503 59.351C95.1714 60.7299 93.8925 62.103 92.6136 63.4703C91.9086 64.2182 91.4146 64.175 90.7671 63.3351C90.2756 62.7022 89.7864 62.0636 89.3284 61.4049C88.8704 60.7462 88.8991 60.027 89.3667 59.5783C89.8823 59.0835 90.3835 59.1871 90.8271 59.7365C91.1412 60.145 91.4482 60.5736 91.8007 61.0396Z" fill="#F0F0F0"/>
<path d="M91.8035 70.4492C92.9196 69.4307 93.9877 68.4466 95.0655 67.4723C95.7289 66.872 96.3084 66.8474 96.7419 67.3788C97.1754 67.9102 97.058 68.4416 96.4258 69.0272C95.1485 70.2032 93.8712 71.3743 92.5939 72.5404C91.8754 73.1776 91.4299 73.153 90.812 72.4617C90.3067 71.9007 89.799 71.3373 89.32 70.7543C88.8745 70.213 88.8961 69.5709 89.3727 69.1969C89.8876 68.7934 90.3929 68.8796 90.8336 69.3495C91.1737 69.7111 91.4635 70.0654 91.8035 70.4492Z" fill="#F0F0F0"/>
<path d="M76.6496 91.0967L77.5102 90.7164L77.6967 90.6314L78.0888 90.4337L79.0976 89.9758L79.4227 89.8482L80.0155 89.598C80.1566 89.5354 80.2952 89.4654 80.4363 89.4003L80.7279 89.2702L81.7774 88.7973L82.1001 88.6497L83.1448 88.1693L83.4627 88.0467L84.4811 87.5763L84.8397 87.4137L88 86C87.9235 86.2302 87.8542 86.4429 87.7777 86.653C87.6605 86.9733 87.5386 87.2936 87.4191 87.6113C87.3832 87.7064 87.345 87.7965 87.3091 87.8891L87.2302 88.1393L87.0103 88.7523L86.9027 89.0025C86.8262 89.2102 86.7521 89.4179 86.6756 89.623C86.6613 89.6906 86.6446 89.7556 86.6302 89.8207C86.6159 89.8857 86.537 90.0183 86.4939 90.1209C86.4509 90.2235 86.3935 90.3711 86.3433 90.5038L86.2764 90.754L86.0374 91.402L85.9489 91.6072L85.7098 92.2252L85.6501 92.4279C85.5545 92.6555 85.4612 92.8832 85.368 93.1134C85.3513 93.181 85.3321 93.2485 85.313 93.3161C85.2365 93.5313 85.1576 93.749 85.074 93.9666L84.9783 94.1668C84.8994 94.3845 84.8206 94.6047 84.7393 94.8224L84.6676 95.0726L84.4596 95.653L84.3401 95.9258C84.2636 96.1334 84.1871 96.3411 84.101 96.5488L84.0532 96.7089L83.7687 97.427L83.7042 97.6322L83.4651 98.2827L83.3671 98.4879L83.128 99.1359L83.0635 99.3411L82.9177 99.6714C82.8746 99.7765 82.8364 99.8841 82.7981 99.9917L82.7216 100.222L82.5041 100.837L82.2172 100.71L82.0882 100.642L81.8491 100.465L81.7415 100.392L81.4451 100.227L81.3495 100.162L81.0889 99.9041L80.9574 99.834L80.7184 99.6914L80.6682 99.6188L80.3144 99.4212L80.2163 99.3586L79.9558 99.1835L79.8578 99.1184L79.6187 98.9758C79.5566 98.9758 79.4777 98.9483 79.4346 98.9758C79.2697 99.0984 79.1143 99.226 78.9565 99.3736C78.641 99.6389 78.323 99.9016 78.0123 100.167C77.7445 100.394 77.4839 100.627 77.221 100.857L77.0058 101V100.69L77.0202 100.515L77.0943 99.4212V99.2861L77.123 98.8432L77.1516 98.6355L77.1756 98.1952V98.0225L77.2162 97.5771V97.407C77.2153 97.1996 77.2772 96.9973 77.3931 96.829L77.8186 96.3536C78.225 95.8532 78.629 95.3703 79.0306 94.8799C79.0535 94.8481 79.0743 94.8147 79.0928 94.7798L79.4418 94.3319L80.465 93.1059C80.5701 92.9783 80.6777 92.8557 80.7853 92.7256L81.2084 92.1827L81.6459 91.6547L81.6937 91.5997L81.7152 91.5746H81.677L81.622 91.6272C81.4212 91.7523 81.218 91.8774 81.0196 92.005C80.7423 92.1852 80.4674 92.3678 80.1948 92.5555C80.0801 92.6355 79.9725 92.7281 79.8602 92.8057L79.2745 93.1785L77.6011 94.3294L77.0991 94.6647L76.2193 95.2727C76.1028 95.3379 75.9902 95.4106 75.8823 95.4904C75.8358 95.5434 75.7732 95.5778 75.7052 95.5879C75.6372 95.5979 75.568 95.5829 75.5093 95.5455L75.4065 95.4729L75.1125 95.2627L75.0575 95.2352L74.7491 95.035L74.675 94.9925L74.4001 94.7948L74.2591 94.6997L73.965 94.5271L73.867 94.457L73.628 94.2869L73.5013 94.2118L73.2144 94.0417L73.1499 94.0092L72.8463 93.774L72.7172 93.7039L72 93.2035L72.2391 93.0684L72.6311 92.9008L73.2598 92.623L73.6423 92.4479L73.9722 92.3003L74.981 91.8424L75.3372 91.6822C75.5763 91.5847 75.7986 91.4871 76.0281 91.3845C76.1596 91.3244 76.2863 91.2544 76.4154 91.1868L76.6496 91.0967Z" fill="#E25A6F"/>
</svg>
