<svg width="319" height="108" viewBox="0 0 319 108" fill="none" xmlns="http://www.w3.org/2000/svg">
<path d="M18.125 54.5C19.1406 54.5 20 55.3594 20 56.375V61.375C20 62.4297 19.1406 63.25 18.125 63.25H13.125C12.0703 63.25 11.25 62.4297 11.25 61.375V52C11.25 48.5625 14.0234 45.75 17.5 45.75H17.8125C18.3203 45.75 18.75 46.1797 18.75 46.6875V48.5625C18.75 49.1094 18.3203 49.5 17.8125 49.5H17.5C16.0938 49.5 15 50.6328 15 52V54.5H18.125ZM6.875 54.5C7.89062 54.5 8.75 55.3594 8.75 56.375V61.375C8.75 62.4297 7.89062 63.25 6.875 63.25H1.875C0.820312 63.25 0 62.4297 0 61.375V52C0 48.5625 2.77344 45.75 6.25 45.75H6.5625C7.07031 45.75 7.5 46.1797 7.5 46.6875V48.5625C7.5 49.1094 7.07031 49.5 6.5625 49.5H6.25C4.84375 49.5 3.75 50.6328 3.75 52V54.5H6.875Z" fill="#B1466E" fill-opacity="0.5"/>
<path d="M300.697 55.0601C299.682 55.0601 298.822 54.2007 298.822 53.1851V48.1851C298.822 47.1304 299.682 46.3101 300.697 46.3101H305.697C306.752 46.3101 307.572 47.1304 307.572 48.1851V57.5601C307.572 60.9976 304.799 63.8101 301.322 63.8101H301.01C300.502 63.8101 300.072 63.3804 300.072 62.8726V60.9976C300.072 60.4507 300.502 60.0601 301.01 60.0601H301.322C302.729 60.0601 303.822 58.9272 303.822 57.5601V55.0601H300.697ZM311.947 55.0601C310.932 55.0601 310.072 54.2007 310.072 53.1851V48.1851C310.072 47.1304 310.932 46.3101 311.947 46.3101H316.947C318.002 46.3101 318.822 47.1304 318.822 48.1851V57.5601C318.822 60.9976 316.049 63.8101 312.572 63.8101H312.26C311.752 63.8101 311.322 63.3804 311.322 62.8726V60.9976C311.322 60.4507 311.752 60.0601 312.26 60.0601H312.572C313.979 60.0601 315.072 58.9272 315.072 57.5601V55.0601H311.947Z" fill="#B1466E" fill-opacity="0.5"/>
<path d="M41.7445 38.544C41.1685 38.544 40.6512 38.4 40.1925 38.112C39.7338 37.824 39.3445 37.44 39.0245 36.96C38.7045 36.48 38.4592 35.9467 38.2885 35.36C38.1178 34.7627 38.0325 34.1547 38.0325 33.536C38.0325 32.7573 38.1605 32.0427 38.4165 31.392C38.6725 30.7307 39.0192 30.1547 39.4565 29.664C39.9045 29.1733 40.4165 28.7893 40.9925 28.512C41.5792 28.2347 42.1978 28.0907 42.8485 28.08L43.8085 29.04V29.168C43.3498 29.168 42.8592 29.2587 42.3365 29.44C41.8245 29.6213 41.3392 29.9147 40.8805 30.32C40.4218 30.7253 40.0485 31.2533 39.7605 31.904C39.4725 32.5547 39.3285 33.344 39.3285 34.272C39.3285 34.9227 39.4032 35.5147 39.5525 36.048C39.7125 36.5707 39.9418 36.9867 40.2405 37.296C40.5498 37.6053 40.9232 37.76 41.3605 37.76C41.3712 37.76 41.3978 37.76 41.4405 37.76C41.4832 37.7493 41.5258 37.7387 41.5685 37.728V37.696C41.4618 37.5893 41.3818 37.472 41.3285 37.344C41.2752 37.2053 41.2485 37.0667 41.2485 36.928C41.2485 36.6613 41.3445 36.4213 41.5365 36.208C41.7285 35.984 42.0005 35.872 42.3525 35.872C42.6832 35.872 42.9765 35.9787 43.2325 36.192C43.4992 36.3947 43.6325 36.6987 43.6325 37.104C43.6325 37.5413 43.4565 37.888 43.1045 38.144C42.7525 38.4107 42.2992 38.544 41.7445 38.544ZM50.1043 37.328C49.3043 37.328 48.5256 37.0827 47.7682 36.592C47.0109 36.1013 46.3123 35.3067 45.6723 34.208C45.0323 33.1093 44.4776 31.6587 44.0083 29.856H44.1683L44.6483 30C45.1176 31.4827 45.6349 32.6507 46.2003 33.504C46.7656 34.3467 47.3576 34.944 47.9763 35.296C48.5949 35.6373 49.2136 35.808 49.8323 35.808C50.4189 35.808 50.9256 35.6907 51.3523 35.456C51.7789 35.2213 52.1096 34.9173 52.3443 34.544C52.5896 34.1707 52.7123 33.7707 52.7123 33.344C52.7123 32.9813 52.6323 32.64 52.4722 32.32C52.3123 31.9893 52.0883 31.7173 51.8003 31.504C51.5123 31.2907 51.1816 31.184 50.8083 31.184C50.7443 31.184 50.6643 31.1893 50.5683 31.2C50.4829 31.2107 50.3976 31.232 50.3123 31.264C50.4829 31.4133 50.6056 31.5893 50.6803 31.792C50.7549 31.984 50.7923 32.176 50.7923 32.368C50.7923 32.752 50.6536 33.0933 50.3763 33.392C50.0989 33.68 49.7416 33.824 49.3043 33.824C49.0483 33.824 48.7923 33.7653 48.5363 33.648C48.2909 33.52 48.0883 33.3333 47.9283 33.088C47.7683 32.8427 47.6883 32.5333 47.6883 32.16C47.6883 31.744 47.7949 31.376 48.0083 31.056C48.2216 30.7253 48.5149 30.4693 48.8883 30.288C49.2616 30.096 49.6829 30 50.1523 30C50.7923 30 51.3736 30.1653 51.8963 30.496C52.4189 30.8267 52.8296 31.2747 53.1283 31.84C53.4376 32.3947 53.5923 33.0293 53.5923 33.744C53.5923 34.4267 53.4429 35.04 53.1443 35.584C52.8456 36.128 52.4349 36.5547 51.9123 36.864C51.3896 37.1733 50.7869 37.328 50.1043 37.328ZM54.5843 29.168H43.8163L42.8562 28.208V28.08H53.6243L54.5843 29.04V29.168ZM57.2379 38.688H57.0619L55.9579 37.84V32.32C55.9579 31.7547 55.9152 31.2373 55.8299 30.768C55.7445 30.288 55.5739 29.904 55.3179 29.616C55.0725 29.3173 54.7045 29.168 54.2139 29.168L53.4619 28.208V28.08H53.6219C54.0272 28.08 54.3792 28.1227 54.6779 28.208C54.9765 28.2933 55.2379 28.4693 55.4619 28.736C55.6965 29.0027 55.9099 29.4027 56.1019 29.936L56.1499 29.92C56.1072 29.6427 56.0805 29.3973 56.0699 29.184C56.0592 28.96 56.0539 28.688 56.0539 28.368V26.24H56.1659L56.8539 26.736L56.8699 27.152C56.9019 27.504 56.9552 27.7493 57.0299 27.888C57.1152 28.016 57.2859 28.08 57.5419 28.08L58.5019 29.04V29.168H57.8299C57.6165 29.168 57.4459 29.1253 57.3179 29.04C57.2005 28.9547 57.0992 28.8587 57.0139 28.752L56.9499 28.784L57.2379 38.688ZM66.5998 38.528H66.4237L65.9918 38.256C65.8638 37.8507 65.6878 37.4347 65.4638 37.008C65.2398 36.5707 64.9464 36.16 64.5838 35.776C64.2318 35.3813 63.7784 35.0453 63.2238 34.768C63.0424 35.0773 62.7971 35.344 62.4878 35.568C62.1784 35.7813 61.8104 35.888 61.3838 35.888C60.8078 35.888 60.3704 35.7173 60.0718 35.376C59.7731 35.024 59.6238 34.64 59.6238 34.224C59.6238 33.8187 59.7678 33.4507 60.0558 33.12C60.3544 32.7787 60.7758 32.608 61.3198 32.608C61.6291 32.608 61.9544 32.6827 62.2958 32.832C62.4131 32.7467 62.4718 32.592 62.4718 32.368C62.4718 32.0587 62.3438 31.7547 62.0878 31.456C61.8318 31.1467 61.5118 30.864 61.1278 30.608C60.7438 30.352 60.3544 30.1387 59.9598 29.968C59.5651 29.7867 59.2291 29.6693 58.9518 29.616L57.5437 28.208V28.08H66.9198L67.8798 29.04V29.168H66.5198V34.672C66.5198 35.28 66.5251 35.872 66.5358 36.448C66.5464 37.024 66.5678 37.7173 66.5998 38.528ZM65.2558 29.168H60.9518L60.9358 29.2C61.9278 29.9893 62.6211 30.7413 63.0158 31.456C63.4211 32.16 63.6238 32.8053 63.6238 33.392C63.6238 33.4987 63.6131 33.6107 63.5918 33.728C63.9331 34.0373 64.2531 34.3733 64.5518 34.736C64.8504 35.0987 65.1118 35.4507 65.3358 35.792L65.3838 35.76C65.3411 35.4933 65.3091 35.1787 65.2878 34.816C65.2771 34.4533 65.2664 34.0107 65.2558 33.488C65.2558 32.9547 65.2558 32.2987 65.2558 31.52V29.168ZM75.1748 38.528H74.9988L74.5508 38.256C74.3588 37.7227 74.0228 37.184 73.5428 36.64C73.0628 36.0853 72.4548 35.6 71.7188 35.184C70.9934 34.768 70.1508 34.496 69.1908 34.368L67.9268 32.784C68.9934 32.1333 70.0228 31.552 71.0148 31.04C72.0174 30.5173 72.9508 30.0747 73.8148 29.712V29.168H67.8788L66.9187 28.208V28.08H75.4788L76.4388 29.04V29.168H75.0788V34.672C75.0788 35.28 75.0841 35.872 75.0948 36.448C75.1054 37.024 75.1321 37.7173 75.1748 38.528ZM73.8148 31.248C73.1748 31.5253 72.5348 31.824 71.8948 32.144C71.2548 32.4533 70.6361 32.8 70.0388 33.184L70.0548 33.232C70.6841 33.4667 71.3241 33.7973 71.9748 34.224C72.6254 34.64 73.2761 35.2533 73.9268 36.064L73.9748 36.032C73.9001 35.6373 73.8521 35.0347 73.8308 34.224C73.8201 33.4133 73.8148 32.4213 73.8148 31.248ZM70.9188 38.064C70.6414 38.064 70.4068 37.968 70.2148 37.776C70.0228 37.5733 69.9268 37.3387 69.9268 37.072C69.9268 36.7947 70.0228 36.5653 70.2148 36.384C70.4068 36.192 70.6414 36.096 70.9188 36.096C71.1961 36.096 71.4254 36.192 71.6068 36.384C71.7988 36.5653 71.8948 36.7947 71.8948 37.072C71.8948 37.3387 71.7988 37.5733 71.6068 37.776C71.4254 37.968 71.1961 38.064 70.9188 38.064ZM79.0973 38.688H78.9213L77.8173 37.84V32.32C77.8173 31.7547 77.7746 31.2373 77.6893 30.768C77.6039 30.288 77.4333 29.904 77.1773 29.616C76.9319 29.3173 76.5639 29.168 76.0732 29.168L75.3212 28.208V28.08H75.4812C75.8866 28.08 76.2386 28.1227 76.5373 28.208C76.8359 28.2933 77.0973 28.4693 77.3213 28.736C77.5559 29.0027 77.7693 29.4027 77.9613 29.936L78.0093 29.92C77.9666 29.6213 77.9399 29.36 77.9293 29.136C77.9186 28.9013 77.9133 28.6453 77.9133 28.368V26.24H78.0253L78.7293 26.768L79.0973 38.688ZM86.8405 35.664C86.4458 35.664 86.0512 35.4933 85.6565 35.152C85.2725 34.8107 84.9418 34.3573 84.6645 33.792L85.1765 33.408H85.3045C85.4325 33.7387 85.5712 33.9733 85.7205 34.112C85.8805 34.2507 86.0245 34.32 86.1525 34.32C86.3552 34.32 86.5792 34.1813 86.8245 33.904C87.0698 33.6267 87.3525 33.2853 87.6725 32.88C87.8218 32.4533 87.8965 32.096 87.8965 31.808C87.8965 31.3493 87.7632 30.9707 87.4965 30.672C87.2405 30.3733 86.8885 30.1387 86.4405 29.968C85.9925 29.7867 85.4858 29.6693 84.9205 29.616L83.5125 28.208V28.08H93.1765L94.1365 29.04V29.168H92.6965L92.8085 38.688H92.6325L91.5445 37.84C91.5445 37.5947 91.5445 37.296 91.5445 36.944C91.5445 36.592 91.5445 36.2347 91.5445 35.872C91.5552 35.5093 91.5605 35.2 91.5605 34.944C91.5605 34.6773 91.5605 34.5173 91.5605 34.464C91.5605 34.0373 91.4965 33.696 91.3685 33.44C91.2405 33.1733 91.0805 32.9813 90.8885 32.864C90.7072 32.736 90.5365 32.672 90.3765 32.672C90.1525 32.672 89.9125 32.7787 89.6565 32.992C89.4112 33.1947 89.1125 33.5147 88.7605 33.952C88.4085 34.3893 88.1258 34.736 87.9125 34.992C87.7098 35.2373 87.5285 35.4133 87.3685 35.52C87.2192 35.616 87.0432 35.664 86.8405 35.664ZM91.5765 29.168H87.5285V29.216C87.8805 29.4187 88.1312 29.6907 88.2805 30.032C88.4298 30.3733 88.5045 30.72 88.5045 31.072C88.5045 31.392 88.4565 31.696 88.3605 31.984L88.4085 32.016C88.6858 31.7387 88.9205 31.5467 89.1125 31.44C89.3152 31.3227 89.5338 31.264 89.7685 31.264C90.1098 31.264 90.4405 31.4027 90.7605 31.68C91.0912 31.9573 91.3898 32.3307 91.6565 32.8L91.6885 32.784C91.6458 32.5707 91.6192 32.3413 91.6085 32.096C91.5978 31.84 91.5872 31.5413 91.5765 31.2C91.5765 30.848 91.5765 30.4053 91.5765 29.872V29.168ZM103.393 39.968H103.281C102.342 39.2107 101.451 38.5813 100.609 38.08C99.7768 37.5787 98.9554 37.168 98.1448 36.848C97.3341 36.528 96.4914 36.272 95.6168 36.08L94.5608 34.112L94.6408 34.032C95.2274 34.256 95.6808 34.4 96.0008 34.464C96.3208 34.528 96.5981 34.56 96.8328 34.56C97.2594 34.56 97.6914 34.5013 98.1288 34.384C98.5661 34.256 98.9661 34.0853 99.3288 33.872C99.7021 33.648 100.001 33.392 100.225 33.104C100.459 32.8053 100.577 32.4853 100.577 32.144C100.577 31.7707 100.438 31.4933 100.161 31.312C99.8941 31.12 99.5901 31.024 99.2488 31.024C98.9501 31.024 98.6728 31.0827 98.4168 31.2C98.3421 31.744 98.1234 32.176 97.7608 32.496C97.4088 32.8053 96.9821 32.96 96.4808 32.96C96.0861 32.96 95.7501 32.8587 95.4728 32.656C95.2061 32.4533 95.0728 32.1707 95.0728 31.808C95.0728 31.4347 95.2008 31.1253 95.4568 30.88C95.7234 30.624 96.0488 30.4267 96.4328 30.288C96.8168 30.1387 97.2008 30.0427 97.5848 30C97.5421 29.7013 97.3928 29.424 97.1368 29.168H94.1288L93.1687 28.208V28.08H101.793L102.753 29.04V29.168H98.2248C98.2674 29.296 98.2994 29.4293 98.3208 29.568C98.3528 29.7067 98.3848 29.8507 98.4168 30C99.3448 30.064 100.097 30.3413 100.673 30.832C101.259 31.312 101.553 31.9413 101.553 32.72C101.553 33.52 101.27 34.16 100.705 34.64C100.139 35.12 99.4194 35.4827 98.5448 35.728V35.776C99.4834 36.288 100.251 36.7573 100.849 37.184C101.446 37.6 101.926 37.9733 102.289 38.304C102.662 38.6453 102.955 38.944 103.169 39.2L103.393 39.968ZM107.906 37.216C107.159 37.216 106.46 37.0027 105.81 36.576C105.159 36.1387 104.588 35.4133 104.098 34.4C103.618 33.376 103.25 31.984 102.994 30.224H103.154L103.634 30.368C103.996 32.16 104.498 33.4987 105.138 34.384C105.778 35.2693 106.62 35.712 107.666 35.712C108.38 35.712 108.924 35.5467 109.298 35.216C109.671 34.8853 109.858 34.5333 109.858 34.16C109.858 34.0107 109.826 33.8613 109.762 33.712C109.698 33.552 109.607 33.4133 109.49 33.296C109.244 33.5093 108.946 33.6853 108.594 33.824C108.242 33.9627 107.884 34.032 107.522 34.032C107.063 34.032 106.642 33.92 106.258 33.696C105.874 33.472 105.564 33.168 105.33 32.784C105.106 32.4 104.994 31.968 104.994 31.488C104.994 31.0827 105.084 30.688 105.266 30.304C105.458 29.92 105.767 29.5573 106.194 29.216L106.178 29.168H102.754L101.794 28.208V28.08H114.354L115.314 29.04V29.168H109.17C108.967 29.2533 108.764 29.344 108.562 29.44C108.871 29.92 109.212 30.2293 109.586 30.368C109.959 30.496 110.316 30.56 110.658 30.56C111.031 30.56 111.383 30.512 111.714 30.416C112.044 30.3093 112.364 30.176 112.674 30.016L114.482 31.44V31.536C113.735 32.1227 113.212 32.768 112.914 33.472C112.626 34.1653 112.482 34.9067 112.482 35.696C112.482 36.1227 112.514 36.5813 112.578 37.072C112.642 37.5627 112.727 38.0587 112.834 38.56H112.658L112.194 38.272C112.002 37.7067 111.842 37.12 111.714 36.512C111.586 35.904 111.522 35.3067 111.522 34.72C111.522 34.176 111.586 33.632 111.714 33.088C111.852 32.5333 112.092 32.016 112.434 31.536L112.386 31.504C112.226 31.5573 112.06 31.6 111.89 31.632C111.719 31.6533 111.554 31.664 111.394 31.664C110.754 31.664 110.119 31.4933 109.49 31.152C108.86 30.8107 108.359 30.3467 107.986 29.76C107.463 30.0907 107.004 30.4693 106.61 30.896C106.215 31.3227 106.018 31.7493 106.018 32.176C106.018 32.3893 106.082 32.56 106.21 32.688C106.348 32.8053 106.535 32.864 106.77 32.864C107.036 32.864 107.346 32.784 107.698 32.624C108.06 32.464 108.434 32.2293 108.818 31.92L108.898 31.904C109.484 32.2027 109.922 32.5867 110.21 33.056C110.498 33.5147 110.642 34.0427 110.642 34.64C110.642 35.408 110.407 36.032 109.938 36.512C109.468 36.9813 108.791 37.216 107.906 37.216ZM126.481 38.528H126.305L125.857 38.256C125.686 37.712 125.366 37.1627 124.897 36.608C124.438 36.0427 123.851 35.5467 123.137 35.12C122.422 34.6933 121.601 34.4107 120.673 34.272L119.409 32.688C119.995 32.3253 120.609 31.968 121.249 31.616C121.899 31.2533 122.55 30.928 123.201 30.64C123.862 30.3413 124.513 30.1067 125.153 29.936V29.168H119.473L118.512 28.208V28.08H130.113L131.073 29.04V29.168H126.417V29.904C126.865 29.936 127.302 30.0533 127.729 30.256C128.166 30.448 128.561 30.7147 128.913 31.056C129.275 31.3867 129.558 31.7707 129.761 32.208C129.974 32.6347 130.081 33.104 130.081 33.616C130.081 34.0747 129.995 34.4533 129.825 34.752C129.665 35.04 129.457 35.2587 129.201 35.408C128.955 35.5467 128.699 35.616 128.433 35.616C128.102 35.616 127.809 35.5147 127.553 35.312C127.297 35.1093 127.169 34.832 127.169 34.48C127.169 34.1387 127.281 33.872 127.505 33.68C127.729 33.488 127.979 33.392 128.257 33.392C128.459 33.392 128.657 33.4507 128.849 33.568C129.051 33.6747 129.211 33.8453 129.329 34.08C129.435 33.8987 129.489 33.7067 129.489 33.504C129.489 33.184 129.35 32.8587 129.073 32.528C128.806 32.1867 128.438 31.8933 127.969 31.648C127.499 31.4027 126.982 31.264 126.417 31.232V34.672C126.417 35.28 126.417 35.872 126.417 36.448C126.427 37.024 126.449 37.7173 126.481 38.528ZM125.153 31.344C124.715 31.4827 124.273 31.6533 123.825 31.856C123.377 32.048 122.95 32.256 122.545 32.48C122.139 32.6933 121.793 32.8907 121.505 33.072L121.521 33.12C122.129 33.3653 122.747 33.712 123.377 34.16C124.017 34.5973 124.646 35.232 125.265 36.064H125.329C125.254 35.7227 125.206 35.1627 125.185 34.384C125.163 33.6053 125.153 32.592 125.153 31.344ZM135.514 38.544C134.938 38.544 134.416 38.4 133.946 38.112C133.488 37.8347 133.098 37.4613 132.778 36.992C132.458 36.512 132.213 35.984 132.042 35.408C131.872 34.8213 131.786 34.224 131.786 33.616C131.786 32.7627 131.957 31.952 132.298 31.184C132.65 30.416 133.173 29.76 133.866 29.216L133.85 29.168H131.066L130.106 28.208V28.08H136.586L137.546 29.04V29.168C136.981 29.168 136.432 29.28 135.898 29.504C135.365 29.728 134.885 30.064 134.458 30.512C134.042 30.9493 133.706 31.4933 133.45 32.144C133.205 32.784 133.082 33.5253 133.082 34.368C133.082 34.9973 133.157 35.5733 133.306 36.096C133.466 36.608 133.696 37.0133 133.994 37.312C134.304 37.6107 134.677 37.76 135.114 37.76C135.125 37.76 135.152 37.76 135.194 37.76C135.237 37.7493 135.28 37.7387 135.322 37.728V37.696C135.216 37.5893 135.136 37.472 135.082 37.344C135.029 37.2053 135.002 37.0667 135.002 36.928C135.002 36.6613 135.098 36.4213 135.29 36.208C135.482 35.984 135.754 35.872 136.106 35.872C136.437 35.872 136.73 35.9787 136.986 36.192C137.253 36.3947 137.386 36.6987 137.386 37.104C137.386 37.5307 137.21 37.8773 136.858 38.144C136.506 38.4107 136.058 38.544 135.514 38.544ZM144.847 38.528H144.671L144.223 38.256C144.031 37.7227 143.695 37.184 143.215 36.64C142.735 36.0853 142.127 35.6 141.391 35.184C140.665 34.768 139.823 34.496 138.863 34.368L137.599 32.784C138.665 32.1333 139.695 31.552 140.687 31.04C141.689 30.5173 142.623 30.0747 143.487 29.712V29.168H137.551L136.591 28.208V28.08H145.151L146.111 29.04V29.168H144.751V34.672C144.751 35.28 144.756 35.872 144.767 36.448C144.777 37.024 144.804 37.7173 144.847 38.528ZM143.487 31.248C142.847 31.5253 142.207 31.824 141.567 32.144C140.927 32.4533 140.308 32.8 139.711 33.184L139.727 33.232C140.356 33.4667 140.996 33.7973 141.647 34.224C142.297 34.64 142.948 35.2533 143.599 36.064L143.647 36.032C143.572 35.6373 143.524 35.0347 143.503 34.224C143.492 33.4133 143.487 32.4213 143.487 31.248ZM140.591 38.064C140.313 38.064 140.079 37.968 139.887 37.776C139.695 37.5733 139.599 37.3387 139.599 37.072C139.599 36.7947 139.695 36.5653 139.887 36.384C140.079 36.192 140.313 36.096 140.591 36.096C140.868 36.096 141.097 36.192 141.279 36.384C141.471 36.5653 141.567 36.7947 141.567 37.072C141.567 37.3387 141.471 37.5733 141.279 37.776C141.097 37.968 140.868 38.064 140.591 38.064ZM148.769 38.688H148.593L147.489 37.84V32.32C147.489 31.7547 147.446 31.2373 147.361 30.768C147.276 30.288 147.105 29.904 146.849 29.616C146.604 29.3173 146.236 29.168 145.745 29.168L144.993 28.208V28.08H145.153C145.558 28.08 145.91 28.1227 146.209 28.208C146.508 28.2933 146.769 28.4693 146.993 28.736C147.228 29.0027 147.441 29.4027 147.633 29.936L147.681 29.92C147.638 29.6213 147.612 29.36 147.601 29.136C147.59 28.9013 147.585 28.6453 147.585 28.368V26.24H147.697L148.401 26.768L148.769 38.688ZM163.648 38.576H163.472L163.024 38.304C162.886 37.8667 162.726 37.5253 162.544 37.28C162.363 37.0347 162.134 36.864 161.856 36.768C161.59 36.6613 161.243 36.608 160.816 36.608C160.379 36.608 159.888 36.64 159.344 36.704C158.8 36.768 158.326 36.8 157.92 36.8C157.248 36.8 156.651 36.672 156.128 36.416C155.616 36.16 155.211 35.7973 154.912 35.328C154.614 34.848 154.464 34.2827 154.464 33.632C154.464 33.2053 154.523 32.784 154.64 32.368C154.758 31.952 154.918 31.5787 155.12 31.248H155.264L155.632 31.488C155.494 31.776 155.392 32.0693 155.328 32.368C155.264 32.6667 155.232 32.9547 155.232 33.232C155.232 33.9147 155.424 34.448 155.808 34.832C156.192 35.216 156.816 35.408 157.68 35.408C157.968 35.408 158.32 35.392 158.736 35.36C159.152 35.328 159.526 35.312 159.856 35.312C160.326 35.312 160.768 35.3813 161.184 35.52C161.611 35.6587 162.038 35.9627 162.464 36.432L162.496 36.416C162.464 36.2347 162.432 36 162.4 35.712C162.379 35.424 162.358 35.024 162.336 34.512C162.315 34 162.304 33.328 162.304 32.496C162.304 31.8667 162.31 31.3493 162.32 30.944C162.331 30.528 162.336 30.112 162.336 29.696C162.336 29.472 162.304 29.3227 162.24 29.248C162.187 29.1733 162.118 29.136 162.032 29.136C161.894 29.136 161.691 29.2053 161.424 29.344C161.158 29.472 160.875 29.648 160.576 29.872C160.278 30.0853 160 30.3253 159.744 30.592C159.499 30.8587 159.323 31.1307 159.216 31.408L159.248 31.424C159.366 31.3813 159.499 31.36 159.648 31.36C159.958 31.36 160.23 31.472 160.464 31.696C160.71 31.9093 160.832 32.1973 160.832 32.56C160.832 32.88 160.715 33.184 160.48 33.472C160.246 33.7493 159.867 33.888 159.344 33.888C158.79 33.888 158.342 33.7173 158 33.376C157.659 33.024 157.488 32.5813 157.488 32.048C157.488 31.632 157.584 31.232 157.776 30.848C157.979 30.4533 158.235 30.0907 158.544 29.76C158.864 29.4187 159.206 29.1253 159.568 28.88C159.931 28.624 160.283 28.4267 160.624 28.288C160.966 28.1493 161.254 28.08 161.488 28.08C161.755 28.08 162.054 28.1653 162.384 28.336C162.715 28.496 163.003 28.7307 163.248 29.04C163.494 29.3387 163.616 29.696 163.616 30.112C163.616 30.88 163.611 31.648 163.6 32.416C163.59 33.184 163.584 33.952 163.584 34.72C163.584 35.328 163.584 35.92 163.584 36.496C163.595 37.072 163.616 37.7653 163.648 38.576ZM172.237 38.528H172.061L171.613 38.256C171.421 37.7227 171.085 37.184 170.605 36.64C170.125 36.0853 169.517 35.6 168.781 35.184C168.056 34.768 167.213 34.496 166.253 34.368L164.989 32.784C166.056 32.1333 167.085 31.552 168.077 31.04C169.08 30.5173 170.013 30.0747 170.877 29.712V29.168H164.941L163.981 28.208V28.08H172.541L173.501 29.04V29.168H172.141V34.672C172.141 35.28 172.147 35.872 172.157 36.448C172.168 37.024 172.195 37.7173 172.237 38.528ZM170.877 31.248C170.237 31.5253 169.597 31.824 168.957 32.144C168.317 32.4533 167.699 32.8 167.101 33.184L167.117 33.232C167.747 33.4667 168.387 33.7973 169.037 34.224C169.688 34.64 170.339 35.2533 170.989 36.064L171.037 36.032C170.963 35.6373 170.915 35.0347 170.893 34.224C170.883 33.4133 170.877 32.4213 170.877 31.248ZM176.56 32.336C176.165 32.336 175.797 32.2453 175.456 32.064C175.114 31.872 174.842 31.6213 174.64 31.312C174.437 31.0027 174.336 30.6667 174.336 30.304C174.336 29.9627 174.421 29.648 174.592 29.36C174.773 29.072 175.013 28.8427 175.312 28.672C175.621 28.4907 175.973 28.4 176.368 28.4C176.784 28.4 177.152 28.496 177.472 28.688C177.792 28.88 178.042 29.136 178.224 29.456C178.416 29.7653 178.512 30.1067 178.512 30.48C178.512 31.0347 178.32 31.4827 177.936 31.824C177.552 32.1653 177.093 32.336 176.56 32.336ZM179.504 38.848L179.392 38.88C178.741 38.1227 178.08 37.424 177.408 36.784C176.736 36.144 176.037 35.5147 175.312 34.896L174.992 32.784L175.088 32.752C175.536 33.2533 175.968 33.76 176.384 34.272C176.81 34.7733 177.258 35.3173 177.728 35.904C178.197 36.4907 178.714 37.1573 179.28 37.904L179.504 38.848ZM176 31.52C176.245 31.52 176.496 31.4507 176.752 31.312C177.018 31.1733 177.242 30.992 177.424 30.768C177.605 30.5333 177.696 30.2827 177.696 30.016C177.696 29.792 177.632 29.616 177.504 29.488C177.376 29.3493 177.189 29.28 176.944 29.28C176.72 29.28 176.474 29.3493 176.208 29.488C175.941 29.616 175.712 29.792 175.52 30.016C175.328 30.24 175.232 30.496 175.232 30.784C175.232 30.9973 175.296 31.1733 175.424 31.312C175.552 31.4507 175.744 31.52 176 31.52ZM190.871 38.528H190.695L190.247 38.256C190.076 37.712 189.756 37.1627 189.287 36.608C188.828 36.0427 188.242 35.5467 187.527 35.12C186.812 34.6933 185.991 34.4107 185.063 34.272L183.799 32.688C184.386 32.3253 184.999 31.968 185.639 31.616C186.29 31.2533 186.94 30.928 187.591 30.64C188.252 30.3413 188.903 30.1067 189.543 29.936V29.168H183.863L182.903 28.208V28.08H194.503L195.463 29.04V29.168H190.807V29.904C191.255 29.936 191.692 30.0533 192.119 30.256C192.556 30.448 192.951 30.7147 193.303 31.056C193.666 31.3867 193.948 31.7707 194.151 32.208C194.364 32.6347 194.471 33.104 194.471 33.616C194.471 34.0747 194.386 34.4533 194.215 34.752C194.055 35.04 193.847 35.2587 193.591 35.408C193.346 35.5467 193.09 35.616 192.823 35.616C192.492 35.616 192.199 35.5147 191.943 35.312C191.687 35.1093 191.559 34.832 191.559 34.48C191.559 34.1387 191.671 33.872 191.895 33.68C192.119 33.488 192.37 33.392 192.647 33.392C192.85 33.392 193.047 33.4507 193.239 33.568C193.442 33.6747 193.602 33.8453 193.719 34.08C193.826 33.8987 193.879 33.7067 193.879 33.504C193.879 33.184 193.74 32.8587 193.463 32.528C193.196 32.1867 192.828 31.8933 192.359 31.648C191.89 31.4027 191.372 31.264 190.807 31.232V34.672C190.807 35.28 190.807 35.872 190.807 36.448C190.818 37.024 190.839 37.7173 190.871 38.528ZM189.543 31.344C189.106 31.4827 188.663 31.6533 188.215 31.856C187.767 32.048 187.34 32.256 186.935 32.48C186.53 32.6933 186.183 32.8907 185.895 33.072L185.911 33.12C186.519 33.3653 187.138 33.712 187.767 34.16C188.407 34.5973 189.036 35.232 189.655 36.064H189.719C189.644 35.7227 189.596 35.1627 189.575 34.384C189.554 33.6053 189.543 32.592 189.543 31.344ZM198.081 38.688H197.905L196.817 37.84L196.849 29.168H195.457L194.497 28.208V28.08H196.801C196.556 27.7813 196.326 27.5147 196.113 27.28C195.91 27.0347 195.809 26.7253 195.809 26.352C195.809 25.9253 195.969 25.5147 196.289 25.12C196.62 24.7147 197.073 24.384 197.649 24.128C198.225 23.8613 198.897 23.728 199.665 23.728C200.369 23.728 201.089 23.856 201.825 24.112C202.572 24.368 203.292 24.7413 203.985 25.232C204.689 25.712 205.318 26.288 205.873 26.96L205.729 27.52H205.617C204.753 26.5707 203.873 25.8987 202.977 25.504C202.092 25.0987 201.228 24.896 200.385 24.896C199.702 24.896 199.116 24.9973 198.625 25.2C198.145 25.392 197.777 25.648 197.521 25.968C197.265 26.2773 197.137 26.6187 197.137 26.992C197.137 27.1627 197.169 27.3333 197.233 27.504C197.297 27.664 197.42 27.856 197.601 28.08H198.449L199.409 29.04V29.168H197.953L198.081 38.688ZM203.138 37.936C202.53 37.936 202.002 37.7973 201.554 37.52C201.117 37.232 200.775 36.864 200.53 36.416C200.295 35.9573 200.178 35.4773 200.178 34.976C200.178 34.8267 200.189 34.6507 200.21 34.448C200.242 34.2453 200.285 34.0587 200.338 33.888C200.935 33.7387 201.469 33.456 201.938 33.04C202.407 32.624 202.781 32.1227 203.058 31.536C203.335 30.9387 203.474 30.304 203.474 29.632C203.474 29.4507 203.463 29.296 203.442 29.168H199.41L198.45 28.208V28.08H202.93C202.717 27.7493 202.477 27.3813 202.21 26.976C201.943 26.56 201.714 26.1333 201.522 25.696C201.33 25.248 201.234 24.8213 201.234 24.416C201.234 23.9787 201.351 23.6373 201.586 23.392C201.831 23.1467 202.135 23.024 202.498 23.024C202.743 23.024 202.978 23.088 203.202 23.216C203.426 23.344 203.597 23.5947 203.714 23.968L203.618 24.064C203.479 24.0213 203.335 24 203.186 24C202.909 24 202.685 24.08 202.514 24.24C202.343 24.3893 202.258 24.6187 202.258 24.928C202.258 25.3653 202.407 25.8507 202.706 26.384C203.005 26.9173 203.367 27.4827 203.794 28.08H206.706L207.666 29.04V29.168H204.594C204.903 29.6053 205.207 30.0853 205.506 30.608C205.815 31.12 206.071 31.6693 206.274 32.256C206.477 32.832 206.578 33.4347 206.578 34.064C206.578 34.8 206.429 35.4613 206.13 36.048C205.831 36.624 205.421 37.0827 204.898 37.424C204.386 37.7653 203.799 37.936 203.138 37.936ZM204.258 29.792L204.21 29.808C204.317 30.2027 204.37 30.6027 204.37 31.008C204.37 31.968 204.082 32.8213 203.506 33.568C202.941 34.3147 202.189 34.8587 201.25 35.2C201.239 35.2533 201.229 35.3067 201.218 35.36C201.218 35.4027 201.218 35.4293 201.218 35.44C201.218 35.9093 201.351 36.2773 201.618 36.544C201.895 36.8107 202.258 36.944 202.706 36.944C202.973 36.944 203.261 36.8907 203.57 36.784C203.89 36.6773 204.194 36.496 204.482 36.24C204.77 35.984 205.005 35.6427 205.186 35.216C205.367 34.7893 205.458 34.256 205.458 33.616C205.458 32.8907 205.341 32.1973 205.106 31.536C204.871 30.864 204.589 30.2827 204.258 29.792ZM215.532 38.528H215.356L214.892 38.24C214.828 37.8987 214.732 37.4933 214.604 37.024C214.487 36.5547 214.327 36.0747 214.124 35.584C213.932 35.0827 213.692 34.6133 213.404 34.176C213.116 33.7387 212.775 33.376 212.38 33.088C211.996 32.8 211.543 32.6347 211.02 32.592L211.004 32.64C211.228 32.7787 211.399 32.96 211.516 33.184C211.633 33.3973 211.692 33.6267 211.692 33.872C211.692 34.2453 211.548 34.592 211.26 34.912C210.983 35.232 210.583 35.392 210.06 35.392C209.505 35.392 209.063 35.2107 208.732 34.848C208.401 34.4747 208.236 34.032 208.236 33.52C208.236 32.976 208.444 32.5013 208.86 32.096C209.276 31.68 209.873 31.472 210.652 31.472C211.068 31.472 211.489 31.5573 211.916 31.728C212.353 31.8987 212.775 32.208 213.18 32.656C213.585 33.0933 213.953 33.7227 214.284 34.544L214.332 34.528C214.289 34.2293 214.252 33.8453 214.22 33.376C214.188 32.9067 214.172 32.224 214.172 31.328V29.168H207.66L206.7 28.208V28.08H215.852L216.812 29.04V29.168H215.452V34.672C215.452 35.28 215.457 35.872 215.468 36.448C215.479 37.024 215.5 37.7173 215.532 38.528ZM227.981 38.528H227.805L227.357 38.256C227.186 37.712 226.866 37.1627 226.397 36.608C225.938 36.0427 225.351 35.5467 224.637 35.12C223.922 34.6933 223.101 34.4107 222.173 34.272L220.909 32.688C221.495 32.3253 222.109 31.968 222.749 31.616C223.399 31.2533 224.05 30.928 224.701 30.64C225.362 30.3413 226.013 30.1067 226.653 29.936V29.168H220.973L220.012 28.208V28.08H231.613L232.573 29.04V29.168H227.917V29.904C228.365 29.936 228.802 30.0533 229.229 30.256C229.666 30.448 230.061 30.7147 230.413 31.056C230.775 31.3867 231.058 31.7707 231.261 32.208C231.474 32.6347 231.581 33.104 231.581 33.616C231.581 34.0747 231.495 34.4533 231.325 34.752C231.165 35.04 230.957 35.2587 230.701 35.408C230.455 35.5467 230.199 35.616 229.933 35.616C229.602 35.616 229.309 35.5147 229.053 35.312C228.797 35.1093 228.669 34.832 228.669 34.48C228.669 34.1387 228.781 33.872 229.005 33.68C229.229 33.488 229.479 33.392 229.757 33.392C229.959 33.392 230.157 33.4507 230.349 33.568C230.551 33.6747 230.711 33.8453 230.829 34.08C230.935 33.8987 230.989 33.7067 230.989 33.504C230.989 33.184 230.85 32.8587 230.573 32.528C230.306 32.1867 229.938 31.8933 229.469 31.648C228.999 31.4027 228.482 31.264 227.917 31.232V34.672C227.917 35.28 227.917 35.872 227.917 36.448C227.927 37.024 227.949 37.7173 227.981 38.528ZM226.653 31.344C226.215 31.4827 225.773 31.6533 225.325 31.856C224.877 32.048 224.45 32.256 224.045 32.48C223.639 32.6933 223.293 32.8907 223.005 33.072L223.021 33.12C223.629 33.3653 224.247 33.712 224.877 34.16C225.517 34.5973 226.146 35.232 226.765 36.064H226.829C226.754 35.7227 226.706 35.1627 226.685 34.384C226.663 33.6053 226.653 32.592 226.653 31.344ZM237.014 38.544C236.438 38.544 235.916 38.4 235.446 38.112C234.988 37.8347 234.598 37.4613 234.278 36.992C233.958 36.512 233.713 35.984 233.542 35.408C233.372 34.8213 233.286 34.224 233.286 33.616C233.286 32.7627 233.457 31.952 233.798 31.184C234.15 30.416 234.673 29.76 235.366 29.216L235.35 29.168H232.566L231.606 28.208V28.08H238.086L239.046 29.04V29.168C238.481 29.168 237.932 29.28 237.398 29.504C236.865 29.728 236.385 30.064 235.958 30.512C235.542 30.9493 235.206 31.4933 234.95 32.144C234.705 32.784 234.582 33.5253 234.582 34.368C234.582 34.9973 234.657 35.5733 234.806 36.096C234.966 36.608 235.196 37.0133 235.494 37.312C235.804 37.6107 236.177 37.76 236.614 37.76C236.625 37.76 236.652 37.76 236.694 37.76C236.737 37.7493 236.78 37.7387 236.822 37.728V37.696C236.716 37.5893 236.636 37.472 236.582 37.344C236.529 37.2053 236.502 37.0667 236.502 36.928C236.502 36.6613 236.598 36.4213 236.79 36.208C236.982 35.984 237.254 35.872 237.606 35.872C237.937 35.872 238.23 35.9787 238.486 36.192C238.753 36.3947 238.886 36.6987 238.886 37.104C238.886 37.5307 238.71 37.8773 238.358 38.144C238.006 38.4107 237.558 38.544 237.014 38.544ZM246.347 38.528H246.171L245.723 38.256C245.531 37.7227 245.195 37.184 244.715 36.64C244.235 36.0853 243.627 35.6 242.891 35.184C242.165 34.768 241.323 34.496 240.363 34.368L239.099 32.784C240.165 32.1333 241.195 31.552 242.187 31.04C243.189 30.5173 244.123 30.0747 244.987 29.712V29.168H239.051L238.091 28.208V28.08H246.651L247.611 29.04V29.168H246.251V34.672C246.251 35.28 246.256 35.872 246.267 36.448C246.277 37.024 246.304 37.7173 246.347 38.528ZM244.987 31.248C244.347 31.5253 243.707 31.824 243.067 32.144C242.427 32.4533 241.808 32.8 241.211 33.184L241.227 33.232C241.856 33.4667 242.496 33.7973 243.147 34.224C243.797 34.64 244.448 35.2533 245.099 36.064L245.147 36.032C245.072 35.6373 245.024 35.0347 245.003 34.224C244.992 33.4133 244.987 32.4213 244.987 31.248ZM242.091 38.064C241.813 38.064 241.579 37.968 241.387 37.776C241.195 37.5733 241.099 37.3387 241.099 37.072C241.099 36.7947 241.195 36.5653 241.387 36.384C241.579 36.192 241.813 36.096 242.091 36.096C242.368 36.096 242.597 36.192 242.779 36.384C242.971 36.5653 243.067 36.7947 243.067 37.072C243.067 37.3387 242.971 37.5733 242.779 37.776C242.597 37.968 242.368 38.064 242.091 38.064ZM250.269 38.688H250.093L248.989 37.84V32.32C248.989 31.7547 248.946 31.2373 248.861 30.768C248.776 30.288 248.605 29.904 248.349 29.616C248.104 29.3173 247.736 29.168 247.245 29.168L246.493 28.208V28.08H246.653C247.058 28.08 247.41 28.1227 247.709 28.208C248.008 28.2933 248.269 28.4693 248.493 28.736C248.728 29.0027 248.941 29.4027 249.133 29.936L249.181 29.92C249.138 29.6213 249.112 29.36 249.101 29.136C249.09 28.9013 249.085 28.6453 249.085 28.368V26.24H249.197L249.901 26.768L250.269 38.688ZM263.516 38.528H263.34L262.876 38.24C262.812 37.8987 262.716 37.4933 262.588 37.024C262.471 36.5547 262.311 36.0747 262.108 35.584C261.916 35.0827 261.676 34.6133 261.388 34.176C261.1 33.7387 260.759 33.376 260.364 33.088C259.98 32.8 259.527 32.6347 259.004 32.592L258.988 32.64C259.212 32.7787 259.383 32.96 259.5 33.184C259.618 33.3973 259.676 33.6267 259.676 33.872C259.676 34.2453 259.532 34.592 259.244 34.912C258.967 35.232 258.567 35.392 258.044 35.392C257.49 35.392 257.047 35.2107 256.716 34.848C256.386 34.4747 256.22 34.032 256.22 33.52C256.22 32.976 256.428 32.5013 256.844 32.096C257.26 31.68 257.858 31.472 258.636 31.472C259.052 31.472 259.474 31.5573 259.9 31.728C260.338 31.8987 260.759 32.208 261.164 32.656C261.57 33.0933 261.938 33.7227 262.268 34.544L262.316 34.528C262.274 34.2293 262.236 33.8453 262.204 33.376C262.172 32.9067 262.156 32.224 262.156 31.328V29.168H255.644L254.684 28.208V28.08H263.836L264.796 29.04V29.168H263.436V34.672C263.436 35.28 263.442 35.872 263.452 36.448C263.463 37.024 263.484 37.7173 263.516 38.528ZM267.457 38.688H267.281L266.177 37.84V32.32C266.177 31.7547 266.134 31.2373 266.049 30.768C265.963 30.288 265.793 29.904 265.537 29.616C265.291 29.3173 264.923 29.168 264.433 29.168L263.681 28.208V28.08H263.841C264.246 28.08 264.598 28.1227 264.897 28.208C265.195 28.2933 265.457 28.4693 265.681 28.736C265.915 29.0027 266.129 29.4027 266.321 29.936L266.369 29.92C266.326 29.6213 266.299 29.36 266.289 29.136C266.278 28.9013 266.273 28.6453 266.273 28.368V26.24H266.385L267.089 26.768L267.457 38.688ZM275.17 38.688H275.042L273.954 37.84V28.08H274.082L275.17 28.928V38.688ZM61.2858 56.664C60.8911 56.664 60.4965 56.4933 60.1018 56.152C59.7178 55.8107 59.3871 55.3573 59.1098 54.792L59.6218 54.408H59.7498C59.8778 54.7387 60.0165 54.9733 60.1658 55.112C60.3258 55.2507 60.4698 55.32 60.5978 55.32C60.8005 55.32 61.0245 55.1813 61.2698 54.904C61.5151 54.6267 61.7978 54.2853 62.1178 53.88C62.2671 53.4533 62.3418 53.096 62.3418 52.808C62.3418 52.3493 62.2085 51.9707 61.9418 51.672C61.6858 51.3733 61.3338 51.1387 60.8858 50.968C60.4378 50.7867 59.9311 50.6693 59.3658 50.616L57.9578 49.208V49.08H67.6218L68.5818 50.04V50.168H67.1418L67.2538 59.688H67.0778L65.9898 58.84C65.9898 58.5947 65.9898 58.296 65.9898 57.944C65.9898 57.592 65.9898 57.2347 65.9898 56.872C66.0005 56.5093 66.0058 56.2 66.0058 55.944C66.0058 55.6773 66.0058 55.5173 66.0058 55.464C66.0058 55.0373 65.9418 54.696 65.8138 54.44C65.6858 54.1733 65.5258 53.9813 65.3338 53.864C65.1525 53.736 64.9818 53.672 64.8218 53.672C64.5978 53.672 64.3578 53.7787 64.1018 53.992C63.8565 54.1947 63.5578 54.5147 63.2058 54.952C62.8538 55.3893 62.5711 55.736 62.3578 55.992C62.1551 56.2373 61.9738 56.4133 61.8138 56.52C61.6645 56.616 61.4885 56.664 61.2858 56.664ZM66.0218 50.168H61.9738V50.216C62.3258 50.4187 62.5765 50.6907 62.7258 51.032C62.8751 51.3733 62.9498 51.72 62.9498 52.072C62.9498 52.392 62.9018 52.696 62.8058 52.984L62.8538 53.016C63.1311 52.7387 63.3658 52.5467 63.5578 52.44C63.7605 52.3227 63.9791 52.264 64.2138 52.264C64.5551 52.264 64.8858 52.4027 65.2058 52.68C65.5365 52.9573 65.8351 53.3307 66.1018 53.8L66.1338 53.784C66.0911 53.5707 66.0645 53.3413 66.0538 53.096C66.0431 52.84 66.0325 52.5413 66.0218 52.2C66.0218 51.848 66.0218 51.4053 66.0218 50.872V50.168ZM70.2079 63.08H70.0479C69.4719 62.5467 68.9493 62.0987 68.4799 61.736C68.0106 61.3733 67.5839 61.08 67.1999 60.856C67.0613 61.2827 66.8106 61.608 66.4479 61.832C66.0746 62.0667 65.6799 62.184 65.2639 62.184C64.9653 62.184 64.6719 62.1253 64.3839 62.008C64.0959 61.8907 63.8613 61.7147 63.6799 61.48C63.4879 61.256 63.3919 60.9893 63.3919 60.68C63.3919 60.2533 63.5626 59.9227 63.9039 59.688C64.2453 59.4533 64.6506 59.336 65.1199 59.336C65.3119 59.336 65.5253 59.3627 65.7599 59.416C65.9839 59.4693 66.2506 59.5653 66.5599 59.704C66.5599 59.6507 66.5599 59.592 66.5599 59.528C66.5599 59.3787 66.5493 59.192 66.5279 58.968C66.4959 58.7333 66.4373 58.5093 66.3519 58.296L66.4159 58.248C66.5653 58.3013 66.6986 58.3653 66.8159 58.44C66.9333 58.504 67.0133 58.5893 67.0559 58.696C67.0986 58.7707 67.1359 58.8933 67.1679 59.064C67.1999 59.2453 67.2266 59.432 67.2479 59.624C67.2693 59.8267 67.2853 59.992 67.2959 60.12C67.6373 60.3333 68.0266 60.6053 68.4639 60.936C68.9119 61.2773 69.4186 61.6933 69.9839 62.184L70.2079 63.08ZM66.3679 60.424C66.1226 60.3173 65.8986 60.2427 65.6959 60.2C65.4933 60.1573 65.3119 60.136 65.1519 60.136C64.8533 60.136 64.5866 60.1947 64.3519 60.312C64.1173 60.4293 63.9999 60.5947 63.9999 60.808C63.9999 60.968 64.0746 61.0907 64.2239 61.176C64.3733 61.272 64.5759 61.32 64.8319 61.32C65.1519 61.32 65.4506 61.24 65.7279 61.08C66.0053 60.9307 66.2186 60.712 66.3679 60.424ZM70.9421 56.664C70.5474 56.664 70.1527 56.4933 69.7581 56.152C69.3741 55.8107 69.0434 55.3573 68.7661 54.792L69.2781 54.408H69.4061C69.5341 54.7387 69.6727 54.9733 69.8221 55.112C69.9821 55.2507 70.1261 55.32 70.2541 55.32C70.4567 55.32 70.6807 55.1813 70.9261 54.904C71.1714 54.6267 71.4541 54.2853 71.7741 53.88C71.9234 53.4533 71.9981 53.096 71.9981 52.808C71.9981 52.3493 71.8647 51.9707 71.5981 51.672C71.3421 51.3733 70.9901 51.1387 70.5421 50.968C70.0941 50.7867 69.5874 50.6693 69.0221 50.616L67.6141 49.208V49.08H77.2781L78.2381 50.04V50.168H76.7981L76.9101 59.688H76.7341L75.6461 58.84C75.6461 58.5947 75.6461 58.296 75.6461 57.944C75.6461 57.592 75.6461 57.2347 75.6461 56.872C75.6567 56.5093 75.6621 56.2 75.6621 55.944C75.6621 55.6773 75.6621 55.5173 75.6621 55.464C75.6621 55.0373 75.5981 54.696 75.4701 54.44C75.3421 54.1733 75.1821 53.9813 74.9901 53.864C74.8087 53.736 74.6381 53.672 74.4781 53.672C74.2541 53.672 74.0141 53.7787 73.7581 53.992C73.5127 54.1947 73.2141 54.5147 72.8621 54.952C72.5101 55.3893 72.2274 55.736 72.0141 55.992C71.8114 56.2373 71.6301 56.4133 71.4701 56.52C71.3207 56.616 71.1447 56.664 70.9421 56.664ZM75.6781 50.168H71.6301V50.216C71.9821 50.4187 72.2327 50.6907 72.3821 51.032C72.5314 51.3733 72.6061 51.72 72.6061 52.072C72.6061 52.392 72.5581 52.696 72.4621 52.984L72.5101 53.016C72.7874 52.7387 73.0221 52.5467 73.2141 52.44C73.4167 52.3227 73.6354 52.264 73.8701 52.264C74.2114 52.264 74.5421 52.4027 74.8621 52.68C75.1927 52.9573 75.4914 53.3307 75.7581 53.8L75.7901 53.784C75.7474 53.5707 75.7207 53.3413 75.7101 53.096C75.6994 52.84 75.6887 52.5413 75.6781 52.2C75.6781 51.848 75.6781 51.4053 75.6781 50.872V50.168ZM81.2863 53.336C80.8916 53.336 80.5236 53.2453 80.1823 53.064C79.841 52.872 79.569 52.6213 79.3663 52.312C79.1636 52.0027 79.0623 51.6667 79.0623 51.304C79.0623 50.9627 79.1476 50.648 79.3183 50.36C79.4996 50.072 79.7396 49.8427 80.0383 49.672C80.3476 49.4907 80.6996 49.4 81.0943 49.4C81.5103 49.4 81.8783 49.496 82.1983 49.688C82.5183 49.88 82.769 50.136 82.9503 50.456C83.1423 50.7653 83.2383 51.1067 83.2383 51.48C83.2383 52.0347 83.0463 52.4827 82.6623 52.824C82.2783 53.1653 81.8196 53.336 81.2863 53.336ZM84.2303 59.848L84.1183 59.88C83.4676 59.1227 82.8063 58.424 82.1343 57.784C81.4623 57.144 80.7636 56.5147 80.0383 55.896L79.7183 53.784L79.8143 53.752C80.2623 54.2533 80.6943 54.76 81.1103 55.272C81.537 55.7733 81.985 56.3173 82.4543 56.904C82.9236 57.4907 83.441 58.1573 84.0063 58.904L84.2303 59.848ZM80.7263 52.52C80.9716 52.52 81.2223 52.4507 81.4783 52.312C81.745 52.1733 81.969 51.992 82.1503 51.768C82.3316 51.5333 82.4223 51.2827 82.4223 51.016C82.4223 50.792 82.3583 50.616 82.2303 50.488C82.1023 50.3493 81.9156 50.28 81.6703 50.28C81.4463 50.28 81.201 50.3493 80.9343 50.488C80.6676 50.616 80.4383 50.792 80.2463 51.016C80.0543 51.24 79.9583 51.496 79.9583 51.784C79.9583 51.9973 80.0223 52.1733 80.1503 52.312C80.2783 52.4507 80.4703 52.52 80.7263 52.52ZM91.7294 59.528H91.5534L91.1054 59.256C90.9134 58.7227 90.5774 58.184 90.0974 57.64C89.6174 57.0853 89.0094 56.6 88.2734 56.184C87.5481 55.768 86.7054 55.496 85.7454 55.368L84.4814 53.784C85.5481 53.1333 86.5774 52.552 87.5694 52.04C88.5721 51.5173 89.5054 51.0747 90.3694 50.712V50.168H84.4334L83.4734 49.208V49.08H92.0334L92.9934 50.04V50.168H91.6334V55.672C91.6334 56.28 91.6388 56.872 91.6494 57.448C91.6601 58.024 91.6868 58.7173 91.7294 59.528ZM90.3694 52.248C89.7294 52.5253 89.0894 52.824 88.4494 53.144C87.8094 53.4533 87.1908 53.8 86.5934 54.184L86.6094 54.232C87.2388 54.4667 87.8788 54.7973 88.5294 55.224C89.1801 55.64 89.8308 56.2533 90.4814 57.064L90.5294 57.032C90.4548 56.6373 90.4068 56.0347 90.3854 55.224C90.3748 54.4133 90.3694 53.4213 90.3694 52.248ZM95.6519 59.688H95.4759L94.3719 58.84V53.32C94.3719 52.7547 94.3293 52.2373 94.2439 51.768C94.1586 51.288 93.9879 50.904 93.7319 50.616C93.4866 50.3173 93.1186 50.168 92.6279 50.168L91.8759 49.208V49.08H92.0359C92.4413 49.08 92.7933 49.1227 93.0919 49.208C93.3906 49.2933 93.6519 49.4693 93.8759 49.736C94.1106 50.0027 94.3239 50.4027 94.5159 50.936L94.5639 50.92C94.5213 50.6427 94.4946 50.3973 94.4839 50.184C94.4733 49.96 94.4679 49.688 94.4679 49.368V47.24H94.5799L95.2679 47.736L95.2839 48.152C95.3159 48.504 95.3693 48.7493 95.4439 48.888C95.5293 49.016 95.6999 49.08 95.9559 49.08L96.9159 50.04V50.168H96.2439C96.0306 50.168 95.8599 50.1253 95.7319 50.04C95.6146 49.9547 95.5133 49.8587 95.4279 49.752L95.3639 49.784L95.6519 59.688ZM103.574 59.56H103.398L102.934 59.272C102.742 58.7387 102.587 58.1733 102.47 57.576C102.363 56.968 102.31 56.3173 102.31 55.624C102.31 55.208 102.336 54.7813 102.39 54.344C102.454 53.9067 102.582 53.48 102.774 53.064L102.726 53.016C101.968 53.5493 101.334 54.136 100.822 54.776C100.31 55.416 99.8618 56.0027 99.4778 56.536H99.3818L98.0538 55.24V50.168H96.9178L95.9578 49.208V49.08H104.742L105.702 50.04V50.168H99.3338V54.28L99.3658 54.296C99.6538 53.9653 99.9951 53.6133 100.39 53.24C100.784 52.856 101.206 52.4773 101.654 52.104C102.102 51.7307 102.55 51.3947 102.998 51.096L104.87 52.472V52.568C104.262 53.1227 103.851 53.7627 103.638 54.488C103.424 55.2027 103.318 55.9707 103.318 56.792C103.318 57.2187 103.339 57.672 103.382 58.152C103.435 58.6213 103.499 59.0907 103.574 59.56ZM116.511 59.56H116.335L115.871 59.272C115.679 58.7387 115.525 58.1733 115.407 57.576C115.301 56.968 115.247 56.3173 115.247 55.624C115.247 55.208 115.274 54.7813 115.327 54.344C115.391 53.9067 115.519 53.48 115.711 53.064L115.663 53.016C114.906 53.5493 114.271 54.136 113.759 54.776C113.247 55.416 112.799 56.0027 112.415 56.536H112.319L110.991 55.24V50.168H109.855L108.895 49.208V49.08H117.679L118.639 50.04V50.168H112.271V54.28L112.303 54.296C112.591 53.9653 112.933 53.6133 113.327 53.24C113.722 52.856 114.143 52.4773 114.591 52.104C115.039 51.7307 115.487 51.3947 115.935 51.096L117.807 52.472V52.568C117.199 53.1227 116.789 53.7627 116.575 54.488C116.362 55.2027 116.255 55.9707 116.255 56.792C116.255 57.2187 116.277 57.672 116.319 58.152C116.373 58.6213 116.437 59.0907 116.511 59.56ZM121.293 59.688H121.117L120.013 58.84V53.32C120.013 52.7547 119.97 52.2373 119.885 51.768C119.799 51.288 119.629 50.904 119.373 50.616C119.127 50.3173 118.759 50.168 118.269 50.168L117.517 49.208V49.08H117.677C118.082 49.08 118.434 49.1227 118.733 49.208C119.031 49.2933 119.293 49.4693 119.517 49.736C119.751 50.0027 119.965 50.4027 120.157 50.936L120.205 50.92C120.162 50.6427 120.135 50.3973 120.125 50.184C120.114 49.96 120.109 49.688 120.109 49.368V47.24H120.221L120.909 47.736L120.925 48.152C120.957 48.504 121.01 48.7493 121.085 48.888C121.17 49.016 121.341 49.08 121.597 49.08L122.557 50.04V50.168H121.885C121.671 50.168 121.501 50.1253 121.373 50.04C121.255 49.9547 121.154 49.8587 121.069 49.752L121.005 49.784L121.293 59.688ZM129.582 58.328C128.932 58.328 128.27 58.184 127.598 57.896C126.937 57.608 126.297 57.16 125.678 56.552C125.07 55.9333 124.51 55.1333 123.998 54.152C123.486 53.1707 123.06 51.992 122.718 50.616H122.878L123.358 50.76C123.721 51.9013 124.132 52.8613 124.59 53.64C125.06 54.408 125.556 55.0213 126.078 55.48C126.612 55.9387 127.15 56.2693 127.694 56.472C128.238 56.6747 128.766 56.776 129.278 56.776C130.004 56.776 130.58 56.6213 131.006 56.312C131.433 56.0027 131.646 55.6347 131.646 55.208C131.646 55.0053 131.593 54.8187 131.486 54.648C131.39 54.4667 131.246 54.3173 131.054 54.2C130.777 54.4667 130.436 54.6 130.03 54.6C129.7 54.6 129.401 54.504 129.134 54.312C128.868 54.1093 128.734 53.816 128.734 53.432C128.734 53.08 128.852 52.792 129.086 52.568C129.332 52.3333 129.63 52.216 129.982 52.216C130.228 52.216 130.462 52.28 130.686 52.408C130.857 52.2267 130.99 52.0133 131.086 51.768C131.182 51.512 131.23 51.2773 131.23 51.064C131.23 50.7653 131.129 50.536 130.926 50.376C130.724 50.216 130.457 50.136 130.126 50.136C129.732 50.136 129.268 50.248 128.734 50.472C128.201 50.696 127.726 51.0427 127.31 51.512C127.524 51.6187 127.678 51.768 127.774 51.96C127.87 52.152 127.918 52.3493 127.918 52.552C127.918 52.8507 127.806 53.1173 127.582 53.352C127.358 53.576 127.065 53.688 126.702 53.688C126.318 53.688 125.977 53.56 125.678 53.304C125.39 53.0373 125.246 52.664 125.246 52.184C125.246 51.672 125.428 51.1973 125.79 50.76C126.164 50.312 126.654 49.9547 127.262 49.688C127.87 49.4107 128.542 49.272 129.278 49.272C130.174 49.272 130.889 49.4907 131.422 49.928C131.956 50.3547 132.222 50.9253 132.222 51.64C132.222 51.96 132.158 52.3173 132.03 52.712C131.913 53.1067 131.753 53.432 131.55 53.688C131.849 53.9547 132.084 54.2747 132.254 54.648C132.436 55.0213 132.526 55.4053 132.526 55.8C132.526 56.248 132.414 56.664 132.19 57.048C131.966 57.432 131.636 57.7413 131.198 57.976C130.761 58.2107 130.222 58.328 129.582 58.328ZM147.469 59.576H147.293L146.845 59.304C146.706 58.8667 146.546 58.5253 146.365 58.28C146.183 58.0347 145.954 57.864 145.677 57.768C145.41 57.6613 145.063 57.608 144.637 57.608C144.199 57.608 143.709 57.64 143.165 57.704C142.621 57.768 142.146 57.8 141.741 57.8C141.069 57.8 140.471 57.672 139.949 57.416C139.437 57.16 139.031 56.7973 138.733 56.328C138.434 55.848 138.285 55.2827 138.285 54.632C138.285 54.2053 138.343 53.784 138.461 53.368C138.578 52.952 138.738 52.5787 138.941 52.248H139.085L139.453 52.488C139.314 52.776 139.213 53.0693 139.149 53.368C139.085 53.6667 139.053 53.9547 139.053 54.232C139.053 54.9147 139.245 55.448 139.629 55.832C140.013 56.216 140.637 56.408 141.501 56.408C141.789 56.408 142.141 56.392 142.557 56.36C142.973 56.328 143.346 56.312 143.677 56.312C144.146 56.312 144.589 56.3813 145.005 56.52C145.431 56.6587 145.858 56.9627 146.285 57.432L146.317 57.416C146.285 57.2347 146.253 57 146.221 56.712C146.199 56.424 146.178 56.024 146.157 55.512C146.135 55 146.125 54.328 146.125 53.496C146.125 52.8667 146.13 52.3493 146.141 51.944C146.151 51.528 146.157 51.112 146.157 50.696C146.157 50.472 146.125 50.3227 146.061 50.248C146.007 50.1733 145.938 50.136 145.853 50.136C145.714 50.136 145.511 50.2053 145.245 50.344C144.978 50.472 144.695 50.648 144.397 50.872C144.098 51.0853 143.821 51.3253 143.565 51.592C143.319 51.8587 143.143 52.1307 143.037 52.408L143.069 52.424C143.186 52.3813 143.319 52.36 143.469 52.36C143.778 52.36 144.05 52.472 144.285 52.696C144.53 52.9093 144.653 53.1973 144.653 53.56C144.653 53.88 144.535 54.184 144.301 54.472C144.066 54.7493 143.687 54.888 143.165 54.888C142.61 54.888 142.162 54.7173 141.821 54.376C141.479 54.024 141.309 53.5813 141.309 53.048C141.309 52.632 141.405 52.232 141.597 51.848C141.799 51.4533 142.055 51.0907 142.365 50.76C142.685 50.4187 143.026 50.1253 143.389 49.88C143.751 49.624 144.103 49.4267 144.445 49.288C144.786 49.1493 145.074 49.08 145.309 49.08C145.575 49.08 145.874 49.1653 146.205 49.336C146.535 49.496 146.823 49.7307 147.069 50.04C147.314 50.3387 147.437 50.696 147.437 51.112C147.437 51.88 147.431 52.648 147.421 53.416C147.41 54.184 147.405 54.952 147.405 55.72C147.405 56.328 147.405 56.92 147.405 57.496C147.415 58.072 147.437 58.7653 147.469 59.576ZM156.058 59.528H155.882L155.434 59.256C155.242 58.7227 154.906 58.184 154.426 57.64C153.946 57.0853 153.338 56.6 152.602 56.184C151.876 55.768 151.034 55.496 150.074 55.368L148.81 53.784C149.876 53.1333 150.906 52.552 151.898 52.04C152.9 51.5173 153.834 51.0747 154.698 50.712V50.168H148.762L147.802 49.208V49.08H156.362L157.322 50.04V50.168H155.962V55.672C155.962 56.28 155.967 56.872 155.978 57.448C155.988 58.024 156.015 58.7173 156.058 59.528ZM154.698 52.248C154.058 52.5253 153.418 52.824 152.778 53.144C152.138 53.4533 151.519 53.8 150.922 54.184L150.938 54.232C151.567 54.4667 152.207 54.7973 152.858 55.224C153.508 55.64 154.159 56.2533 154.81 57.064L154.858 57.032C154.783 56.6373 154.735 56.0347 154.714 55.224C154.703 54.4133 154.698 53.4213 154.698 52.248ZM160.38 53.336C159.985 53.336 159.617 53.2453 159.276 53.064C158.935 52.872 158.663 52.6213 158.46 52.312C158.257 52.0027 158.156 51.6667 158.156 51.304C158.156 50.9627 158.241 50.648 158.412 50.36C158.593 50.072 158.833 49.8427 159.132 49.672C159.441 49.4907 159.793 49.4 160.188 49.4C160.604 49.4 160.972 49.496 161.292 49.688C161.612 49.88 161.863 50.136 162.044 50.456C162.236 50.7653 162.332 51.1067 162.332 51.48C162.332 52.0347 162.14 52.4827 161.756 52.824C161.372 53.1653 160.913 53.336 160.38 53.336ZM163.324 59.848L163.212 59.88C162.561 59.1227 161.9 58.424 161.228 57.784C160.556 57.144 159.857 56.5147 159.132 55.896L158.812 53.784L158.908 53.752C159.356 54.2533 159.788 54.76 160.204 55.272C160.631 55.7733 161.079 56.3173 161.548 56.904C162.017 57.4907 162.535 58.1573 163.1 58.904L163.324 59.848ZM159.82 52.52C160.065 52.52 160.316 52.4507 160.572 52.312C160.839 52.1733 161.063 51.992 161.244 51.768C161.425 51.5333 161.516 51.2827 161.516 51.016C161.516 50.792 161.452 50.616 161.324 50.488C161.196 50.3493 161.009 50.28 160.764 50.28C160.54 50.28 160.295 50.3493 160.028 50.488C159.761 50.616 159.532 50.792 159.34 51.016C159.148 51.24 159.052 51.496 159.052 51.784C159.052 51.9973 159.116 52.1733 159.244 52.312C159.372 52.4507 159.564 52.52 159.82 52.52ZM170.307 59.688H170.131L169.043 58.84L169.075 50.168H167.683L166.723 49.208V49.08H169.027C168.782 48.7813 168.553 48.5147 168.339 48.28C168.137 48.0347 168.035 47.7253 168.035 47.352C168.035 46.9253 168.195 46.5147 168.515 46.12C168.846 45.7147 169.299 45.384 169.875 45.128C170.451 44.8613 171.123 44.728 171.891 44.728C172.595 44.728 173.315 44.856 174.051 45.112C174.798 45.368 175.518 45.7413 176.211 46.232C176.915 46.712 177.545 47.288 178.099 47.96L177.955 48.52H177.843C176.979 47.5707 176.099 46.8987 175.203 46.504C174.318 46.0987 173.454 45.896 172.611 45.896C171.929 45.896 171.342 45.9973 170.851 46.2C170.371 46.392 170.003 46.648 169.747 46.968C169.491 47.2773 169.363 47.6187 169.363 47.992C169.363 48.1627 169.395 48.3333 169.459 48.504C169.523 48.664 169.646 48.856 169.827 49.08H170.675L171.635 50.04V50.168H170.179L170.307 59.688ZM178.933 59.528H178.757L178.309 59.256C178.117 58.7227 177.781 58.184 177.301 57.64C176.821 57.0853 176.213 56.6 175.477 56.184C174.751 55.768 173.909 55.496 172.949 55.368L171.685 53.784C172.751 53.1333 173.781 52.552 174.773 52.04C175.775 51.5173 176.709 51.0747 177.573 50.712V50.168H171.637L170.677 49.208V49.08H179.237L180.197 50.04V50.168H178.837V55.672C178.837 56.28 178.842 56.872 178.853 57.448C178.863 58.024 178.89 58.7173 178.933 59.528ZM177.573 52.248C176.933 52.5253 176.293 52.824 175.653 53.144C175.013 53.4533 174.394 53.8 173.797 54.184L173.813 54.232C174.442 54.4667 175.082 54.7973 175.733 55.224C176.383 55.64 177.034 56.2533 177.685 57.064L177.733 57.032C177.658 56.6373 177.61 56.0347 177.589 55.224C177.578 54.4133 177.573 53.4213 177.573 52.248ZM188.295 59.528H188.119L187.687 59.256C187.559 58.8507 187.383 58.4347 187.159 58.008C186.935 57.5707 186.642 57.16 186.279 56.776C185.927 56.3813 185.474 56.0453 184.919 55.768C184.738 56.0773 184.492 56.344 184.183 56.568C183.874 56.7813 183.506 56.888 183.079 56.888C182.503 56.888 182.066 56.7173 181.767 56.376C181.468 56.024 181.319 55.64 181.319 55.224C181.319 54.8187 181.463 54.4507 181.751 54.12C182.05 53.7787 182.471 53.608 183.015 53.608C183.324 53.608 183.65 53.6827 183.991 53.832C184.108 53.7467 184.167 53.592 184.167 53.368C184.167 53.0587 184.039 52.7547 183.783 52.456C183.527 52.1467 183.207 51.864 182.823 51.608C182.439 51.352 182.05 51.1387 181.655 50.968C181.26 50.7867 180.924 50.6693 180.647 50.616L179.239 49.208V49.08H188.615L189.575 50.04V50.168H188.215V55.672C188.215 56.28 188.22 56.872 188.231 57.448C188.242 58.024 188.263 58.7173 188.295 59.528ZM186.951 50.168H182.647L182.631 50.2C183.623 50.9893 184.316 51.7413 184.711 52.456C185.116 53.16 185.319 53.8053 185.319 54.392C185.319 54.4987 185.308 54.6107 185.287 54.728C185.628 55.0373 185.948 55.3733 186.247 55.736C186.546 56.0987 186.807 56.4507 187.031 56.792L187.079 56.76C187.036 56.4933 187.004 56.1787 186.983 55.816C186.972 55.4533 186.962 55.0107 186.951 54.488C186.951 53.9547 186.951 53.2987 186.951 52.52V50.168ZM191.27 63.08H191.11C190.534 62.5467 190.012 62.0987 189.542 61.736C189.073 61.3733 188.646 61.08 188.262 60.856C188.124 61.2827 187.873 61.608 187.51 61.832C187.137 62.0667 186.742 62.184 186.326 62.184C186.028 62.184 185.734 62.1253 185.446 62.008C185.158 61.8907 184.924 61.7147 184.742 61.48C184.55 61.256 184.454 60.9893 184.454 60.68C184.454 60.2533 184.625 59.9227 184.966 59.688C185.308 59.4533 185.713 59.336 186.182 59.336C186.374 59.336 186.588 59.3627 186.822 59.416C187.046 59.4693 187.313 59.5653 187.622 59.704C187.622 59.6507 187.622 59.592 187.622 59.528C187.622 59.3787 187.612 59.192 187.59 58.968C187.558 58.7333 187.5 58.5093 187.414 58.296L187.478 58.248C187.628 58.3013 187.761 58.3653 187.878 58.44C187.996 58.504 188.076 58.5893 188.118 58.696C188.161 58.7707 188.198 58.8933 188.23 59.064C188.262 59.2453 188.289 59.432 188.31 59.624C188.332 59.8267 188.348 59.992 188.358 60.12C188.7 60.3333 189.089 60.6053 189.526 60.936C189.974 61.2773 190.481 61.6933 191.046 62.184L191.27 63.08ZM187.43 60.424C187.185 60.3173 186.961 60.2427 186.758 60.2C186.556 60.1573 186.374 60.136 186.214 60.136C185.916 60.136 185.649 60.1947 185.414 60.312C185.18 60.4293 185.062 60.5947 185.062 60.808C185.062 60.968 185.137 61.0907 185.286 61.176C185.436 61.272 185.638 61.32 185.894 61.32C186.214 61.32 186.513 61.24 186.79 61.08C187.068 60.9307 187.281 60.712 187.43 60.424ZM194.102 54.28V54.328C194.603 54.584 195.131 54.9413 195.686 55.4C196.251 55.8587 196.715 56.4133 197.078 57.064L197.126 57.032C197.062 56.6693 197.009 56.1093 196.966 55.352C196.923 54.5947 196.902 53.592 196.902 52.344V49.08H198.566L199.526 50.04V50.168H198.054L198.134 55.672C198.145 56.2267 198.155 56.808 198.166 57.416C198.187 58.0133 198.214 58.7173 198.246 59.528H198.07L197.622 59.256C197.441 58.6373 197.105 58.024 196.614 57.416C196.134 56.808 195.51 56.2853 194.742 55.848C193.974 55.4107 193.078 55.1387 192.054 55.032L190.774 53.496L190.806 53.384C190.891 53.3947 190.971 53.4 191.046 53.4C191.121 53.4 191.206 53.4 191.302 53.4C192.155 53.4 192.865 53.304 193.43 53.112C193.995 52.9093 194.417 52.6533 194.694 52.344C194.982 52.024 195.126 51.6987 195.126 51.368C195.126 51.0587 195.003 50.7813 194.758 50.536C194.555 50.7813 194.289 51.016 193.958 51.24C193.638 51.464 193.275 51.6507 192.87 51.8C192.475 51.9387 192.07 52.008 191.654 52.008C191.334 52.008 191.025 51.96 190.726 51.864C190.438 51.768 190.198 51.6187 190.006 51.416C189.825 51.2027 189.734 50.9307 189.734 50.6C189.734 50.248 189.841 49.9867 190.054 49.816C190.267 49.6347 190.502 49.544 190.758 49.544C191.025 49.544 191.27 49.6347 191.494 49.816C191.729 49.9973 191.851 50.2747 191.862 50.648C192.043 50.6267 192.278 50.5627 192.566 50.456C192.854 50.3387 193.147 50.168 193.446 49.944C193.755 49.7093 194.017 49.4213 194.23 49.08L194.326 49.064C194.859 49.416 195.286 49.8533 195.606 50.376C195.926 50.888 196.086 51.4267 196.086 51.992C196.086 52.4933 195.931 52.9467 195.622 53.352C195.323 53.7573 194.817 54.0667 194.102 54.28ZM210.691 59.528H210.515L210.067 59.256C209.897 58.712 209.577 58.1627 209.107 57.608C208.649 57.0427 208.062 56.5467 207.347 56.12C206.633 55.6933 205.811 55.4107 204.883 55.272L203.619 53.688C204.206 53.3253 204.819 52.968 205.459 52.616C206.11 52.2533 206.761 51.928 207.411 51.64C208.073 51.3413 208.723 51.1067 209.363 50.936V50.168H203.683L202.723 49.208V49.08H214.323L215.283 50.04V50.168H210.627V50.904C211.075 50.936 211.513 51.0533 211.939 51.256C212.377 51.448 212.771 51.7147 213.123 52.056C213.486 52.3867 213.769 52.7707 213.971 53.208C214.185 53.6347 214.291 54.104 214.291 54.616C214.291 55.0747 214.206 55.4533 214.035 55.752C213.875 56.04 213.667 56.2587 213.411 56.408C213.166 56.5467 212.91 56.616 212.643 56.616C212.313 56.616 212.019 56.5147 211.763 56.312C211.507 56.1093 211.379 55.832 211.379 55.48C211.379 55.1387 211.491 54.872 211.715 54.68C211.939 54.488 212.19 54.392 212.467 54.392C212.67 54.392 212.867 54.4507 213.059 54.568C213.262 54.6747 213.422 54.8453 213.539 55.08C213.646 54.8987 213.699 54.7067 213.699 54.504C213.699 54.184 213.561 53.8587 213.283 53.528C213.017 53.1867 212.649 52.8933 212.179 52.648C211.71 52.4027 211.193 52.264 210.627 52.232V55.672C210.627 56.28 210.627 56.872 210.627 57.448C210.638 58.024 210.659 58.7173 210.691 59.528ZM209.363 52.344C208.926 52.4827 208.483 52.6533 208.035 52.856C207.587 53.048 207.161 53.256 206.755 53.48C206.35 53.6933 206.003 53.8907 205.715 54.072L205.731 54.12C206.339 54.3653 206.958 54.712 207.587 55.16C208.227 55.5973 208.857 56.232 209.475 57.064H209.539C209.465 56.7227 209.417 56.1627 209.395 55.384C209.374 54.6053 209.363 53.592 209.363 52.344ZM219.725 59.544C219.149 59.544 218.627 59.4 218.157 59.112C217.699 58.8347 217.309 58.4613 216.989 57.992C216.669 57.512 216.424 56.984 216.253 56.408C216.083 55.8213 215.997 55.224 215.997 54.616C215.997 53.7627 216.168 52.952 216.509 52.184C216.861 51.416 217.384 50.76 218.077 50.216L218.061 50.168H215.277L214.317 49.208V49.08H220.797L221.757 50.04V50.168C221.192 50.168 220.643 50.28 220.109 50.504C219.576 50.728 219.096 51.064 218.669 51.512C218.253 51.9493 217.917 52.4933 217.661 53.144C217.416 53.784 217.293 54.5253 217.293 55.368C217.293 55.9973 217.368 56.5733 217.517 57.096C217.677 57.608 217.907 58.0133 218.205 58.312C218.515 58.6107 218.888 58.76 219.325 58.76C219.336 58.76 219.363 58.76 219.405 58.76C219.448 58.7493 219.491 58.7387 219.533 58.728V58.696C219.427 58.5893 219.347 58.472 219.293 58.344C219.24 58.2053 219.213 58.0667 219.213 57.928C219.213 57.6613 219.309 57.4213 219.501 57.208C219.693 56.984 219.965 56.872 220.317 56.872C220.648 56.872 220.941 56.9787 221.197 57.192C221.464 57.3947 221.597 57.6987 221.597 58.104C221.597 58.5307 221.421 58.8773 221.069 59.144C220.717 59.4107 220.269 59.544 219.725 59.544ZM229.058 59.528H228.882L228.434 59.256C228.242 58.7227 227.906 58.184 227.426 57.64C226.946 57.0853 226.338 56.6 225.602 56.184C224.876 55.768 224.034 55.496 223.074 55.368L221.81 53.784C222.876 53.1333 223.906 52.552 224.898 52.04C225.9 51.5173 226.834 51.0747 227.698 50.712V50.168H221.762L220.802 49.208V49.08H229.362L230.322 50.04V50.168H228.962V55.672C228.962 56.28 228.967 56.872 228.978 57.448C228.988 58.024 229.015 58.7173 229.058 59.528ZM227.698 52.248C227.058 52.5253 226.418 52.824 225.778 53.144C225.138 53.4533 224.519 53.8 223.922 54.184L223.938 54.232C224.567 54.4667 225.207 54.7973 225.858 55.224C226.508 55.64 227.159 56.2533 227.81 57.064L227.858 57.032C227.783 56.6373 227.735 56.0347 227.714 55.224C227.703 54.4133 227.698 53.4213 227.698 52.248ZM224.802 59.064C224.524 59.064 224.29 58.968 224.098 58.776C223.906 58.5733 223.81 58.3387 223.81 58.072C223.81 57.7947 223.906 57.5653 224.098 57.384C224.29 57.192 224.524 57.096 224.802 57.096C225.079 57.096 225.308 57.192 225.49 57.384C225.682 57.5653 225.778 57.7947 225.778 58.072C225.778 58.3387 225.682 58.5733 225.49 58.776C225.308 58.968 225.079 59.064 224.802 59.064ZM232.98 59.688H232.804L231.7 58.84V53.32C231.7 52.7547 231.657 52.2373 231.572 51.768C231.487 51.288 231.316 50.904 231.06 50.616C230.815 50.3173 230.447 50.168 229.956 50.168L229.204 49.208V49.08H229.364C229.769 49.08 230.121 49.1227 230.42 49.208C230.719 49.2933 230.98 49.4693 231.204 49.736C231.439 50.0027 231.652 50.4027 231.844 50.936L231.892 50.92C231.849 50.6213 231.823 50.36 231.812 50.136C231.801 49.9013 231.796 49.6453 231.796 49.368V47.24H231.908L232.612 47.768L232.98 59.688ZM246.227 59.528H246.051L245.587 59.24C245.523 58.8987 245.427 58.4933 245.299 58.024C245.182 57.5547 245.022 57.0747 244.819 56.584C244.627 56.0827 244.387 55.6133 244.099 55.176C243.811 54.7387 243.47 54.376 243.075 54.088C242.691 53.8 242.238 53.6347 241.715 53.592L241.699 53.64C241.923 53.7787 242.094 53.96 242.211 54.184C242.329 54.3973 242.387 54.6267 242.387 54.872C242.387 55.2453 242.243 55.592 241.955 55.912C241.678 56.232 241.278 56.392 240.755 56.392C240.201 56.392 239.758 56.2107 239.427 55.848C239.097 55.4747 238.931 55.032 238.931 54.52C238.931 53.976 239.139 53.5013 239.555 53.096C239.971 52.68 240.569 52.472 241.347 52.472C241.763 52.472 242.185 52.5573 242.611 52.728C243.049 52.8987 243.47 53.208 243.875 53.656C244.281 54.0933 244.649 54.7227 244.979 55.544L245.027 55.528C244.985 55.2293 244.947 54.8453 244.915 54.376C244.883 53.9067 244.867 53.224 244.867 52.328V50.168H238.355L237.395 49.208V49.08H246.547L247.507 50.04V50.168H246.147V55.672C246.147 56.28 246.153 56.872 246.163 57.448C246.174 58.024 246.195 58.7173 246.227 59.528ZM250.168 59.688H249.992L248.888 58.84V53.32C248.888 52.7547 248.845 52.2373 248.76 51.768C248.674 51.288 248.504 50.904 248.248 50.616C248.002 50.3173 247.634 50.168 247.144 50.168L246.392 49.208V49.08H246.552C246.957 49.08 247.309 49.1227 247.608 49.208C247.906 49.2933 248.168 49.4693 248.392 49.736C248.626 50.0027 248.84 50.4027 249.032 50.936L249.08 50.92C249.037 50.6213 249.01 50.36 249 50.136C248.989 49.9013 248.984 49.6453 248.984 49.368V47.24H249.096L249.8 47.768L250.168 59.688ZM257.881 59.688H257.753L256.665 58.84V49.08H256.793L257.881 49.928V59.688Z" fill="#B1466E"/>
<path d="M122.67 67.444L122.978 67.752C121.354 69.04 120.542 71.126 120.542 74.01C120.542 76.9033 121.354 78.994 122.978 80.282L122.67 80.576C120.43 78.98 119.31 76.782 119.31 73.982C119.31 72.5727 119.59 71.322 120.15 70.23C120.71 69.1287 121.55 68.2 122.67 67.444ZM130.558 78.462H130.404L130.012 78.224C129.844 77.7573 129.55 77.286 129.13 76.81C128.71 76.3247 128.178 75.9 127.534 75.536C126.9 75.172 126.162 74.934 125.322 74.822L124.216 73.436C125.15 72.8667 126.05 72.358 126.918 71.91C127.796 71.4527 128.612 71.0653 129.368 70.748V70.272H124.174L123.334 69.432V69.32H130.824L131.664 70.16V70.272H130.474V75.088C130.474 75.62 130.479 76.138 130.488 76.642C130.498 77.146 130.521 77.7527 130.558 78.462ZM129.368 72.092C128.808 72.3347 128.248 72.596 127.688 72.876C127.128 73.1467 126.587 73.45 126.064 73.786L126.078 73.828C126.629 74.0333 127.189 74.3227 127.758 74.696C128.328 75.06 128.897 75.5967 129.466 76.306L129.508 76.278C129.443 75.9327 129.401 75.4053 129.382 74.696C129.373 73.9867 129.368 73.1187 129.368 72.092ZM133.164 81.57H133.024C132.52 81.1033 132.063 80.7113 131.652 80.394C131.242 80.0767 130.868 79.82 130.532 79.624C130.411 79.9973 130.192 80.282 129.874 80.478C129.548 80.6833 129.202 80.786 128.838 80.786C128.577 80.786 128.32 80.7347 128.068 80.632C127.816 80.5293 127.611 80.3753 127.452 80.17C127.284 79.974 127.2 79.7407 127.2 79.47C127.2 79.0967 127.35 78.8073 127.648 78.602C127.947 78.3967 128.302 78.294 128.712 78.294C128.88 78.294 129.067 78.3173 129.272 78.364C129.468 78.4107 129.702 78.4947 129.972 78.616C129.972 78.5693 129.972 78.518 129.972 78.462C129.972 78.3313 129.963 78.168 129.944 77.972C129.916 77.7667 129.865 77.5707 129.79 77.384L129.846 77.342C129.977 77.3887 130.094 77.4447 130.196 77.51C130.299 77.566 130.369 77.6407 130.406 77.734C130.444 77.7993 130.476 77.9067 130.504 78.056C130.532 78.2147 130.556 78.378 130.574 78.546C130.593 78.7233 130.607 78.868 130.616 78.98C130.915 79.1667 131.256 79.4047 131.638 79.694C132.03 79.9927 132.474 80.3567 132.968 80.786L133.164 81.57ZM129.804 79.246C129.59 79.1527 129.394 79.0873 129.216 79.05C129.039 79.0127 128.88 78.994 128.74 78.994C128.479 78.994 128.246 79.0453 128.04 79.148C127.835 79.2507 127.732 79.3953 127.732 79.582C127.732 79.722 127.798 79.8293 127.928 79.904C128.059 79.988 128.236 80.03 128.46 80.03C128.74 80.03 129.002 79.96 129.244 79.82C129.487 79.6893 129.674 79.498 129.804 79.246ZM135.628 73.87V73.912C136.067 74.136 136.529 74.4487 137.014 74.85C137.509 75.2513 137.915 75.7367 138.232 76.306L138.274 76.278C138.218 75.9607 138.172 75.4707 138.134 74.808C138.097 74.1453 138.078 73.268 138.078 72.176V69.32H139.534L140.374 70.16V70.272H139.086L139.156 75.088C139.166 75.5733 139.175 76.082 139.184 76.614C139.203 77.1367 139.226 77.7527 139.254 78.462H139.1L138.708 78.224C138.55 77.6827 138.256 77.146 137.826 76.614C137.406 76.082 136.86 75.6247 136.188 75.242C135.516 74.8593 134.732 74.6213 133.836 74.528L132.716 73.184L132.744 73.086C132.819 73.0953 132.889 73.1 132.954 73.1C133.02 73.1 133.094 73.1 133.178 73.1C133.925 73.1 134.546 73.016 135.04 72.848C135.535 72.6707 135.904 72.4467 136.146 72.176C136.398 71.896 136.524 71.6113 136.524 71.322C136.524 71.0513 136.417 70.8087 136.202 70.594C136.025 70.8087 135.792 71.014 135.502 71.21C135.222 71.406 134.905 71.5693 134.55 71.7C134.205 71.8213 133.85 71.882 133.486 71.882C133.206 71.882 132.936 71.84 132.674 71.756C132.422 71.672 132.212 71.5413 132.044 71.364C131.886 71.1773 131.806 70.9393 131.806 70.65C131.806 70.342 131.9 70.1133 132.086 69.964C132.273 69.8053 132.478 69.726 132.702 69.726C132.936 69.726 133.15 69.8053 133.346 69.964C133.552 70.1227 133.659 70.3653 133.668 70.692C133.827 70.6733 134.032 70.6173 134.284 70.524C134.536 70.4213 134.793 70.272 135.054 70.076C135.325 69.8707 135.554 69.6187 135.74 69.32L135.824 69.306C136.291 69.614 136.664 69.9967 136.944 70.454C137.224 70.902 137.364 71.3733 137.364 71.868C137.364 72.3067 137.229 72.7033 136.958 73.058C136.697 73.4127 136.254 73.6833 135.628 73.87ZM142.699 78.602H142.545L141.579 77.86V73.03C141.579 72.5353 141.542 72.0827 141.467 71.672C141.393 71.252 141.243 70.916 141.019 70.664C140.805 70.4027 140.483 70.272 140.053 70.272L139.395 69.432V69.32H139.535C139.89 69.32 140.198 69.3573 140.459 69.432C140.721 69.5067 140.949 69.6607 141.145 69.894C141.351 70.1273 141.537 70.4773 141.705 70.944L141.747 70.93C141.71 70.6873 141.687 70.4727 141.677 70.286C141.668 70.09 141.663 69.852 141.663 69.572V67.71H141.761L142.363 68.144L142.377 68.508C142.405 68.816 142.452 69.0307 142.517 69.152C142.592 69.264 142.741 69.32 142.965 69.32L143.805 70.16V70.272H143.217C143.031 70.272 142.881 70.2347 142.769 70.16C142.667 70.0853 142.578 70.0013 142.503 69.908L142.447 69.936L142.699 78.602ZM150.191 78.462H150.037L149.645 78.224C149.477 77.7573 149.183 77.286 148.763 76.81C148.343 76.3247 147.811 75.9 147.167 75.536C146.532 75.172 145.795 74.934 144.955 74.822L143.849 73.436C144.782 72.8667 145.683 72.358 146.551 71.91C147.428 71.4527 148.245 71.0653 149.001 70.748V70.272H143.807L142.967 69.432V69.32H150.457L151.297 70.16V70.272H150.107V75.088C150.107 75.62 150.112 76.138 150.121 76.642C150.13 77.146 150.154 77.7527 150.191 78.462ZM149.001 72.092C148.441 72.3347 147.881 72.596 147.321 72.876C146.761 73.1467 146.22 73.45 145.697 73.786L145.711 73.828C146.262 74.0333 146.822 74.3227 147.391 74.696C147.96 75.06 148.53 75.5967 149.099 76.306L149.141 76.278C149.076 75.9327 149.034 75.4053 149.015 74.696C149.006 73.9867 149.001 73.1187 149.001 72.092ZM146.467 78.056C146.224 78.056 146.019 77.972 145.851 77.804C145.683 77.6267 145.599 77.4213 145.599 77.188C145.599 76.9453 145.683 76.7447 145.851 76.586C146.019 76.418 146.224 76.334 146.467 76.334C146.71 76.334 146.91 76.418 147.069 76.586C147.237 76.7447 147.321 76.9453 147.321 77.188C147.321 77.4213 147.237 77.6267 147.069 77.804C146.91 77.972 146.71 78.056 146.467 78.056ZM153.595 78.602H153.441L152.489 77.86L152.517 70.272H151.299L150.459 69.432V69.32H152.503C152.485 68.7227 152.317 68.1907 151.999 67.724C151.682 67.248 151.192 66.8747 150.529 66.604C149.867 66.324 149.008 66.184 147.953 66.184C147.048 66.184 146.371 66.2773 145.923 66.464C145.475 66.6413 145.251 66.828 145.251 67.024C145.251 67.0893 145.293 67.1733 145.377 67.276C145.461 67.3787 145.643 67.43 145.923 67.43C146.147 67.43 146.432 67.402 146.777 67.346C147.123 67.2807 147.463 67.248 147.799 67.248C148.35 67.248 148.826 67.402 149.227 67.71C149.629 68.0087 149.899 68.5687 150.039 69.39H149.073C149.148 69.2873 149.199 69.1893 149.227 69.096C149.255 68.9933 149.269 68.9047 149.269 68.83C149.269 68.6153 149.181 68.466 149.003 68.382C148.817 68.298 148.588 68.256 148.317 68.256C148.093 68.256 147.851 68.2793 147.589 68.326C147.319 68.3727 147.034 68.396 146.735 68.396C146.119 68.396 145.62 68.2653 145.237 68.004C144.845 67.7333 144.649 67.3833 144.649 66.954C144.649 66.45 144.929 66.03 145.489 65.694C146.04 65.358 146.829 65.19 147.855 65.19C148.611 65.19 149.325 65.288 149.997 65.484C150.669 65.68 151.262 65.988 151.775 66.408C152.298 66.828 152.709 67.3693 153.007 68.032C153.315 68.6947 153.474 69.4927 153.483 70.426L153.595 78.602ZM163.855 77.482C163.36 77.482 162.861 77.37 162.357 77.146C161.862 76.9127 161.382 76.544 160.915 76.04C160.448 75.5267 160.014 74.8547 159.613 74.024C159.221 73.184 158.885 72.1573 158.605 70.944H158.745L159.165 71.07C159.566 72.358 160.014 73.3707 160.509 74.108C161.013 74.836 161.531 75.354 162.063 75.662C162.604 75.97 163.132 76.124 163.645 76.124C164.158 76.124 164.597 76.0073 164.961 75.774C165.325 75.5407 165.605 75.2373 165.801 74.864C165.997 74.4813 166.095 74.0847 166.095 73.674C166.095 73.3007 166.016 72.9413 165.857 72.596C165.708 72.2413 165.493 71.952 165.213 71.728C164.942 71.4947 164.616 71.378 164.233 71.378C164.121 71.378 164 71.392 163.869 71.42C164.028 71.56 164.144 71.728 164.219 71.924C164.294 72.1107 164.331 72.2973 164.331 72.484C164.331 72.8293 164.205 73.1327 163.953 73.394C163.701 73.6553 163.379 73.786 162.987 73.786C162.744 73.786 162.506 73.73 162.273 73.618C162.04 73.4967 161.848 73.3193 161.699 73.086C161.559 72.8527 161.489 72.5633 161.489 72.218C161.489 71.6673 161.685 71.2193 162.077 70.874C162.478 70.5193 163.001 70.342 163.645 70.342C164.242 70.342 164.784 70.5007 165.269 70.818C165.754 71.1353 166.142 71.574 166.431 72.134C166.72 72.694 166.865 73.338 166.865 74.066C166.865 74.738 166.739 75.3307 166.487 75.844C166.244 76.3573 165.894 76.7587 165.437 77.048C164.989 77.3373 164.462 77.482 163.855 77.482ZM172.207 76.978C171.591 76.978 171.04 76.8473 170.555 76.586C170.07 76.3153 169.687 75.956 169.407 75.508C169.136 75.06 169.001 74.5653 169.001 74.024C169.001 73.5573 169.108 73.114 169.323 72.694C169.547 72.274 169.869 71.9333 170.289 71.672C170.718 71.4107 171.241 71.28 171.857 71.28C172.501 71.28 173.061 71.4247 173.537 71.714C174.022 71.994 174.4 72.3627 174.671 72.82C174.942 73.2773 175.077 73.7767 175.077 74.318C175.077 74.8407 174.951 75.3027 174.699 75.704C174.456 76.1053 174.12 76.418 173.691 76.642C173.262 76.866 172.767 76.978 172.207 76.978ZM171.465 76.208C171.754 76.208 172.044 76.138 172.333 75.998C172.622 75.858 172.884 75.6667 173.117 75.424C173.36 75.172 173.551 74.892 173.691 74.584C173.84 74.2667 173.915 73.9353 173.915 73.59C173.915 73.1793 173.803 72.8293 173.579 72.54C173.355 72.2413 173.024 72.092 172.585 72.092C172.202 72.092 171.824 72.2133 171.451 72.456C171.087 72.6987 170.784 73.0207 170.541 73.422C170.308 73.8233 170.191 74.2573 170.191 74.724C170.191 75.1627 170.303 75.522 170.527 75.802C170.751 76.0727 171.064 76.208 171.465 76.208ZM181.587 77.482C181.093 77.482 180.593 77.37 180.089 77.146C179.595 76.9127 179.114 76.544 178.647 76.04C178.181 75.5267 177.747 74.8547 177.345 74.024C176.953 73.184 176.617 72.1573 176.337 70.944H176.477L176.897 71.07C177.299 72.358 177.747 73.3707 178.241 74.108C178.745 74.836 179.263 75.354 179.795 75.662C180.337 75.97 180.864 76.124 181.377 76.124C181.891 76.124 182.329 76.0073 182.693 75.774C183.057 75.5407 183.337 75.2373 183.533 74.864C183.729 74.4813 183.827 74.0847 183.827 73.674C183.827 73.3007 183.748 72.9413 183.589 72.596C183.44 72.2413 183.225 71.952 182.945 71.728C182.675 71.4947 182.348 71.378 181.965 71.378C181.853 71.378 181.732 71.392 181.601 71.42C181.76 71.56 181.877 71.728 181.951 71.924C182.026 72.1107 182.063 72.2973 182.063 72.484C182.063 72.8293 181.937 73.1327 181.685 73.394C181.433 73.6553 181.111 73.786 180.719 73.786C180.477 73.786 180.239 73.73 180.005 73.618C179.772 73.4967 179.581 73.3193 179.431 73.086C179.291 72.8527 179.221 72.5633 179.221 72.218C179.221 71.6673 179.417 71.2193 179.809 70.874C180.211 70.5193 180.733 70.342 181.377 70.342C181.975 70.342 182.516 70.5007 183.001 70.818C183.487 71.1353 183.874 71.574 184.163 72.134C184.453 72.694 184.597 73.338 184.597 74.066C184.597 74.738 184.471 75.3307 184.219 75.844C183.977 76.3573 183.627 76.7587 183.169 77.048C182.721 77.3373 182.194 77.482 181.587 77.482ZM189.169 78.14C188.908 78.14 188.656 78.0747 188.413 77.944C188.171 77.804 187.951 77.6313 187.755 77.426C187.559 77.2113 187.401 76.9827 187.279 76.74C187.167 76.4973 187.111 76.2687 187.111 76.054V73.31C187.111 72.8527 187.111 72.4887 187.111 72.218C187.111 71.938 187.116 71.7093 187.125 71.532C187.135 71.3453 187.149 71.168 187.167 71L187.125 70.972C187.116 70.9813 187.083 70.9953 187.027 71.014C186.971 71.0233 186.911 71.028 186.845 71.028C186.668 71.028 186.505 70.958 186.355 70.818C186.206 70.678 186.131 70.496 186.131 70.272C186.131 70.0293 186.22 69.838 186.397 69.698C186.584 69.558 186.794 69.488 187.027 69.488C187.214 69.488 187.396 69.5393 187.573 69.642C187.751 69.7447 187.895 69.922 188.007 70.174C188.129 70.4167 188.189 70.748 188.189 71.168V73.184L188.231 73.198C188.474 73.0673 188.698 72.9787 188.903 72.932C189.118 72.8853 189.3 72.862 189.449 72.862C189.748 72.862 190.033 72.9367 190.303 73.086C190.574 73.226 190.798 73.4453 190.975 73.744L191.003 73.73C191.078 73.394 191.195 73.1607 191.353 73.03C191.521 72.8993 191.75 72.834 192.039 72.834C192.142 72.834 192.263 72.8387 192.403 72.848C192.543 72.8573 192.66 72.862 192.753 72.862C193.043 72.862 193.229 72.806 193.313 72.694C193.397 72.5727 193.458 72.4 193.495 72.176H193.551L193.901 72.4C193.864 72.9787 193.761 73.38 193.593 73.604C193.435 73.8187 193.136 73.926 192.697 73.926C192.529 73.926 192.357 73.9167 192.179 73.898C192.011 73.8793 191.853 73.87 191.703 73.87C191.563 73.87 191.461 73.884 191.395 73.912C191.33 73.94 191.283 73.982 191.255 74.038C191.573 74.1687 191.801 74.3133 191.941 74.472C192.081 74.6307 192.151 74.8313 192.151 75.074C192.151 75.3913 192.053 75.7273 191.857 76.082C191.671 76.4367 191.423 76.7727 191.115 77.09C190.817 77.398 190.495 77.65 190.149 77.846C189.804 78.042 189.477 78.14 189.169 78.14ZM188.189 74.304V76.446C188.189 76.6513 188.231 76.8147 188.315 76.936C188.409 77.0573 188.535 77.118 188.693 77.118C188.861 77.118 189.071 77.0527 189.323 76.922C189.585 76.782 189.841 76.6 190.093 76.376C190.345 76.1427 190.555 75.8907 190.723 75.62C190.891 75.3493 190.975 75.074 190.975 74.794C190.975 74.4673 190.849 74.2387 190.597 74.108C190.355 73.968 190.079 73.898 189.771 73.898C189.482 73.898 189.193 73.9447 188.903 74.038C188.614 74.122 188.376 74.2107 188.189 74.304ZM195.324 80.576L195.016 80.268C196.64 78.98 197.452 76.894 197.452 74.01C197.452 71.1167 196.64 69.026 195.016 67.738L195.324 67.444C197.564 69.04 198.684 71.238 198.684 74.038C198.684 75.4473 198.404 76.7027 197.844 77.804C197.284 78.896 196.444 79.82 195.324 80.576Z" fill="#1F4F69"/>
<mask id="path-4-inside-1_2929_11" fill="white">
<path d="M10 21C10 9.40202 19.402 0 31 0H288C299.598 0 309 9.40202 309 21V87C309 98.598 299.598 108 288 108H31C19.402 108 10 98.598 10 87V21Z"/>
</mask>
<path d="M10 21C10 9.23633 19.5363 -0.3 31.3 -0.3H287.7C299.464 -0.3 309 9.23633 309 21C309 9.56771 299.598 0.3 288 0.3H31C19.402 0.3 10 9.56771 10 21ZM309 87C309 98.7637 299.464 108.3 287.7 108.3H31.3C19.5363 108.3 10 98.7637 10 87C10 98.4323 19.402 107.7 31 107.7H288C299.598 107.7 309 98.4323 309 87ZM10 108V0V108ZM309 0V108V0Z" fill="#186E9D" mask="url(#path-4-inside-1_2929_11)"/>
</svg>
