<svg width="89" height="83" viewBox="0 0 89 83" fill="none" xmlns="http://www.w3.org/2000/svg">
<path d="M57.4336 6.83916C57.5047 7.64015 57.2736 8.77561 57.7092 9.1629C58.8193 10.05 60.0644 10.7571 61.3983 11.2578C61.7183 11.3898 62.3939 10.8001 62.865 10.4832C65.6207 8.63478 64.9096 8.12426 67.8875 10.5976C69.7987 12.1908 69.772 12.1908 68.6697 14.4001C68.2964 15.1659 67.5941 16.2222 67.8608 16.7415C68.5704 17.9671 69.4875 19.0628 70.5721 19.9806C70.8387 20.2271 71.6832 19.9806 72.2255 19.8222C75.3279 18.8276 75.319 18.81 77.0168 21.5298C78.368 23.6775 78.3325 23.6511 76.4479 25.3763C75.8168 25.9484 74.8478 26.7846 74.9367 27.3568C75.1937 28.7926 75.7377 30.1632 76.5368 31.3881C76.8035 31.8106 77.9769 31.7402 78.7414 31.7666C81.2393 31.881 81.4082 31.9954 81.7193 34.4072C82.1371 37.5407 82.1638 37.62 79.1236 38.7466C77.8969 39.1955 77.808 39.8821 77.6391 41.0088C77.2479 43.6494 78.4125 44.9961 80.8304 45.621C81.8615 45.8763 82.3415 46.5012 81.9593 47.5575C81.9206 47.7011 81.8997 47.8489 81.8971 47.9976C81.2659 52.5395 81.2659 51.6769 77.7724 51.8177C76.7413 51.8617 76.0568 52.1346 75.9057 53.226C75.8992 53.3228 75.8686 53.4165 75.8168 53.4989C74.4212 55.6554 74.8656 57.363 77.0435 58.7361C77.9947 59.3434 78.1724 60.118 77.5413 61.2271C75.5856 64.6335 75.6479 64.6335 71.7455 63.5948C71.4377 63.576 71.1293 63.6177 70.8379 63.7174C70.5465 63.8171 70.2779 63.9729 70.0476 64.1758C67.8875 65.9362 67.2919 67.8726 69.212 70.2228C69.8254 70.971 69.5854 71.6311 68.812 72.1945C67.7186 73.0042 66.7141 74.4478 65.5763 74.5534C64.4384 74.659 63.4339 73.2507 62.2961 72.6081C62.0708 72.495 61.8247 72.4282 61.5727 72.4115C61.3207 72.3949 61.0678 72.4288 60.8294 72.5113C59.8053 72.9987 58.8342 73.5886 57.9314 74.2717C57.776 74.4291 57.6555 74.6169 57.5774 74.823C57.4993 75.0291 57.4655 75.249 57.4781 75.4688C57.7359 79.3769 57.7359 79.3417 54.0824 80.8029C53.8765 80.9291 53.6452 81.009 53.4047 81.037C53.1642 81.0649 52.9205 81.0403 52.6907 80.9647C52.4609 80.8892 52.2507 80.7645 52.0749 80.5997C51.8991 80.4348 51.762 80.2338 51.6733 80.0107C49.8955 77.1852 49.8421 77.2908 46.6242 77.7662C46.1216 77.7775 45.641 77.9726 45.275 78.3139C44.909 78.6552 44.6835 79.1185 44.6419 79.6146C43.8418 82.977 43.753 82.8449 40.2772 82.8714C38.5705 82.8714 37.8415 82.2024 37.6726 80.6708C37.6441 80.4282 37.6026 80.1873 37.5482 79.9491C37.4149 78.5583 36.7304 77.9334 35.237 77.7222C32.2857 77.3349 32.2502 77.194 30.7923 79.7378C30.0456 81.0053 29.29 81.3574 27.8233 80.7501C23.752 79.0777 24.3209 80.1515 24.7387 75.7241C24.7844 75.3764 24.7243 75.023 24.5659 74.7094C24.4075 74.3957 24.1581 74.1361 23.8497 73.9637C21.7074 72.2033 19.7784 72.0888 17.8494 74.2893C17.6475 74.5554 17.3486 74.7327 17.0165 74.7837C16.6844 74.8347 16.3454 74.7552 16.0716 74.5622C15.9812 74.5008 15.9004 74.4267 15.8316 74.3422C15.7183 74.2501 15.5996 74.1648 15.476 74.0869C12.2581 71.7191 12.2314 71.7103 14.1159 68.2247C14.3031 67.8967 14.379 67.5179 14.3326 67.144C14.2862 66.7701 14.1199 66.4208 13.8581 66.1474C12.4092 63.7445 10.6313 63.0403 8.08007 64.387C7.19113 64.8535 6.52443 64.5807 6.04441 63.6036C5.56438 62.6266 4.84435 61.7464 4.40877 60.7078C4.23099 60.3029 4.49766 59.7131 4.58656 59.2026C4.58656 59.1234 4.71101 59.0442 4.79101 59.0002C7.37781 57.5038 7.59115 55.541 6.21331 53.0588C5.78662 52.293 5.4666 51.8969 4.60434 51.9497C4.05912 51.9497 3.51688 51.9321 2.97759 51.8969C0.941933 51.7825 0.790814 51.6504 0.417462 49.6788C-0.258127 46.158 -0.258128 46.158 3.1376 44.776C3.54308 44.6372 3.893 44.3734 4.13614 44.0233C4.37928 43.6733 4.50286 43.2554 4.48878 42.8308C4.80879 40.2518 3.97319 38.6674 1.31528 38.1305C0.0796675 37.884 -0.249238 37.1006 0.17745 35.9212C0.22412 35.7301 0.2568 35.5359 0.275233 35.3402C0.764146 31.8986 0.764145 31.8194 4.25765 31.7314C4.73539 31.7729 5.21122 31.6333 5.58906 31.3408C5.9669 31.0484 6.21859 30.6249 6.29331 30.1558C7.35114 27.1191 7.45781 27.0839 5.02214 24.9714C4.04431 24.0912 3.86652 23.4046 4.55989 22.3748C7.22669 18.3435 5.69773 18.5283 10.4269 19.963C10.713 19.9984 11.0035 19.9753 11.2802 19.8951C11.557 19.8148 11.8142 19.6792 12.0358 19.4965C14.3559 17.6921 14.7471 15.6236 12.8625 13.203C12.6314 12.9038 12.9781 12.1468 13.0936 11.6099C13.0936 11.4866 13.2981 11.4074 13.4137 11.3106C16.4538 8.49395 16.4271 8.52035 19.8407 10.8881C20.0973 11.0139 20.3774 11.0859 20.6635 11.0995C20.9495 11.1131 21.2353 11.0681 21.503 10.9673C24.0097 10.0871 25.3165 8.49394 24.4542 5.68609C24.1164 4.57703 24.7209 4.0401 25.7432 3.66161C29.4767 2.24448 29.4322 2.23568 31.7257 5.42203C32.0368 5.85333 32.8102 5.95895 33.3702 6.20541H33.5124C36.1259 6.20541 37.7704 5.22838 37.8415 2.37651C37.8415 1.27626 38.5883 0.756934 39.7261 0.862558H40.0194C43.8685 0.624903 43.9219 0.616101 44.7308 4.27776C44.953 5.33401 45.4775 5.58046 46.4198 5.88854C48.9265 6.70713 50.6689 6.1702 51.6911 3.68802C52.1534 2.55255 52.989 2.34131 54.0735 2.89583C54.4646 3.08948 54.9002 3.20391 55.318 3.36234C58.2781 4.4626 57.7448 4.0137 57.4336 6.83916ZM11.7247 60.3997C12.4714 60.3997 12.9781 60.3029 13.5026 60.3029C14.6671 60.3029 15.156 61.0598 14.6582 62.0633C14.5083 62.4481 14.3836 62.8421 14.2848 63.2428C14.7809 63.2455 15.2765 63.2749 15.7693 63.3308C16.2143 63.3325 16.6494 63.4608 17.0227 63.7005C17.245 63.9029 17.1472 64.4574 17.1383 64.8447C17.1294 65.232 17.0672 65.7249 17.0227 66.1915C17.4687 66.1049 17.9202 66.049 18.3739 66.0242C18.8238 65.9697 19.2801 66.043 19.6895 66.2355C19.9207 66.4027 19.9295 66.9484 19.974 67.3357C20.0184 67.723 19.974 68.2159 19.974 68.6824C20.422 68.5691 20.876 68.481 21.3341 68.4184C21.7614 68.2996 22.2135 68.2996 22.6408 68.4184C22.9075 68.5592 23.0141 69.0961 23.0853 69.4834C23.1502 69.9382 23.18 70.3973 23.1742 70.8565C23.6364 70.6805 24.1164 70.5309 24.5964 70.3988C25.0317 70.2498 25.5018 70.2315 25.9476 70.346C26.241 70.4781 26.3565 71.015 26.4988 71.4023C26.641 71.7896 26.6943 72.2825 26.801 72.6874C27.1832 72.5113 27.5566 72.3089 27.9477 72.168C28.3389 72.0272 28.8989 71.6927 29.2189 71.8248C29.5389 71.9568 29.6989 72.5553 29.8945 72.9602C30.09 73.3651 30.2589 73.7612 30.4278 74.1661C30.7745 73.9549 31.1123 73.726 31.4679 73.5324C31.8235 73.3387 32.3568 72.8546 32.6502 72.9778C32.9435 73.1011 33.3258 73.6468 33.628 74.0693C33.8324 74.4228 34.0107 74.7905 34.1614 75.1696C34.5472 74.9141 34.9047 74.619 35.2281 74.2893C36.117 73.2947 36.8637 73.4091 37.406 74.6326C37.6191 75.0603 37.8816 75.462 38.1882 75.8297C38.4775 75.5546 38.7477 75.2605 38.9972 74.9495C39.6728 73.9021 40.6061 73.8668 41.1573 74.8527C41.3795 75.24 41.664 75.592 41.9218 75.9617C42.2851 75.6229 42.6127 75.2483 42.8996 74.8439C43.5307 73.7876 44.3219 73.7524 45.0063 74.747C45.2677 75.0732 45.5659 75.3685 45.8953 75.6273C46.1805 75.2829 46.4306 74.9114 46.642 74.5182C47.0776 73.2947 47.842 73.1891 48.7132 74.0693C49.065 74.3549 49.4464 74.6027 49.851 74.8087C49.9991 74.383 50.1773 73.9683 50.3844 73.5676C50.6244 73.1891 50.9089 72.6874 51.2733 72.5729C51.6378 72.4585 52.02 72.8106 52.3845 72.9866C52.749 73.1627 53.1668 73.4267 53.5579 73.6644C53.6771 73.2037 53.8255 72.751 54.0024 72.3089C54.1471 71.8825 54.405 71.5024 54.7491 71.2086C55.1046 71.0238 55.5224 71.3583 55.9047 71.4991C56.2869 71.6399 56.7225 71.8688 57.1403 72.0536C57.2647 71.6223 57.3892 71.1734 57.5225 70.7509C57.6559 70.3284 57.7003 69.7211 57.9937 69.5274C58.287 69.3338 58.8826 69.5274 59.2826 69.6595C59.6826 69.7915 60.1715 69.8795 60.6338 69.9939C60.6428 69.5814 60.6784 69.1697 60.7405 68.7617C60.8116 68.3215 60.8294 67.7318 61.1138 67.4942C61.3983 67.2565 61.9494 67.4942 62.3939 67.4942C62.8383 67.4942 63.2828 67.4942 63.7539 67.5646C63.7627 67.1581 63.736 66.7517 63.6739 66.3499C63.3806 65.1528 63.9228 64.5895 65.1051 64.8359C65.5676 64.8977 66.0342 64.9241 66.5007 64.9152C66.3971 64.4511 66.3259 63.9805 66.2874 63.5068C66.2182 63.1059 66.287 62.6936 66.483 62.3361C66.7141 62.0897 67.2386 62.0809 67.6386 62.0369C68.0915 62.0104 68.5457 62.0104 68.9987 62.0369C68.892 61.5528 68.7764 61.0775 68.7053 60.5933C68.6342 60.1092 68.4564 59.6603 68.6342 59.4403C68.9897 59.1544 69.4166 58.9688 69.8698 58.9033C70.3143 58.8153 70.7587 58.7449 71.221 58.7009C71.0946 58.267 70.928 57.8457 70.7232 57.4422C70.0832 56.4212 70.3587 55.6818 71.461 55.5938C73.2389 55.4353 73.2389 55.4353 72.1988 53.8334C72.0993 53.7272 72.022 53.6025 71.9712 53.4667C71.9205 53.3308 71.8973 53.1863 71.9031 53.0416C71.9089 52.8968 71.9435 52.7546 72.0049 52.6231C72.0663 52.4917 72.1534 52.3735 72.261 52.2754C72.4374 52.1078 72.6664 52.0053 72.91 51.9849C73.3764 51.8299 73.831 51.6416 74.27 51.4216C74.0209 51.0305 73.7447 50.657 73.4433 50.3037C72.6522 49.4235 72.8388 48.7106 73.9145 48.3497C74.331 48.161 74.7271 47.931 75.0967 47.6631C74.8573 47.2765 74.5804 46.9139 74.27 46.5805C73.3189 45.7003 73.3811 45.0577 74.5723 44.512C74.9262 44.2994 75.2595 44.0548 75.5679 43.7814C75.3052 43.4379 75.0073 43.1223 74.6789 42.8396C73.63 42.1706 73.5767 41.3608 74.5723 40.7535C74.9077 40.5091 75.2201 40.2351 75.5056 39.9349C75.2028 39.6108 74.8694 39.3161 74.51 39.0547C73.2744 38.3857 73.2211 37.708 74.3323 36.9158C74.6327 36.6543 74.9013 36.3589 75.1323 36.0356C74.75 35.7803 74.3678 35.5515 73.9945 35.2786C73.6211 35.0057 73.1055 34.7505 73.0255 34.3984C72.9455 34.0463 73.3455 33.5974 73.5589 33.2013C73.7722 32.8052 73.9589 32.4972 74.1634 32.1451C73.8149 31.9176 73.4423 31.7287 73.0522 31.5817C71.8077 31.2649 71.5943 30.7015 72.3766 29.6277C72.5855 29.2373 72.7467 28.8236 72.8566 28.3954C72.4173 28.2334 71.9654 28.1068 71.5054 28.0169C70.3321 27.8497 70.0032 27.1983 70.6165 26.2037C70.8654 25.8252 71.0788 25.4291 71.3365 24.989C70.2965 24.7514 69.1142 24.8042 68.7675 24.32C68.4208 23.8359 68.8564 22.7269 68.9987 21.565C68.5487 21.5914 68.0975 21.5914 67.6475 21.565C67.1981 21.5655 66.7588 21.4338 66.3852 21.1865C66.1807 20.9753 66.3141 20.4119 66.3852 20.007C66.4563 19.6021 66.5096 19.1268 66.5808 18.6691C66.1185 18.6691 65.6918 18.7219 65.2207 18.6691C64.7687 18.7059 64.3149 18.6239 63.9051 18.4315C63.6828 18.2554 63.7539 17.6745 63.7362 17.2784C63.7184 16.8823 63.7362 16.3982 63.7362 15.9317C63.2772 15.9547 62.8216 16.0225 62.3761 16.1341C61.3094 16.5214 60.6693 16.0637 60.7494 14.9635C60.7375 14.4724 60.681 13.9833 60.5805 13.5023C60.1181 13.6094 59.6637 13.7477 59.2204 13.916C58.1715 14.3913 57.4425 13.96 57.5136 12.8422C57.4895 12.3894 57.4301 11.9391 57.3358 11.4954C56.8906 11.593 56.4582 11.7406 56.0469 11.9355C54.8824 12.6661 54.2157 12.3845 54.0646 11.0553C53.9577 10.6206 53.7965 10.2007 53.5846 9.80545C53.2374 10.0325 52.8784 10.2411 52.5089 10.4304C52.1 10.6152 51.62 10.9409 51.2555 10.8265C50.8911 10.7121 50.6333 10.2103 50.4466 9.81425C50.2695 9.44947 50.118 9.07302 49.9933 8.68759C49.6021 8.92525 49.211 9.1717 48.8199 9.36535C48.4287 9.55899 47.9309 10.0343 47.6376 9.93748C47.3442 9.84066 47.0242 9.31254 46.7487 8.95165C46.519 8.62036 46.3082 8.27653 46.1175 7.92181C45.7593 8.12735 45.4279 8.37567 45.1308 8.66118C44.2419 9.82306 43.5485 9.77024 42.944 8.48514C42.7118 8.1546 42.4334 7.85826 42.1173 7.60494C41.8417 7.8954 41.5928 8.20348 41.2906 8.48514C40.9683 8.86273 40.5642 9.16358 40.1083 9.36535C39.8683 9.41816 39.4327 8.94285 39.1572 8.65238C38.8816 8.36191 38.5527 7.98343 38.2682 7.64015C37.9765 7.99056 37.7149 8.36448 37.486 8.75801C36.8993 9.97269 36.1259 10.1047 35.2992 9.05728C35.0299 8.75967 34.7322 8.48849 34.4103 8.24749C34.1491 8.61935 33.923 9.01417 33.7347 9.42696C33.2991 10.6769 32.5435 10.8529 31.619 9.91988C31.2992 9.66273 30.9537 9.43858 30.5879 9.25092C30.4012 9.64701 30.2323 10.0607 30.0189 10.448C29.8056 10.8353 29.6011 11.4074 29.2989 11.5747C28.9967 11.7419 28.4633 11.381 28.0455 11.2138C27.6277 11.0465 27.2899 10.8705 26.9166 10.6857C26.8188 11.0729 26.6943 11.4602 26.561 11.8387C26.4357 12.317 26.205 12.7619 25.8854 13.1414C25.6809 13.3087 25.112 13.1414 24.7298 12.9918C24.2994 12.8393 23.8779 12.663 23.4675 12.4637C23.4139 12.9564 23.3248 13.4447 23.2008 13.9248C23.0878 14.3708 22.8507 14.7764 22.5163 15.0955C22.2852 15.2539 21.7607 15.0427 21.3874 14.9547C21.014 14.8666 20.5962 14.7082 20.2051 14.585C20.1429 15.0339 20.0896 15.4652 20.0095 15.9317C19.9295 16.3982 20.0096 17.0319 19.6806 17.3224C19.3517 17.6129 18.7917 17.3928 18.3206 17.3664C17.9212 17.3416 17.5235 17.2946 17.1294 17.2256C17.1294 17.6393 17.2094 18.053 17.2005 18.4579C17.1916 18.8628 17.2805 19.5581 17.0227 19.8926C16.7649 20.2271 16.1338 20.0951 15.7338 20.1303C15.3338 20.1655 14.9071 20.1303 14.4982 20.1303C14.5604 20.5264 14.6404 20.9313 14.676 21.345C14.7115 21.7586 14.916 22.454 14.676 22.7269C14.4359 22.9997 13.787 22.9997 13.3248 23.079C12.8625 23.1582 12.4358 23.1758 11.858 23.255C12.0993 23.6066 12.3104 23.9776 12.4892 24.3641C12.6314 24.8218 12.9248 25.4907 12.7292 25.7548C12.5336 26.0188 11.7869 26.1773 11.2891 26.3533C10.9424 26.4766 10.6046 26.5822 10.258 26.6878C10.3654 27.0413 10.5146 27.3811 10.7024 27.7C11.538 28.8355 11.2536 29.6541 9.95572 29.8565C9.55362 29.9531 9.15861 30.0766 8.77343 30.2262C8.96507 30.6317 9.19107 31.0204 9.44902 31.3881C10.2402 32.3211 10.0002 33.1485 8.84455 33.4478C8.42558 33.6112 8.02367 33.8146 7.64449 34.0551C7.87231 34.403 8.13113 34.73 8.41786 35.0322C9.30679 35.8419 9.18234 36.7398 8.1334 37.1711C7.72496 37.3682 7.33002 37.5917 6.95112 37.84C7.30661 38.1379 7.64494 38.4552 7.9645 38.7906C8.24896 39.1339 8.64009 39.4684 8.64009 39.7941C8.64009 40.1197 8.16896 40.551 7.84894 40.8767C7.52893 41.2024 7.18224 41.4665 6.82667 41.7569C7.19825 42.0308 7.55436 42.3246 7.89339 42.6371C8.18674 42.9188 8.62232 43.3061 8.57787 43.579C8.418 43.9913 8.18633 44.3726 7.89339 44.7056C7.61565 45.053 7.31889 45.385 7.00446 45.7003C7.3738 45.8962 7.72745 46.1198 8.06229 46.3692C8.47305 46.6477 8.81122 47.0188 9.049 47.4519C9.1379 47.6807 8.72899 48.1296 8.49786 48.4465C8.24141 48.7736 7.96534 49.0852 7.67116 49.3795C8.04335 49.631 8.43929 49.8462 8.85344 50.0221C10.0802 50.4006 10.338 51.2544 9.48458 52.1698C9.22996 52.4901 9.00392 52.8317 8.80899 53.1908C9.18827 53.3316 9.56162 53.4901 9.92905 53.6661C10.3735 53.895 10.9958 54.0974 11.1469 54.4671C11.298 54.8368 10.9069 55.3473 10.7469 55.8138C10.5869 56.2803 10.4624 56.4828 10.3202 56.8261L11.3425 57.1957C11.8491 57.3806 12.587 57.451 12.7825 57.8031C12.9781 58.1552 12.6047 58.7977 12.4447 59.2994C12.2301 59.6819 11.9895 60.0495 11.7247 60.3997Z" fill="#01415E"/>
<path d="M11.52 60.4965C11.712 60.1213 11.8841 59.7364 12.0356 59.3434C12.1956 58.8329 12.56 58.1816 12.3733 57.8295C12.1867 57.4774 11.4311 57.407 10.9244 57.2221L9.89322 56.8524C10.0443 56.5092 10.1955 56.1747 10.3199 55.8314C10.4444 55.4881 10.871 54.8192 10.7288 54.4759C10.5866 54.1326 9.95545 53.8949 9.51098 53.6661C9.06651 53.4372 8.7465 53.3492 8.37315 53.1908C8.571 52.8287 8.80001 52.4841 9.05762 52.1609C9.94656 51.2807 9.6621 50.4005 8.41759 49.9956C8.00515 49.8164 7.60952 49.6013 7.23531 49.3531C7.5303 49.0538 7.80922 48.7395 8.07091 48.4113C8.30203 48.0944 8.71094 47.6367 8.62205 47.4078C8.38122 46.9717 8.04017 46.5978 7.62644 46.3164C7.29297 46.065 6.93916 45.8413 6.56861 45.6474C6.87974 45.3129 7.21753 44.9697 7.45755 44.644C7.69756 44.3183 8.14202 43.9046 8.14202 43.5085C8.14202 43.1124 7.71534 42.8396 7.45755 42.5579C7.11287 42.2447 6.75081 41.9509 6.37305 41.6777C6.73497 41.4059 7.07937 41.1119 7.40421 40.7975C7.72423 40.4718 8.14202 40.1197 8.20425 39.706C8.26648 39.2923 7.81312 39.0283 7.51977 38.7026C7.21487 38.3626 6.89141 38.0394 6.55083 37.7344C6.94627 37.4931 7.35928 37.2812 7.78645 37.1006C8.83539 36.6693 8.95095 35.7451 8.07091 34.9441C7.78287 34.6408 7.52119 34.314 7.28865 33.9671C7.66968 33.722 8.07471 33.5155 8.4976 33.3509C9.6621 33.0077 9.86656 32.2155 9.11096 31.2825C8.84891 30.9126 8.61989 30.5209 8.42648 30.1118C8.81307 29.9553 9.21132 29.8288 9.61765 29.7333C10.9244 29.5308 11.2 28.7034 10.3644 27.5592C10.1788 27.2371 10.0326 26.8944 9.92878 26.5381C10.2666 26.4325 10.6133 26.3269 10.9599 26.2037C11.4666 26.0188 12.1333 25.9484 12.4178 25.5963C12.7023 25.2442 12.3111 24.6545 12.16 24.1968C11.9897 23.805 11.7813 23.4307 11.5377 23.0789C12.1422 22.9997 12.5778 22.9733 13.0045 22.9029C13.4312 22.8325 14.1512 22.8413 14.3646 22.5508C14.5779 22.2603 14.3646 21.6706 14.3646 21.1513C14.3408 20.7392 14.2813 20.3298 14.1868 19.9278H15.4313C15.8313 19.9278 16.5424 19.9278 16.738 19.6901C16.9055 19.2282 16.9663 18.7349 16.9158 18.2466C16.9166 17.8348 16.8928 17.4233 16.8447 17.0143C17.2358 17.0583 17.6447 17.1287 18.0359 17.1551C18.427 17.1816 19.1559 17.34 19.4048 17.1023C19.6537 16.8647 19.6537 16.2221 19.7426 15.7028C19.8315 15.1835 19.8671 14.8226 19.9204 14.3473C20.3204 14.4705 20.7115 14.6202 21.1116 14.717C21.5116 14.8138 22.0005 15.025 22.2583 14.8578C22.5978 14.5406 22.8331 14.1296 22.9339 13.6783C23.0571 13.1921 23.1462 12.698 23.2006 12.1996C23.6146 12.4002 24.0389 12.5794 24.4717 12.7365C24.854 12.8509 25.4318 13.0534 25.6273 12.8861C25.9549 12.5073 26.1893 12.0584 26.3118 11.5746C26.4452 11.195 26.5521 10.8068 26.6318 10.4128C27.023 10.5976 27.3874 10.8001 27.7786 10.9497C28.1697 11.0993 28.7297 11.4338 29.0408 11.3018C29.352 11.1697 29.5653 10.58 29.7698 10.1751C29.9742 9.77022 30.1876 9.37412 30.3654 8.93402C30.7335 9.12579 31.0819 9.35279 31.4054 9.61178C32.3388 10.5536 33.1033 10.3776 33.5388 9.11886C33.7267 8.7013 33.956 8.30325 34.2233 7.93058C34.5588 8.17499 34.8712 8.44897 35.1567 8.74918C35.9834 9.77902 36.7746 9.62938 37.3613 8.4411C37.6056 8.05507 37.8821 7.68998 38.188 7.34965C38.4813 7.68413 38.7569 8.02741 39.0769 8.37069C39.3969 8.71397 39.7614 9.13647 40.0458 9.08365C40.5031 8.8843 40.9077 8.58307 41.2281 8.20345C41.5304 7.93058 41.7881 7.61371 42.1171 7.32324C42.431 7.59622 42.7061 7.91009 42.9349 8.25626C43.5571 9.55016 44.2238 9.60298 45.1483 8.4323C45.4442 8.13918 45.7792 7.88746 46.1439 7.68413C46.3484 8.03621 46.5351 8.36189 46.7751 8.72277C47.0151 9.08365 47.3173 9.60298 47.664 9.7086C48.0107 9.81422 48.4552 9.35652 48.8463 9.13647C49.2374 8.91641 49.6374 8.66996 50.0286 8.45871C50.1549 8.84484 50.3094 9.22139 50.4908 9.58537C50.713 9.98146 50.9531 10.5184 51.3086 10.6328C51.6642 10.7472 52.1976 10.4128 52.5798 10.2191C52.962 10.0255 53.3087 9.82303 53.6554 9.60298C53.869 10.0006 54.0303 10.4236 54.1354 10.8617C54.2954 12.2084 54.9533 12.4636 56.1355 11.7419C56.5468 11.5469 56.9793 11.3993 57.4245 11.3018C57.531 11.7465 57.5935 12.2005 57.6112 12.6573C57.6112 13.784 58.2956 14.2153 59.3357 13.7311C59.7426 13.5758 60.1581 13.4435 60.5802 13.335C60.6895 13.8176 60.7461 14.3104 60.7491 14.805C60.678 15.9141 61.3091 16.3718 62.4025 15.9845C62.8475 15.8714 63.3035 15.8065 63.7626 15.7908C63.7626 16.2309 63.7626 16.671 63.7626 17.1375C63.7626 17.604 63.7626 18.1234 63.9404 18.2994C64.3525 18.4948 64.8092 18.5798 65.2649 18.5459C65.7223 18.5424 66.1792 18.5159 66.6338 18.4667C66.5716 18.9156 66.4738 19.3469 66.4383 19.8222C66.4027 20.2975 66.2694 20.7904 66.4383 21.0016C66.8086 21.2556 67.2501 21.3879 67.7006 21.3801C68.1562 21.4153 68.6139 21.4153 69.0695 21.3801C68.9362 22.5508 68.4739 23.6335 68.8295 24.1616C69.1851 24.6897 70.3851 24.6105 71.4252 24.8305C71.1585 25.2794 70.9452 25.7107 70.7051 26.0628C70.0651 27.0575 70.4029 27.7176 71.5941 27.8761C72.0536 27.9865 72.505 28.1276 72.9453 28.2986C72.8133 28.7273 72.6344 29.1405 72.4119 29.5308C71.6474 30.5783 71.8608 31.1768 73.0964 31.5025C73.4865 31.6494 73.8591 31.8383 74.2075 32.0658C74.0031 32.4179 73.7809 32.7436 73.5942 33.1309C73.4075 33.5182 72.9897 34.0111 73.0697 34.3368C73.1497 34.6624 73.6831 34.9353 74.0475 35.217C74.412 35.4986 74.8031 35.7275 75.1854 35.9828C74.9486 36.3042 74.6773 36.5993 74.3764 36.863C73.2564 37.6463 73.3186 38.3153 74.5453 39.0107C74.9041 39.2729 75.232 39.5741 75.5232 39.9085C75.2353 40.2063 74.9231 40.4801 74.5898 40.7271C73.5853 41.3344 73.6386 42.153 74.6876 42.8308C75.0371 43.1108 75.3559 43.4265 75.6387 43.7726C75.327 44.0497 74.9874 44.2945 74.6253 44.5031C73.4697 45.0577 73.3719 45.7354 74.3231 46.5892C74.6547 46.9234 74.9524 47.289 75.212 47.6807C74.8345 47.9436 74.4327 48.1705 74.012 48.3585C72.9275 48.7193 72.7408 49.4851 73.5408 50.3301C73.844 50.6819 74.1203 51.0556 74.3675 51.448C73.9246 51.6636 73.4672 51.8489 72.9986 52.0025C72.7028 52.025 72.4282 52.1627 72.2349 52.3855C72.0415 52.6083 71.9454 52.8979 71.9674 53.1908C71.9888 53.4438 72.0952 53.6824 72.2697 53.8685C73.3631 55.4441 73.3631 55.4441 71.523 55.629C70.4118 55.7258 70.154 56.5092 70.7851 57.495C70.9862 57.9031 71.1527 58.3271 71.283 58.7625C70.8207 58.7625 70.394 58.8769 69.914 58.9649C69.4563 59.0297 69.0256 59.2186 68.6695 59.5107C68.4917 59.7307 68.6695 60.2764 68.7406 60.6637C68.8117 61.051 68.9362 61.632 69.034 62.1249C68.578 62.0985 68.1209 62.0985 67.665 62.1249C67.2561 62.1249 66.7761 62.1777 66.5094 62.4241C66.3042 62.7816 66.2319 63.1989 66.3049 63.6036C66.3411 64.1009 66.4124 64.595 66.5183 65.0824C66.0486 65.084 65.5794 65.0546 65.1138 64.9944C63.9226 64.7303 63.3359 65.32 63.6737 66.5259C63.7357 66.9307 63.7625 67.34 63.7537 67.7494C63.2914 67.7494 62.8648 67.6878 62.3847 67.679C61.9047 67.6702 61.3536 67.4941 61.0958 67.679C60.838 67.8638 60.8024 68.5064 60.7224 68.9553C60.6424 69.4042 60.6513 69.7827 60.6158 70.1964C60.1802 70.0819 59.7268 69.9411 59.2912 69.8531C58.8557 69.7651 58.2779 69.545 57.9934 69.7299C57.7089 69.9147 57.6556 70.5308 57.5223 70.9533C57.3889 71.3758 57.2556 71.8335 57.14 72.2737C56.7222 72.08 56.3133 71.8776 55.8866 71.7103C55.4599 71.5431 54.9977 71.279 54.731 71.4199C54.3923 71.7236 54.1331 72.1042 53.9754 72.5289C53.8047 72.9583 53.6564 73.396 53.531 73.8404C53.1398 73.6116 52.7576 73.3739 52.3487 73.1627C51.9398 72.9514 51.5131 72.6345 51.2286 72.7402C50.8462 72.989 50.539 73.3358 50.3397 73.7436C50.1217 74.1281 49.9401 74.5318 49.7974 74.9495C49.3879 74.7437 49.0032 74.4927 48.6507 74.2013C47.7618 73.3211 47.0062 73.4531 46.5528 74.5974C46.3501 75.0011 46.0995 75.3793 45.8061 75.7241C45.4792 75.4626 45.1813 75.1675 44.9172 74.8438C44.2327 73.8316 43.4327 73.8756 42.8015 74.9407C42.5105 75.3471 42.1768 75.7218 41.8059 76.0585C41.557 75.6889 41.2637 75.3368 41.0414 74.9495C40.4814 73.9548 39.5569 73.9901 38.8636 75.0375C38.6158 75.3665 38.3455 75.6782 38.0546 75.9705C37.7427 75.6629 37.4683 75.3202 37.2368 74.9495C36.6946 73.7436 35.8679 73.594 35.05 74.6062C34.7158 74.9311 34.3529 75.2257 33.9655 75.4864C33.8166 75.1038 33.6383 74.733 33.4322 74.3773C33.1477 73.9636 32.8633 73.4179 32.4543 73.2771C32.0454 73.1363 31.6543 73.6116 31.2543 73.8316C30.8543 74.0517 30.5698 74.2629 30.2142 74.4742C30.0276 74.0693 29.8676 73.6556 29.672 73.2595C29.4764 72.8634 29.3164 72.2649 28.9875 72.124C28.6586 71.9832 28.0986 72.3001 27.7074 72.4585C27.3163 72.6169 26.9341 72.8106 26.5429 72.9866C26.4676 72.5499 26.3667 72.1179 26.2407 71.6927C26.1074 71.3054 25.9829 70.7597 25.6985 70.6277C25.2463 70.5112 24.7691 70.5327 24.3295 70.6893C23.8471 70.8153 23.3722 70.9681 22.9072 71.147C22.9041 70.6821 22.8744 70.2178 22.8183 69.7563C22.7383 69.3778 22.6316 68.8761 22.3561 68.6912C21.9257 68.5726 21.4708 68.5726 21.0404 68.6912C20.5871 68.744 20.1515 68.8761 19.6715 68.9641V67.5205C19.6715 67.098 19.627 66.5787 19.387 66.4027C18.9721 66.2178 18.5144 66.1479 18.0625 66.2002C17.6058 66.225 17.1514 66.2809 16.7025 66.3675C16.7025 65.9098 16.8091 65.4873 16.818 65.012C16.8269 64.5366 16.9158 64.0613 16.7025 63.8589C16.3242 63.6247 15.8862 63.5025 15.4402 63.5068C14.9441 63.4541 14.4456 63.4276 13.9468 63.4276C14.0442 63.0237 14.169 62.6267 14.3201 62.2393C14.809 61.1831 14.3201 60.3997 13.1556 60.4173C12.7911 60.3997 12.2845 60.4525 11.52 60.4965ZM41.4326 72.0008C57.7889 72.3089 71.5941 58.9209 71.9674 42.3819C72.0428 38.3936 71.3232 34.4298 69.8498 30.7173C68.3765 27.0047 66.1782 23.6163 63.3809 20.7459C60.5836 17.8755 57.2421 15.5794 53.5476 13.9891C49.8532 12.3988 45.8783 11.5454 41.8504 11.4778H41.6904C25.2895 11.2226 11.2533 24.6281 10.871 40.9031C10.4621 57.7943 24.2051 72.1416 41.4326 71.9656V72.0008Z" fill="#01415E"/>
<path d="M41.0332 58.8067C38.4553 58.8067 35.8774 58.7362 33.2995 58.8067C31.6905 58.8683 31.335 58.2345 31.5216 56.8878C32.4106 51.6066 33.2995 46.3253 34.2329 41.0441C34.6329 39.2573 34.6329 37.7785 33.2284 36.2206C30.9172 33.4743 31.1216 29.3374 33.3173 26.2126C34.4165 24.7382 35.9305 23.6176 37.6699 22.9913C39.4093 22.3651 41.2966 22.2609 43.0956 22.6918C44.8844 23.0217 46.5315 23.8775 47.8222 25.1477C49.1128 26.4178 49.9872 28.0434 50.3315 29.8127C50.6309 31.1419 50.5937 32.5239 50.223 33.8355C49.8523 35.147 49.1597 36.3474 48.2069 37.3296C47.8871 37.6539 47.657 38.0541 47.5387 38.492C47.4204 38.9298 47.4178 39.3904 47.5313 39.8294C48.5892 45.5772 49.567 51.3601 50.5626 57.1167C50.7937 58.4106 50.287 58.8771 48.9447 58.8771C46.2779 58.7714 43.6467 58.8067 41.0332 58.8067Z" fill="#006EA9"/>
<path d="M61.2295 13.5674C61.9229 12.4847 62.5629 11.6309 63.0074 10.6979C63.688 9.61486 64.1751 8.42384 64.4474 7.17707C64.7674 4.37801 65.8253 3.07531 68.5988 3.0489C70.0029 3.05004 71.3508 2.50288 72.35 1.52615C74.5902 -0.498327 75.9858 -0.498328 78.1637 1.46453C79.2129 2.47797 80.6181 3.04906 82.0839 3.05771C84.884 3.12812 85.7107 4.21958 86.093 7.06264C86.2899 8.39441 86.832 9.65292 87.6664 10.7155C89.4442 12.9072 89.4442 14.3772 87.6664 16.6129C86.8301 17.744 86.2896 19.0624 86.093 20.4506C85.7285 23.0208 84.7418 24.2179 82.075 24.2883C80.6147 24.2981 79.2179 24.8805 78.1903 25.9079C76.1458 27.8267 74.5368 27.6683 72.2789 25.9079C71.1957 25.1012 69.9232 24.5802 68.581 24.3939C65.8431 24.033 64.5897 23.056 64.5541 20.3449C64.5534 19.6252 64.4093 18.9127 64.1302 18.2481C63.851 17.5836 63.4423 16.98 62.9274 16.472C62.2477 15.5735 61.6778 14.5985 61.2295 13.5674ZM73.3012 15.6182C72.6369 14.685 71.9029 13.8024 71.1055 12.9776C70.7055 12.6167 69.9499 12.6431 69.3277 12.4671C69.3277 13.0744 69.0432 13.8314 69.3277 14.2275C70.0566 15.3982 71.0255 16.428 71.8789 17.5371C71.9833 17.7346 72.135 17.9037 72.3206 18.0297C72.5063 18.1557 72.7203 18.2348 72.9439 18.26C73.1676 18.2851 73.3941 18.2557 73.6036 18.1742C73.8131 18.0927 73.9992 17.9616 74.1457 17.7924C76.3858 16.0319 78.697 14.3155 80.8749 12.5111C81.2927 12.1678 81.2572 11.2876 81.4261 10.6627C80.7682 10.7067 79.9238 10.5042 79.4704 10.8211C77.3814 12.3087 75.4169 13.9194 73.2479 15.6006L73.3012 15.6182Z" fill="#006EA9"/>
</svg>
