<svg width="71" height="79" viewBox="0 0 71 79" fill="none" xmlns="http://www.w3.org/2000/svg">
<path d="M0 8.08467L11.2422 5.37846C18.5944 3.60098 25.9423 1.8435 33.2856 0.106017C33.7477 -0.0202232 34.2333 -0.033937 34.7018 0.0660252C45.7012 2.67892 56.7007 5.30958 67.7002 7.95803C67.8404 7.99135 67.9807 8.03801 68.1878 8.098V8.98452C68.1878 16.0167 68.2212 23.0421 68.1878 30.0676C68.1277 42.1656 64.8479 53.2504 57.5735 63.0287C52.2819 70.3672 44.8 75.8476 36.198 78.6861C33.9403 79.4393 32.0833 78.6861 30.1862 77.9729C21.4423 74.7068 14.6622 68.9544 9.47869 61.309C3.85232 53.2288 0.635326 43.7233 0.200395 33.8936C-0.120237 26.3616 0.0534384 18.8229 0.0133593 11.3108C-3.30962e-07 10.2376 0 9.17782 0 8.08467ZM64.7944 24.122H64.8946V13.0438C64.8946 11.7107 64.6074 11.3774 63.3315 11.0442L34.7418 4.24532C34.3149 4.15194 33.8728 4.15194 33.4459 4.24532C23.9027 6.50716 14.3639 8.78233 4.82952 11.0708C3.57371 11.3708 3.28648 11.7374 3.28648 13.0705C3.28648 17.8564 3.28648 22.6355 3.28648 27.4214C3.28648 30.4609 3.28648 33.507 3.55367 36.5332C4.25774 45.3866 7.50464 53.8498 12.9054 60.9091C17.8886 67.4547 24.2144 72.1472 32.1901 74.5201C33.4229 74.9065 34.7448 74.9065 35.9776 74.5201C40.5715 73.2147 44.8418 70.9672 48.5157 67.9212C58.8627 59.256 63.8793 47.9779 64.8078 34.7268C65.0215 31.2208 64.8145 27.6614 64.8145 24.142L64.7944 24.122Z" fill="#01415E"/>
<path d="M33.5866 55.2901C28.0635 55.2519 22.5681 54.5082 17.2343 53.0772C15.0166 52.4973 14.0948 51.6774 13.8944 49.3911C13.7207 47.5815 13.7341 45.7589 13.9345 43.952C14.3286 40.3793 16.553 38.073 19.6391 36.5066C22.1244 35.2814 24.8385 34.5867 27.6081 34.467C28.0042 34.4626 28.3971 34.5374 28.7637 34.6869C32.2262 36.0332 36.0691 36.0332 39.5316 34.6869C39.9588 34.5313 40.4137 34.4655 40.8676 34.4936C43.9217 34.6492 46.8963 35.5191 49.5514 37.0332C52.2233 38.6396 53.9935 40.9459 54.274 44.092C54.4188 46.0797 54.3831 48.0764 54.1671 50.0577C54.0269 51.5841 53.0449 52.5306 51.4952 52.9505C45.6574 54.5263 39.6341 55.3132 33.5866 55.2901Z" fill="#006EA9"/>
<path d="M34.1007 13.0905C39.685 13.0905 43.6863 17.0898 43.7063 22.6222C43.7263 28.1546 39.6984 32.2873 34.0807 32.2606C28.4629 32.234 24.5285 28.208 24.5352 22.6556C24.5418 17.1032 28.5097 13.1038 34.1007 13.0905Z" fill="#006EA9"/>
<path d="M47.3262 13.1437C47.914 12.2105 48.4617 11.4773 48.8692 10.6708C49.4367 9.74171 49.8411 8.7228 50.0649 7.65793C50.3388 5.25167 51.2406 4.13186 53.6052 4.1052C54.198 4.10906 54.7857 3.99625 55.3347 3.77322C55.8838 3.55019 56.3833 3.22131 56.8049 2.80542C58.7153 1.06571 59.8976 1.06571 61.7613 2.75209C62.6561 3.62064 63.8529 4.11026 65.1012 4.11853C67.4926 4.17852 68.194 5.11836 68.5213 7.55795C68.6883 8.70177 69.1485 9.78317 69.8573 10.6974C71.3402 12.5838 71.3402 13.8436 69.8573 15.7699C69.1445 16.7396 68.6853 17.8713 68.5213 19.0627C68.2073 21.2756 67.3724 22.3021 65.0945 22.3954C64.4735 22.3936 63.8582 22.5153 63.2848 22.7533C62.7113 22.9914 62.1912 23.341 61.7546 23.7819C60.0112 25.4283 58.6351 25.2683 56.718 23.7819C55.7969 23.0787 54.7121 22.6201 53.5651 22.4488C51.2272 22.1422 50.1584 21.3023 50.125 18.9694C50.1269 18.3496 50.0049 17.7357 49.7664 17.1635C49.5278 16.5912 49.1774 16.0722 48.7356 15.6366C48.1721 14.8619 47.6992 14.0255 47.3262 13.1437ZM57.6198 14.9034C57.0502 14.1074 56.4252 13.3523 55.7494 12.6438C55.4088 12.3371 54.7608 12.3571 54.2598 12.2105C54.2598 12.7304 54.0194 13.3836 54.2598 13.7569C54.8811 14.7634 55.7094 15.6433 56.4375 16.5964C57.0119 17.363 57.6198 17.4163 58.3679 16.8164C60.2784 15.29 62.2489 13.8302 64.1059 12.2505C64.46 11.9505 64.4332 11.1973 64.5802 10.6641C64.0124 10.6641 63.2977 10.5241 62.9102 10.7974C61.1267 12.0772 59.4501 13.4636 57.6131 14.9034H57.6198Z" fill="#006EA9"/>
</svg>
