<svg width="77" height="83" viewBox="0 0 77 83" fill="none" xmlns="http://www.w3.org/2000/svg">
<path d="M14.7864 59.8277V51.9244C14.8503 45.9249 18.9457 41.5292 24.894 41.4014C31.5963 41.2481 38.3112 41.2864 45.0135 41.4014C49.39 41.4653 52.5782 43.5865 54.7314 48.1164C53.5558 48.5445 52.4952 49.1898 51.3835 49.292C46.2019 49.784 43.9209 52.0905 43.4226 57.3615C43.3144 58.3519 42.9191 59.2891 42.2853 60.0578C39.8191 62.8307 38.8799 65.808 40.6816 69.2645C29.4559 72.5294 13.5405 66.5172 5.35599 53.6686C0.895056 46.5667 -0.864271 38.0978 0.398918 29.8067C1.66211 21.5156 5.86363 13.9549 12.2371 8.50365C25.2838 -2.74765 44.6557 -2.8371 57.4787 8.25447C71.4199 20.2789 72.6913 38.8777 66.8069 49.2409C65.6888 48.3912 64.4876 47.88 65.2288 45.8994C73.3238 24.3807 55.0061 -0.153657 30.9254 3.27093C17.4698 5.18768 8.62084 12.8547 4.59568 25.633C0.570508 38.4113 3.66925 49.5668 13.3935 58.8566C13.7194 59.0866 14.0325 59.2719 14.7864 59.8277Z" fill="#01415E"/>
<path d="M42.2598 65.5588C43.1287 64.1851 43.9273 63.1118 44.5215 61.9298C45.2371 60.4986 46.1508 59.0227 46.3233 57.4957C46.7194 53.9625 48.042 52.3077 51.5177 52.2757C53.2729 52.2826 54.9593 51.5933 56.2073 50.359C59.0121 47.8033 60.75 47.8033 63.4782 50.2823C64.7903 51.561 66.5465 52.2822 68.3786 52.2949C71.8863 52.3844 72.9213 53.758 73.3941 57.3487C73.646 59.0341 74.3257 60.6267 75.3684 61.9745C77.5471 64.7474 77.5407 66.6002 75.3684 69.4306C74.3208 70.8597 73.6426 72.5256 73.3941 74.28C72.9405 77.5257 71.7074 79.0399 68.3722 79.123C67.4637 79.1207 66.5637 79.298 65.7239 79.6444C64.884 79.9909 64.1208 80.4998 63.4782 81.1419C60.9225 83.5698 58.9035 83.3334 56.0859 81.1419C54.7304 80.123 53.1391 79.4636 51.4602 79.2252C48.0356 78.7716 46.4638 77.5385 46.4191 74.1139C46.4187 73.205 46.2384 72.3052 45.8886 71.4663C45.5388 70.6274 45.0264 69.8661 44.381 69.2262C43.4801 68.2742 42.9945 66.8877 42.2598 65.5588ZM57.3637 68.1528C56.5331 66.9776 55.6147 65.867 54.6164 64.8304C54.118 64.3768 53.1724 64.4088 52.4313 64.1915C52.4313 64.9582 52.0799 65.9166 52.4313 66.4597C53.3449 67.942 54.5653 69.239 55.6259 70.6382C56.4756 71.7627 57.3637 71.8457 58.4627 70.964C61.2675 68.7214 64.1554 66.5747 66.8836 64.249C67.4011 63.8082 67.3564 62.7028 67.5736 61.9106C66.743 61.9617 65.6952 61.7061 65.1266 62.115C62.507 63.9935 60.0536 66.0252 57.351 68.1528H57.3637Z" fill="#006EA9"/>
<path d="M35.1168 16.1323C37.8356 16.1908 40.4238 17.3098 42.3289 19.2503C44.234 21.1909 45.305 23.7993 45.3134 26.5187C45.3217 29.2381 44.2667 31.853 42.3735 33.8052C40.4803 35.7574 37.899 36.8922 35.1807 36.9674C29.1621 36.9674 24.7472 32.5652 24.7344 26.5722C24.7216 20.5792 29.0535 16.1643 35.1168 16.1323Z" fill="#01415E"/>
</svg>
