<svg width="130" height="148" viewBox="0 0 130 148" fill="none" xmlns="http://www.w3.org/2000/svg">
<path d="M76.6309 31.6001C75.8465 31.6001 76.0537 34.9596 73.4638 39.1035C72.5618 40.6279 71.3212 41.9242 69.838 42.8922C68.5849 43.7293 67.1257 44.2054 65.6201 44.2686C62.7638 44.3426 55.2604 44.2686 51.6937 44.5646C48.1271 44.8606 45.3891 45.0974 43.0804 46.7994C36.9978 51.2393 39.055 62.9162 39.3954 64.7218C36.8498 58.5947 32.8984 46.5033 36.1247 33.0948C36.9973 28.5667 38.9521 24.3167 41.8225 20.7075C46.2623 15.3796 51.8565 13.4261 57.6135 11.4133C62.7046 9.63735 65.7829 8.57177 70.0007 8.95656C76.9121 9.57815 81.5592 13.6037 85.7918 17.2592C89.3141 20.3227 88.6777 21.2699 95.6631 30.5789C101.583 38.3487 102.545 39.0443 103.492 40.7463C109.145 50.8545 93.7687 70.4788 92.3036 69.7833C91.5488 69.4133 93.9167 63.449 94.3311 52.0236C94.4347 49.0637 94.3311 47.2433 93.1028 46.1777C91.2972 44.6978 88.5297 45.9558 82.5803 43.7358C77.5337 41.3087 77.9777 31.5409 76.6309 31.6001Z" fill="#4A4C4B"/>
<path d="M130.001 147.363C126.671 147.363 123.962 147.452 122.216 147.467C111.486 147.541 105.774 147.333 99.1732 147.467L94.9553 147.541C93.801 147.541 91.5218 147.541 88.6507 147.467C87.4917 147.489 86.3329 147.41 85.1877 147.23C80.067 145.409 79.1643 110.157 92.5874 105.51C103.08 101.869 118.057 118.37 124.584 130.921C127.247 136.081 129.076 141.63 130.001 147.363Z" fill="#3D546F"/>
<path d="M0 147.364C1.46555 141.488 3.67366 135.824 6.57099 130.507C12.7474 119.396 21.7021 110.08 32.5589 103.468C33.8169 106.783 39.6183 122.234 41.9862 133.807C42.9778 138.602 43.6586 144.167 40.743 146.668L40.5358 146.831C40.0474 147.127 39.0559 147.23 34.616 147.334C26.6983 147.497 23.028 147.334 17.1378 147.334C13.142 147.334 12.4612 147.497 8.25813 147.482C4.72105 147.512 1.87954 147.438 0 147.364Z" fill="#3D546F"/>
<path d="M106.201 56.6713C106.154 55.2592 106.535 53.8659 107.296 52.6754C106.675 48.2645 105.831 43.888 104.765 39.5629C102.687 30.4798 98.9761 21.8497 93.8138 14.0926C91.3309 10.2743 87.9134 7.15383 83.8858 5.02731C79.8581 2.9008 75.3539 1.83878 70.8005 1.94207C69.1874 1.94207 67.5743 1.86807 65.9611 1.94207C50.4512 2.68205 39.1148 9.72671 32.603 24.038C31.7233 25.9612 30.967 27.9385 30.3387 29.9579C28.8587 34.6642 27.3787 39.3705 26.1504 44.136C26.7753 45.2312 27.1019 46.4713 27.0976 47.7323C27.216 55.7537 28.7107 63.6567 29.0363 71.6782C29.2583 77.2725 28.6071 83.7843 31.6558 88.757C34.7045 93.7297 30.9011 98.6432 26.3576 99.5016C27.8376 102.388 29.5247 105.229 31.0787 108.071C31.5728 108.508 32.0104 109.005 32.381 109.551C34.1115 112.336 35.3902 115.378 36.1697 118.564C37.3684 121.02 38.5524 123.521 39.5292 126.067C41.1123 127.697 42.5209 129.487 43.7322 131.41C43.918 131.756 44.0859 132.112 44.2354 132.475C44.6152 131.61 44.9511 130.726 45.2418 129.826C47.078 124.333 48.0856 118.597 48.2313 112.806C48.3201 108.367 48.7049 103.927 49.0305 99.4868C49.1918 98.7857 49.4561 98.1124 49.8148 97.4888V87.943C53.92 92.2335 59.5044 94.8002 65.4337 95.1218C71.3629 95.4435 77.1923 93.4958 81.7374 89.6746C81.6042 92.2497 81.5598 94.9581 81.619 97.7848C81.7918 104.67 82.5843 111.525 83.9869 118.268C86.266 116.921 88.4268 115.308 90.7503 114.094C91.8112 113.522 92.9935 113.213 94.1986 113.191C95.583 111.172 96.8006 109.044 97.8392 106.827C96.7501 104.049 96.7501 100.962 97.8392 98.1844C102.619 85.1311 106.349 70.7458 106.201 56.6713ZM92.9998 63.9823C92.1376 67.7376 90.8619 71.3857 89.1963 74.8601C87.8286 78.0419 85.9984 81.0042 83.7649 83.6511C82.1222 85.4863 76.084 92.2349 66.8343 92.3237C59.4345 92.4125 54.0623 88.091 51.9312 86.4038C48.5659 83.5534 45.8423 80.0227 43.9394 76.0441C41.5159 71.528 39.8368 66.6505 38.9668 61.5996C36.8425 49.1084 38.4539 36.2681 43.599 24.6892C47.5949 16.0906 50.6288 9.59352 57.9546 6.47079C68.3142 2.03088 81.8262 6.78156 87.5536 15.0546C89.2555 17.5113 90.1583 21.8033 91.9934 30.4019C93.512 36.8543 94.3013 43.4568 94.3466 50.0854C94.4696 54.7554 94.0173 59.4229 92.9998 63.9823Z" fill="#4A4C4B"/>
<path d="M81.6498 97.8437C82.671 106.635 83.5294 115.455 84.7577 124.217C85.5273 129.707 86.8297 135.094 91.1659 139.209C93.9926 141.888 97.4705 142.938 100.993 144.034C101.096 144.995 101.185 145.957 101.274 146.89C98.4029 147.689 34.1286 147.837 30.2363 147.053C30.3103 145.987 30.3695 144.907 30.4435 143.812C38.0801 142.006 42.8159 137.181 45.2431 129.811C47.0779 124.322 48.0854 118.591 48.2325 112.806C48.3213 108.366 48.7061 103.926 49.0317 99.4865C49.1917 98.7827 49.4614 98.1085 49.8309 97.4885C51.9141 99.7606 54.1651 101.873 56.5647 103.808C63.2688 108.499 70.861 107.981 77.0472 102.624C78.7639 101.233 80.1403 99.4569 81.6498 97.8437ZM68.3302 140.482C67.2966 139.822 66.1689 139.323 64.9856 139.002C63.7128 139.002 63.0469 139.949 63.1357 141.236C63.2244 142.524 63.9496 143.56 65.2076 143.16C66.1991 142.835 66.9243 141.74 68.3451 140.467L68.3302 140.482ZM65.2076 118.178C66.2287 116.861 67.2647 116.136 67.3239 115.337C67.341 115.027 67.2927 114.718 67.1819 114.428C67.0712 114.138 66.9007 113.875 66.6814 113.656C66.4621 113.437 66.1991 113.266 65.9094 113.155C65.6198 113.045 65.31 112.996 65.0004 113.013C64.72 112.987 64.4375 113.03 64.1776 113.138C63.9177 113.246 63.6885 113.417 63.5101 113.635C63.3317 113.853 63.2096 114.111 63.1547 114.387C63.0997 114.663 63.1135 114.949 63.1948 115.219C63.402 116.092 64.2604 116.787 65.2224 118.178H65.2076ZM68.3007 127.769C66.8207 127.058 65.9031 126.289 65.0596 126.289C64.216 126.289 63.4761 127.354 63.2837 128.109C62.9877 129.204 64.7636 130.788 65.5776 130.329C66.5897 129.589 67.509 128.729 68.3155 127.769H68.3007Z" fill="#3D546F"/>
<path d="M68.3449 140.467C66.8649 141.725 66.1989 142.82 65.2222 143.116C63.9642 143.515 63.2242 142.465 63.1502 141.192C63.0762 139.919 63.7274 138.898 65.0001 138.957C66.1852 139.288 67.313 139.797 68.3449 140.467Z" fill="#3081BC"/>
<path d="M68.3146 127.769C67.5163 128.749 66.6019 129.628 65.5915 130.388C64.7183 130.847 63.0016 129.263 63.2976 128.168C63.4899 127.413 64.4075 126.392 65.0735 126.348C65.7395 126.303 66.8199 127.058 68.3146 127.769Z" fill="#3081BC"/>
<path d="M108.597 138.557C104.841 142.613 100.02 145.531 94.6854 146.978C91.6071 147.748 90.6304 147.378 79.9599 147.378C67.2619 147.378 66.2112 147.881 62.1265 147.052C57.1697 145.879 52.4465 143.878 48.1558 141.133C33.2675 131.424 28.2504 112.865 25.9565 101.173C23.4311 88.7881 22.5307 76.1264 23.2778 63.5083C24.2694 47.5838 27.1997 32.1034 35.369 18.4284C41.422 8.30547 49.8281 1.79362 60.913 0.269257C64.6418 -0.206234 68.424 -0.0511438 72.1014 0.728044C77.2972 1.504 82.2759 3.34835 86.7233 6.14473C90.827 8.99451 94.3441 12.6071 97.083 16.7857C103.906 26.7459 105.385 36.7653 106.954 48.2498C107.836 55.0407 108.236 61.8853 108.153 68.7326C108.257 78.4856 108.286 85.9298 106.347 95.5792C106.229 96.2008 104.631 101.677 101.449 112.628C98.2669 123.58 97.5861 125.682 95.381 127.073C89.4612 130.758 79.5307 124.557 76.4524 122.515C78.9794 120.186 81.2471 117.591 83.2158 114.774C88.7064 106.886 90.7488 99.3383 93.9306 86.7734C95.26 82.0014 96.2979 77.1529 97.0386 72.2549C98.3341 64.0578 98.4089 55.714 97.2605 47.495C96.6643 43.4321 95.7437 39.4234 94.5078 35.5073C89.1652 20.7076 76.2452 11.2654 63.9024 11.9758C43.2571 13.1598 35.3838 42.2264 35.6798 49.4338V49.6558C35.9906 57.174 35.6798 60.6371 35.6798 64.4555C35.9863 69.2921 36.5843 74.1058 37.4705 78.8704C38.1513 83.4287 38.5509 85.693 38.9505 87.7502C39.9421 92.3677 41.348 95.52 44.1599 101.825C46.6018 107.33 47.8598 110.112 49.7837 112.184C52.3856 114.891 55.576 116.963 59.1074 118.238C79.9007 127.117 81.6619 130.995 99.9541 136.367C103.743 137.388 106.791 138.143 108.597 138.557Z" fill="#3081BC"/>
</svg>
