<svg width="130" height="154" viewBox="0 0 130 154" fill="none" xmlns="http://www.w3.org/2000/svg">
<path d="M129.007 141.16C129.007 137.683 129.007 133.949 128.792 129.298C128.594 122.264 128.577 118.707 128.296 117.098C127.35 112.108 125.319 107.372 122.339 103.208C121.307 101.881 120.125 100.672 118.815 99.6023C114.96 96.3833 110.724 94.8865 105.578 93.3252C99.2021 91.1748 92.648 89.5593 85.9883 88.4967C70.2698 86.2273 31.5362 84.1833 14.6595 96.8179C9.80951 100.353 5.93777 105.004 3.39188 110.354C2.70404 112.1 2.21037 113.913 1.91931 115.762C0.728019 121.926 1.45604 127.431 0.893485 141.192C0.694936 145.924 0.347461 149.964 0 153.472H130C129.378 149.395 129.047 145.281 129.007 141.16Z" fill="#3183BD"/>
<path d="M29.8632 90.1704C29.7808 89.2716 30.0052 88.3713 30.5017 87.609C30.9982 86.8467 31.7391 86.2649 32.6098 85.9535C35.0421 85.0843 35.5384 83.0886 35.1579 80.8835C34.8531 79.2494 34.4386 77.6364 33.9169 76.055C31.1373 67.2028 28.7216 58.3505 29.1021 48.9027C29.4866 37.9976 31.7229 27.2295 35.7204 17.0345C39.8734 6.50834 48.4276 1.59935 59.5463 0.327836C64.4791 -0.315893 69.4939 -0.00964424 74.3051 1.22916C83.8686 3.83655 90.2056 9.95268 93.8457 18.7889C99.8741 33.1951 101.22 49.0524 97.7008 64.2252C96.9537 67.876 95.9532 71.4735 94.7061 74.9928C92.6213 80.626 93.2169 85.5189 97.8828 89.6875C98.5431 90.0983 99.0755 90.6767 99.4225 91.3603C99.7695 92.0439 99.918 92.8067 99.8518 93.5664C97.0225 96.4474 94.16 99.2641 91.43 102.226C90.8211 102.966 90.4886 103.885 90.4869 104.833C90.4869 108.406 90.4869 111.995 90.6358 115.568C90.8454 124.925 91.066 134.271 91.2976 143.606C91.3964 144.511 91.1284 145.417 90.5505 146.133C89.9726 146.848 89.1306 147.316 88.2036 147.437L84.8944 148.193C75.7115 150.285 66.3797 149.996 57.0479 149.803C56.2673 149.705 55.4975 149.538 54.7481 149.304C54.4833 145.537 54.0531 141.868 53.987 138.182C53.8546 130.134 53.7884 122.2 53.987 114.216C54.1206 112.934 53.8661 111.641 53.2547 110.497C52.6432 109.354 51.7016 108.409 50.5454 107.778C42.7814 102.953 35.8091 97.0168 29.8632 90.1704ZM87.7734 30.168C80.1292 28.3654 72.9815 26.6754 65.8337 25.0337C64.8744 24.776 63.8678 24.732 62.8886 24.905C55.6084 26.5145 48.3614 28.3493 41.1144 30.0876C38.5601 40.0201 39.1776 50.474 42.8848 60.0566C44.7799 64.5465 47.7798 68.5149 51.6209 71.6128C53.5392 73.2599 55.7953 74.4918 58.2398 75.2271C60.6842 75.9624 63.2614 76.1843 65.8006 75.878C69.0566 75.5764 72.1971 74.5481 74.9779 72.8731C77.7586 71.1982 80.1047 68.9218 81.8335 66.221C89.6927 55.2119 89.3783 42.9797 87.7734 30.1037V30.168Z" fill="#3B526C"/>
</svg>
