<svg width="130" height="146" viewBox="0 0 130 146" fill="none" xmlns="http://www.w3.org/2000/svg">
<path d="M100.08 108.062C109.827 112.655 118.016 120.004 123.633 129.199C126.656 134.266 128.809 139.803 130.001 145.581C126.673 145.581 123.922 145.657 122.22 145.672C111.492 145.748 105.778 145.535 99.1679 145.672C99.1679 145.672 97.3595 145.672 94.9586 145.672C93.8037 145.672 91.5243 145.672 88.6522 145.672C87.4923 145.696 86.3326 145.615 85.1875 145.429C83.4704 144.304 85.6738 136.113 100.08 108.062Z" fill="#3484BE"/>
<path d="M0 145.504C1.0261 139.494 3.26481 133.755 6.57986 128.637C15.5151 114.96 29.3739 110.402 33.7808 109.186C37.8837 129.685 40.8166 144.729 40.7406 144.79L40.543 144.942C40.0568 145.231 39.0234 145.337 34.5862 145.428C26.669 145.595 23.0068 145.428 17.0955 145.428C13.099 145.428 12.4304 145.58 8.20585 145.58C4.71076 145.641 1.86911 145.565 0 145.504Z" fill="#3484BE"/>
<path d="M81.6628 95.9049C82.6657 104.703 83.5319 113.517 84.702 122.285C85.4618 127.786 86.7686 133.165 91.1147 137.283C93.926 139.958 97.4058 141.006 100.931 142.101C101.038 143.073 101.129 144.03 101.22 144.957C98.348 145.763 34.0688 145.9 30.209 145.125C30.209 144.061 30.3457 142.982 30.4065 141.888C38.0045 140.08 42.7913 135.262 45.177 127.877C47.0292 122.392 48.0535 116.661 48.2163 110.873C48.2163 106.451 48.6874 102.029 49.0065 97.6221C49.1725 96.9168 49.444 96.2405 49.8119 95.6162C51.8976 97.8811 54.1477 99.9889 56.5437 101.923C63.2452 106.633 70.8432 106.117 77.028 100.752C78.6583 99.2205 80.2054 97.6023 81.6628 95.9049ZM68.275 138.606C66.7554 137.876 65.8437 137.086 64.9471 137.086C63.6554 137.086 63.002 138.028 63.0932 139.32C63.1844 140.611 63.8986 141.63 65.175 141.234C66.2084 140.961 66.9226 139.867 68.275 138.606ZM65.2358 116.313C66.2692 114.991 67.2873 114.277 67.3481 113.471C67.3656 113.163 67.3179 112.854 67.2082 112.565C67.0984 112.276 66.9292 112.013 66.7113 111.794C66.4935 111.575 66.2319 111.404 65.9437 111.292C65.6555 111.181 65.347 111.131 65.0383 111.146C64.7567 111.117 64.4723 111.157 64.2102 111.264C63.9481 111.371 63.7164 111.541 63.5359 111.759C63.3554 111.978 63.2317 112.237 63.1756 112.514C63.1196 112.792 63.1331 113.079 63.2148 113.35C63.3971 114.216 64.2481 114.945 65.2358 116.313ZM68.275 125.902C66.7554 125.188 65.8589 124.382 65.0231 124.473C64.1873 124.564 63.5035 125.552 63.2452 126.297C62.9564 127.391 64.6736 128.971 65.5549 128.515C66.5635 127.757 67.4768 126.879 68.275 125.902Z" fill="#3182BC"/>
<path d="M68.2736 138.606C66.8604 139.867 66.1462 140.961 65.2344 141.265C63.9579 141.66 63.2285 140.611 63.1526 139.35C63.0766 138.089 63.7148 137.056 65.0065 137.116C65.903 137.147 66.754 137.876 68.2736 138.606Z" fill="#395673"/>
<path d="M65.2367 116.313C64.2642 114.945 63.4132 114.216 63.2157 113.274C63.134 113.003 63.1205 112.716 63.1765 112.438C63.2326 112.161 63.3563 111.901 63.5368 111.683C63.7173 111.465 63.949 111.295 64.2111 111.188C64.4732 111.081 64.7576 111.041 65.0392 111.07C65.3479 111.055 65.6564 111.104 65.9446 111.216C66.2328 111.328 66.4944 111.499 66.7122 111.718C66.9301 111.937 67.0994 112.2 67.2091 112.489C67.3188 112.778 67.3664 113.087 67.349 113.395C67.273 114.277 66.2549 114.991 65.2367 116.313Z" fill="#395673"/>
<path d="M68.2751 125.902C67.4769 126.879 66.5636 127.757 65.555 128.515C64.6736 128.971 62.9565 127.391 63.2452 126.297C63.4428 125.552 64.3545 124.534 65.0231 124.473C65.6917 124.412 66.7555 125.187 68.2751 125.902Z" fill="#395673"/>
<path d="M48.5191 93.0784C49.9557 94.5118 51.5515 95.7763 53.2755 96.847C57.2838 99.4611 61.985 100.811 66.7696 100.722C75.7504 100.312 81.4185 93.8686 82.5127 92.5769C82.8318 95.3578 83.1357 98.1386 83.4548 100.904C78.6869 105.209 72.5241 107.646 66.1016 107.766C59.679 107.886 53.4294 105.681 48.5039 101.558L48.5191 93.0784Z" fill="#3D546F"/>
<path d="M30.4686 141.949L27.4294 142.101C27.4294 140.733 27.3231 139.441 27.2927 138.15C27.0647 128.485 27.004 118.805 26.5937 109.156C26.3961 104.521 25.5451 99.9167 24.9829 95.2971H24.2079C24.0207 95.8873 23.8835 96.4922 23.7976 97.1054C23.3721 105.934 23.2657 110.113 23.2657 110.113C23.3965 111.158 23.2056 112.218 22.7186 113.152C22.2872 113.882 21.661 114.476 20.9103 114.869C17.9798 116.751 15.2052 118.865 12.6133 121.191C12.7197 118.957 12.9324 114.869 13.3427 109.779C15.1054 88.5805 18.3574 73.1718 26.0618 42.6432C27.3079 37.7197 28.8578 32.8722 30.3622 28.0247C30.9951 26.0147 31.7513 24.0456 32.6265 22.1287C39.1456 7.82928 50.497 0.763174 66.0578 0.0337688C67.6686 -0.0422109 69.2793 0.0337688 70.8901 0.0337688C75.4435 -0.0704438 79.9478 0.991875 83.9747 3.1197C88.0016 5.24753 91.4173 8.37012 93.8969 12.1905C99.0412 19.9558 102.719 28.5982 104.747 37.6893C106.98 47.4796 108.503 57.4182 109.306 67.4277C110.318 75.1743 110.649 82.9948 110.293 90.7991C109.694 98.8347 108.252 106.785 105.993 114.52C105.005 117.969 104.139 121.465 103.394 124.975C102.22 130.526 102.308 136.269 103.653 141.781L101.024 142.161C97.4984 141.067 94.0185 140.019 91.2072 137.344C86.8611 133.226 85.5543 127.847 84.7945 122.346C83.5636 113.578 82.6974 104.764 81.7553 95.9657C81.7553 92.6378 81.7553 89.2947 81.7553 85.9516C79.8192 88.2362 77.4226 90.0864 74.7223 91.3811C72.022 92.6757 69.0788 93.3858 66.0852 93.4647C63.0916 93.5435 60.1151 92.9895 57.3503 91.8389C54.5855 90.6882 52.0948 88.9669 50.0411 86.7874L49.8588 95.753C49.5014 96.3806 49.2353 97.0561 49.0686 97.7589C48.7495 102.166 48.3544 106.588 48.2784 111.01C48.1157 116.797 47.0913 122.528 45.2392 128.014C42.8534 135.323 38.1122 140.14 30.4686 141.949ZM55.9828 30.456C55.0558 30.8055 41.1819 36.2913 38.0971 46.7765C37.3319 49.7115 36.989 52.7406 37.0789 55.7725C37.2037 58.5996 37.715 61.3963 38.5985 64.0846C39.7516 67.8552 41.3969 71.4573 43.4916 74.7978C45.6291 78.6498 48.4993 82.0465 51.9406 84.7967C54.6759 86.8634 59.797 90.7687 66.6808 90.3584C73.0632 89.9785 77.4092 86.1036 80.2661 83.5658C83.2018 80.8388 85.6664 77.6451 87.5602 74.114C89.7121 70.647 91.3597 66.8914 92.4533 62.9602C94.8847 54.0857 92.9244 49.5269 92.4533 48.6C92.3049 48.2861 92.1374 47.9817 91.9518 47.6882C88.9126 42.704 83.1229 43.8588 74.0053 40.7133C68.5862 38.7371 63.4711 36.0108 58.8092 32.6139C57.6391 31.7477 56.6666 30.9879 55.9828 30.456Z" fill="#4A4C4B"/>
</svg>
