<svg width="130" height="134" viewBox="0 0 130 134" fill="none" xmlns="http://www.w3.org/2000/svg">
<path d="M129.74 133.556H0.094518C-0.386045 123.983 0.969101 114.407 4.08689 105.343C7.94619 94.2976 13.1096 88.349 17.1952 81.7749C23.1438 72.2065 29.5582 56.929 29.7712 32.7485C30.1954 29.1578 30.8668 25.6005 31.7807 22.1022C33.3941 16.8282 36.3955 12.0847 40.4707 8.36844C45.3813 3.95021 51.7558 1.36847 59.3413 0.383688C64.5541 -0.325336 69.8536 -0.0499769 74.9648 1.19547C81.5512 2.67172 87.495 6.21007 91.9324 11.2962C94.5256 14.5191 96.4853 18.2037 97.708 22.1554C98.578 24.7479 99.1757 27.4239 99.4913 30.1402C99.6111 31.1649 99.6643 31.9634 99.6909 32.336V32.5223C101.181 59.7636 109.539 76.9974 109.539 76.9974C112.245 82.5591 115.566 87.7997 119.44 92.6208C122.369 97.028 124.734 101.785 126.48 106.78C129.445 115.375 130.556 124.501 129.74 133.556ZM64.6778 35.6763C60.2315 35.7158 55.79 35.9778 51.3699 36.4614C50.1589 36.5679 41.6019 37.4196 40.2711 39.9215C40.1779 40.0946 40.0935 40.2722 40.0183 40.4538C39.7949 41.7723 39.7013 43.1095 39.7388 44.4462C39.6323 47.2408 39.5791 48.6515 39.965 49.623L40.0715 49.8492C41.2559 52.2579 48.4821 53.5089 51.3699 53.948C55.7555 54.8002 60.2103 55.2457 64.6778 55.2788C69.1413 55.2928 73.5965 54.8919 77.9857 54.0811C87.6872 52.7503 89.0446 50.8207 89.2975 49.9956V49.8891C89.2975 49.6363 89.2975 49.1572 89.2975 45.3777C89.2309 41.9842 89.2975 41.5051 89.2176 41.1724V41.0128C88.2728 38.3512 77.5466 37.1268 77.5466 37.1268C73.3033 36.2957 68.9996 35.8106 64.6778 35.6763Z" fill="#3B516C"/>
</svg>
