<svg width="130" height="154" viewBox="0 0 130 154" fill="none" xmlns="http://www.w3.org/2000/svg">
<path d="M14.0312 101.928C14.3953 100.974 14.7427 100.005 15.1067 99.0511C15.5479 97.5598 16.5191 96.2577 17.8571 95.3636C19.195 94.4696 20.818 94.0382 22.453 94.1421C23.5451 94.1421 24.6205 94.1421 25.7622 94.017C26.8436 94.0544 27.9058 93.7392 28.7704 93.1244C29.635 92.5095 30.2495 91.6323 30.5108 90.6401C31.1213 88.9487 32.1609 87.4243 33.5387 86.2001C34.3708 85.4558 34.9666 84.5069 35.2589 83.4601C35.5512 82.4132 35.5285 81.3101 35.1933 80.2748C34.8624 78.7115 34.2832 77.3513 33.9192 75.8661C32.3805 69.4093 30.4612 63.0151 29.4353 56.4801C27.9297 46.881 29.9979 37.4381 32.2812 28.1047C33.1596 24.6301 34.2648 21.2102 35.5904 17.8646C37.0568 13.6558 39.6801 9.8906 43.1919 6.95415C46.7038 4.0177 50.978 2.01537 55.5776 1.152C61.7672 -0.300284 68.2284 -0.38054 74.4563 0.917492C78.96 1.82827 83.1678 3.74386 86.7283 6.50435C90.2888 9.26484 93.0987 12.7901 94.9234 16.7858C98.7098 24.5679 100.953 32.9403 101.542 41.4873C102.354 52.594 100.876 63.744 97.1902 74.3184C96.6041 76.01 96.1234 77.7327 95.7507 79.4775C95.3856 80.9784 95.4213 82.5415 95.8546 84.0262C96.2878 85.5108 97.105 86.8703 98.2326 87.9823C99.1586 88.7216 99.8751 89.6673 100.317 90.7339C100.83 93.4542 102.799 93.7512 105.066 93.8606L106.274 93.9857C113.19 94.5798 114.166 95.3302 116.35 101.803C112.47 106.847 107.871 111.361 102.683 115.216C96.845 119.537 90.3159 122.951 83.3414 125.332C74.4986 128.892 64.6634 129.612 55.346 127.38C38.5851 123.174 24.1903 115.654 14.0312 101.928ZM89.4633 30.184C81.4221 28.3705 73.8441 26.6351 66.2993 24.9623C65.5211 24.7904 64.7114 24.7904 63.9333 24.9623C56.4877 26.6508 49.0421 28.4174 41.6461 30.1371C41.3483 31.0752 41.0339 31.7787 40.885 32.5135C39.3902 40.0407 39.5932 47.7813 41.4806 55.2294C43.1001 61.6207 46.7974 67.3722 52.0534 71.6762C53.8526 73.2211 55.9565 74.4154 58.2449 75.1907C60.5333 75.966 62.9612 76.3071 65.3893 76.1944C68.8405 76.1689 72.2332 75.35 75.2744 73.8083C78.3157 72.2666 80.914 70.0485 82.845 67.3457C87.2722 61.8076 89.8631 55.1541 90.2906 48.2255C90.8688 42.2037 90.5906 36.1359 89.4633 30.184Z" fill="#3B526C"/>
<path d="M129.04 142.357C128.958 136.885 128.891 130.694 128.329 120.579C127.849 112.387 124.11 105.93 116.35 101.818C112.469 106.862 107.87 111.376 102.683 115.232C96.8445 119.552 90.3155 122.967 83.341 125.347C74.4982 128.908 64.663 129.627 55.3456 127.395C38.5847 123.174 24.1899 115.654 13.9812 101.928C8.40526 104.554 5.427 109.15 3.40842 114.435C0.231637 122.736 1.6215 126.473 0.893485 142.357C0.694936 146.64 0.364007 150.299 0 153.472H130C129.383 149.795 129.062 146.079 129.04 142.357Z" fill="#3183BD"/>
</svg>
