<svg width="130" height="133" viewBox="0 0 130 133" fill="none" xmlns="http://www.w3.org/2000/svg">
<path d="M0.576432 132.708C-0.833576 122.998 0.354171 113.088 4.01879 103.986C10.0295 89.7054 17.3311 91.4804 23.6241 78.195C26.7438 71.633 28.1826 57.2316 31.0602 28.4421C31.3324 23.8594 32.633 19.3968 34.8656 15.3854C36.8612 12.013 39.5105 9.07329 42.6578 6.73878C45.8052 4.40426 49.3871 2.72199 53.1935 1.79071C62.7003 -0.696931 72.355 -0.979312 81.5123 3.44466C86.87 5.8812 91.4562 9.74173 94.7708 14.6054C97.8722 19.6456 99.5842 25.417 99.7326 31.3332C101.83 57.124 102.879 70.006 105.595 76.4201C111.983 91.4938 121.355 90.5257 127.11 106.514C129.978 114.882 130.726 123.831 129.288 132.56C86.4875 133.461 43.727 132.009 0.576432 132.708ZM40.5401 45.4657C41.1721 49.0291 41.5486 52.6462 42.5168 56.1155C44.197 62.7329 47.6352 68.7729 52.4674 73.5962C54.0868 75.252 56.0191 76.5694 58.1521 77.472C60.285 78.3746 62.5761 78.8443 64.8921 78.8539C67.8153 78.8709 70.7003 78.1906 73.3079 76.8693C75.9154 75.548 78.1703 73.6238 79.8852 71.2565C86.6086 62.7582 89.1231 52.9555 89.1635 42.3595C89.1635 39.3071 87.9129 38.0162 84.8202 37.6531C82.5342 37.3842 80.2214 37.2497 77.922 37.1422C72.234 36.8598 66.5326 36.416 60.8446 36.4429C56.461 36.4429 52.0908 37.1153 47.7072 37.4514C41.1318 38.0969 40.4863 38.7558 40.5401 45.4657Z" fill="#3A516C"/>
</svg>
