<svg width="69" height="85" viewBox="0 0 69 85" fill="none" xmlns="http://www.w3.org/2000/svg">
<path d="M7.34277 56.4523C7.53327 55.9241 7.71509 55.3872 7.90559 54.8591C8.13645 54.0331 8.64472 53.3119 9.3449 52.8168C10.0451 52.3216 10.8944 52.0827 11.7501 52.1402C12.3215 52.1402 12.8844 52.1402 13.4818 52.0709C14.0478 52.0917 14.6036 51.9171 15.0561 51.5766C15.5086 51.236 15.8301 50.7502 15.9669 50.2007C16.2864 49.2639 16.8304 48.4196 17.5514 47.7416C17.9869 47.3294 18.2987 46.8038 18.4516 46.224C18.6046 45.6443 18.5927 45.0333 18.4173 44.4599C18.2441 43.594 17.9411 42.8407 17.7506 42.0181C16.9453 38.4421 15.9409 34.9007 15.4041 31.2813C14.6161 25.9648 15.6985 20.735 16.8934 15.5657C17.3531 13.6413 17.9314 11.7472 18.6251 9.89422C19.3925 7.56321 20.7654 5.47787 22.6032 3.85153C24.441 2.22519 26.6778 1.11621 29.0849 0.638028C32.324 -0.166311 35.7053 -0.210761 38.9645 0.508149C41.3214 1.01258 43.5234 2.07352 45.3867 3.60241C47.2499 5.1313 48.7204 7.08375 49.6753 9.29677C51.6568 13.6068 52.8307 18.2439 53.1388 22.9776C53.5641 29.129 52.7907 35.3044 50.8616 41.1609C50.5549 42.0979 50.3033 43.052 50.1083 44.0183C49.9172 44.8496 49.9359 45.7153 50.1626 46.5376C50.3894 47.3598 50.817 48.1128 51.4071 48.7287C51.8917 49.1381 52.2667 49.6619 52.4981 50.2526C52.7665 51.7592 53.7969 51.9237 54.9831 51.9844L55.6152 52.0536C59.2346 52.3827 59.7455 52.7983 60.8884 56.383C58.8576 59.1767 56.4508 61.6767 53.7363 63.8122C50.6809 66.2049 47.2641 68.096 43.6142 69.4144C38.9866 71.3864 33.8396 71.7849 28.9636 70.5487C20.1923 68.2195 12.6592 64.0546 7.34277 56.4523ZM46.818 16.7173C42.6098 15.7129 38.6441 14.7518 34.6957 13.8253C34.2885 13.7301 33.8648 13.7301 33.4575 13.8253C29.5611 14.7604 25.6647 15.7389 21.7942 16.6913C21.6384 17.2109 21.4738 17.6005 21.3959 18.0075C20.6137 22.1764 20.7199 26.4635 21.7076 30.5886C22.5551 34.1284 24.49 37.3138 27.2406 39.6976C28.1821 40.5532 29.2832 41.2147 30.4807 41.6441C31.6783 42.0735 32.9488 42.2624 34.2195 42.2C36.0256 42.1859 37.8011 41.7323 39.3926 40.8784C40.9842 40.0246 42.3439 38.7961 43.3545 37.2991C45.6713 34.2319 47.0272 30.5469 47.2509 26.7095C47.5535 23.3744 47.4079 20.0138 46.818 16.7173Z" fill="#3B526C"/>
<path d="M67.5295 78.8437C67.4862 75.8132 67.4516 72.3843 67.1572 66.7821C66.9061 62.2449 64.9492 58.6689 60.8883 56.3916C58.8575 59.1853 56.4507 61.6853 53.7361 63.8208C50.6808 66.2135 47.264 68.1046 43.6141 69.423C38.9865 71.395 33.8395 71.7935 28.9635 70.5573C20.1922 68.2194 12.6591 64.0546 7.31665 56.4522C4.39865 57.9069 2.84006 60.4525 1.7837 63.3792C0.12122 67.977 0.848564 70.0464 0.467579 78.8437C0.363674 81.2162 0.190492 83.2424 0 85.0001H68.0317C67.7088 82.9636 67.5409 80.9056 67.5295 78.8437Z" fill="#3183BD"/>
</svg>
