<svg width="67" height="19" viewBox="0 0 67 19" fill="none" xmlns="http://www.w3.org/2000/svg">
<path d="M28.1106 14.559H27.9676L27.0836 13.87L27.1096 6.824H25.9786L25.1986 6.044V5.94H27.0706C26.8713 5.69733 26.685 5.48067 26.5116 5.29C26.347 5.09067 26.2646 4.83933 26.2646 4.536C26.2646 4.18933 26.3946 3.85567 26.6546 3.535C26.9233 3.20567 27.2916 2.937 27.7596 2.729C28.2276 2.51233 28.7736 2.404 29.3976 2.404C29.9696 2.404 30.5546 2.508 31.1526 2.716C31.7593 2.924 32.3443 3.22733 32.9076 3.626C33.4796 4.016 33.991 4.484 34.4416 5.03L34.3246 5.485H34.2336C33.5316 4.71367 32.8166 4.16767 32.0886 3.847C31.3693 3.51767 30.6673 3.353 29.9826 3.353C29.428 3.353 28.9513 3.43533 28.5526 3.6C28.1626 3.756 27.8636 3.964 27.6556 4.224C27.4476 4.47533 27.3436 4.75267 27.3436 5.056C27.3436 5.19467 27.3696 5.33333 27.4216 5.472C27.4736 5.602 27.5733 5.758 27.7206 5.94H28.4096L29.1896 6.72V6.824H28.0066L28.1106 14.559ZM35.3915 14.429H35.2485L34.8845 14.208C34.7459 13.766 34.4902 13.337 34.1175 12.921C33.7535 12.505 33.2812 12.1453 32.7005 11.842C32.1285 11.5387 31.4612 11.3393 30.6985 11.244L29.7495 10.035C30.1569 9.723 30.5642 9.42833 30.9715 9.151C31.3789 8.865 31.7689 8.60067 32.1415 8.358C31.8382 8.03733 31.5522 7.79467 31.2835 7.63C31.0235 7.46533 30.7549 7.34833 30.4775 7.279C30.2002 7.20967 29.8882 7.175 29.5415 7.175L28.4105 6.044V5.94H37.9655L38.7455 6.72V6.824H31.4005L31.3875 6.85C31.7515 7.15333 32.1069 7.48267 32.4535 7.838C32.8002 8.18467 33.1295 8.54867 33.4415 8.93C33.0775 9.15533 32.7222 9.385 32.3755 9.619C32.0289 9.853 31.6995 10.0913 31.3875 10.334L31.4005 10.373C31.8859 10.5377 32.3842 10.7803 32.8955 11.101C33.4155 11.4217 33.9182 11.868 34.4035 12.44L34.4425 12.414C34.3819 12.0933 34.3429 11.6037 34.3255 10.945C34.3169 10.2777 34.3125 9.46733 34.3125 8.514V7.578C34.4772 7.54333 34.6505 7.52167 34.8325 7.513C35.0145 7.50433 35.1619 7.5 35.2745 7.5C36.2365 7.5 36.9472 7.71667 37.4065 8.15C37.8659 8.57467 38.0955 9.10767 38.0955 9.749C38.0955 10.2777 37.9655 10.6763 37.7055 10.945C37.4455 11.205 37.1465 11.335 36.8085 11.335C36.5052 11.335 36.2712 11.244 36.1065 11.062C35.9505 10.88 35.8725 10.6807 35.8725 10.464C35.8725 10.2647 35.9419 10.087 36.0805 9.931C36.2192 9.76633 36.4185 9.684 36.6785 9.684C36.9385 9.684 37.1639 9.801 37.3545 10.035C37.5279 9.93967 37.6145 9.788 37.6145 9.58C37.6145 9.32 37.5062 9.12067 37.2895 8.982C37.0729 8.83467 36.8042 8.735 36.4835 8.683C36.1629 8.62233 35.8509 8.592 35.5475 8.592C35.5389 8.592 35.5129 8.592 35.4695 8.592C35.4262 8.592 35.3829 8.59633 35.3395 8.605V11.296C35.3395 11.79 35.3395 12.271 35.3395 12.739C35.3482 13.207 35.3655 13.7703 35.3915 14.429ZM46.3421 13.714C46.1601 13.714 45.9651 13.6447 45.7571 13.506C45.5491 13.3673 45.3541 13.1897 45.1721 12.973C44.9988 12.7477 44.8515 12.5093 44.7301 12.258C44.6175 12.0067 44.5611 11.7683 44.5611 11.543V10.178C44.5611 9.788 44.5091 9.48033 44.4051 9.255C44.3098 9.02967 44.1928 8.86933 44.0541 8.774C43.9155 8.67 43.7855 8.618 43.6641 8.618C43.4908 8.618 43.3435 8.71333 43.2221 8.904C43.1008 9.086 43.0185 9.36767 42.9751 9.749L42.8971 9.775L42.5981 9.645C42.4421 9.31567 42.2515 9.06433 42.0261 8.891C41.8008 8.709 41.5365 8.618 41.2331 8.618C40.8865 8.618 40.5875 8.73067 40.3361 8.956C40.0848 9.17267 39.9591 9.45867 39.9591 9.814C39.9591 10.0913 40.0458 10.3557 40.2191 10.607C40.4011 10.8497 40.6741 10.971 41.0381 10.971L41.0511 10.932C40.8778 10.7673 40.7911 10.5767 40.7911 10.36C40.7911 10.178 40.8561 10.0133 40.9861 9.866C41.1248 9.71867 41.3155 9.645 41.5581 9.645C41.8095 9.645 42.0175 9.723 42.1821 9.879C42.3555 10.035 42.4421 10.2517 42.4421 10.529C42.4421 10.8323 42.3251 11.0923 42.0911 11.309C41.8571 11.517 41.5321 11.621 41.1161 11.621C40.7088 11.621 40.3448 11.517 40.0241 11.309C39.7121 11.0923 39.4651 10.815 39.2831 10.477C39.1011 10.139 39.0101 9.788 39.0101 9.424C39.0101 9.07733 39.0881 8.76533 39.2441 8.488C39.4001 8.21067 39.6038 7.994 39.8551 7.838C40.1151 7.67333 40.4055 7.591 40.7261 7.591C41.0728 7.591 41.3805 7.682 41.6491 7.864C41.9265 8.046 42.1561 8.254 42.3381 8.488C42.4161 8.228 42.5418 8.02433 42.7151 7.877C42.8885 7.72967 43.0921 7.656 43.3261 7.656C43.8028 7.656 44.2361 8.04167 44.6261 8.813L44.6521 8.8C44.6175 8.592 44.5958 8.31033 44.5871 7.955C44.5785 7.591 44.5741 7.214 44.5741 6.824H38.7501L37.9701 6.044V5.94H48.2271C48.3485 5.784 48.4091 5.63233 48.4091 5.485C48.4091 5.31167 48.3095 5.16433 48.1101 5.043C47.9195 4.913 47.6248 4.848 47.2261 4.848C46.9748 4.848 46.6671 4.86967 46.3031 4.913C45.9391 4.95633 45.6098 4.978 45.3151 4.978C44.5525 4.978 43.9761 4.81333 43.5861 4.484C43.2048 4.146 43.0141 3.76033 43.0141 3.327C43.0141 3.171 43.0401 3.00633 43.0921 2.833C43.1528 2.65967 43.2481 2.49933 43.3781 2.352H43.4821L43.7941 2.612C43.7161 2.72467 43.6598 2.833 43.6251 2.937C43.5991 3.03233 43.5861 3.12333 43.5861 3.21C43.5861 3.46133 43.6901 3.64333 43.8981 3.756C44.1148 3.86 44.4355 3.912 44.8601 3.912C45.1635 3.912 45.4755 3.89467 45.7961 3.86C46.1255 3.81667 46.4115 3.795 46.6541 3.795C47.1915 3.795 47.6291 3.89467 47.9671 4.094C48.3138 4.28467 48.5695 4.54467 48.7341 4.874C48.9075 5.19467 49.0071 5.55 49.0331 5.94H49.3581L50.1381 6.72V6.824H45.5751V11.881C45.5751 12.375 45.7051 12.622 45.9651 12.622C46.1125 12.622 46.2988 12.557 46.5241 12.427C46.7581 12.297 46.9921 12.1193 47.2261 11.894C47.4688 11.6687 47.6768 11.4087 47.8501 11.114C48.0321 10.8107 48.1491 10.49 48.2011 10.152C48.1318 10.1693 48.0625 10.1867 47.9931 10.204C47.9325 10.2127 47.8675 10.217 47.7981 10.217C47.4861 10.217 47.2435 10.113 47.0701 9.905C46.8968 9.68833 46.8101 9.45 46.8101 9.19C46.8101 8.92133 46.9055 8.67433 47.0961 8.449C47.2868 8.22367 47.5685 8.111 47.9411 8.111C48.3485 8.111 48.6995 8.26267 48.9941 8.566C49.2888 8.86933 49.4361 9.28967 49.4361 9.827C49.4361 10.2257 49.3581 10.6157 49.2021 10.997C49.0548 11.3697 48.8598 11.7207 48.6171 12.05C48.3745 12.3793 48.1101 12.6697 47.8241 12.921C47.5468 13.1637 47.2738 13.3587 47.0051 13.506C46.7451 13.6447 46.5241 13.714 46.3421 13.714ZM52.2958 14.559H52.1528L51.2558 13.87V9.385C51.2558 8.92567 51.2211 8.50533 51.1518 8.124C51.0825 7.734 50.9438 7.422 50.7358 7.188C50.5365 6.94533 50.2375 6.824 49.8388 6.824L49.2278 6.044V5.94H49.3578C49.6871 5.94 49.9731 5.97467 50.2158 6.044C50.4585 6.11333 50.6708 6.25633 50.8528 6.473C51.0435 6.68967 51.2168 7.01467 51.3728 7.448L51.4118 7.435C51.3771 7.20967 51.3555 7.01033 51.3468 6.837C51.3381 6.655 51.3338 6.434 51.3338 6.174V4.445H51.4248L51.9838 4.848L51.9968 5.186C52.0228 5.472 52.0661 5.67133 52.1268 5.784C52.1961 5.888 52.3348 5.94 52.5428 5.94L53.3228 6.72V6.824H52.7768C52.6035 6.824 52.4648 6.78933 52.3608 6.72C52.2655 6.65067 52.1831 6.57267 52.1138 6.486L52.0618 6.512L52.2958 14.559ZM59.2523 14.429H59.1093L58.7453 14.208C58.5893 13.7747 58.3163 13.337 57.9263 12.895C57.5363 12.4443 57.0423 12.05 56.4443 11.712C55.855 11.374 55.1703 11.153 54.3903 11.049L53.3633 9.762C54.23 9.23333 55.0663 8.761 55.8723 8.345C56.687 7.92033 57.4453 7.56067 58.1473 7.266V6.824H53.3243L52.5443 6.044V5.94H59.4993L60.2793 6.72V6.824H59.1743V11.296C59.1743 11.79 59.1787 12.271 59.1873 12.739C59.196 13.207 59.2177 13.7703 59.2523 14.429ZM58.1473 8.514C57.6273 8.73933 57.1073 8.982 56.5873 9.242C56.0673 9.49333 55.5647 9.775 55.0793 10.087L55.0923 10.126C55.6037 10.3167 56.1237 10.5853 56.6523 10.932C57.181 11.27 57.7097 11.7683 58.2383 12.427L58.2773 12.401C58.2167 12.0803 58.1777 11.5907 58.1603 10.932C58.1517 10.2733 58.1473 9.46733 58.1473 8.514ZM55.7943 14.052C55.569 14.052 55.3783 13.974 55.2223 13.818C55.0663 13.6533 54.9883 13.4627 54.9883 13.246C54.9883 13.0207 55.0663 12.8343 55.2223 12.687C55.3783 12.531 55.569 12.453 55.7943 12.453C56.0197 12.453 56.206 12.531 56.3533 12.687C56.5093 12.8343 56.5873 13.0207 56.5873 13.246C56.5873 13.4627 56.5093 13.6533 56.3533 13.818C56.206 13.974 56.0197 14.052 55.7943 14.052Z" fill="url(#paint0_linear_2743_1481)"/>
<path d="M10.0076 0.00104789C12.6136 0.00104789 15.2189 0.00104789 17.8236 0.00104789C18.7487 0.00104789 19.4345 0.405134 19.8071 1.25427C20.1796 2.10341 19.9995 2.88924 19.3809 3.57389C17.2017 5.98433 15.0226 8.39354 12.8434 10.8015C12.7555 10.8897 12.6867 10.9952 12.6413 11.1114C12.5958 11.2276 12.5748 11.352 12.5794 11.4768C12.5942 12.7102 12.5794 13.9436 12.5899 15.1769C12.5959 15.3201 12.5669 15.4626 12.5055 15.5919C12.4441 15.7212 12.3522 15.8334 12.2378 15.9187C11.0507 16.8704 9.86493 17.8241 8.68038 18.7796C8.41826 18.9912 8.13641 19.0756 7.82433 18.9198C7.51226 18.764 7.4031 18.5009 7.40433 18.157C7.40988 15.9069 7.40433 13.6574 7.41358 11.4079C7.41507 11.3019 7.39517 11.1967 7.3551 11.0987C7.31503 11.0006 7.25562 10.9118 7.18045 10.8375C4.98649 8.41216 2.79335 5.98495 0.60103 3.55589C0.0404098 2.93517 -0.146463 2.22073 0.118737 1.42621C0.380236 0.641626 0.948257 0.177952 1.75681 0.0240141C1.89399 0.00380995 2.03272 -0.0036701 2.17126 0.00166826C4.78461 0.000426834 7.39672 0.000220269 10.0076 0.00104789Z" fill="url(#paint1_linear_2743_1481)"/>
<defs>
<linearGradient id="paint0_linear_2743_1481" x1="19" y1="9" x2="67" y2="9" gradientUnits="userSpaceOnUse">
<stop stop-color="#016CA7"/>
<stop offset="1" stop-color="#E25A6F"/>
</linearGradient>
<linearGradient id="paint1_linear_2743_1481" x1="0" y1="9.5" x2="20" y2="9.5" gradientUnits="userSpaceOnUse">
<stop stop-color="#016CA7"/>
<stop offset="1" stop-color="#E25A6F"/>
</linearGradient>
</defs>
</svg>
