<svg width="202" height="163" viewBox="0 0 202 163" fill="none" xmlns="http://www.w3.org/2000/svg">
<path d="M74.5986 52.0007C72.0267 52.7061 69.6031 53.9715 67.4661 55.5591C65.3308 57.1459 63.9033 59.1267 62.4522 61.3178L62.4517 61.319C61.9991 61.8624 61.6197 62.5217 61.3082 63.2054C60.3115 64.9923 59.5204 66.8388 58.8147 68.8131C57.8156 71.6063 57.4311 74.3893 57.335 77.3467C57.2482 80.0275 57.6481 82.6716 57.9067 85.3336C57.9263 87.4589 58.0428 89.5873 58.277 91.7131C58.3192 92.0897 58.49 92.3523 58.7221 92.5125C58.7254 92.5392 58.7296 92.5656 58.7334 92.5912C57.4476 91.3144 56.0761 90.1465 54.544 89.086C51.958 87.2974 49.2654 86.322 46.2688 85.4555C43.3659 84.6156 40.4925 83.8236 37.4602 83.6436C34.3099 83.4583 31.1819 83.5695 28.049 83.9182C26.5179 84.0882 24.9798 84.1232 23.4475 84.2735C21.888 84.4263 20.381 84.8356 18.8883 85.3023C15.8021 86.2683 12.8451 87.4582 10.0783 89.1481C7.62561 90.6463 5.51356 92.9137 3.63495 95.0719C1.77149 97.2136 0.834658 99.9734 0.592247 102.781C0.337053 105.733 1.26606 108.827 2.03627 111.651C2.85404 114.651 4.77922 117.306 6.95598 119.494C8.01356 120.556 9.19023 121.478 10.3188 122.46C11.458 123.451 12.5274 124.529 13.7526 125.419C16.294 127.264 19.0841 128.781 21.8992 130.157C24.6962 131.522 27.4204 133.044 30.1745 134.494C31.5603 135.224 32.9296 136.012 34.3676 136.638C35.6867 137.213 37.0837 137.576 38.4245 138.096C39.8817 138.659 41.2342 139.451 42.6103 140.184C44.0109 140.93 45.4496 141.557 46.9348 142.118C48.3336 142.647 49.7476 143.144 51.0768 143.836C52.4009 144.525 53.6574 145.344 55.0292 145.939C56.399 146.534 57.8465 146.914 59.2611 147.38C60.6758 147.847 62.0363 148.451 63.4046 149.035C64.8591 149.657 66.3145 150.269 67.827 150.738C69.3391 151.206 70.8676 151.611 72.339 152.201C75.2188 153.356 78.0667 154.572 80.9663 155.684C82.0828 156.111 83.2296 156.421 84.3806 156.709C84.7108 157.299 85.4695 157.475 86.046 157.121C87.202 157.409 88.3512 157.72 89.4685 158.149C89.6055 158.202 89.7411 158.258 89.878 158.312C90.0934 158.827 90.5552 159.196 91.2066 159.194C91.4275 159.193 91.6255 159.148 91.8026 159.069C92.41 159.308 93.0189 159.542 93.642 159.742C95.0879 160.206 95.985 158.011 94.5297 157.544C93.9636 157.363 93.4064 157.165 92.8529 156.961C93.0607 155.103 93.113 153.209 93.2578 151.35C93.3669 149.943 93.4856 148.537 93.6018 147.13C93.9275 145.093 94.2478 143.055 94.5394 141.01C94.9209 138.337 95.4468 135.671 95.7668 132.99C96.0665 130.483 96.2365 127.946 96.431 125.427C96.4546 125.435 96.4765 125.444 96.5001 125.452C96.8336 125.562 97.1329 125.535 97.3822 125.425C97.1745 130.495 96.8834 135.558 96.5311 140.624C96.4258 142.142 98.7761 142.449 98.8821 140.925C99.3904 133.614 99.7603 126.311 99.9594 118.986C100.056 115.419 100.249 111.843 100.24 108.274C100.229 104.681 100.046 101.077 99.9713 97.4833C99.9489 96.3686 98.69 96.2479 98.0252 96.8511C97.9891 95.5501 97.9848 94.2526 98.1241 92.9757C98.2632 91.7079 98.5198 90.4537 98.5623 89.1766C98.6117 87.7305 98.5132 86.2778 98.457 84.8343C98.2439 79.4156 98.2635 73.8055 96.9624 68.5145C95.677 63.2894 92.891 58.2393 88.5515 54.9327C84.7439 52.0303 79.231 50.7295 74.5986 52.0007ZM81.9153 153.448C82.1273 153.243 82.2662 152.966 82.3074 152.677C82.836 152.921 83.353 153.184 83.8568 153.467C83.8808 153.688 83.9087 153.907 83.9348 154.128C83.2557 153.915 82.5831 153.689 81.9153 153.448ZM83.1939 60.3724C83.2607 60.6128 83.3196 60.8535 83.3734 61.0963C83.3687 61.1114 83.3641 61.1265 83.3594 61.1415C83.2826 60.9346 83.1997 60.7323 83.1173 60.5287C83.1438 60.4772 83.1674 60.4239 83.1939 60.3724ZM69.0492 74.9179C69.1351 74.7124 69.2107 74.5041 69.2896 74.2965C69.1985 75.0538 69.1143 75.8132 69.0268 76.5719C69.0258 76.368 69.0227 76.164 69.0237 75.9603C69.0254 75.6204 69.032 75.2804 69.0345 74.9402C69.0383 74.9326 69.0449 74.9267 69.0492 74.9179ZM73.1245 59.0636C73.2045 59.1122 73.2794 59.182 73.3501 59.2677C73.1883 59.7923 73.0699 60.3267 72.993 60.8495C72.9257 60.6174 72.851 60.3894 72.7655 60.1691C72.8637 59.7983 72.9847 59.4289 73.1245 59.0636ZM72.297 73.0902C72.4776 72.61 72.6335 72.1191 72.7723 71.6234C72.6222 72.8867 72.4743 74.1502 72.3218 75.4126C72.3131 74.6383 72.2995 73.8641 72.297 73.0902ZM26.6507 93.8102C27.1427 94.1015 27.6379 94.3885 28.1319 94.6749C28.113 94.9718 28.077 95.2639 28.0723 95.5658C28.0691 95.8449 28.0672 96.1275 28.0643 96.4075C27.8224 96.2928 27.5792 96.1797 27.3364 96.0654C27.2611 95.8075 27.1951 95.5477 27.1157 95.2895C26.9659 94.8016 26.8108 94.3059 26.6507 93.8102ZM75.592 72.1704C75.5986 72.1575 75.602 72.1441 75.6089 72.132C75.531 72.771 75.4551 73.4101 75.378 74.0487C75.3969 73.5053 75.4166 72.9615 75.4334 72.4179C75.4933 72.3432 75.5482 72.2615 75.592 72.1704ZM57.349 135.641C57.3187 135.622 57.2875 135.603 57.2563 135.584C57.3308 135.48 57.3829 135.363 57.4086 135.236C57.6116 135.29 57.8154 135.343 58.0179 135.398C58.2462 135.671 58.4702 135.947 58.6999 136.218C58.2529 136.018 57.8004 135.832 57.349 135.641ZM48.6284 129.596C48.6526 129.554 48.6713 129.507 48.6903 129.462C49.9777 129.906 51.2035 130.458 52.4144 131.044C52.5376 131.24 52.6565 131.437 52.7788 131.632C51.908 131.43 51.0352 131.235 50.1609 131.051C50.0093 131.019 49.8685 131.019 49.7383 131.044C49.3699 130.56 48.9993 130.079 48.6284 129.596ZM30.6526 105.155C30.5979 104.179 30.5714 103.204 30.547 102.229C30.594 102.262 30.6418 102.294 30.6888 102.326C30.867 103.837 30.9767 105.356 30.9876 106.875C30.9047 106.832 30.8241 106.787 30.7422 106.743C30.7108 106.214 30.6819 105.684 30.6526 105.155ZM63.4099 138.422C63.4104 138.319 63.3962 138.215 63.3604 138.109C63.5448 138.235 63.736 138.358 63.9224 138.484C63.7487 138.467 63.6044 138.451 63.5266 138.441C63.4879 138.435 63.4485 138.428 63.4099 138.422ZM69.8886 126.048C69.9016 126.133 69.9158 126.219 69.9284 126.303C69.4699 126.093 69.0132 125.88 68.5552 125.669C67.8983 125.113 67.2441 124.553 66.5934 123.99C67.5999 124.619 68.6114 125.24 69.6143 125.874C69.7065 125.932 69.7967 125.991 69.8886 126.048ZM55.0082 111.85C55.892 112.91 56.7612 113.983 57.6123 115.068C57.2766 114.938 56.9415 114.808 56.6053 114.68C56.0198 114.164 55.4223 113.659 54.8057 113.169C54.7432 113.119 54.6775 113.074 54.6154 113.025C54.2361 112.323 53.8585 111.621 53.4739 110.924C53.9847 111.233 54.4929 111.546 55.0082 111.85ZM68.842 119.276C68.0778 119.009 67.315 118.739 66.5528 118.468C66.2077 118.136 65.8564 117.812 65.4962 117.496C65.4037 117.416 65.308 117.34 65.2154 117.259C66.4011 117.824 67.5926 118.374 68.7947 118.901C68.8115 119.026 68.8244 119.151 68.842 119.276ZM49.3767 112.28C49.1993 112.156 49.0215 112.031 48.8464 111.903C48.5878 111.65 48.3288 111.397 48.0697 111.145C48.1495 111.203 48.2302 111.26 48.31 111.318C48.6626 111.643 49.0192 111.962 49.3767 112.28ZM48.3144 114.694C47.3854 114.296 46.4579 113.891 45.5322 113.484C45.4884 113.068 45.4374 112.654 45.3831 112.239C46.0329 112.75 46.6857 113.259 47.3514 113.749C47.6725 114.064 47.9937 114.38 48.3144 114.694ZM79.6084 119.137C79.6595 119.689 79.7019 120.242 79.7431 120.794C79.1535 120.477 78.5598 120.164 77.9697 119.848C77.9455 119.383 77.9208 118.92 77.8929 118.455C78.4633 118.687 79.0347 118.917 79.6084 119.137ZM73.6669 116.585C73.6694 116.878 73.6699 117.171 73.6728 117.464C73.6081 117.416 73.5435 117.368 73.4779 117.32C73.4486 117.031 73.4173 116.741 73.3876 116.451C73.4803 116.496 73.5734 116.54 73.6669 116.585ZM40.1808 108.536C40.3534 109.398 40.5049 110.264 40.6451 111.133C40.4578 111.054 40.2667 110.983 40.0774 110.91C40.0495 110.064 40.0063 109.218 39.9401 108.374C40.0202 108.428 40.1007 108.482 40.1808 108.536ZM58.1901 125.411C58.2018 125.436 58.2131 125.461 58.2248 125.486C58.132 125.416 58.0392 125.347 57.9464 125.278C58.0275 125.322 58.109 125.367 58.1901 125.411ZM69.8749 132.27C69.5015 131.9 69.1207 131.536 68.742 131.171C68.9985 131.305 69.2549 131.44 69.5049 131.586C69.8871 131.808 70.2588 132.043 70.6287 132.284C70.6464 132.466 70.6637 132.648 70.6806 132.831C70.4903 132.719 70.2979 132.61 70.1085 132.498C70.0307 132.421 69.9519 132.347 69.8749 132.27ZM78.0678 122.566C78.1409 122.605 78.2149 122.644 78.2883 122.685C78.2151 122.661 78.1423 122.637 78.0687 122.613C78.0684 122.598 78.0677 122.582 78.0678 122.566ZM41.2811 118.033C41.1333 118.02 40.9985 118.032 40.8745 118.057C40.6771 117.32 40.481 116.583 40.284 115.846C40.6181 116.074 40.9489 116.308 41.2807 116.539C41.3179 117.042 41.3577 117.543 41.3891 118.046C41.3523 118.042 41.3174 118.036 41.2811 118.033ZM52.5669 121.079C52.5483 121.125 52.5341 121.173 52.5212 121.22C52.1258 120.924 51.728 120.632 51.3357 120.334C51.7435 120.59 52.1543 120.84 52.5669 121.079ZM78.2853 128.595C78.2328 127.437 78.1833 126.28 78.1424 125.122C78.1726 125.131 78.2005 125.142 78.2303 125.151C78.7267 125.291 79.2206 125.433 79.7126 125.577C79.5904 126.814 79.4789 128.052 79.3798 129.29C79.0153 129.058 78.6498 128.827 78.2853 128.595ZM49.9389 123.068C49.9133 123.064 49.8867 123.058 49.8619 123.057C49.8512 123.041 49.8401 123.027 49.8286 123.012C49.8653 123.029 49.9018 123.049 49.9389 123.068ZM55.8135 127.693C56.4773 127.905 57.1438 128.107 57.8149 128.297C58.2671 128.667 58.7137 129.041 59.1496 129.421C60.1644 130.303 61.2184 131.129 62.2818 131.944C61.2959 131.404 60.3124 130.86 59.3743 130.239C58.1663 129.44 56.9803 128.58 55.8135 127.693ZM75.9114 135.57C75.9121 135.557 75.9133 135.546 75.9144 135.534C75.9466 135.551 75.9791 135.568 76.0117 135.585C76.0119 135.595 76.0124 135.606 76.0126 135.616C75.9791 135.601 75.9449 135.584 75.9114 135.57ZM73.6709 111.187C73.4604 111.028 73.2489 110.871 73.0387 110.713C73.1367 110.633 73.2195 110.536 73.2911 110.432C73.4207 110.498 73.5511 110.563 73.681 110.63C73.6782 110.815 73.6725 111.001 73.6709 111.187ZM32.9039 116.228C32.891 116.221 32.8793 116.215 32.8668 116.209C32.871 116.169 32.8722 116.129 32.8755 116.09C32.8851 116.136 32.8943 116.181 32.9039 116.228ZM32.3622 119.688C32.3777 119.599 32.3944 119.511 32.4099 119.421C32.8342 119.667 33.2548 119.918 33.6663 120.183C33.6209 120.453 33.5787 120.724 33.5258 120.993C33.1654 120.741 32.8023 120.493 32.4425 120.238C32.4158 120.054 32.3885 119.871 32.3622 119.688ZM39.3216 124.197C39.4836 124.316 39.6438 124.437 39.8058 124.555C39.6459 124.489 39.4861 124.423 39.3262 124.357C39.3246 124.304 39.3229 124.25 39.3216 124.197ZM78.7441 134.341C78.685 134.311 78.6246 134.28 78.5655 134.25C78.5437 133.833 78.5227 133.416 78.5018 132.999C78.7012 133.083 78.9019 133.167 79.1022 133.25C79.0775 133.666 79.0603 134.083 79.0386 134.499C78.9396 134.448 78.8431 134.391 78.7441 134.341ZM77.7583 109.621C77.768 109.198 77.7782 108.774 77.7888 108.351C77.8132 108.359 77.8384 108.368 77.8623 108.377C77.8367 108.795 77.8123 109.214 77.7861 109.634C77.7773 109.63 77.768 109.625 77.7583 109.621ZM36.1292 99.1702C36.2246 99.5514 36.315 99.9327 36.4007 100.317C36.3062 100.275 36.2126 100.232 36.1184 100.19C36.0069 99.7686 35.8948 99.3482 35.7832 98.9266C35.8982 99.0076 36.0143 99.0891 36.1292 99.1702ZM29.5051 117.707C29.5665 117.747 29.6311 117.783 29.6934 117.823C29.7161 117.979 29.7379 118.134 29.7606 118.29C29.6154 118.182 29.4683 118.078 29.3231 117.97C29.3381 117.849 29.3514 117.729 29.3655 117.608C29.4125 117.64 29.4576 117.676 29.5051 117.707ZM45.5061 121.552C45.5164 121.467 45.5296 121.382 45.539 121.297C45.5679 121.306 45.5965 121.314 45.6254 121.323C45.8043 121.557 45.9853 121.789 46.1628 122.025C46.0983 122.001 46.0343 121.976 45.9698 121.952C45.8141 121.819 45.661 121.684 45.5061 121.552ZM73.7617 107.494C73.7573 107.598 73.753 107.701 73.7495 107.804C73.6283 107.756 73.5065 107.706 73.3849 107.659C73.52 107.629 73.6479 107.575 73.7617 107.494ZM24.2295 118.942C24.8249 119.273 25.4188 119.608 26.0146 119.939C26.0253 119.993 26.039 120.047 26.0506 120.1C25.4292 119.774 24.818 119.43 24.2128 119.076C24.2189 119.031 24.2234 118.987 24.2295 118.942ZM78.6315 139.144C78.7006 139.167 78.7694 139.189 78.8385 139.212C78.8318 139.447 78.8221 139.683 78.8153 139.918C78.7497 139.892 78.6846 139.864 78.6199 139.837C78.6243 139.606 78.6279 139.375 78.6315 139.144ZM45.9275 126.138C45.5804 125.7 45.2368 125.258 44.8875 124.822C44.9375 124.638 44.9863 124.455 45.0318 124.27C46.0294 125.115 47.0373 125.948 48.0551 126.769C47.3498 126.549 46.6402 126.34 45.9275 126.138ZM84.7247 100.882C84.7012 101.581 84.6854 102.281 84.6696 102.981C84.4951 101.984 84.2567 101.006 83.9398 100.062C84.2344 96.7569 84.4632 93.4482 84.5817 90.1311C84.5908 90.2781 84.5957 90.425 84.6045 90.5712C84.8041 93.9999 84.8396 97.45 84.7247 100.882ZM82.5363 75.9634C82.5132 76.4281 82.5053 76.8954 82.4863 77.3604C82.4141 78.0271 82.3353 78.6926 82.2684 79.3601C82.0102 81.9284 82.0734 84.5143 81.9609 87.0942C81.9454 85.9031 81.9482 84.7103 82.0235 83.5079C82.2019 80.6826 82.0279 77.869 81.985 75.044C82.0228 75.0501 82.0612 75.048 82.1001 75.0495C82.2463 75.3538 82.3952 75.6569 82.5363 75.9634ZM79.2424 84.3936C79.2395 84.5006 79.2345 84.6073 79.2316 84.7143C79.1435 88.1433 78.6219 91.528 78.5085 94.9567C78.4598 94.6784 78.4191 94.3978 78.3672 94.1189C78.3167 93.8435 78.1737 93.6254 77.9872 93.461C78.344 90.5509 78.7268 87.6479 79.1455 84.7438C79.1719 84.5665 79.2085 84.3919 79.2369 84.2148C79.239 84.2743 79.2394 84.3345 79.2424 84.3936ZM18.1746 111.009C18.1948 111.059 18.2166 111.108 18.2372 111.159C18.2149 111.33 18.1856 111.5 18.1613 111.67C18.0974 111.631 18.0339 111.591 17.9708 111.551C17.941 111.315 17.9242 111.079 17.8995 110.842C17.9915 110.898 18.0826 110.954 18.1746 111.009ZM34.5275 126.261C34.8451 126.533 35.1597 126.807 35.4748 127.079C35.1319 126.881 34.7867 126.684 34.4419 126.488C34.4711 126.413 34.5003 126.337 34.5275 126.261ZM78.611 142.86C78.9123 142.961 79.2152 143.058 79.5196 143.149C79.5237 143.37 79.5286 143.59 79.5336 143.81C79.2306 143.637 78.9284 143.463 78.6277 143.286C78.622 143.145 78.615 143.003 78.611 142.86ZM86.4926 138.591C86.3061 138.486 86.1188 138.382 85.9323 138.277C85.9398 137.889 85.947 137.501 85.9554 137.113C86.1762 137.147 86.4009 137.105 86.6025 136.973C86.5627 137.512 86.5262 138.052 86.4926 138.591ZM71.9337 102.697C71.8583 102.349 71.7816 102 71.7016 101.653C71.791 100.896 71.8858 100.14 71.9873 99.3837C71.9721 100.488 71.9596 101.595 71.9337 102.697ZM65.7402 100.974C65.6321 100.923 65.5221 100.877 65.414 100.827C65.5185 100.822 65.6149 100.8 65.705 100.766C65.7173 100.835 65.7288 100.904 65.7402 100.974ZM50.6064 96.768C51.0847 96.9796 51.5577 97.2025 52.029 97.4261C52.1898 97.6105 52.3471 97.7983 52.5136 97.9772C51.4336 97.4293 50.3489 96.8894 49.2633 96.3519C48.7994 96.0678 48.3328 95.7888 47.8605 95.5203C48.777 95.9344 49.6869 96.3613 50.6064 96.768ZM24.714 123.315C24.7914 123.364 24.8684 123.415 24.9467 123.464C24.9017 123.513 24.8588 123.563 24.8123 123.61C24.7799 123.51 24.7457 123.413 24.714 123.315ZM85.8849 140.879C85.9018 140.881 85.917 140.884 85.9339 140.886C86.0867 140.904 86.2341 140.884 86.373 140.839C86.3448 141.546 86.3285 142.254 86.3188 142.964C86.1664 142.899 86.0121 142.836 85.8588 142.771C85.869 142.141 85.8767 141.51 85.8849 140.879ZM66.0611 103.74C66.0685 103.888 66.094 104.026 66.1416 104.148C64.5821 103.341 63.0403 102.502 61.5283 101.586C63.0279 102.328 64.5366 103.051 66.0611 103.74ZM14.8668 116.83C14.9782 117.401 15.0942 117.97 15.2161 118.54C15.2384 118.642 15.2596 118.749 15.2815 118.857C15.0706 118.737 14.8567 118.625 14.6477 118.502C14.3033 118.3 13.9539 118.105 13.6072 117.905C13.9697 117.531 14.2652 117.077 14.5129 116.587C14.6307 116.667 14.7481 116.75 14.8668 116.83ZM20.3681 121.55C20.1781 121.096 19.9996 120.635 19.8405 120.163C20.3167 120.476 20.7933 120.788 21.2708 121.1C21.1519 121.356 21.0073 121.591 20.8317 121.799C20.677 121.716 20.5225 121.632 20.3681 121.55ZM26.9599 124.724C27.0478 124.779 27.1362 124.834 27.2241 124.889C27.2698 125.061 27.3143 125.234 27.36 125.406C27.3785 125.475 27.3977 125.547 27.4178 125.618C27.1387 125.468 26.855 125.323 26.5809 125.166C26.713 125.024 26.8388 124.877 26.9599 124.724ZM68.9446 98.7763C68.8548 98.9584 68.8034 99.1714 68.8194 99.4203C68.834 99.6536 68.8564 99.8866 68.8756 100.119C68.8703 100.27 68.8559 100.421 68.8527 100.573C68.8375 101.17 68.8389 101.768 68.8428 102.365C68.7567 102.328 68.6729 102.287 68.5868 102.25C68.5782 102.188 68.5697 102.125 68.5603 102.062C68.6379 101.029 68.7102 99.995 68.8147 98.9633C68.8655 98.4597 68.9406 97.9608 69.0231 97.4629C68.9916 97.9009 68.9723 98.3389 68.9446 98.7763ZM22.0376 105.228C22.1144 105.508 22.1923 105.789 22.2703 106.07C22.3565 107.433 22.4037 108.795 22.402 110.157C22.2332 110.06 22.0655 109.962 21.8971 109.866C21.7609 108.286 21.786 106.71 21.8171 105.128C21.892 105.16 21.9628 105.196 22.0376 105.228ZM18.5255 105.466C18.2237 104.674 17.9322 103.881 17.6413 103.087C17.9048 103.229 18.1716 103.364 18.4365 103.502C18.4793 104.155 18.5108 104.81 18.5255 105.466ZM13.6923 108.983C13.6162 108.939 13.5402 108.893 13.4633 108.849C13.1425 108.667 12.8144 108.636 12.5236 108.708C12.5712 108.362 12.6212 108.013 12.671 107.666C12.9898 107.859 13.3086 108.053 13.6277 108.248C13.6494 108.493 13.6677 108.738 13.6923 108.983ZM12.5561 115.239C12.5338 115.284 12.519 115.335 12.4955 115.379C12.4841 115.402 12.4674 115.431 12.4533 115.457C12.4183 115.339 12.3879 115.22 12.3555 115.101C12.4215 115.148 12.4892 115.193 12.5561 115.239ZM44.9397 132.405C46.4572 133.139 47.9695 133.892 49.4859 134.638C49.4954 134.652 49.5054 134.665 49.5158 134.678C48.1814 134.15 46.8622 133.581 45.5517 132.988C45.3498 132.792 45.143 132.599 44.9397 132.405ZM76.4039 147.208C76.4072 147.249 76.4101 147.289 76.4138 147.329C76.1617 147.211 75.9108 147.094 75.659 146.978C75.905 147.062 76.1564 147.13 76.4039 147.208ZM66.2268 93.9701C66.2289 94.3637 66.238 94.7574 66.2492 95.1512C65.9832 95.1242 65.7118 95.175 65.4844 95.3007C65.7527 92.6375 66.04 89.9764 66.3425 87.3178C66.2312 89.5329 66.2135 91.7576 66.2268 93.9701ZM27.2666 89.6378C27.5068 89.9665 27.7163 90.3225 27.9016 90.6926C27.4677 90.5286 27.0308 90.3719 26.6032 90.1922C26.5163 90.1556 26.4316 90.115 26.3459 90.079C26.3541 89.9326 26.3628 89.787 26.3726 89.6419C26.6708 89.6401 26.9686 89.6375 27.2666 89.6378ZM85.7383 73.5774C85.7124 73.6468 85.6869 73.717 85.6601 73.7868C85.6379 73.611 85.616 73.4362 85.5941 73.2613C85.641 73.3672 85.6897 73.4723 85.7383 73.5774ZM22.7011 93.136C22.7884 92.6732 23.0332 92.2945 23.1576 91.8643C23.1741 91.806 23.1921 91.7701 23.2096 91.7426C23.242 91.762 23.2744 91.7815 23.3072 91.8018C23.3526 91.8781 23.3912 91.9594 23.4259 92.0412C23.3534 92.6598 23.2998 93.2803 23.2562 93.9007C23.2513 93.9863 23.2493 94.0717 23.2432 94.1568C23.0818 94.0824 22.9203 94.008 22.7589 93.9337C22.7211 93.7806 22.6851 93.6269 22.6464 93.4742C22.6663 93.3621 22.6804 93.2484 22.7011 93.136ZM13.3544 103.382C13.3661 104.028 13.3886 104.674 13.4195 105.318C13.2851 105.243 13.152 105.167 13.0176 105.092C13.1879 103.737 13.3107 102.378 13.3565 101.028C13.3442 101.812 13.3394 102.597 13.3544 103.382ZM79.2499 67.6888C79.1572 67.5108 79.0702 67.3293 78.9894 67.1462C79.1475 66.5206 79.255 65.8872 79.318 65.2485C79.3184 65.2755 79.3205 65.3018 79.3212 65.3297C79.2375 66.121 79.2193 66.9077 79.2499 67.6888ZM18.141 100.528C18.0163 100.464 17.8902 100.402 17.765 100.339C17.8036 99.8729 17.8467 99.4077 17.898 98.9431C17.988 99.4705 18.0702 99.9982 18.141 100.528ZM13.4097 98.9937C13.3949 99.011 13.3833 99.0311 13.3692 99.0501C13.3478 98.5208 13.3089 97.9929 13.262 97.4652C13.3232 97.7351 13.3829 98.0037 13.4374 98.2744C13.4275 98.5141 13.4188 98.7543 13.4097 98.9937ZM78.6029 148.685C78.5895 148.653 78.5719 148.624 78.5563 148.594C78.7021 148.411 78.7973 148.183 78.8159 147.911C79.0882 147.984 79.3601 148.058 79.6343 148.127C79.6418 148.427 79.6451 148.727 79.6518 149.027C79.3038 148.909 78.9535 148.795 78.6029 148.685ZM88.9003 65.1066C88.8278 64.5848 88.743 64.0652 88.6331 63.5503C88.4419 62.6613 88.1936 61.7824 87.8893 60.9233C88.4451 62.1235 88.8537 63.3681 89.1184 64.6365C89.0436 64.7921 88.9715 64.9495 88.9003 65.1066ZM86.0213 62.8174C86.6149 64.8912 86.8445 67.1176 86.6787 69.2733C86.3519 68.0554 86.1339 66.8094 86.042 65.5521C86.0984 64.6868 86.0856 63.8176 86.0163 62.9503C86.0183 62.9052 86.0189 62.8616 86.0213 62.8174ZM20.0039 92.6596C19.9975 92.6563 19.9914 92.6539 19.9854 92.6514C19.6458 92.4917 19.3166 92.5318 19.0415 92.6828C19.1999 92.219 19.3884 91.7716 19.6216 91.3536C19.7523 91.7872 19.8814 92.2216 20.0039 92.6596ZM16.1927 92.4631C16.2299 92.2923 16.2769 92.1304 16.3424 91.9718C16.4211 92.2473 16.4944 92.5242 16.5656 92.8009C16.3996 93.4008 16.2644 94.0117 16.1454 94.6228C16.0517 95.1084 15.9764 95.5973 15.8966 96.0851C15.9239 95.4807 15.9556 94.8775 16.0015 94.2743C16.0467 93.6814 16.0664 93.0451 16.1927 92.4631ZM10.6485 94.9979C10.514 95.2855 10.3933 95.5843 10.286 95.8865C10.266 95.8819 10.2438 95.8843 10.2224 95.8813C10.3256 95.4319 10.4357 94.9826 10.5698 94.5422C10.5991 94.6918 10.6214 94.8464 10.6485 94.9979ZM42.1917 134.492C42.3103 134.381 42.4226 134.264 42.5258 134.139C42.7755 134.27 43.0364 134.386 43.2892 134.513C43.2475 134.749 43.2258 134.977 43.2335 135.194C43.0848 135.162 42.9363 135.127 42.7886 135.092C42.5885 134.894 42.3896 134.693 42.1917 134.492ZM61.0709 88.5413C61.1199 90.4015 61.2217 92.2604 61.3689 94.1172C61.3633 94.1135 61.3581 94.1107 61.3529 94.1079C61.0746 92.343 60.8128 90.5742 60.6123 88.8004C60.7857 88.7489 60.9422 88.6624 61.0709 88.5413ZM22.9339 88.5756C22.5947 88.4238 22.2513 88.2787 21.9126 88.1256C22.293 88.0426 22.6736 87.9625 23.0551 87.8891C22.9534 88.0953 22.9164 88.3375 22.9339 88.5756ZM17.9705 89.5697C17.8871 89.4702 17.7956 89.3853 17.6942 89.3146C17.8972 89.2405 18.1026 89.1744 18.307 89.1058C18.1904 89.2579 18.0763 89.411 17.9705 89.5697ZM13.7078 92.885C13.3077 92.8435 12.9565 92.8838 12.6376 92.979C12.5316 92.708 12.3972 92.453 12.2161 92.228C12.1783 92.1816 12.1348 92.1478 12.095 92.1063C12.7995 91.625 13.546 91.2095 14.2274 90.8588C13.9458 91.4756 13.7932 92.1734 13.7078 92.885ZM5.87435 108.516C5.95226 109.532 6.11925 110.537 6.31239 111.542C6.24476 111.541 6.17974 111.525 6.11119 111.473C5.9349 111.338 5.93815 109.532 5.91724 109.314C5.89327 109.066 5.88184 108.816 5.86079 108.567C5.86559 108.55 5.86955 108.533 5.87435 108.516ZM6.18707 113.902C6.0642 114.188 6.03766 114.515 6.15388 114.821C5.99711 114.599 5.84034 114.377 5.69368 114.152C5.61333 114.029 5.54174 113.906 5.46893 113.782C5.7003 113.853 5.94137 113.894 6.18707 113.902ZM82.2715 148.787C82.2772 148.789 82.2841 148.791 82.2898 148.792C82.5788 148.864 82.8284 148.809 83.0317 148.684C83.04 149.244 83.05 149.803 83.0533 150.363C82.751 150.225 82.4459 150.092 82.1376 149.963C82.1824 149.571 82.2263 149.179 82.2715 148.787ZM91.2987 126.362C91.3446 125.731 91.4042 125.1 91.4741 124.471C91.4411 124.993 91.3967 125.514 91.3555 126.036C91.3363 126.145 91.3179 126.253 91.2987 126.362ZM92.2655 73.2229C92.2619 73.3069 92.252 73.3926 92.2467 73.4774C91.8367 73.3888 91.3809 73.529 91.0749 73.8441C91.5612 72.14 91.824 70.386 91.8561 68.6292C91.9551 69.0662 92.0348 69.4863 92.1099 69.8409C92.1199 69.886 92.1262 69.9316 92.1351 69.9761C92.2639 71.0406 92.3162 72.1214 92.2655 73.2229ZM81.1582 56.1462C81.5783 56.2989 81.9145 56.8989 82.1757 57.5117C82.0687 57.6437 81.9678 57.7831 81.8717 57.9265C81.5273 57.324 81.1372 56.7368 80.6865 56.2418C80.8503 56.144 81.0116 56.0926 81.1582 56.1462ZM7.51319 97.3133C7.28632 98.4905 7.10808 99.6732 6.98469 100.862C6.95667 100.945 6.92915 101.027 6.90234 101.111C6.91547 100.187 6.88348 99.2603 6.81257 98.3323C6.85848 98.1749 6.89746 98.0155 6.9458 97.8591C7.10128 97.3553 6.93404 96.921 6.6352 96.6272C6.59429 96.3175 6.5608 96.0087 6.51113 95.6997C6.49873 95.6254 6.47962 95.559 6.4588 95.4934C6.70587 95.2386 6.95403 94.9863 7.20062 94.7326C7.05365 95.2731 6.96815 95.8398 6.99794 96.4481C7.01932 96.8848 7.22978 97.1649 7.51319 97.3133ZM67.442 148.02C67.6168 148.073 67.7935 148.122 67.969 148.175C68.1177 148.248 68.2662 148.323 68.4157 148.395C67.9534 148.233 67.4931 148.066 67.0365 147.892C67.1721 147.934 67.3064 147.978 67.442 148.02ZM95.0566 116.773C95.114 116.263 95.1764 115.756 95.2375 115.248C95.2207 115.77 95.1858 116.29 95.1295 116.809C95.1053 116.797 95.0808 116.784 95.0566 116.773ZM86.0419 56.0907C85.7258 56.235 85.4579 56.4504 85.2323 56.7202C84.9877 56.5896 84.7219 56.4921 84.4246 56.4533C84.3521 56.4438 84.2824 56.4432 84.2125 56.4397C84.1951 56.4058 84.1811 56.3705 84.1645 56.3362C83.8816 55.774 83.5453 55.2072 83.1147 54.7429C84.1443 55.0868 85.1342 55.5361 86.0419 56.0907ZM79.6781 53.9495C79.7658 53.9616 79.8552 53.9779 79.9436 53.9917C79.4611 54.2137 79.0233 54.5596 78.6368 54.9602C78.2415 54.8754 77.8173 54.8672 77.3597 54.9579C76.6922 54.5378 75.9687 54.3105 75.2456 54.2763C76.6826 53.8917 78.164 53.7398 79.6781 53.9495ZM72.1935 55.4412C72.014 55.611 71.8391 55.7939 71.6796 56.0015C71.3348 56.4458 71.0769 56.9357 70.8585 57.4431C70.7434 57.5513 70.6346 57.6649 70.5332 57.7865C70.4034 57.751 70.2733 57.7147 70.1312 57.6975C69.2615 57.5907 68.6309 57.959 68.1447 58.5137C68.1178 58.4667 68.0954 58.4189 68.0685 58.3719C68.0302 58.3056 67.9789 58.251 67.931 58.1928C69.2048 57.0753 70.6964 56.1653 72.1935 55.4412ZM3.20473 101.296C3.3028 100.828 3.43298 100.357 3.58309 99.8925C3.38067 101.997 3.3109 104.118 3.36797 106.216C3.36823 106.458 3.36971 106.701 3.37533 106.944C3.00249 105.092 2.79354 103.267 3.20473 101.296ZM89.4417 155.692C89.7887 155.546 90.0797 155.246 90.1677 154.792C90.4696 153.236 90.7372 151.671 90.9967 150.104C90.9203 151.017 90.8386 151.929 90.7697 152.843C90.7119 153.605 90.6545 154.367 90.5975 155.128C90.5739 155.447 90.5491 155.766 90.5247 156.085C90.1653 155.95 89.804 155.82 89.4417 155.692ZM92.7302 137.24C92.8274 136.112 92.9225 134.985 93.0255 133.862C93.1398 132.614 93.2695 131.365 93.395 130.115C93.4973 130.071 93.5901 130.015 93.6729 129.944C93.6184 130.553 93.5705 131.163 93.5127 131.772C93.337 133.6 93.0319 135.421 92.7302 137.24ZM93.8213 128.255C93.7579 128.179 93.6809 128.109 93.5932 128.045C93.6552 127.361 93.7178 126.677 93.7671 125.991C93.8503 125.514 93.9308 125.035 94.0161 124.558C94.0183 124.549 94.0193 124.54 94.0207 124.531C94.0535 124.544 94.0872 124.557 94.1208 124.57C94.0236 125.799 93.9239 127.027 93.8213 128.255ZM97.3878 123.255C97.1324 123.137 96.8747 123.021 96.6185 122.903C96.6711 122.244 96.7353 121.587 96.8331 120.936C96.8575 120.778 96.8872 120.62 96.914 120.463C97.123 120.547 97.3346 120.628 97.5453 120.71C97.5199 121.572 97.4936 122.435 97.4623 123.297C97.4362 123.283 97.4152 123.267 97.3878 123.255ZM97.6307 118.052C97.5462 118.009 97.4608 117.967 97.3758 117.926C97.4261 117.617 97.4718 117.31 97.5061 117C97.7974 114.381 97.4944 111.733 97.7432 109.102C97.7954 108.545 97.8366 107.99 97.8757 107.435C97.8792 107.699 97.8864 107.963 97.8878 108.227C97.905 111.498 97.7315 114.779 97.6307 118.052ZM95.86 91.9834C95.8525 92.0439 95.8488 92.1039 95.8413 92.1644C95.867 91.6443 95.8973 91.1252 95.9425 90.6058C96.0353 89.5419 96.1304 88.481 96.1896 87.4162C96.1977 87.7056 96.2117 87.9946 96.2145 88.2832C96.2231 89.5316 96.0245 90.7492 95.86 91.9834ZM95.9606 80.6798C95.7972 79.323 95.5568 77.9769 95.2083 76.6675C95.203 75.8847 95.1801 75.1004 95.1221 74.3119C94.9953 72.6074 94.759 70.9153 94.3907 69.249C94.2275 68.0965 93.9834 66.9572 93.6616 65.8318C94.0454 66.8212 94.3652 67.8257 94.6121 68.8269C95.5583 72.6653 95.8164 76.6942 95.9606 80.6798ZM189.257 142.926C192.171 136.567 194.966 130.008 196.91 123.278C198.888 116.426 198.264 108.618 194.178 102.645C192.331 99.9435 189.591 97.7984 186.479 96.7416C183.226 95.6375 179.71 96.2053 176.795 97.954C173.422 99.9769 170.933 103.231 168.934 106.554C167.862 108.337 166.89 110.188 166.043 112.089C165.548 113.202 165.156 114.351 164.77 115.504C162.858 112.933 160.779 110.48 158.244 108.49C155.358 106.225 151.937 104.554 148.352 103.774C144.534 102.943 140.978 103.505 137.494 105.233C134.34 106.796 131.629 109.406 130.587 112.836C130.079 114.507 129.801 116.274 129.842 118.021C129.887 119.945 130.521 121.77 131.365 123.481C133.086 126.967 135.055 130.344 137.447 133.411C139.877 136.525 142.439 139.644 145.419 142.25C148.276 144.747 151.162 147.159 154.275 149.33C157.79 151.78 161.449 154.004 165.014 156.378C167.302 157.901 169.759 159.183 172.23 160.425C172.211 161.35 173.412 161.818 174.11 161.367C174.853 161.739 175.595 162.112 176.33 162.491C177.07 162.873 177.664 162.39 177.835 161.761C180.196 159.037 182.251 155.941 184.092 152.848C185.999 149.64 187.702 146.318 189.257 142.926ZM187.483 101.374C187.773 101.796 188.058 102.221 188.322 102.661C188.322 102.661 188.319 102.661 188.317 102.663C188.028 102.326 187.716 102.015 187.384 101.732C187.413 101.612 187.451 101.494 187.483 101.374ZM177.268 144.922C177.317 144.45 177.368 143.974 177.419 143.5C177.476 143.539 177.533 143.578 177.59 143.617C177.533 143.849 177.467 144.08 177.412 144.313C177.391 144.4 177.382 144.484 177.379 144.563C177.341 144.682 177.304 144.802 177.268 144.922ZM142.805 112.683C142.755 113.002 142.713 113.32 142.667 113.639C142.558 113.616 142.449 113.592 142.34 113.571C142.23 112.997 142.109 112.428 141.967 111.862C141.998 111.571 142.024 111.279 142.064 110.99C142.336 111.547 142.579 112.113 142.805 112.683ZM159.288 132.216C159.287 132.293 159.289 132.37 159.289 132.447C159.272 132.433 159.255 132.419 159.239 132.405C159.254 132.341 159.273 132.28 159.288 132.216ZM162.396 134.281C162.485 134.626 162.585 135.004 162.679 135.397C162.528 135.263 162.376 135.131 162.224 134.999C162.274 134.757 162.34 134.52 162.396 134.281ZM165.649 137.695C165.522 137.597 165.395 137.498 165.267 137.401C165.265 137.261 165.27 137.12 165.26 136.98C165.25 136.829 165.231 136.677 165.216 136.526C165.34 136.67 165.461 136.817 165.585 136.962C165.606 137.206 165.626 137.45 165.649 137.695ZM156.919 118.222C156.788 118.121 156.655 118.024 156.522 117.923C156.33 117.776 156.12 117.708 155.911 117.701C155.855 117.482 155.803 117.262 155.745 117.043C156.112 117.383 156.476 117.724 156.849 118.057C156.872 118.112 156.895 118.166 156.919 118.222ZM150.333 133.55C150.347 133.78 150.359 134.014 150.372 134.251C150.335 134.112 150.301 133.972 150.263 133.832C150.288 133.739 150.31 133.644 150.333 133.55ZM152.769 136.11C152.796 135.563 152.79 135.011 152.768 134.459C153.008 134.912 153.257 135.361 153.513 135.806C153.514 135.893 153.522 135.98 153.522 136.068C153.522 136.174 153.514 136.28 153.513 136.387C153.267 136.289 153.017 136.201 152.769 136.11ZM163.752 129.798C163.769 129.753 163.787 129.707 163.803 129.661C164.024 129.788 164.253 129.907 164.479 130.028C164.531 130.206 164.574 130.388 164.621 130.569C164.33 130.314 164.043 130.054 163.752 129.798ZM167.376 129.166C168.196 129.796 169.024 130.418 169.859 131.029C169.809 131.212 169.758 131.395 169.708 131.578C168.93 130.775 168.153 129.97 167.376 129.166ZM180.063 129.903C179.845 130.523 179.629 131.144 179.412 131.765C179.369 131.649 179.31 131.536 179.226 131.428C179.511 130.923 179.79 130.415 180.063 129.903ZM161.256 139.493C161.369 139.615 161.484 139.737 161.596 139.859C161.453 139.9 161.307 139.928 161.158 139.938C161.191 139.789 161.224 139.642 161.256 139.493ZM167.609 133.13C167.59 133.114 167.572 133.097 167.552 133.081C167.533 132.946 167.508 132.811 167.487 132.676C167.984 133.191 168.482 133.704 168.981 134.218C168.979 134.226 168.977 134.233 168.974 134.241C168.519 133.869 168.06 133.507 167.609 133.13ZM172.42 133.846C172.413 134.016 172.405 134.185 172.398 134.354C172.325 134.279 172.252 134.204 172.178 134.129C172.259 134.034 172.34 133.941 172.42 133.846ZM163.221 141.721C163.488 142.041 163.757 142.361 164.015 142.689C163.674 142.399 163.329 142.113 162.978 141.836C163.056 141.796 163.146 141.765 163.221 141.721ZM170.032 146.924C170.172 147.083 170.317 147.244 170.463 147.405C170.407 147.605 170.355 147.805 170.299 148.006C169.942 147.302 169.568 146.606 169.152 145.927C169.446 146.259 169.739 146.59 170.032 146.924ZM170.993 144.445C171.067 144.491 171.14 144.538 171.213 144.583C171.206 144.612 171.199 144.639 171.191 144.667C171.125 144.594 171.059 144.52 170.993 144.445ZM170.209 138.623C170.237 138.521 170.265 138.418 170.294 138.314C170.859 138.754 171.423 139.196 171.995 139.626C171.986 139.703 171.98 139.78 171.971 139.858C171.947 140.064 171.916 140.272 171.891 140.478C171.328 139.861 170.768 139.242 170.209 138.623ZM178.634 133.464C178.639 133.417 178.642 133.369 178.648 133.323C178.742 133.294 178.833 133.256 178.915 133.205C178.774 133.617 178.642 134.031 178.513 134.445C178.552 134.118 178.596 133.791 178.634 133.464ZM183.144 108.269C183.139 108.285 183.134 108.301 183.128 108.317C183.046 108.022 182.985 107.765 182.956 107.668C182.926 107.566 182.899 107.461 182.87 107.358C182.835 107.176 182.791 106.997 182.735 106.823C182.624 106.334 182.547 105.835 182.561 105.341C182.571 105.016 182.645 104.648 182.776 104.296C183.022 105.279 183.076 106.353 183.121 107.309C183.136 107.614 183.144 107.937 183.144 108.269ZM175.831 136.479C175.848 136.457 175.867 136.437 175.882 136.413C175.825 136.867 175.771 137.322 175.713 137.776C175.64 137.699 175.566 137.623 175.492 137.548C175.605 137.191 175.717 136.835 175.831 136.479ZM173.148 146.892C173.216 146.557 173.282 146.221 173.35 145.885C173.546 146.005 173.742 146.124 173.937 146.244C174.186 146.398 174.458 146.443 174.72 146.415C174.641 147.105 174.551 147.795 174.454 148.483C174.043 147.938 173.599 147.411 173.148 146.892ZM167.985 118.874C167.993 118.87 168.001 118.863 168.01 118.857C167.859 119.348 167.715 119.841 167.572 120.335C167.488 120.169 167.395 120.007 167.304 119.843C167.535 119.525 167.759 119.199 167.985 118.874ZM142.365 124.787C142.39 124.803 142.415 124.821 142.44 124.838C142.442 124.937 142.446 125.038 142.448 125.136C142.458 125.604 142.492 126.062 142.529 126.521C142.437 126.111 142.35 125.7 142.269 125.288C142.303 125.121 142.333 124.953 142.365 124.787ZM172.523 149.777C172.658 149.954 172.785 150.136 172.908 150.318C172.759 150.225 172.61 150.131 172.461 150.036C172.483 149.95 172.503 149.863 172.523 149.777ZM175.144 142.476C175.091 142.955 175.042 143.432 174.992 143.91C174.678 143.558 174.361 143.207 174.043 142.856C174.161 142.366 174.279 141.878 174.402 141.39C174.671 141.583 174.935 141.782 175.205 141.973C175.186 142.14 175.163 142.308 175.144 142.476ZM172.391 152.765C172.776 153 173.165 153.23 173.555 153.458C173.517 153.657 173.477 153.854 173.439 154.051C173.107 153.725 172.771 153.403 172.434 153.082C172.434 152.976 172.419 152.87 172.391 152.765ZM183.153 142.842C183.167 142.809 183.182 142.776 183.198 142.743C183.178 142.788 183.161 142.833 183.142 142.878C183.146 142.865 183.149 142.854 183.153 142.842ZM190.184 132.051C191.092 129.116 191.945 126.165 192.695 123.19C192.789 122.818 192.671 122.502 192.447 122.273C192.826 120.924 193.598 118.631 193.397 116.878C193.517 116.723 193.626 116.558 193.714 116.377C193.641 117.455 193.547 118.53 193.397 119.599C192.749 124.235 191.462 128.733 189.958 133.153C189.806 133.599 189.641 134.038 189.477 134.476C189.722 133.669 189.957 132.861 190.184 132.051ZM190.926 102.458C191.764 103.405 192.454 104.523 192.973 105.783C193.78 107.744 193.99 109.686 193.946 111.749C193.738 110.133 193.365 108.544 192.866 106.994C192.366 105.444 191.712 103.916 190.926 102.458ZM185.442 99.8721C185.383 99.8065 185.332 99.7345 185.27 99.6721C185.087 99.4843 184.897 99.3313 184.704 99.1989C185.016 99.2366 185.32 99.2916 185.619 99.3559C185.558 99.5256 185.499 99.6979 185.442 99.8721ZM180.229 100.354C180.152 100.389 180.075 100.424 179.999 100.464C179.939 100.44 179.883 100.408 179.82 100.388C179.454 100.264 179.045 100.231 178.621 100.255C179.433 99.8293 180.312 99.5175 181.244 99.3302C180.87 99.5999 180.527 99.9476 180.229 100.354ZM159.889 145.94C159.9 145.897 159.911 145.855 159.92 145.812C161.294 146.686 162.613 147.615 163.869 148.684C165.147 149.77 166.434 150.86 167.705 151.971C167.672 151.967 167.639 151.965 167.607 151.962C165.406 150.64 163.536 149.011 161.567 147.364C161 146.891 160.441 146.418 159.889 145.94ZM178.242 153.659C178.237 153.693 178.232 153.726 178.227 153.76C178.134 154.377 178.455 154.788 178.891 154.958C178.787 155.165 178.692 155.377 178.588 155.584C178.416 155.926 177.536 158.196 177.208 158.2C176.906 158.205 177.898 154.808 178.242 153.659ZM148.005 106.254C147.763 106.164 147.523 106.068 147.282 105.983C147.541 106.029 147.799 106.074 148.056 106.131C148.035 106.17 148.022 106.213 148.005 106.254ZM133.923 122.979C134.088 123.387 134.326 123.751 134.71 124.02C135.124 124.311 135.585 124.413 136.044 124.386C136.079 124.603 136.118 124.82 136.158 125.037C135.757 125.114 135.393 125.41 135.228 125.781C134.743 124.958 134.252 124.111 133.809 123.243C133.849 123.157 133.884 123.067 133.923 122.979ZM170.3 156.144C171.122 156.573 171.955 156.983 172.795 157.378C172.759 157.571 172.72 157.765 172.684 157.959C171.681 157.437 170.684 156.906 169.69 156.367C169.908 156.364 170.119 156.294 170.3 156.144ZM175.075 159.191L175.077 159.193L175.075 159.192L175.075 159.191ZM140.253 106.545C140.207 106.619 140.164 106.696 140.14 106.786C140.098 106.937 140.065 107.091 140.026 107.245C139.467 107.025 138.751 107.265 138.456 107.875C138.362 108.069 138.279 108.266 138.19 108.462C138.18 108.433 138.171 108.404 138.16 108.375C138.063 108.095 137.889 107.909 137.682 107.796C138.492 107.303 139.355 106.876 140.253 106.545ZM135.831 109.134C135.653 110.334 135.526 111.537 135.444 112.743C135.353 111.981 135.233 111.227 135.048 110.496C135.008 110.334 134.943 110.196 134.865 110.075C135.133 109.773 135.421 109.484 135.729 109.215C135.762 109.187 135.798 109.162 135.831 109.134ZM165.832 154.057C166.167 154.127 166.501 154.199 166.839 154.245C167.362 154.544 167.888 154.84 168.417 155.131C168.424 155.375 168.499 155.595 168.621 155.779C168.416 155.665 168.208 155.556 168.003 155.44C167.253 155.018 166.54 154.541 165.832 154.057ZM198.816 121.321C197.097 131.275 193.701 140.855 188.787 149.67C188.045 151 190.25 151.875 190.984 150.558C195.995 141.568 199.414 131.77 201.167 121.623C201.427 120.116 199.075 119.822 198.816 121.321ZM105.001 33.5143C107.223 35.6376 109.563 37.4026 112.253 38.8913C114.858 40.332 117.427 41.8377 120.196 42.9469C122.193 43.7466 124.242 44.486 126.306 45.1534C127.429 46.0356 128.556 46.9115 129.762 47.6777C130.642 48.236 131.592 47.5147 131.681 46.7436C131.928 46.6415 132.151 46.4553 132.298 46.1544C133.563 43.5603 134.89 40.995 136.174 38.4091C136.533 37.6839 136.873 36.9496 137.209 36.2142C137.885 36.3741 138.725 36.0578 138.724 35.2533C138.722 34.4578 138.731 33.6639 138.738 32.869C139.031 32.2475 139.332 31.6304 139.65 31.0196C142.08 26.3536 144.166 21.3226 145.11 16.1203C145.573 13.5718 145.66 10.8525 145.316 8.28111C145.026 6.10953 144.211 3.78652 142.239 2.60192C141.757 2.31246 141.237 2.12033 140.701 2.00062C140.7 1.93286 140.696 1.86497 140.695 1.79806C140.666 0.383255 138.591 0.567881 138.344 1.80366C138.335 1.84997 138.329 1.89776 138.319 1.94407C137.646 2.04991 136.984 2.2424 136.37 2.51887C134.089 3.54784 132.559 5.58707 131.317 7.68153C129.85 10.1531 128.581 12.6705 127.798 15.4457C127.346 17.0485 127.019 18.6524 126.783 20.2733C125.573 19.0049 124.309 17.783 122.971 16.623C121.069 14.9729 119.164 13.2997 117.193 11.7321C115.558 10.4327 113.783 9.34631 111.989 8.28737C111.841 7.77048 111.346 7.562 110.847 7.61479C110.809 7.59289 110.771 7.57062 110.733 7.54835C110.407 7.35662 109.996 7.34391 109.636 7.45642C109.402 7.34468 109.164 7.24143 108.925 7.13735C108.699 6.82772 108.315 6.70088 107.93 6.73581C104.783 5.56448 101.416 5.26017 98.468 7.08619C96.0161 8.60516 95.4087 11.2734 95.5606 13.9877C95.6106 14.8853 95.7442 15.7475 95.9397 16.5874C95.3597 16.7953 94.8732 17.4085 95.1038 18.165C96.0393 21.229 97.2916 24.0437 99.1466 26.666C100.89 29.1323 102.816 31.4277 105.001 33.5143ZM113.955 31.2013C113.531 30.8955 113.112 30.5809 112.695 30.2628C112.804 29.7768 112.914 29.2913 113.014 28.8028C113.249 28.9839 113.483 29.1657 113.717 29.3468C113.797 29.9702 113.878 30.5929 113.971 31.2127C113.966 31.209 113.961 31.205 113.955 31.2013ZM121.568 36.4846C121.611 36.386 121.646 36.2798 121.662 36.1579C121.686 35.9847 121.713 35.8124 121.737 35.6391C121.812 35.7007 121.889 35.7607 121.965 35.8231C121.985 36.0331 122.005 36.2428 122.026 36.4524C121.909 36.4738 121.802 36.5161 121.704 36.574C121.659 36.545 121.613 36.5148 121.568 36.4846ZM130.488 20.9841C130.526 20.9068 130.563 20.8274 130.601 20.75C130.454 21.3892 130.305 22.0271 130.156 22.662C130.034 22.5877 129.914 22.5121 129.792 22.4389C129.634 22.1862 129.385 22.0118 129.113 21.921C129.147 21.8384 129.18 21.7549 129.214 21.6711C129.685 21.7539 130.205 21.5663 130.488 20.9841ZM120.574 26.3312C120.607 26.3523 120.641 26.371 120.675 26.3881C120.651 26.551 120.628 26.7139 120.605 26.8768C120.592 26.6951 120.585 26.5128 120.574 26.3312ZM118.021 18.1035L118.019 18.1025C118.024 17.9796 118.03 17.8562 118.036 17.7329C118.054 17.7453 118.073 17.7576 118.091 17.77C118.088 17.7852 118.082 17.7968 118.079 17.8124C118.06 17.91 118.041 18.0067 118.021 18.1035ZM115.727 16.5514C115.716 16.686 115.705 16.8215 115.693 16.9561C115.568 16.8977 115.441 16.8399 115.314 16.7819C115.315 16.5059 115.316 16.2307 115.319 15.9557C115.476 16.053 115.631 16.1565 115.787 16.2551C115.758 16.3458 115.736 16.442 115.727 16.5514ZM123.848 30.0679C123.753 28.957 123.728 27.8575 123.726 26.7594C123.851 26.832 123.978 26.9038 124.106 26.9756C124.056 28.0643 123.979 29.1508 123.862 30.2331C123.857 30.1789 123.853 30.1234 123.848 30.0679ZM121.559 20.2992C121.553 20.2947 121.547 20.2902 121.541 20.2857C121.173 20.0153 120.789 19.7735 120.41 19.5258C120.41 19.4735 120.412 19.4217 120.413 19.3698C120.803 19.6419 121.195 19.9125 121.586 20.183C121.577 20.2223 121.565 20.2573 121.559 20.2992ZM112.849 14.5164C112.8 14.9649 112.744 15.4135 112.688 15.862C112.485 15.7278 112.288 15.5848 112.083 15.4545C112.059 15.0612 112.037 14.6688 112.029 14.2748C112.027 14.2091 112.03 14.1436 112.028 14.0788C112.304 14.2205 112.576 14.3674 112.849 14.5164ZM107.582 21.9413C107.382 21.8292 107.179 21.7223 106.974 21.62C107.098 20.6829 107.227 19.7462 107.36 18.8092C107.423 19.8543 107.499 20.898 107.582 21.9413ZM100.697 20.9976C100.706 21.1065 100.709 21.2171 100.72 21.3253C100.757 21.724 100.992 22.0039 101.297 22.164C101.343 22.369 101.407 22.5664 101.477 22.7601C101.067 22.2095 100.678 21.6439 100.319 21.0608C100.445 21.0574 100.573 21.0384 100.697 20.9976ZM106.662 24.1185C107.054 24.3397 107.438 24.579 107.817 24.8318C107.859 25.3395 107.898 25.8484 107.936 26.3572C107.467 25.9515 107.005 25.5379 106.542 25.1256C106.582 24.7897 106.622 24.4547 106.662 24.1185ZM118.635 34.0546C118.644 33.7667 118.665 33.4791 118.68 33.1911C118.748 33.2447 118.816 33.2983 118.884 33.352C118.952 33.8456 119.026 34.3384 119.102 34.8313C118.916 34.7039 118.732 34.5749 118.546 34.4463C118.595 34.3319 118.629 34.2029 118.635 34.0546ZM109.391 10.3394C109.348 10.3234 109.304 10.3107 109.261 10.2948C109.255 10.1586 109.248 10.0228 109.24 9.88621C109.31 9.92295 109.379 9.96089 109.449 9.99884C109.43 10.1123 109.409 10.2259 109.391 10.3394ZM126.512 28.2143C126.723 28.3121 126.933 28.4123 127.146 28.5061C127.014 29.6951 126.872 30.8825 126.717 32.0667C126.691 32.268 126.652 32.4657 126.623 32.6661C126.56 31.1811 126.526 29.697 126.512 28.2143ZM105.947 12.3831C105.877 12.7993 105.816 13.2168 105.749 13.6327C105.735 13.1101 105.719 12.5868 105.704 12.0646C105.785 12.1713 105.866 12.2776 105.947 12.3831ZM126.387 42.2386C126.768 42.0933 127.099 41.7794 127.211 41.3322C127.38 40.6619 127.544 39.9935 127.705 39.3261C127.809 40.6397 127.935 41.9501 128.087 43.2551C127.859 43.1849 127.633 43.1065 127.406 43.0342C127.066 42.7686 126.727 42.5038 126.387 42.2386ZM129.735 29.5083C129.897 29.5623 130.06 29.6086 130.223 29.6603C130.099 31.1229 129.947 32.5833 129.783 34.0438C129.735 32.5315 129.72 31.0191 129.735 29.5083ZM132.889 39.112C132.979 39.1334 133.069 39.1465 133.159 39.1463C133.055 39.3536 132.952 39.5605 132.847 39.7669C132.861 39.5486 132.875 39.3303 132.889 39.112ZM135.906 30.4532C136.333 27.5899 136.262 24.7756 136.295 21.8935C136.307 20.7943 136.359 19.6892 136.426 18.5842C136.328 21.3128 136.322 24.0529 136.378 26.7828C136.416 28.6386 136.388 30.4911 136.373 32.3453C135.911 33.3364 135.464 34.3343 135.01 35.3301C135.387 33.721 135.663 32.0861 135.906 30.4532ZM106.473 9.41842C106.368 9.39068 106.264 9.35603 106.158 9.32988C105.959 9.27933 105.784 9.30208 105.625 9.35361C105.617 9.07745 105.611 8.80105 105.602 8.52525C105.6 8.51066 105.596 8.49836 105.595 8.48376C105.931 8.56275 106.262 8.65353 106.591 8.75952C106.55 8.97906 106.513 9.19923 106.473 9.41842ZM115.484 37.9937C113.86 37.0848 112.185 36.24 110.651 35.1827C107.987 33.3486 105.602 31.0096 103.535 28.5066C103.933 28.8692 104.336 29.2264 104.75 29.5718C107.133 31.5624 109.514 33.442 112.248 34.9284C114.794 36.314 116.975 38.177 119.253 39.9352C117.973 39.3366 116.718 38.6848 115.484 37.9937ZM130.722 44.0194L130.72 44.0184C130.621 43.9911 130.521 43.9599 130.423 43.9322C130.45 43.8634 130.472 43.7905 130.487 43.7125C130.58 43.2637 130.678 42.8162 130.778 42.3695C130.952 42.526 131.166 42.6315 131.389 42.6807C131.166 43.1267 130.943 43.5724 130.722 44.0194ZM138.871 23.7185C139.079 24.1959 139.645 24.3972 140.162 24.3186C139.738 25.3561 139.286 26.3823 138.809 27.3941C138.83 26.1683 138.852 24.9431 138.871 23.7185ZM136.138 5.42668C135.524 7.11822 135.071 8.86749 134.785 10.6446C134.754 10.6376 134.723 10.6295 134.692 10.6247C135.103 9.09945 135.4 7.54719 135.522 5.96078C135.654 5.83411 135.785 5.70526 135.924 5.58859C135.991 5.53213 136.067 5.48166 136.138 5.42668Z" fill="#FFE4F4"/>
</svg>
