<svg width="104" height="91" viewBox="0 0 104 91" fill="none" xmlns="http://www.w3.org/2000/svg">
<path d="M46.0722 20.7559C47.8188 22.6958 49.3742 24.8006 50.7167 27.0409C50.8417 27.215 50.9181 27.4195 50.938 27.6331C50.9579 27.8468 50.9206 28.0619 50.8299 28.2562C49.9252 30.4449 49.3071 32.7418 48.9909 35.0897C48.7127 37.2509 48.6703 39.4074 49.3682 41.5118C49.8397 42.888 50.547 44.0797 51.9474 44.6756C53.0045 45.0783 54.1642 45.1215 55.2482 44.7985C57.8935 44.1648 60.1379 42.7508 62.241 41.0957C65.9099 38.159 69.0215 34.5835 71.4264 30.5404C73.2995 27.5283 74.7393 24.2662 75.7032 20.8505C76.4621 18.3048 76.7216 15.6356 76.4671 12.9908C76.3713 11.5218 75.8392 10.1152 74.9393 8.95216C74.4721 8.37832 73.8578 7.94303 73.1624 7.69307C72.467 7.4431 71.7169 7.38791 70.9926 7.53344C68.451 7.88812 66.3197 9.13659 64.278 10.579C62.0092 12.2098 59.9502 14.1159 58.1481 16.2538C58.0456 16.3901 57.9511 16.5322 57.8652 16.6795C57.4926 16.2633 57.1956 15.9275 56.8891 15.5918C53.0744 11.3687 48.7835 7.74152 43.7145 5.10743C41.3561 3.8532 38.8067 2.99986 36.17 2.5821C33.2958 2.10943 30.3486 2.39296 27.6164 3.40496C24.6516 4.53783 22.0173 6.39784 19.954 8.81502C19.8626 8.90508 19.7666 8.99032 19.6664 9.07039L19.5391 8.96635C20.1096 8.05836 20.6377 7.12201 21.2602 6.25186C23.2403 3.36408 26.2113 1.30861 29.6063 0.477664C31.3673 0.0602705 33.1817 -0.0848538 34.9864 0.0473169C39.3245 0.316874 43.3514 1.67885 47.2463 3.48062C50.1383 4.78745 52.9038 6.35945 55.5075 8.17659C55.5476 8.21592 55.5956 8.24635 55.6482 8.26592C55.7008 8.28549 55.7569 8.29376 55.813 8.2902C55.869 8.28663 55.9236 8.27131 55.9733 8.24522C56.0231 8.21913 56.0668 8.18286 56.1016 8.13876C57.9163 6.47645 59.8906 4.99849 61.9958 3.72653C64.8467 1.92905 68.0332 0.73346 71.3604 0.212834C74.0957 -0.230688 76.9008 0.163202 79.4094 1.34308C81.2945 2.25478 82.8512 3.7302 83.8654 5.56614C85.084 7.81074 85.7212 10.3263 85.7185 12.882C85.7585 16.0935 85.2678 19.2895 84.2662 22.3402C82.7176 27.1808 80.413 31.7443 77.4384 35.8606C75.4177 38.7252 73.0936 41.3621 70.5069 43.725C67.7703 46.2854 64.6561 48.4069 61.2743 50.0147C59.2859 50.9541 57.1691 51.5916 54.9935 51.9063C52.5696 52.29 50.0876 52.0258 47.798 51.1402C45.4057 50.2116 43.4394 48.4299 42.2763 46.1368C41.4262 44.441 40.9045 42.5988 40.7391 40.7079C40.4749 37.6988 40.743 34.6665 41.5313 31.751C42.4969 27.9712 43.9706 24.3407 45.9118 20.9593C45.9826 20.8883 46.0156 20.8458 46.0722 20.7559Z" fill="#016CA7"/>
<path d="M56.1871 42.6039C57.0739 40.2904 56.9601 38.0053 56.4906 35.6966C55.675 31.6918 53.9251 28.0957 51.7105 24.7228C50.0019 22.1029 47.9951 19.6908 45.7305 17.5352C43.1976 15.0138 40.2239 12.98 36.9574 11.5352C35.7213 10.999 34.4031 10.6777 33.0593 10.5851C30.911 10.4663 29.2655 11.768 28.7248 14.0388C28.3435 15.7119 28.3145 17.4463 28.6395 19.1314C29.4646 23.9579 31.6034 28.2097 34.4582 32.1146C35.6106 33.6918 36.9242 35.1455 38.1809 36.6419C38.2804 36.7495 38.3573 36.8759 38.407 37.0139C38.4567 37.1518 38.4782 37.2984 38.4701 37.4448C38.3225 40.3336 38.941 43.2102 40.2627 45.782C41.1857 47.6839 42.5148 49.3593 44.1561 50.6893C46.1658 52.2676 48.5993 53.2103 51.1461 53.3971C54.5937 53.7154 57.8896 53.0218 61.1048 51.9292C64.8168 50.6188 68.3818 48.9231 71.7417 46.8699C71.8555 46.8034 71.9693 46.7464 72.0831 46.6894L72.159 46.7844C71.7559 47.1644 71.3623 47.554 70.945 47.9197C68.6245 49.9921 66.0961 51.8181 63.4001 53.3686C60.8791 54.8462 58.1454 55.9246 55.2956 56.5658C53.6056 56.9134 51.8765 57.0316 50.155 56.9173C47.8399 56.7822 45.5909 56.0932 43.5965 54.9078C41.64 53.7257 39.9011 52.2152 38.4559 50.4423C36.2685 47.7383 34.4372 44.7638 33.0071 41.592C32.6384 40.9616 32.1835 40.3859 31.6556 39.8818C27.6735 35.5741 24.5479 30.5453 22.4461 25.0648C21.5908 22.8439 21.0219 20.5227 20.7532 18.1575C20.48 15.9701 20.6412 13.7502 21.2274 11.6255C21.6693 9.94782 22.5316 8.41101 23.7324 7.16065C24.9333 5.91029 26.433 4.98782 28.0894 4.48064C30.8968 3.53053 33.7469 3.65879 36.5922 4.32862C39.9566 5.18384 43.1424 6.63154 46.0008 8.60412C49.6222 11.0166 52.88 13.9361 55.675 17.2739C57.7226 19.6693 59.5361 22.256 61.0906 24.9983C62.7304 27.8584 63.9929 30.9196 64.8465 34.1051C64.9486 34.472 65.0278 34.8448 65.0836 35.2215C65.1055 35.401 65.0598 35.5822 64.9555 35.7298C62.9469 38.095 60.5782 40.1279 57.937 41.7535C57.4391 42.0528 56.9079 42.3046 56.391 42.5754C56.324 42.5908 56.2558 42.6003 56.1871 42.6039Z" fill="#E25A6F"/>
<path d="M13.7804 90.0714C13.6176 89.2773 13.4736 88.477 13.3359 87.6705L12.9352 85.4384C12.8956 85.2024 12.8082 84.9769 12.6785 84.7757L12.5157 84.5193C12.3492 84.3139 12.1716 84.1177 11.9836 83.9316C11.6186 83.5882 11.2103 83.2939 10.769 83.0563C10.6535 83.4682 10.4939 83.8664 10.2931 84.2442C9.99966 84.7739 9.62822 85.2565 9.19121 85.676C8.55596 86.2868 7.78931 86.7444 6.94983 87.014C6.6398 87.1111 6.32111 87.1781 5.99818 87.2141C5.77784 87.239 5.55627 87.2516 5.33452 87.2516C3.7067 87.2516 2.42323 86.3909 1.4841 84.6694L2.11018 85.0695C2.72402 85.4823 3.44278 85.7122 4.18253 85.7323C4.60582 85.702 5.02518 85.6308 5.4347 85.5197C6.02322 85.3759 6.60548 84.8195 7.194 83.8441C7.44412 83.4123 7.61779 82.9406 7.70739 82.4498L7.74496 82.156C7.74496 82.0184 7.74496 81.8559 7.74496 81.662C7.74232 81.1813 7.6941 80.7019 7.60095 80.2303C7.32141 79.3176 6.86631 78.4681 6.26113 77.7293C5.43214 76.6863 4.47506 75.7516 3.41244 74.9471H0.732796C0.637335 74.9477 0.542715 74.9292 0.454532 74.8927C0.366349 74.8562 0.286395 74.8024 0.219406 74.7345C0.149932 74.6664 0.0947484 74.5852 0.0570762 74.4955C0.0194041 74.4059 0 74.3096 0 74.2124C0 74.1152 0.0194041 74.019 0.0570762 73.9293C0.0947484 73.8397 0.149932 73.7585 0.219406 73.6904C0.356306 73.5555 0.540482 73.4792 0.732796 73.4778H16.8482C17.0407 73.4785 17.2251 73.5549 17.3616 73.6904C17.4311 73.7585 17.4863 73.8397 17.524 73.9293C17.5616 74.019 17.581 74.1152 17.581 74.2124C17.581 74.3096 17.5616 74.4059 17.524 74.4955C17.4863 74.5852 17.4311 74.6664 17.3616 74.7345C17.2949 74.8027 17.215 74.8567 17.1267 74.8932C17.0385 74.9298 16.9438 74.9481 16.8482 74.9471H15.715C15.6983 77.6428 15.5311 80.3354 15.2142 83.0125C15.21 83.0224 15.2079 83.0331 15.2079 83.0438C15.2079 83.0545 15.21 83.0652 15.2142 83.0751C15.2163 83.1146 15.2163 83.1543 15.2142 83.1939C14.8789 85.5137 14.4001 87.8106 13.7804 90.0714ZM12.2716 80.1052C12.1651 78.267 12.0962 76.5539 12.0712 74.9533H8.94077C9.74511 76.0234 10.3263 77.2438 10.65 78.5421C10.7063 78.7547 10.7689 79.0048 10.8316 79.2987C11.3295 79.5342 11.8107 79.8036 12.2716 80.1052Z" fill="#016CA7"/>
<path d="M27.6548 89.9466C27.1414 89.5277 26.5779 89.1213 25.9643 88.6961C24.6648 87.8382 23.2749 87.1253 21.8196 86.5703L18.4576 85.3199C18.1089 85.169 17.8281 84.8953 17.6687 84.5508C17.6447 84.4611 17.6321 84.3687 17.6311 84.2757V83.9444C17.675 83.2629 18.1383 82.8627 19.0023 82.7564L19.7911 82.6627C20.3118 82.6327 20.8291 82.5595 21.3376 82.4438C22.0469 82.2347 22.6494 81.7628 23.0217 81.1246C23.5017 80.3783 23.758 79.5106 23.7605 78.6237C23.7605 78.4986 23.7605 78.3236 23.7229 78.086C23.6715 77.802 23.5123 77.5489 23.2784 77.3795C23.0498 77.1961 22.7639 77.0988 22.4708 77.1044C22.2245 77.1013 21.9827 77.1709 21.7758 77.3044C21.6269 77.406 21.5062 77.5437 21.4252 77.7046C21.2567 78.067 21.1692 78.4617 21.1685 78.8613C21.1548 79.0457 21.1318 79.2293 21.0997 79.4114C21.0321 79.8382 20.8083 80.2247 20.4718 80.4961C20.1352 80.7676 19.7097 80.9046 19.2777 80.8807H19.1713C18.7303 80.8406 18.3157 80.6534 17.9943 80.3493C17.8289 80.1761 17.7012 79.9706 17.6193 79.7457C17.5374 79.5208 17.503 79.2814 17.5184 79.0426C17.5242 78.3452 17.6104 77.6508 17.7751 76.9731C17.9588 76.2438 18.3275 75.5741 18.8457 75.0286L18.9397 74.9223H16.6607C16.564 74.9253 16.4677 74.9079 16.3782 74.8713C16.2887 74.8347 16.2079 74.7796 16.141 74.7097C16.0725 74.6459 16.0181 74.5684 15.9815 74.4822C15.9448 74.396 15.9266 74.3031 15.9282 74.2095C15.9247 74.112 15.9418 74.0148 15.9785 73.9243C16.0152 73.8338 16.0706 73.752 16.141 73.6844C16.2088 73.6157 16.2897 73.5614 16.3791 73.5249C16.4684 73.4883 16.5642 73.4703 16.6607 73.4718H27.9866C28.179 73.4725 28.3635 73.5489 28.5 73.6844C28.5713 73.7517 28.6276 73.8332 28.6654 73.9237C28.7031 74.0142 28.7214 74.1116 28.7191 74.2095C28.7195 74.3036 28.7002 74.3966 28.6624 74.4827C28.6247 74.5689 28.5694 74.6462 28.5 74.7097C28.4332 74.7779 28.3533 74.8319 28.2651 74.8685C28.1768 74.905 28.0821 74.9233 27.9866 74.9223H25.2318C26.1196 75.6465 26.7317 76.6528 26.9661 77.7734C27.053 78.21 27.0992 78.6537 27.1038 79.0988C27.1038 81.7498 25.8621 83.7297 23.3786 85.0385C24.4672 85.6104 25.4295 86.395 26.2085 87.3456C26.8234 88.132 27.3114 89.0096 27.6548 89.9466Z" fill="#016CA7"/>
<path d="M45.7163 89.8521L45.4784 89.6708C44.4329 89.1081 43.763 88.0389 43.4562 86.4634C43.3837 86.0504 43.346 85.6321 43.3435 85.2129C43.355 84.5757 43.4604 83.9437 43.6565 83.3372C43.8481 82.7038 44.1307 82.1014 44.4955 81.549C44.6936 81.2136 44.9311 80.903 45.203 80.6237C42.8562 79.92 40.7473 78.5881 39.1049 76.7723L37.9153 81.0989H38.172C38.5075 81.0891 38.8402 81.0344 39.1612 80.9363C39.4975 80.819 39.8049 80.6315 40.0628 80.3861C40.1707 80.273 40.2927 80.1742 40.4259 80.0923C40.6808 79.9392 40.9738 79.8612 41.2711 79.8672C41.74 79.8722 42.1887 80.0582 42.5233 80.3861C42.7854 80.6678 42.9462 81.0285 42.9804 81.4115C43.0175 81.7207 43.0363 82.0317 43.0367 82.3431C43.0273 82.8664 42.9686 83.3876 42.8614 83.8999C42.7632 84.4122 42.625 84.916 42.4482 85.4067C42.2969 85.9329 42.0869 86.4404 41.8221 86.9198C41.3477 87.7686 40.6613 88.4803 39.8296 88.9855C38.9979 89.4906 38.0493 89.7719 37.0764 89.8021H36.8572C36.2445 89.8257 35.6314 89.7647 35.0353 89.6208C33.248 89.1973 31.6491 88.2002 30.4837 86.7822C29.2686 85.2548 28.6442 83.3419 28.7244 81.3927V81.1927L28.8684 81.6491C28.9811 81.993 29.1063 82.3243 29.2378 82.6557C29.7609 84.0962 30.7081 85.3451 31.955 86.2383C33.1267 87.0387 34.5174 87.458 35.9369 87.4387C36.2733 87.4391 36.6089 87.4055 36.9386 87.3387C37.3218 87.2509 37.685 87.0918 38.0092 86.8698C38.6018 86.4509 39.071 85.8808 39.3678 85.2191C39.6227 84.7593 39.8144 84.2671 39.9376 83.7561C39.8186 83.8061 39.5494 83.8937 39.1299 84.0312C38.2786 84.3255 37.3882 84.492 36.4878 84.5251H36.1372C35.8376 84.4965 35.543 84.4293 35.2607 84.3251C34.9032 84.2314 34.5867 84.0226 34.3603 83.7309C34.1339 83.4392 34.0102 83.081 34.0085 82.712C34.0081 82.5013 34.0333 82.2913 34.0837 82.0867L35.7178 74.9591H27.8353C27.7399 74.9598 27.6452 74.9413 27.5571 74.9048C27.4689 74.8683 27.3889 74.8145 27.3219 74.7466C27.2525 74.6785 27.1973 74.5972 27.1596 74.5076C27.1219 74.4179 27.1025 74.3217 27.1025 74.2245C27.1025 74.1273 27.1219 74.031 27.1596 73.9414C27.1973 73.8518 27.2525 73.7705 27.3219 73.7024C27.4588 73.5675 27.643 73.4913 27.8353 73.4898H49.9737C50.0702 73.4883 50.166 73.5064 50.2554 73.5429C50.3447 73.5795 50.4257 73.6337 50.4934 73.7024C50.5935 73.8059 50.6612 73.9363 50.688 74.0776C50.7149 74.219 50.6998 74.3651 50.6446 74.498C50.5893 74.6309 50.4964 74.7447 50.3772 74.8256C50.258 74.9064 50.1178 74.9506 49.9737 74.9529H42.4106C42.9857 75.6365 43.6818 76.2087 44.4642 76.641C45.2787 77.0614 46.1146 77.4391 46.9685 77.7727L47.1501 77.8477C47.4513 77.9629 47.7459 78.0944 48.0329 78.2416C48.1867 78.3225 48.3246 78.4305 48.4398 78.5604C48.8193 79.0048 49.026 79.5708 49.0221 80.1548C49.044 80.5599 48.9146 80.9587 48.6589 81.274C48.4613 81.4949 48.2385 81.6921 47.9953 81.8617C47.3581 82.3096 46.8139 82.8765 46.3925 83.531C45.7286 84.5446 45.3362 85.7114 45.253 86.9198C45.253 87.2636 45.2217 87.545 45.2217 87.7638C45.2156 87.9353 45.226 88.107 45.253 88.2765C45.3206 88.8234 45.4771 89.3556 45.7163 89.8521Z" fill="#016CA7"/>
<path d="M52.2838 89.9836C51.8957 87.6828 51.4783 85.3799 51.0317 83.0748C50.7896 80.874 50.6352 78.1647 50.5684 74.9469H48.7339C48.5886 74.9475 48.4463 74.905 48.3252 74.8247C48.2041 74.7443 48.1097 74.6298 48.054 74.4957C47.9983 74.3617 47.9838 74.214 48.0123 74.0717C48.0409 73.9294 48.1112 73.7987 48.2143 73.6964C48.2795 73.6236 48.3597 73.5658 48.4494 73.5269C48.5391 73.488 48.6362 73.4691 48.7339 73.4713H49.911L49.3788 72.521C48.8487 71.5686 48.4646 70.5422 48.2393 69.4761C48.1437 68.9943 48.0955 68.5043 48.0953 68.0131C48.0961 67.4135 48.1633 66.8159 48.2957 66.2311C48.4566 65.2732 48.9 64.3849 49.5692 63.6799C50.2384 62.9749 51.1029 62.4852 52.0522 62.2735C52.4442 62.1813 52.8453 62.133 53.248 62.1296C53.6003 62.1292 53.9514 62.1712 54.2936 62.2547C54.6662 62.3531 55.0257 62.4958 55.3642 62.6798C55.9801 63.0058 56.5116 63.4702 56.9169 64.0366C57.0776 64.2679 57.218 64.5126 57.3364 64.7681C58.0099 64.2299 58.7947 63.8476 59.6341 63.649C59.9135 63.5727 60.2021 63.5348 60.4918 63.5364C60.978 63.543 61.4608 63.6188 61.9256 63.7615C62.5632 63.953 63.1269 64.3348 63.5409 64.8556C64.0508 65.572 64.3144 66.4342 64.2922 67.3128C64.2718 68.2645 64.0341 69.199 63.5972 70.0451C63.1072 71.0272 62.324 71.8333 61.3558 72.3522C60.7353 72.6714 60.0553 72.8587 59.3586 72.9024H59.3023C59.9698 72.6596 60.5719 72.2659 61.0616 71.7519C61.5139 71.2639 61.8745 70.6984 62.1259 70.0826C62.2778 69.7278 62.3952 69.3593 62.4765 68.9822C62.5289 68.7779 62.5541 68.5677 62.5516 68.3569C62.5497 67.8749 62.4361 67.3999 62.2198 66.9689C62.0804 66.7013 61.8618 66.483 61.5937 66.3437C61.4263 66.2603 61.2423 66.2154 61.0553 66.2124C60.869 66.2115 60.6836 66.2367 60.5043 66.2874C59.9944 66.4839 59.5237 66.7697 59.1144 67.1315C58.839 67.3297 58.5813 67.5514 58.3444 67.7942L57.8623 68.2131C57.5169 68.5264 57.0756 68.7137 56.6101 68.7446C55.9381 68.7446 55.3746 68.2194 54.9197 67.169L54.6818 66.6563C54.5655 66.3745 54.3725 66.1308 54.1246 65.9529C53.8767 65.7749 53.5839 65.6699 53.2793 65.6497C52.9191 65.6492 52.5697 65.7729 52.2901 65.9998L52.1837 66.1311C51.9129 66.4515 51.7449 66.8458 51.7016 67.2628V67.4316C51.7016 68.6279 52.6386 70.6307 54.5127 73.4401H55.5207C55.6193 73.4385 55.7171 73.4578 55.8077 73.4966C55.8983 73.5354 55.9797 73.5928 56.0466 73.6651C56.1501 73.7678 56.2206 73.8991 56.249 74.042C56.2773 74.1849 56.2623 74.3331 56.2058 74.4674C56.1493 74.6018 56.0539 74.7162 55.9318 74.796C55.8098 74.8759 55.6666 74.9175 55.5207 74.9156H54.2685C54.2685 76.0785 54.2247 77.3853 54.1371 78.8358C53.9297 82.6083 53.3083 86.3466 52.2838 89.9836Z" fill="#E25A6F"/>
<path d="M65.2261 89.8524C64.8087 87.8267 64.3913 85.6467 63.9739 83.3125C63.9591 83.0359 63.8863 82.7655 63.7601 82.5189C63.6339 82.2722 63.4572 82.0548 63.2414 81.8808C62.8464 81.5508 62.4279 81.2499 61.9892 80.9804C61.7313 80.8331 61.441 80.7515 61.144 80.7428C60.7722 80.7357 60.4092 80.8559 60.1153 81.0834C59.8215 81.3109 59.6144 81.632 59.5287 81.9933C59.4689 82.1815 59.4373 82.3774 59.4348 82.5748C59.4399 82.8728 59.529 83.1634 59.6917 83.4133C59.8545 83.6632 60.0844 83.8623 60.3551 83.9878C60.5576 84.0876 60.7668 84.1733 60.9812 84.2441C61.1984 84.323 61.4079 84.4214 61.6073 84.538C61.8837 84.6914 62.1155 84.9137 62.2801 85.1833C62.4447 85.4529 62.5364 85.7605 62.5464 86.0761C62.5428 86.3454 62.4919 86.612 62.3962 86.8638C62.2601 87.2237 62.0165 87.5331 61.6985 87.75C61.3804 87.967 61.0033 88.0811 60.6181 88.0768C60.4774 88.0764 60.3371 88.0639 60.1986 88.0393C59.4531 87.8852 58.7472 87.5798 58.1247 87.1421C57.5022 86.7043 56.9764 86.1436 56.5798 85.4946C56.088 84.6816 55.8282 83.7497 55.8285 82.7998C55.8321 82.2427 55.9058 81.6881 56.0477 81.1492C56.2605 80.375 56.6557 79.6629 57.2003 79.0723C57.7448 78.4817 58.423 78.0298 59.1781 77.7543C59.6895 77.5664 60.2297 77.469 60.7746 77.4666C61.8051 77.4843 62.8055 77.8159 63.6421 78.417C63.592 77.1978 63.5544 76.0474 63.5294 74.972H54.927C54.8315 74.973 54.7367 74.9547 54.6485 74.9181C54.5603 74.8816 54.4804 74.8276 54.4136 74.7594C54.3428 74.693 54.2867 74.6125 54.2489 74.5231C54.2112 74.4337 54.1926 74.3375 54.1945 74.2405C54.1945 74.1437 54.2139 74.048 54.2515 73.9589C54.2892 73.8698 54.3443 73.7891 54.4136 73.7215C54.48 73.6525 54.5598 73.5975 54.648 73.5599C54.7362 73.5223 54.8311 73.5028 54.927 73.5027H68.2689C68.4633 73.5074 68.6484 73.5867 68.786 73.724C68.9235 73.8614 69.0029 74.0463 69.0076 74.2405C69.0099 74.3381 68.9909 74.435 68.952 74.5246C68.9131 74.6142 68.8552 74.6943 68.7822 74.7594C68.7159 74.8282 68.6361 74.8826 68.5478 74.9192C68.4594 74.9558 68.3645 74.9737 68.2689 74.972H67.1544C67.1544 76.1224 67.1106 77.4166 67.0229 78.8547C66.8177 82.574 66.2154 86.2608 65.2261 89.8524Z" fill="#E25A6F"/>
<path d="M78.2357 89.8527C77.6841 89.8199 77.1604 89.5992 76.7519 89.2275L69.7961 83.838C69.5202 83.6503 69.2907 83.4026 69.1248 83.1134C68.9588 82.8242 68.8608 82.5012 68.8382 82.1686C68.8793 81.5497 69.1493 80.9681 69.5957 80.5368L74.8048 74.966H67.755C67.6586 74.9668 67.563 74.9485 67.4737 74.912C67.3845 74.8755 67.3034 74.8217 67.2352 74.7536C67.167 74.6855 67.1131 74.6045 67.0766 74.5154C67.0401 74.4263 67.0217 74.3308 67.0225 74.2345C67.0214 74.1381 67.0396 74.0426 67.0762 73.9534C67.1128 73.8643 67.1669 73.7834 67.2354 73.7155C67.3019 73.6448 67.3825 73.5888 67.472 73.5511C67.5615 73.5134 67.6579 73.4949 67.755 73.4967H86.644C86.742 73.4955 86.8392 73.5143 86.9296 73.552C87.02 73.5896 87.1018 73.6452 87.17 73.7155C87.3043 73.8548 87.3784 74.0411 87.3766 74.2345C87.3791 74.3312 87.362 74.4275 87.3261 74.5174C87.2902 74.6074 87.2363 74.689 87.1678 74.7575C87.0992 74.8259 87.0174 74.8797 86.9274 74.9156C86.8374 74.9514 86.7409 74.9686 86.644 74.966H82.036C82.8945 75.2783 83.651 75.8192 84.2237 76.53C84.7965 77.2408 85.1636 78.0945 85.2854 78.9987C85.3465 79.3245 85.378 79.6551 85.3793 79.9866C85.3694 80.8117 85.1584 81.6221 84.7646 82.3476C84.3708 83.073 83.8061 83.6919 83.1192 84.1506C82.7896 84.4134 82.3826 84.5606 81.9609 84.5695L81.4851 84.5258C81.131 84.4283 80.8241 84.2063 80.6211 83.9005C80.3655 83.5903 80.224 83.2019 80.2204 82.8001C80.2204 82.7251 80.2204 82.55 80.2642 82.2874C80.3081 82.0248 80.5272 81.731 80.9529 81.4246C81.2693 81.2411 81.5353 80.9825 81.7276 80.6716C81.9198 80.3608 82.0322 80.0074 82.0548 79.6427C82.0364 78.9613 81.7994 78.3038 81.3787 77.767C80.8589 77.0308 80.1889 76.4128 79.4128 75.9539L79.7947 88.0896C79.7949 88.3866 79.7591 88.6826 79.6882 88.9711C79.6274 89.1488 79.5287 89.3113 79.399 89.4473C79.2693 89.5833 79.1117 89.6896 78.9369 89.7589C78.7107 89.832 78.4732 89.8638 78.2357 89.8527ZM76.8395 85.0885C76.9147 84.2215 76.9961 83.3878 77.0837 82.5875C77.2423 80.9744 77.3696 79.4176 77.4656 77.9171L73.1707 82.1124L76.8395 85.0885Z" fill="#E25A6F"/>
<path d="M88.9667 89.9839L87.7146 83.0751C87.4725 80.8492 87.3201 78.1399 87.2575 74.9471H86.1368C86.0413 74.9481 85.9466 74.9298 85.8584 74.8932C85.7701 74.8567 85.6902 74.8027 85.6234 74.7345C85.5527 74.6684 85.4964 74.5885 85.4578 74.4998C85.4193 74.4111 85.3994 74.3154 85.3994 74.2187C85.3994 74.122 85.4193 74.0263 85.4578 73.9376C85.4964 73.8488 85.5527 73.769 85.6234 73.7029C85.6887 73.6318 85.768 73.5751 85.8564 73.5363C85.9448 73.4976 86.0403 73.4776 86.1368 73.4778H92.1911C92.2876 73.4776 92.3831 73.4976 92.4715 73.5363C92.5599 73.5751 92.6392 73.6318 92.7045 73.7029C92.7736 73.7699 92.8285 73.8501 92.866 73.9387C92.9035 74.0273 92.9229 74.1225 92.9229 74.2187C92.9229 74.3149 92.9035 74.4101 92.866 74.4987C92.8285 74.5873 92.7736 74.6675 92.7045 74.7345C92.6377 74.8027 92.5578 74.8567 92.4695 74.8932C92.3813 74.9298 92.2866 74.9481 92.1911 74.9471H90.9076C90.8979 77.6648 90.7202 80.3793 90.3754 83.0751C90.0498 85.4049 89.5793 87.7123 88.9667 89.9839Z" fill="#E25A6F"/>
<path d="M102.941 89.9463C102.428 89.5274 101.864 89.121 101.251 88.6958C99.9514 87.8379 98.5615 87.1251 97.1062 86.57L93.7441 85.3196C93.3955 85.1687 93.1147 84.895 92.9552 84.5506C92.9313 84.4608 92.9186 84.3684 92.9177 84.2755V83.9441C92.9615 83.2626 93.4248 82.8624 94.2888 82.7561L95.0777 82.6624C95.5983 82.6324 96.1156 82.5592 96.6241 82.4435C97.3335 82.2345 97.936 81.7625 98.3083 81.1243C98.7883 80.378 99.0446 79.5103 99.0471 78.6234C99.0471 78.4983 99.0471 78.3233 99.0095 78.0857C98.9581 77.8018 98.7988 77.5486 98.565 77.3792C98.3363 77.1959 98.0505 77.0985 97.7573 77.1041C97.511 77.101 97.2693 77.1706 97.0624 77.3041C96.9134 77.4057 96.7928 77.5434 96.7118 77.7043C96.5433 78.0667 96.4557 78.4614 96.4551 78.861C96.4414 79.0454 96.4184 79.229 96.3862 79.4112C96.3186 79.8379 96.0949 80.2244 95.7583 80.4959C95.4217 80.7673 94.9963 80.9043 94.5643 80.8805H94.4578C94.0169 80.8403 93.6023 80.6531 93.2808 80.349C93.1154 80.1758 92.9877 79.9703 92.9058 79.7454C92.8239 79.5205 92.7896 79.2811 92.805 79.0423C92.8108 78.3449 92.8969 77.6505 93.0617 76.9728C93.2406 76.2375 93.6073 75.5611 94.126 75.0095L94.2199 74.9033H91.941C91.8443 74.9063 91.748 74.8889 91.6585 74.8523C91.5689 74.8156 91.4881 74.7606 91.4213 74.6907C91.3528 74.6268 91.2984 74.5493 91.2617 74.4631C91.2251 74.377 91.2069 74.2841 91.2085 74.1905C91.2049 74.0929 91.2221 73.9957 91.2588 73.9052C91.2955 73.8147 91.3509 73.733 91.4213 73.6653C91.4891 73.5966 91.57 73.5424 91.6594 73.5058C91.7487 73.4693 91.8445 73.4512 91.941 73.4527H103.267C103.459 73.4535 103.644 73.5299 103.78 73.6653C103.853 73.7317 103.91 73.813 103.948 73.9037C103.986 73.9944 104.003 74.0923 103.999 74.1905C104.003 74.285 103.985 74.3791 103.947 74.4657C103.909 74.5524 103.852 74.6293 103.78 74.6907C103.713 74.7589 103.634 74.8129 103.545 74.8494C103.457 74.886 103.362 74.9043 103.267 74.9033H100.512C101.4 75.6274 102.012 76.6338 102.246 77.7543C102.333 78.1909 102.379 78.6347 102.384 79.0798C102.384 81.7308 101.132 83.7107 98.6276 85.0195C99.7161 85.5914 100.679 86.376 101.457 87.3266C102.087 88.1162 102.588 89.0004 102.941 89.9463Z" fill="#E25A6F"/>
</svg>
