<svg width="88" height="94" viewBox="0 0 88 94" fill="none" xmlns="http://www.w3.org/2000/svg">
<path d="M36.267 22.9586C38.211 25.1044 39.9423 27.4326 41.4366 29.9105C41.5757 30.1032 41.6607 30.3293 41.6829 30.5657C41.705 30.802 41.6635 31.0399 41.5626 31.2549C40.5556 33.6758 39.8676 36.2165 39.5157 38.8136C39.2061 41.2042 39.1588 43.5895 39.9356 45.9172C40.4604 47.4394 41.2477 48.7576 42.8064 49.4167C43.983 49.8622 45.2738 49.9099 46.4803 49.5527C49.4246 48.8518 51.9229 47.2877 54.2636 45.4569C58.3474 42.2086 61.8106 38.2536 64.4875 33.7814C66.5724 30.4498 68.1749 26.8414 69.2477 23.0632C70.0925 20.2474 70.3812 17.2949 70.098 14.3694C69.9913 12.7445 69.3991 11.1887 68.3975 9.9022C67.8775 9.26747 67.1937 8.78598 66.4197 8.50949C65.6457 8.233 64.8108 8.17195 64.0046 8.33292C61.1757 8.72524 58.8035 10.1062 56.5309 11.7016C54.0056 13.5056 51.7139 15.614 49.708 17.9788C49.594 18.1295 49.4888 18.2867 49.3931 18.4496C48.9785 17.9892 48.6479 17.6178 48.3067 17.2464C44.0608 12.5752 39.2848 8.56308 33.6428 5.64945C31.0178 4.26212 28.1802 3.31821 25.2454 2.85612C22.0463 2.3333 18.7659 2.64691 15.7248 3.76631C12.4249 5.0194 9.49272 7.07681 7.19623 9.7505C7.0945 9.85013 6.98764 9.94441 6.87608 10.033L6.73438 9.91789C7.36943 8.91355 7.95725 7.87783 8.65004 6.91534C10.8541 3.7211 14.1609 1.44748 17.9397 0.528356C19.8998 0.0666666 21.9192 -0.0938588 23.928 0.0523384C28.7565 0.350502 33.2387 1.85701 37.5738 3.85C40.7928 5.29551 43.8709 7.03435 46.769 9.04433C46.8136 9.08783 46.867 9.12149 46.9256 9.14314C46.9841 9.16478 47.0466 9.17393 47.1089 9.16999C47.1713 9.16604 47.2321 9.14909 47.2874 9.12024C47.3428 9.09138 47.3914 9.05126 47.4303 9.00248C49.45 7.16376 51.6476 5.52895 53.9907 4.12201C57.1639 2.13377 60.7106 0.811298 64.414 0.235421C67.4585 -0.25517 70.5807 0.180522 73.373 1.48562C75.4711 2.49407 77.2038 4.12607 78.3327 6.15685C79.689 8.63965 80.3982 11.4221 80.3953 14.2491C80.4398 17.8015 79.8936 21.3366 78.7788 24.711C77.0551 30.0653 74.49 35.1131 71.1791 39.6663C68.9299 42.8349 66.3432 45.7516 63.464 48.3653C60.418 51.1974 56.9518 53.5441 53.1877 55.3225C50.9744 56.3616 48.6184 57.0668 46.1969 57.4148C43.4989 57.8393 40.7363 57.547 38.1879 56.5674C35.5252 55.5402 33.3366 53.5695 32.042 51.0331C31.0958 49.1573 30.5152 47.1195 30.3311 45.028C30.0369 41.6995 30.3354 38.3454 31.2128 35.1206C32.2876 30.9397 33.9278 26.9239 36.0885 23.1836C36.1672 23.1051 36.204 23.058 36.267 22.9586Z" fill="#DCDCDC"/>
<path d="M47.5775 47.131C48.5589 44.5835 48.433 42.0674 47.9134 39.5252C47.0107 35.1155 45.074 31.1557 42.623 27.4417C40.7321 24.5569 38.5112 21.9009 36.0048 19.5273C33.2016 16.7509 29.9105 14.5115 26.2953 12.9206C24.9274 12.3301 23.4684 11.9764 21.9812 11.8744C19.6037 11.7436 17.7825 13.1769 17.1842 15.6773C16.7621 17.5197 16.73 19.4295 17.0897 21.2849C18.0029 26.5995 20.3699 31.2812 23.5295 35.5811C24.8048 37.3177 26.2586 38.9184 27.6494 40.5661C27.7596 40.6845 27.8447 40.8238 27.8997 40.9757C27.9547 41.1276 27.9785 41.2889 27.9696 41.4502C27.8062 44.6312 28.4907 47.7986 29.9535 50.6305C30.9749 52.7247 32.446 54.5695 34.2624 56.034C36.4866 57.7719 39.1798 58.8099 41.9985 59.0157C45.814 59.3661 49.4617 58.6024 53.0201 57.3993C57.1282 55.9564 61.0737 54.0892 64.7922 51.8284C64.9181 51.7551 65.0441 51.6923 65.17 51.6296L65.254 51.7342C64.8079 52.1527 64.3723 52.5816 63.9104 52.9844C61.3423 55.2663 58.544 57.277 55.5603 58.9843C52.7702 60.6113 49.7447 61.7988 46.5908 62.5047C44.7204 62.8875 42.8068 63.0177 40.9016 62.8918C38.3394 62.7431 35.8503 61.9843 33.6431 60.6791C31.4777 59.3774 29.5532 57.7142 27.9538 55.762C25.533 52.7846 23.5062 49.5094 21.9235 46.0168C21.5154 45.3226 21.0119 44.6888 20.4277 44.1336C16.0207 39.3903 12.5614 33.853 10.2353 27.8183C9.2887 25.3728 8.65906 22.8169 8.36166 20.2125C8.05936 17.804 8.23773 15.3596 8.8865 13.02C9.37561 11.1727 10.3299 9.48047 11.6589 8.10368C12.988 6.72688 14.6477 5.71113 16.4809 5.15266C19.5879 4.10647 22.7422 4.24771 25.8912 4.98527C29.6147 5.92697 33.1405 7.52107 36.304 9.69312C40.3118 12.3495 43.9173 15.5643 47.0107 19.2396C49.2768 21.8772 51.2839 24.7254 53.0043 27.7451C54.8191 30.8945 56.2163 34.2652 57.161 37.7728C57.274 38.1767 57.3617 38.5873 57.4234 39.0021C57.4477 39.1997 57.3972 39.3993 57.2817 39.5618C55.0587 42.1662 52.4373 44.4046 49.5141 46.1946C48.9631 46.5242 48.3752 46.8014 47.8032 47.0996C47.729 47.1166 47.6535 47.1271 47.5775 47.131Z" fill="#F0F0F0"/>
<path d="M11.5519 94C11.4154 93.3357 11.2947 92.6661 11.1793 91.9913L10.8434 90.1239C10.8101 89.9264 10.7369 89.7377 10.6282 89.5694L10.4917 89.3549C10.3521 89.183 10.2032 89.0189 10.0456 88.8632C9.73972 88.5759 9.39743 88.3297 9.02743 88.1309C8.93061 88.4755 8.79688 88.8087 8.62855 89.1247C8.38255 89.5679 8.07118 89.9717 7.70484 90.3226C7.17232 90.8336 6.52965 91.2165 5.82592 91.4421C5.56603 91.5233 5.29888 91.5794 5.02817 91.6094C4.84347 91.6303 4.65773 91.6408 4.47184 91.6408C3.10727 91.6408 2.03135 90.9207 1.24409 89.4805L1.76893 89.8152C2.2835 90.1606 2.88602 90.3529 3.50614 90.3697C3.86098 90.3444 4.21252 90.2848 4.55582 90.1919C5.04917 90.0715 5.53726 89.606 6.03061 88.79C6.24028 88.4287 6.38587 88.0341 6.46098 87.6235L6.49247 87.3776C6.49247 87.2625 6.49247 87.1265 6.49247 86.9644C6.49026 86.5622 6.44983 86.1611 6.37175 85.7665C6.13742 85.0029 5.75592 84.2922 5.2486 83.6741C4.55367 82.8015 3.75137 82.0194 2.86059 81.3463H0.614291C0.534268 81.3469 0.454949 81.3314 0.381027 81.3009C0.307104 81.2703 0.24008 81.2253 0.183924 81.1685C0.125686 81.1115 0.079426 81.0435 0.0478461 80.9685C0.0162661 80.8936 0 80.813 0 80.7317C0 80.6504 0.0162661 80.5698 0.0478461 80.4949C0.079426 80.4199 0.125686 80.3519 0.183924 80.2949C0.298685 80.1821 0.453077 80.1183 0.614291 80.1171H14.1236C14.2849 80.1177 14.4395 80.1816 14.554 80.2949C14.6122 80.3519 14.6585 80.4199 14.69 80.4949C14.7216 80.5698 14.7379 80.6504 14.7379 80.7317C14.7379 80.813 14.7216 80.8936 14.69 80.9685C14.6585 81.0435 14.6122 81.1115 14.554 81.1685C14.498 81.2255 14.431 81.2707 14.357 81.3013C14.2831 81.3319 14.2037 81.3472 14.1236 81.3463H13.1736C13.1596 83.6017 13.0194 85.8545 12.7538 88.0943C12.7503 88.1025 12.7485 88.1114 12.7485 88.1204C12.7485 88.1294 12.7503 88.1383 12.7538 88.1466C12.7556 88.1797 12.7556 88.2128 12.7538 88.2459C12.4727 90.1868 12.0713 92.1085 11.5519 94ZM10.287 85.6619C10.1978 84.124 10.1401 82.6907 10.1191 81.3516H7.4949C8.16917 82.2468 8.65639 83.2678 8.92771 84.3541C8.97495 84.532 9.02743 84.7412 9.07991 84.9871C9.49737 85.1841 9.9007 85.4095 10.287 85.6619Z" fill="#F0F0F0"/>
<path d="M23.1831 93.8952C22.7528 93.5448 22.2804 93.2047 21.7661 92.849C20.6767 92.1313 19.5116 91.5349 18.2916 91.0705L15.4733 90.0243C15.181 89.8981 14.9456 89.6691 14.812 89.3809C14.7919 89.3058 14.7813 89.2285 14.7805 89.1508V88.8735C14.8172 88.3034 15.2056 87.9686 15.9299 87.8797L16.5912 87.8012C17.0276 87.7761 17.4612 87.7149 17.8875 87.6181C18.4822 87.4432 18.9872 87.0483 19.2993 86.5144C19.7017 85.89 19.9166 85.164 19.9186 84.422C19.9186 84.3174 19.9186 84.1709 19.8871 83.9721C19.844 83.7346 19.7105 83.5228 19.5145 83.381C19.3228 83.2277 19.0832 83.1462 18.8375 83.1509C18.631 83.1484 18.4283 83.2066 18.2549 83.3183C18.13 83.4032 18.0289 83.5184 17.961 83.6531C17.8197 83.9563 17.7463 84.2865 17.7458 84.6208C17.7343 84.7751 17.7151 84.9287 17.6881 85.0811C17.6314 85.4381 17.4439 85.7615 17.1617 85.9886C16.8796 86.2157 16.5229 86.3304 16.1608 86.3104H16.0716C15.7019 86.2768 15.3544 86.1201 15.0849 85.8657C14.9462 85.7209 14.8392 85.5489 14.7705 85.3608C14.7019 85.1726 14.6731 84.9723 14.686 84.7725C14.6909 84.189 14.7631 83.608 14.9012 83.041C15.0552 82.4309 15.3642 81.8706 15.7987 81.4142L15.8774 81.3253H13.967C13.8859 81.3278 13.8052 81.3133 13.7302 81.2826C13.6551 81.252 13.5874 81.2059 13.5314 81.1474C13.4739 81.094 13.4283 81.0292 13.3976 80.9571C13.3668 80.885 13.3516 80.8073 13.3529 80.729C13.35 80.6473 13.3644 80.566 13.3951 80.4903C13.4259 80.4146 13.4723 80.3462 13.5314 80.2896C13.5881 80.2321 13.656 80.1867 13.7309 80.1561C13.8058 80.1256 13.8861 80.1105 13.967 80.1117H23.4613C23.6226 80.1123 23.7772 80.1762 23.8916 80.2896C23.9514 80.3459 23.9986 80.4141 24.0303 80.4898C24.0619 80.5655 24.0773 80.647 24.0753 80.729C24.0756 80.8076 24.0595 80.8855 24.0278 80.9575C23.9962 81.0296 23.9498 81.0943 23.8916 81.1474C23.8357 81.2045 23.7687 81.2497 23.6947 81.2802C23.6208 81.3108 23.5413 81.3261 23.4613 81.3253H21.152C21.8962 81.9312 22.4093 82.7731 22.6058 83.7106C22.6787 84.0759 22.7174 84.4471 22.7213 84.8196C22.7213 87.0375 21.6803 88.6939 19.5985 89.789C20.511 90.2674 21.3177 90.9238 21.9707 91.7192C22.4862 92.3771 22.8953 93.1113 23.1831 93.8952Z" fill="#F0F0F0"/>
<path d="M38.3243 93.8174L38.1249 93.6657C37.2484 93.1949 36.6869 92.3004 36.4297 90.9822C36.3689 90.6367 36.3373 90.2868 36.3352 89.936C36.3448 89.4029 36.4333 88.8741 36.5976 88.3667C36.7582 87.8368 36.9951 87.3328 37.3009 86.8707C37.467 86.59 37.6661 86.3301 37.894 86.0965C35.9268 85.5078 34.1589 84.3934 32.7821 82.8742L31.7849 86.4941H32.0001C32.2813 86.4859 32.5602 86.4401 32.8293 86.3581C33.1112 86.2599 33.3689 86.103 33.5851 85.8977C33.6755 85.8031 33.7778 85.7205 33.8895 85.6519C34.1031 85.5238 34.3487 85.4585 34.598 85.4636C34.991 85.4678 35.3672 85.6234 35.6477 85.8977C35.8674 86.1334 36.0022 86.4352 36.0308 86.7556C36.0619 87.0143 36.0777 87.2745 36.078 87.535C36.0702 87.9728 36.021 88.4089 35.9311 88.8375C35.8488 89.2661 35.733 89.6876 35.5847 90.0982C35.4579 90.5384 35.2819 90.963 35.0599 91.3641C34.6622 92.0743 34.0868 92.6697 33.3896 93.0923C32.6924 93.5149 31.8972 93.7503 31.0816 93.7755H30.8979C30.3842 93.7953 29.8703 93.7442 29.3706 93.6238C27.8724 93.2695 26.532 92.4353 25.5551 91.249C24.5365 89.971 24.013 88.3706 24.0803 86.7399V86.5725L24.201 86.9544C24.2954 87.2421 24.4004 87.5193 24.5106 87.7966C24.9492 89.0018 25.7432 90.0466 26.7884 90.7939C27.7706 91.4636 28.9365 91.8143 30.1264 91.7982C30.4084 91.7985 30.6897 91.7705 30.9661 91.7145C31.2873 91.6411 31.5918 91.508 31.8636 91.3222C32.3604 90.9718 32.7537 90.4948 33.0025 89.9412C33.2162 89.5565 33.3768 89.1448 33.4801 88.7172C33.3804 88.7591 33.1547 88.8323 32.8031 88.9474C32.0894 89.1936 31.343 89.3329 30.5882 89.3606H30.2943C30.0432 89.3367 29.7962 89.2804 29.5596 89.1932C29.2599 89.1149 28.9946 88.9401 28.8048 88.6961C28.615 88.4521 28.5113 88.1524 28.5099 87.8436C28.5095 87.6674 28.5306 87.4917 28.5729 87.3205L29.9427 81.3573H23.335C23.255 81.3578 23.1756 81.3424 23.1017 81.3118C23.0278 81.2813 22.9608 81.2362 22.9046 81.1794C22.8464 81.1225 22.8001 81.0545 22.7685 80.9795C22.737 80.9045 22.7207 80.824 22.7207 80.7426C22.7207 80.6613 22.737 80.5808 22.7685 80.5058C22.8001 80.4308 22.8464 80.3628 22.9046 80.3059C23.0194 80.193 23.1738 80.1292 23.335 80.128H41.8932C41.9741 80.1267 42.0545 80.1419 42.1293 80.1724C42.2042 80.203 42.2721 80.2484 42.3289 80.3059C42.4128 80.3924 42.4695 80.5015 42.492 80.6198C42.5146 80.738 42.5019 80.8603 42.4556 80.9715C42.4093 81.0826 42.3314 81.1779 42.2315 81.2455C42.1316 81.3131 42.014 81.3502 41.8932 81.352H35.5532C36.0353 81.924 36.6188 82.4028 37.2747 82.7644C37.9575 83.1161 38.6582 83.4322 39.374 83.7112L39.5262 83.774C39.7787 83.8704 40.0257 83.9804 40.2662 84.1035C40.3952 84.1712 40.5108 84.2616 40.6074 84.3703C40.9255 84.7421 41.0987 85.2156 41.0955 85.7042C41.1138 86.0431 41.0054 86.3768 40.7911 86.6405C40.6254 86.8253 40.4387 86.9903 40.2348 87.1322C39.7006 87.507 39.2444 87.9813 38.8912 88.5289C38.3346 89.3769 38.0057 90.3531 37.936 91.3641C37.936 91.6518 37.9097 91.8872 37.9097 92.0702C37.9046 92.2137 37.9133 92.3574 37.936 92.4992C37.9926 92.9567 38.1238 93.402 38.3243 93.8174Z" fill="#F0F0F0"/>
<path d="M43.829 93.9268C43.5036 92.0018 43.1538 90.0751 42.7794 88.1466C42.5764 86.3053 42.447 84.0386 42.391 81.3464H40.8532C40.7314 81.3469 40.6121 81.3114 40.5106 81.2441C40.4091 81.1769 40.3299 81.0811 40.2832 80.969C40.2365 80.8568 40.2244 80.7333 40.2483 80.6142C40.2722 80.4951 40.3312 80.3858 40.4176 80.3002C40.4722 80.2393 40.5395 80.1909 40.6147 80.1584C40.6899 80.1259 40.7713 80.11 40.8532 80.1119H41.8399L41.3938 79.3168C40.9494 78.52 40.6274 77.6613 40.4386 76.7693C40.3585 76.3662 40.318 75.9562 40.3179 75.5453C40.3185 75.0437 40.3749 74.5437 40.4858 74.0545C40.6207 73.253 40.9924 72.5098 41.5534 71.9199C42.1143 71.3301 42.839 70.9204 43.6349 70.7433C43.9635 70.6661 44.2997 70.6258 44.6373 70.623C44.9326 70.6226 45.2269 70.6577 45.5138 70.7276C45.8261 70.8099 46.1275 70.9293 46.4112 71.0833C46.9275 71.356 47.3731 71.7446 47.7128 72.2184C47.8476 72.4119 47.9652 72.6167 48.0645 72.8304C48.6291 72.3801 49.287 72.0603 49.9906 71.8941C50.2249 71.8303 50.4668 71.7986 50.7097 71.7999C51.1172 71.8054 51.5219 71.8688 51.9115 71.9882C52.4461 72.1485 52.9186 72.4679 53.2656 72.9036C53.6931 73.503 53.914 74.2243 53.8954 74.9594C53.8784 75.7557 53.6791 76.5375 53.3129 77.2453C52.902 78.067 52.2456 78.7414 51.4339 79.1756C50.9138 79.4426 50.3437 79.5993 49.7597 79.6359H49.7125C50.272 79.4328 50.7768 79.1034 51.1873 78.6734C51.5665 78.265 51.8687 77.7919 52.0795 77.2767C52.2068 76.9799 52.3052 76.6716 52.3734 76.3561C52.4173 76.1852 52.4385 76.0093 52.4364 75.833C52.4347 75.4297 52.3395 75.0322 52.1582 74.6717C52.0413 74.4478 51.8581 74.2651 51.6334 74.1486C51.493 74.0789 51.3388 74.0413 51.182 74.0388C51.0259 74.038 50.8704 74.0591 50.7202 74.1015C50.2927 74.2659 49.8981 74.505 49.555 74.8077C49.3241 74.9735 49.1081 75.159 48.9095 75.3622L48.5053 75.7127C48.2159 75.9747 47.8459 76.1315 47.4557 76.1573C46.8923 76.1573 46.42 75.7179 46.0386 74.8391L45.8392 74.4102C45.7417 74.1744 45.5799 73.9705 45.3721 73.8216C45.1643 73.6728 44.9189 73.5849 44.6635 73.568C44.3615 73.5676 44.0686 73.6711 43.8343 73.8609L43.7451 73.9708C43.5181 74.2388 43.3772 74.5687 43.3409 74.9176V75.0588C43.3409 76.0597 44.1265 77.7353 45.6975 80.0857H46.5425C46.6251 80.0845 46.7071 80.1006 46.783 80.133C46.859 80.1655 46.9272 80.2135 46.9833 80.2741C47.0701 80.36 47.1292 80.4698 47.1529 80.5893C47.1767 80.7089 47.1641 80.8329 47.1167 80.9453C47.0694 81.0577 46.9894 81.1534 46.8871 81.2202C46.7848 81.287 46.6648 81.3219 46.5425 81.3202H45.4928C45.4928 82.2932 45.456 83.3865 45.3826 84.6C45.2087 87.7563 44.6878 90.8839 43.829 93.9268Z" fill="#F0F0F0"/>
<path d="M54.6774 93.8169C54.3275 92.1221 53.9776 90.2983 53.6277 88.3454C53.6154 88.114 53.5543 87.8877 53.4485 87.6814C53.3427 87.475 53.1946 87.2931 53.0137 87.1475C52.6825 86.8714 52.3317 86.6197 51.964 86.3942C51.7478 86.271 51.5044 86.2027 51.2555 86.1955C50.9438 86.1895 50.6395 86.29 50.3932 86.4804C50.1468 86.6707 49.9733 86.9394 49.9014 87.2417C49.8513 87.3991 49.8248 87.563 49.8227 87.7281C49.827 87.9775 49.9016 88.2206 50.0381 88.4297C50.1745 88.6387 50.3672 88.8053 50.5942 88.9103C50.7639 88.9939 50.9393 89.0655 51.119 89.1248C51.301 89.1908 51.4767 89.2731 51.6439 89.3706C51.8755 89.499 52.0698 89.685 52.2078 89.9105C52.3458 90.1361 52.4227 90.3934 52.4311 90.6575C52.4281 90.8828 52.3854 91.1059 52.3052 91.3165C52.1911 91.6176 51.9869 91.8765 51.7203 92.058C51.4537 92.2395 51.1375 92.3349 50.8146 92.3314C50.6967 92.3311 50.5791 92.3206 50.463 92.3C49.838 92.171 49.2463 91.9155 48.7245 91.5493C48.2026 91.1831 47.7619 90.7139 47.4294 90.171C47.0171 89.4908 46.7993 88.7111 46.7996 87.9164C46.8026 87.4503 46.8643 86.9863 46.9833 86.5355C47.1617 85.8877 47.493 85.2919 47.9495 84.7978C48.406 84.3037 48.9745 83.9256 49.6075 83.6951C50.0362 83.5379 50.4891 83.4564 50.9458 83.4544C51.8096 83.4693 52.6483 83.7467 53.3496 84.2496C53.3076 83.2295 53.2761 82.267 53.2551 81.3673H46.0438C45.9638 81.3682 45.8844 81.3528 45.8104 81.3223C45.7364 81.2917 45.6695 81.2465 45.6135 81.1895C45.5541 81.1339 45.5071 81.0666 45.4755 80.9918C45.4438 80.917 45.4283 80.8364 45.4298 80.7553C45.4298 80.6744 45.4461 80.5943 45.4776 80.5197C45.5092 80.4451 45.5554 80.3776 45.6135 80.3211C45.6692 80.2633 45.736 80.2174 45.81 80.1859C45.8839 80.1544 45.9635 80.1382 46.0438 80.138H57.2281C57.3911 80.142 57.5463 80.2083 57.6616 80.3232C57.7769 80.4381 57.8434 80.5928 57.8474 80.7553C57.8493 80.837 57.8334 80.9181 57.8008 80.993C57.7682 81.068 57.7196 81.135 57.6585 81.1895C57.6029 81.247 57.536 81.2925 57.4619 81.3231C57.3879 81.3537 57.3083 81.3688 57.2281 81.3673H56.2939C56.2939 82.3298 56.2572 83.4126 56.1837 84.6157C56.0117 87.7275 55.5067 90.8121 54.6774 93.8169Z" fill="#F0F0F0"/>
<path d="M65.5835 93.8168C65.121 93.7893 64.682 93.6047 64.3396 93.2937L58.5087 88.7847C58.2774 88.6277 58.085 88.4204 57.9459 88.1784C57.8068 87.9365 57.7247 87.6662 57.7057 87.388C57.7401 86.8702 57.9665 86.3836 58.3407 86.0227L62.7074 81.362H56.7977C56.7169 81.3627 56.6367 81.3473 56.5619 81.3168C56.4871 81.2863 56.4191 81.2412 56.3619 81.1843C56.3048 81.1273 56.2596 81.0595 56.229 80.985C56.1983 80.9104 56.1829 80.8305 56.1836 80.7499C56.1827 80.6694 56.198 80.5894 56.2286 80.5148C56.2593 80.4402 56.3047 80.3725 56.3621 80.3158C56.4178 80.2566 56.4854 80.2098 56.5604 80.1782C56.6355 80.1467 56.7163 80.1312 56.7977 80.1327H72.632C72.7141 80.1317 72.7956 80.1475 72.8714 80.1789C72.9472 80.2104 73.0158 80.257 73.0729 80.3158C73.1855 80.4323 73.2477 80.5882 73.2461 80.7499C73.2483 80.8309 73.2339 80.9115 73.2038 80.9867C73.1737 81.0619 73.1285 81.1303 73.0711 81.1875C73.0136 81.2448 72.945 81.2898 72.8696 81.3198C72.7941 81.3498 72.7133 81.3641 72.632 81.362H68.7692C69.4888 81.6233 70.123 82.0758 70.6031 82.6705C71.0832 83.2652 71.391 83.9794 71.4931 84.7359C71.5444 85.0085 71.5707 85.2851 71.5719 85.5624C71.5635 86.2528 71.3866 86.9307 71.0565 87.5377C70.7264 88.1447 70.253 88.6624 69.6772 89.0462C69.4009 89.2661 69.0597 89.3892 68.7063 89.3967L68.3074 89.3601C68.0105 89.2786 67.7533 89.0928 67.5831 88.837C67.3688 88.5774 67.2503 88.2525 67.2472 87.9163C67.2472 87.8536 67.2472 87.7071 67.2839 87.4874C67.3207 87.2677 67.5044 87.0218 67.8613 86.7655C68.1264 86.612 68.3495 86.3956 68.5106 86.1355C68.6718 85.8755 68.766 85.5798 68.785 85.2747C68.7695 84.7046 68.5708 84.1545 68.2182 83.7054C67.7825 83.0894 67.2208 82.5724 66.5702 82.1885L66.8903 92.3417C66.8905 92.5903 66.8605 92.8379 66.8011 93.0793C66.7501 93.2279 66.6674 93.3639 66.5587 93.4776C66.4499 93.5914 66.3178 93.6804 66.1713 93.7384C65.9817 93.7995 65.7825 93.8261 65.5835 93.8168ZM64.4131 89.8309C64.4761 89.1055 64.5443 88.408 64.6178 87.7385C64.7507 86.3889 64.8574 85.0864 64.9379 83.831L61.3375 87.3409L64.4131 89.8309Z" fill="#F0F0F0"/>
<path d="M74.5793 93.9268L73.5296 88.1466C73.3267 86.2843 73.199 84.0176 73.1465 81.3463H72.207C72.127 81.3472 72.0476 81.3319 71.9736 81.3013C71.8996 81.2707 71.8326 81.2255 71.7767 81.1685C71.7174 81.1132 71.6701 81.0464 71.6378 80.9721C71.6055 80.8979 71.5889 80.8178 71.5889 80.7369C71.5889 80.656 71.6055 80.576 71.6378 80.5017C71.6701 80.4275 71.7174 80.3607 71.7767 80.3054C71.8313 80.2459 71.8979 80.1985 71.9719 80.166C72.046 80.1336 72.1261 80.1169 72.207 80.1171H77.2822C77.3631 80.1169 77.4432 80.1336 77.5173 80.166C77.5914 80.1985 77.6579 80.2459 77.7126 80.3054C77.7705 80.3614 77.8165 80.4285 77.848 80.5027C77.8794 80.5768 77.8956 80.6564 77.8956 80.7369C77.8956 80.8174 77.8794 80.8971 77.848 80.9712C77.8165 81.0453 77.7705 81.1124 77.7126 81.1685C77.6566 81.2255 77.5896 81.2707 77.5156 81.3013C77.4417 81.3319 77.3623 81.3472 77.2822 81.3463H76.2063C76.1982 83.6201 76.0492 85.8911 75.7602 88.1466C75.4872 90.0958 75.0928 92.0263 74.5793 93.9268Z" fill="#F0F0F0"/>
<path d="M86.2938 93.8954C85.8635 93.5449 85.3911 93.2049 84.8768 92.8492C83.7874 92.1315 82.6223 91.5351 81.4024 91.0707L78.584 90.0245C78.2917 89.8983 78.0563 89.6693 77.9227 89.3811C77.9026 89.306 77.892 89.2287 77.8912 89.151V88.8737C77.9279 88.3036 78.3163 87.9688 79.0406 87.8798L79.7019 87.8014C80.1384 87.7763 80.572 87.7151 80.9982 87.6183C81.5929 87.4434 82.098 87.0485 82.4101 86.5146C82.8124 85.8902 83.0273 85.1642 83.0294 84.4222C83.0294 84.3176 83.0294 84.1711 82.9979 83.9723C82.9547 83.7348 82.8212 83.523 82.6252 83.3812C82.4335 83.2279 82.1939 83.1464 81.9482 83.1511C81.7417 83.1485 81.5391 83.2068 81.3656 83.3185C81.2408 83.4034 81.1396 83.5186 81.0717 83.6532C80.9305 83.9565 80.857 84.2867 80.8565 84.621C80.845 84.7753 80.8258 84.9289 80.7988 85.0813C80.7422 85.4383 80.5546 85.7617 80.2725 85.9888C79.9903 86.2159 79.6336 86.3305 79.2715 86.3106H79.1823C78.8126 86.277 78.4651 86.1203 78.1956 85.8659C78.0569 85.7211 77.9499 85.5491 77.8812 85.3609C77.8126 85.1728 77.7838 84.9725 77.7967 84.7727C77.8016 84.1892 77.8738 83.6082 78.0119 83.0412C78.1619 82.4261 78.4693 81.8601 78.9041 81.3987L78.9829 81.3098H77.0724C76.9914 81.3123 76.9107 81.2978 76.8356 81.2671C76.7606 81.2365 76.6928 81.1904 76.6368 81.1319C76.5794 81.0785 76.5338 81.0137 76.5031 80.9416C76.4723 80.8695 76.4571 80.7918 76.4584 80.7135C76.4554 80.6318 76.4698 80.5505 76.5006 80.4748C76.5313 80.3991 76.5778 80.3307 76.6368 80.2741C76.6936 80.2166 76.7615 80.1712 76.8364 80.1406C76.9112 80.1101 76.9915 80.0949 77.0724 80.0962H86.5668C86.7281 80.0968 86.8827 80.1607 86.9971 80.2741C87.058 80.3296 87.1059 80.3976 87.1377 80.4735C87.1694 80.5494 87.1841 80.6313 87.1808 80.7135C87.1839 80.7925 87.169 80.8712 87.1372 80.9437C87.1054 81.0162 87.0575 81.0806 86.9971 81.1319C86.9411 81.189 86.8742 81.2342 86.8002 81.2647C86.7262 81.2953 86.6468 81.3106 86.5668 81.3098H84.2575C85.0017 81.9157 85.5148 82.7576 85.7113 83.6951C85.7842 84.0604 85.8228 84.4316 85.8267 84.804C85.8267 87.022 84.7771 88.6784 82.6777 89.7735C83.5902 90.2519 84.397 90.9083 85.05 91.7037C85.578 92.3643 85.9978 93.104 86.2938 93.8954Z" fill="#F0F0F0"/>
</svg>
