<svg width="130" height="142" viewBox="0 0 130 142" fill="none" xmlns="http://www.w3.org/2000/svg">
<path d="M129.731 126.224C128.841 118.098 127.102 109.902 119.471 105.125C110.201 99.3169 100.507 94.1589 90.6992 88.5486L72.5542 103.302C71.5421 104.43 70.3168 105.347 68.9489 105.999C67.581 106.651 66.0975 107.027 64.584 107.103C62.0544 107.103 60.1749 106.001 57.7019 104.574C55.2796 103.157 53.0835 101.385 51.1871 99.3169L39.4013 88.6475C29.7918 94.0599 20.3801 99.1756 11.138 104.687C8.60478 106.254 6.49414 108.418 4.99076 110.99C-0.506454 120.599 -0.661902 131.028 0.751263 141.698H129.745C129.83 136.413 130.282 131.269 129.731 126.224ZM66.3363 122.168L64.7111 117.73L66.3363 122.168ZM68.7104 128.781L65.2623 125.955L68.7104 128.781Z" fill="#3480BA"/>
<path d="M67.196 135.41C65.3589 136.512 64.0871 137.812 63.437 137.544C62.8698 137.258 62.376 136.845 61.9937 136.338C61.6114 135.831 61.351 135.243 61.2325 134.619C61.1619 133.968 62.9424 132.428 63.7197 132.527C64.7513 132.682 65.6274 133.997 67.196 135.41Z" fill="#394F6B"/>
<path d="M66.9705 123.61C65.4584 124.698 64.2995 126.111 63.6212 125.913C62.5896 125.602 61.8831 124.175 61.0352 123.228C61.9961 122.423 62.9005 121.108 63.9463 120.981C64.6811 120.882 65.628 122.38 66.9705 123.61Z" fill="#394F6B"/>
<path d="M67.1001 111.795C65.4891 112.954 64.4998 114.198 63.6237 114.127C62.7475 114.057 61.8855 112.714 61.0234 111.909C61.9137 111.018 62.6768 109.633 63.7226 109.393C64.4433 109.223 65.5315 110.608 67.1001 111.795Z" fill="#394F6B"/>
<path d="M62.7324 107.245C67.8622 103.529 73.317 100.179 78.0511 95.9398C82.7852 91.7004 86.1203 86.2738 86.1909 79.5471C91.3914 81.3136 93.2568 85.7226 94.8254 90.3013C96.4965 99.2188 96.3764 108.38 94.4721 117.25C94.3449 117.872 94.2036 118.494 94.034 119.116C93.9293 119.351 93.7913 119.57 93.6242 119.766C93.3981 119.667 93.1155 119.624 93.0024 119.469C88.6357 113.152 82.1493 110.241 74.8856 108.814C71.5647 108.164 68.1166 108.135 64.7391 107.782C64.0555 107.663 63.3839 107.484 62.7324 107.245Z" fill="#394F6B"/>
<path d="M43.1893 80.084C43.1893 87.5738 47.2875 92.9862 52.601 97.6496C57.1655 101.649 61.9561 105.464 67.7501 107.74C64.4387 107.804 61.1348 108.078 57.8579 108.559C45.8743 111.018 44.7155 111.753 35.8125 120.373C33.2751 110.751 32.8652 100.691 34.6113 90.8947C36.2082 86.316 38.0736 81.907 43.1893 80.084Z" fill="#394F6B"/>
<path d="M96.9873 21.5649C96.5852 19.9286 96.0414 18.3304 95.3622 16.7884C93.9302 13.2597 91.6253 10.1525 88.6637 7.75831C86.3146 5.90197 83.7529 4.3317 81.0326 3.08069C77.2928 1.33572 73.2645 0.291555 69.1479 0H66.4064C65.6998 0.0847899 64.9932 0.141336 64.2584 0.240257C62.1249 0.536725 60.0673 1.23694 58.1959 2.30347C56.837 3.08388 55.6188 4.08707 54.5923 5.27112C54.5154 5.37684 54.407 5.45561 54.2827 5.4962C54.1584 5.53679 54.0244 5.53715 53.8999 5.49723C52.6999 5.24577 51.4877 5.0571 50.2681 4.93198C48.0525 4.73176 45.8203 5.03611 43.7392 5.82224C41.1212 6.77605 38.8077 8.41602 37.0408 10.5705C35.0935 12.9761 33.5691 15.6951 32.5328 18.6114C31.6589 21.0611 31.1264 23.6194 30.9501 26.2142C30.837 27.8044 30.837 29.4006 30.9501 30.9907C31.0038 32.7576 31.1785 34.5188 31.4729 36.2618C31.7838 37.8587 32.0523 39.4697 32.4198 41.0525C32.7872 42.6352 33.1546 44.0908 33.5503 45.6029C33.9601 45.5322 34.3841 45.4898 34.808 45.4474C34.9688 45.3132 35.1388 45.1904 35.3167 45.08C36.4473 44.3451 37.0408 44.5854 37.5354 44.006C37.7937 43.5717 37.9664 43.092 38.0442 42.5928C38.1996 41.9852 38.1996 41.7732 38.3127 41.2503C38.4537 40.633 38.6573 40.0316 38.9203 39.4556C39.3252 38.3883 39.6096 37.2792 39.7682 36.1488C40.0933 34.2976 40.4041 33.4496 40.7998 31.8386C40.8302 31.7456 40.8782 31.6592 40.9412 31.5843C40.9784 34.2012 41.779 36.7503 43.2446 38.9186C42.4372 35.396 42.2934 31.7538 42.8206 28.1785L43.2446 28.7297C44.8429 30.9661 46.7455 32.9685 48.8973 34.6791C52.2514 37.2845 56.1652 39.0745 60.3298 39.9078C62.5561 40.3486 64.8159 40.5991 67.0847 40.6568V40.4589C65.2605 39.8069 63.5597 38.8513 62.0539 37.6326L61.7288 37.4348V37.3359L62.0397 37.4348C63.7496 37.7881 65.4596 38.1696 67.1695 38.5088C68.1163 38.6925 69.0914 38.8055 69.9958 38.961C72.2993 39.3425 74.631 39.6252 76.8921 40.1904C79.3572 40.7206 81.7011 41.708 83.8024 43.1016C84.875 43.865 85.8276 44.7842 86.6288 45.8289C86.8831 46.0127 87.1234 46.2388 87.3919 46.4366C88.1469 46.9374 88.9408 47.3769 89.766 47.7509C90.0436 47.8848 90.3127 48.0358 90.5715 48.2031C90.8824 48.4151 90.9813 49.3195 90.8683 50.3935C91.6416 49.6653 92.6368 49.2175 93.6946 49.1217H94.2599C94.4295 48.7401 94.6838 48.1889 94.9523 47.5106C96.0122 45.193 96.8601 42.1406 97.4254 35.0748C97.7928 28.8427 97.9906 25.6207 96.9873 21.5649Z" fill="#4A4C4B"/>
<path d="M90.88 43.5533C91.466 49.8166 90.6644 56.1321 88.532 62.0503C86.3997 67.9686 82.9892 73.3441 78.5431 77.7943C78.2815 78.0341 78.0079 78.2605 77.7234 78.4726L77.1158 78.8401C76.9947 77.9753 76.7119 77.1412 76.282 76.3812C75.6635 75.3681 74.8042 74.5234 73.7807 73.9222C72.0817 72.9719 70.1962 72.4029 68.2552 72.2547C65.4691 71.7908 62.6231 71.8195 59.8469 72.3395C58.2936 72.5076 56.7971 73.0192 55.4661 73.8374C53.739 75.0927 52.4965 76.904 51.9473 78.9672C49.1567 76.8172 46.7364 74.2251 44.7826 71.2938C41.504 66.3194 40.5431 61.769 39.1299 55.4663C38.3654 51.617 37.9679 47.7038 37.9429 43.7794C37.9595 42.2349 38.1013 40.6942 38.3668 39.1725C38.8049 36.6288 39.4832 34.7917 39.3278 34.7352C39.1723 34.6787 38.4657 36.9114 36.9678 39.2714C35.906 40.9523 34.6012 42.4667 33.0957 43.7653C33.5338 46.7612 34.1132 49.743 34.5089 52.7389C36.2989 58.1655 38.103 63.592 39.9213 69.0185C40.0061 69.174 40.0909 69.3295 40.1615 69.4849C40.2322 69.6404 40.2887 69.7393 40.3452 69.8806V70.0078C41.7911 73.8375 43.7549 77.4511 46.1816 80.7478C48.4509 84.232 51.4441 87.1866 54.9574 89.4106C57.8423 91.4251 61.2608 92.5368 64.7788 92.6043C68.671 92.4423 72.3887 90.9452 75.3069 88.3648C75.8581 87.9126 76.3386 87.4604 76.8473 86.9516C78.7724 85.1023 80.5534 83.1086 82.1749 80.9881C84.824 77.3663 87.0345 73.4433 88.7603 69.3012C89.4245 67.5206 90.3996 64.7791 91.3322 61.3451C92.2649 57.9111 92.4911 56.3142 93.4237 52.216C93.9325 49.9832 94.7097 46.7612 95.7696 42.8609L90.88 43.5533ZM70.5728 79.3771C69.5494 79.8425 68.4321 80.065 67.3084 80.0271C65.6097 80.1372 63.9056 80.1372 62.2069 80.0271C59.0555 79.8858 58.4762 79.7304 57.8685 79.3205C57.106 78.7729 56.5173 78.0174 56.1727 77.1442H72.735C72.2427 78.0801 71.4923 78.855 70.5728 79.3771Z" fill="#4A4C4B"/>
</svg>
