<svg width="130" height="138" viewBox="0 0 130 138" fill="none" xmlns="http://www.w3.org/2000/svg">
<path d="M83.3657 79.2655L84.1744 76.8962C85.7599 78.5011 87.4419 80.0077 89.211 81.4078C91.0147 82.7811 93.0199 83.8675 95.1555 84.6284C102.817 86.9977 110.535 89.14 118.253 91.2823C119.795 91.6117 121.209 92.3804 122.324 93.4956C123.44 94.6108 124.208 96.025 124.538 97.5674C126.042 104.321 127.56 111.102 128.581 117.955C129.432 123.63 129.574 129.503 130 135.278C130 135.959 130 136.696 130 137.519H0C0.241187 133.533 0.269567 129.631 0.780316 125.8C1.88694 117.288 3.1307 108.832 4.51161 100.433C5.33449 95.496 7.85987 92.2045 13.2511 90.9418C21.2954 89.0407 29.1837 86.4586 37.1145 84.0893C38.1119 83.7327 39.0213 83.1666 39.7817 82.4293C41.9984 80.7885 43.8893 78.7485 45.3574 76.4138C45.8138 78.8254 45.7168 81.3091 45.0737 83.6778C43.5027 87.9397 41.6788 92.1041 39.6115 96.1486C38.8737 97.7234 38.9588 98.6031 40.5337 99.5962C45.2439 102.59 49.8406 105.754 54.7211 108.96L45.627 78.2582C52.1249 92.8713 58.618 107.48 65.1064 122.083C67.0359 117.515 68.71 113.571 70.3699 109.598C73.9736 100.958 77.5346 92.318 81.1666 83.692C81.8193 82.1456 82.6989 80.6984 83.465 79.2088C80.9113 89.036 78.367 98.8726 75.8321 108.719L91.3249 98.4044L83.3657 79.2655ZM75.1653 109.244L67.2061 128.709C71.278 125.871 75.0518 122.849 78.7548 119.728C78.9762 119.493 79.1381 119.207 79.227 118.896C79.3158 118.585 79.329 118.258 79.2655 117.941C78.0454 115.131 76.6834 112.407 75.1653 109.244ZM62.3966 128.851L62.6803 128.439L54.863 109.229C53.4443 112.407 52.0255 115.188 50.848 118.04C50.7825 118.343 50.7909 118.657 50.8724 118.955C50.9539 119.254 51.1061 119.529 51.3162 119.757C55.0191 122.835 58.7504 125.829 62.4391 128.851H62.3966Z" fill="#394F6B"/>
<path d="M89.2672 39.2001C90.489 46.2434 89.9579 53.4792 87.7207 60.2686C87.1249 62.042 79.5204 84.1035 65.3045 84.288C53.9545 84.4298 46.123 70.37 44.988 68.327C43.2855 65.2484 37.7382 53.6288 40.1643 42.9031C41.1006 38.7745 42.5478 35.8093 40.8453 32.8725C40.2494 31.851 38.8874 30.1769 37.8091 30.4606C34.8581 31.1984 34.9716 46.308 38.93 58.9633C40.4197 63.8859 42.6284 68.5615 45.4846 72.8387C47.5268 76.3239 50.2535 79.3595 53.5005 81.7626C55.6286 83.1813 60.8071 86.8275 67.1631 86.1891C76.1296 85.2811 81.6343 76.6125 84.6137 72.0016C86.4928 68.9375 88.0567 65.6909 89.2814 62.3116C90.787 58.803 91.8636 55.1254 92.4877 51.3588C93.2076 46.0508 92.7227 40.6488 91.069 35.5539L89.2672 39.2001Z" fill="#4C4E4D"/>
<path d="M95.4961 25.9206C95.212 22.5225 94.3232 19.2025 92.8714 16.117C91.3575 12.6771 89.0823 9.62575 86.2175 7.19307C83.9494 5.40488 81.472 3.89939 78.84 2.70982C75.2713 1.07007 71.4146 0.149272 67.49 0L64.9221 0.0851215C64.2553 0.198621 63.5743 0.269561 62.9075 0.397248C60.8775 0.771601 58.9459 1.55871 57.2325 2.70982C55.9761 3.55897 54.8768 4.61991 53.9835 5.84528C53.9191 5.95477 53.8197 6.03941 53.7014 6.08571C53.583 6.13201 53.4526 6.13729 53.3309 6.10065C52.1959 5.91621 51.0467 5.71758 49.8975 5.64664C47.8022 5.5268 45.709 5.91622 43.7969 6.78162C41.3432 7.87498 39.2376 9.62231 37.7105 11.8324C35.9584 14.3703 34.6355 17.1791 33.7947 20.1463C33.0754 22.6729 32.6798 25.2806 32.6172 27.9068C32.6172 27.9068 32.6172 30.3612 32.7732 32.7589C33.9363 40.3933 35.7253 47.9191 38.1219 55.2603C38.5149 55.2789 38.9032 55.1693 39.2285 54.9482C40.4061 54.0827 39.4697 52.0398 39.7251 48.805C39.7251 48.1098 39.7251 48.6347 41.3709 42.222C41.7397 40.7181 41.91 39.9662 42.2647 38.7744C42.4207 38.2779 42.8747 36.774 43.6834 34.8303C44.4673 32.801 45.3625 30.8165 46.3648 28.8858C46.7544 31.531 47.9886 33.9794 49.8834 35.866C50.9407 36.8758 52.1773 37.6793 53.5295 38.2353C57.8709 40.0513 61.815 39.5831 67.263 39.1717C70.5037 38.8873 73.7584 38.7973 77.0098 38.9021C78.8355 38.7769 80.6697 38.9106 82.4578 39.2994C84.3544 39.6963 86.1003 40.6209 87.4944 41.9666C90.3319 45.0311 89.8353 50.0109 89.4381 54.2388C89.1685 56.9486 88.6861 58.495 88.9699 58.566C89.4806 58.722 91.8074 53.9267 93.2261 48.9894C94.5559 44.3119 95.3181 39.4913 95.4961 34.6317C95.6618 31.7303 95.6618 28.8219 95.4961 25.9206Z" fill="#4A4C4B"/>
</svg>
