<svg width="130" height="131" viewBox="0 0 130 131" fill="none" xmlns="http://www.w3.org/2000/svg">
<path d="M64.7343 97.2564C55.2965 96.7663 49.4994 91.7254 45.1306 84.9341C44.4165 83.8279 43.8003 82.6796 43.1422 81.5454C41.8941 82.5674 40.7708 83.7331 39.7956 85.0181C37.7512 88.5328 36.0289 92.2014 34.1105 95.7721C33.0323 97.7885 31.702 98.1246 29.4896 96.5843C27.8371 95.7053 26.0303 95.1538 24.1686 94.96C21.004 94.3579 17.7974 93.9658 14.6048 93.4757C10.152 94.5119 7.51945 97.3684 5.48906 100.771C3.90829 103.256 2.68729 105.953 1.86238 108.781C0.462112 113.878 0.0280053 122.181 0 130.765H71.8617C69.4812 119.591 67.1055 108.421 64.7343 97.2564Z" fill="#416B91"/>
<path d="M128.684 116.384C127.901 110.61 125.953 105.055 122.957 100.057C122.046 98.3922 120.79 96.9405 119.274 95.7985C117.757 94.6565 116.016 93.8504 114.164 93.4338C111.94 94.0568 109.675 94.5247 107.386 94.834C104.166 95.1001 101.113 94.708 98.2006 97.0185C95.8062 98.8948 94.2098 96.1783 93.3277 94.526C91.7734 91.5854 90.8632 88.3648 89.2529 85.4383C88.5248 84.122 86.7604 83.2678 85.4582 82.2036C82.5176 85.7743 80.1372 89.9331 76.4545 92.7196C73.3459 95.0581 68.697 95.7862 64.7343 97.2285C64.2768 108.431 63.8101 119.6 63.334 130.737H130.001C129.637 126.508 129.202 121.733 128.684 116.384Z" fill="#416B91"/>
<path d="M36.4638 18.3096H34.8255C30.5547 14.6829 31.3249 11.4762 36.8279 9.97796H38.8303H40.0485L63.853 9.90796L91.2983 10.02C93.0206 11.0142 95.7091 11.7423 96.1852 13.0725C96.6613 14.4028 94.911 16.3772 94.1408 18.0575L90.9762 18.4776L64.7072 18.7716L39.9925 18.4356L36.4638 18.3096Z" fill="#394F6B"/>
<path d="M89.3631 10.0478L63.9062 9.90785C63.9062 6.62189 63.9062 3.33124 63.9062 0.035942C66.2468 -0.0694905 68.592 0.057179 70.9076 0.414041C75.9926 1.07676 80.8306 3.00236 84.9802 6.01511C86.578 7.20258 88.047 8.55418 89.3631 10.0478Z" fill="#F7B0B2"/>
<path d="M63.9354 0.0361328C63.9354 3.33143 63.9354 6.62208 63.9354 9.90804L40.1309 9.97803V8.43773C46.264 1.61843 54.7776 0.0921435 63.9354 0.0361328Z" fill="#F7B0B2"/>
<path d="M91.0723 18.477L94.2369 18.0569C94.2454 18.119 94.2383 18.1822 94.2163 18.2408C94.1943 18.2995 94.1581 18.3518 94.1109 18.393L91.0723 18.477Z" fill="#394F6B"/>
<path d="M40.1597 8.43726V9.97756H38.9414L40.1597 8.43726Z" fill="#F7B0B2"/>
<path d="M43.1415 81.5451C42.5956 80.5528 42.3385 79.4274 42.3994 78.2965C42.3994 77.9324 42.4834 77.6664 42.4974 77.5683C44.3904 66.5005 45.5644 55.3216 46.0121 44.102C46.0821 42.0016 46.2502 39.9012 46.3622 37.8008C46.6562 39.2851 46.8383 40.7834 47.2723 42.2256C48.5046 46.4264 49.3307 50.6272 51.2491 54.5059C53.5595 59.1268 55.5899 59.4909 61.051 57.9086C62.2972 57.5306 63.5714 57.2365 64.8177 56.9144C74.0734 59.785 76.2859 58.9728 79.4365 51.4254C80.0276 50.0071 80.4961 48.5408 80.8367 47.0425C81.3968 44.6901 81.8029 42.2957 82.237 39.9152C82.6104 41.0812 82.8638 42.2824 82.9931 43.4999C83.2032 54.9541 83.0912 66.4222 86.4798 77.6384C86.8859 79.0386 85.8777 80.691 85.5276 82.2313C83.901 86.3096 81.1922 89.8667 77.6933 92.5192C74.1944 95.1718 70.0379 96.8193 65.6718 97.2841C61.115 97.2778 56.662 95.9234 52.8734 93.3914C49.8134 91.0945 47.2107 88.2449 45.1999 84.9898C44.4998 83.8976 43.7577 82.6233 43.1415 81.5451Z" fill="#4A4C4B"/>
<path d="M63.1526 48.1771L64.7349 48.0791C68.7957 48.9613 73.2905 49.1293 76.5391 53.6802L64.7489 52.686L52.9727 53.5962C54.877 49.3954 59.1898 49.5914 62.3684 48.3312L63.1526 48.1771Z" fill="#4A4C4B"/>
<path d="M66.2628 105.35C67.2913 105.35 68.1251 104.579 68.1251 103.628C68.1251 102.676 67.2913 101.905 66.2628 101.905C65.2342 101.905 64.4004 102.676 64.4004 103.628C64.4004 104.579 65.2342 105.35 66.2628 105.35Z" fill="#4A4C4B"/>
<path d="M66.4151 115.558C67.4436 115.558 68.2774 114.787 68.2774 113.836C68.2774 112.884 67.4436 112.113 66.4151 112.113C65.3865 112.113 64.5527 112.884 64.5527 113.836C64.5527 114.787 65.3865 115.558 66.4151 115.558Z" fill="#4A4C4B"/>
<path d="M66.2628 125.64C67.2913 125.64 68.1251 124.869 68.1251 123.918C68.1251 122.966 67.2913 122.195 66.2628 122.195C65.2342 122.195 64.4004 122.966 64.4004 123.918C64.4004 124.869 65.2342 125.64 66.2628 125.64Z" fill="#4A4C4B"/>
<path d="M114.163 93.4336C106.657 99.1327 98.2138 101.429 92.7528 98.1665C88.664 95.716 87.3897 90.8431 85.6254 84.0938C85.0232 81.7973 85.0653 81.3773 83.707 63.7339C83.2029 57.2647 82.6708 50.5854 82.3067 43.4581C82.3067 42.2818 82.1807 41.0916 82.1387 39.9154C81.9707 35.8546 82.2788 31.7098 81.4106 27.7751C81.0131 26.6789 80.3773 25.6846 79.5492 24.8638C78.7211 24.0429 77.7213 23.416 76.6217 23.0282C72.8689 21.88 68.6822 21.7959 64.6914 21.2638V18.7714L90.9604 18.4773L93.999 18.3933C94.5731 25.9828 94.8391 33.6002 95.7633 41.1476C98.0738 59.6872 103.675 77.2185 114.163 93.4336Z" fill="#F7B0B2"/>
<path d="M64.7639 18.7712C66.6543 19.9614 66.9624 20.5635 66.8643 20.8996C66.6543 21.5577 64.7079 21.2496 60.6192 21.4737C58.552 21.5465 56.4951 21.7995 54.472 22.2298C51.8115 22.8319 49.9491 23.266 48.6329 24.8483C47.7419 25.9657 47.2141 27.329 47.1206 28.7551C46.8265 31.7656 46.6165 34.7902 46.3645 37.8008C46.3645 38.2909 46.3645 38.1088 46.3645 38.1088L46.0564 44.102C44.8242 76.6162 44.2081 92.8732 36.1705 97.5221C33.538 99.0484 27.5729 100.813 14.6484 93.4754C22.1399 82.8194 26.2426 71.0711 29.7853 58.9868C33.468 46.5244 33.622 33.782 34.4762 21.0676C34.572 20.1272 34.7169 19.1924 34.9103 18.2671H36.4646L40.0072 18.3931L64.7639 18.7712Z" fill="#F7B0B2"/>
</svg>
