<svg width="130" height="136" viewBox="0 0 130 136" fill="none" xmlns="http://www.w3.org/2000/svg">
<path d="M89.581 39.9501C89.2501 47.4418 88.2883 54.8924 86.7058 62.2226C85.9659 65.6878 84.8208 69.0538 83.2941 72.2514C82.403 74.1432 81.3538 75.9564 80.1575 77.6716C77.3373 81.5511 71.0917 87.384 64.1032 87.6454C52.7674 88.0443 45.0773 73.5583 43.6191 70.7794C41.9683 67.6428 36.039 56.3621 38.7354 43.857C39.6571 39.6062 41.4868 35.6029 39.4232 33.2505C38.3689 32.2876 37.0154 31.7169 35.59 31.6342C34.1646 31.5515 32.7541 31.962 31.5956 32.7965C28.0188 36.0294 31.5956 45.673 37.346 61.0945C38.3867 64.1633 39.6086 67.1675 41.0053 70.0915C42.2434 72.4302 51.6257 90.0253 64.3095 89.4475C67.5113 89.1599 70.6016 88.1283 73.3341 86.4348C76.3169 84.6507 78.909 82.2831 80.9554 79.4738C84.0232 75.6356 85.7153 71.4534 89.2096 63.1168C89.9812 61.2574 90.6472 59.3559 91.2043 57.4214C91.452 56.5822 91.6721 55.7018 91.8922 54.67C93.1646 48.7766 93.1646 42.6795 91.8922 36.786L89.581 39.9501Z" fill="#4C4E4D"/>
<path d="M95.5381 27.3763C95.2479 23.7821 94.3161 20.269 92.7867 17.0035C91.198 13.368 88.798 10.1444 85.7707 7.58004C83.389 5.68584 80.7774 4.10039 77.998 2.86142C74.2532 1.13474 70.205 0.16245 66.0845 0L63.3331 0.0962666C62.6315 0.206322 61.9574 0.302621 61.2146 0.44019C59.0903 0.838413 57.0715 1.67216 55.2853 2.88892C53.958 3.78957 52.7948 4.91093 51.8461 6.20435C51.7781 6.31991 51.6737 6.40964 51.5492 6.45943C51.4247 6.50923 51.2872 6.5163 51.1583 6.4795C49.9609 6.2628 48.7533 6.1067 47.5402 6.01177C45.3274 5.88266 43.1167 6.29835 41.1019 7.22239C38.5079 8.38568 36.2816 10.2362 34.6637 12.5738C32.8193 15.2652 31.4253 18.2389 30.5366 21.3782C29.7671 24.065 29.3418 26.8385 29.271 29.6324C29.2224 31.3446 29.2775 33.0582 29.4361 34.7637C29.89 39.6199 32.779 48.7958 38.1304 59.8564C37.1262 49.4836 37.0436 45.5216 37.3876 44.8063C37.3876 44.8063 37.5664 44.4211 37.7315 43.9259C37.9242 43.3588 38.0579 42.7733 38.1304 42.1788C38.1304 41.6422 38.268 40.8856 38.3918 39.9639C38.777 36.9511 38.9834 35.3003 39.2447 35.3003C39.5061 35.3003 39.4373 36.9511 40.1389 39.1109C40.569 40.4187 41.1803 41.6597 41.9549 42.7978C41.0084 39.0423 40.7152 35.1519 41.0882 31.297L41.5421 31.8611C43.2112 34.1771 45.1926 36.2511 47.4301 38.0241C50.8029 40.6558 54.7633 42.4306 58.9722 43.1968C61.198 43.5813 63.4544 43.7609 65.7131 43.7332V43.5269C63.8652 42.9126 62.1382 41.9816 60.6093 40.7755L60.2653 40.5692V40.4729L60.5817 40.5554C62.2876 40.8718 63.9934 41.2157 65.6993 41.5046C66.6623 41.6697 67.6253 41.766 68.5883 41.8898L70.2528 42.1099C70.2528 42.1099 72.7154 42.4264 75.4805 42.9354C77.6403 43.3343 89.4713 45.5217 90.4343 50.2541C90.5778 51.0943 90.624 51.9482 90.5719 52.7991C90.4715 54.0238 90.2315 55.2332 89.8565 56.4034C89.4149 57.784 89.1018 59.2024 88.921 60.6405C88.921 61.3284 88.8109 61.7686 88.921 61.8099C89.32 61.9337 91.5486 56.8711 93.0481 51.8636C94.4438 46.9079 95.2564 41.8063 95.4693 36.6622C95.6683 33.5707 95.6913 30.4704 95.5381 27.3763Z" fill="#4A4C4B"/>
<path d="M129.725 120.401C128.844 112.284 127.111 104.071 119.476 99.2837C110.19 93.4783 100.505 88.2782 90.6826 82.7754L81.2866 103.411L72.3996 102.585C65.4524 101.361 62.0407 101.554 60.2385 102.076C59.1241 102.406 57.974 102.6 56.813 102.654C55.5626 102.707 54.3104 102.605 53.0849 102.352L39.328 82.8167C29.6981 88.2369 20.3022 93.3545 11.1125 98.871C8.58151 100.441 6.4709 102.603 4.96317 105.172C-0.5396 114.802 -0.635887 125.216 0.739806 135.905H129.807C129.835 130.594 130.275 125.449 129.725 120.401ZM66.3191 116.356L64.682 111.899L66.3191 116.356ZM68.6853 122.904L65.2323 120.153L68.6853 122.904Z" fill="#3480BA"/>
<path d="M62.3555 101.732C67.4455 98.2378 72.8382 95.1013 77.5706 91.1806C82.303 87.2598 85.6735 81.9909 85.9211 75.4426C90.9286 77.3136 92.5932 81.647 94.0239 86.1455C95.4174 94.8417 95.0573 103.729 92.9646 112.284C92.8271 112.889 92.6757 113.494 92.4969 114.1C92.3837 114.325 92.2403 114.533 92.0704 114.719C91.8503 114.609 91.5889 114.567 91.4926 114.416C87.3656 108.143 81.1749 105.144 74.1314 103.562C70.926 102.846 67.5693 102.723 64.2952 102.282C63.6351 102.151 62.9864 101.967 62.3555 101.732Z" fill="#394F6B"/>
<path d="M42.5486 76.0891C42.865 83.3665 47.1021 88.4703 52.4535 92.7487C57.0896 96.4493 61.8908 99.9436 67.5862 101.911C64.3764 102.115 61.1829 102.524 58.0251 103.135C46.4693 106.052 45.3687 106.808 37.0871 115.516C34.2061 106.273 33.3752 96.513 34.6521 86.9158C36.0278 82.4448 37.5823 78.0701 42.5486 76.0891Z" fill="#394F6B"/>
<path d="M67.2682 128.833C65.4248 129.934 64.1453 131.227 63.4988 130.966C62.9326 130.681 62.4396 130.27 62.0579 129.764C61.6762 129.259 61.4161 128.672 61.2977 128.049C61.2151 127.389 63.0035 125.848 63.7877 125.945C64.8195 126.096 65.6999 127.444 67.2682 128.833Z" fill="#394F6B"/>
<path d="M66.9528 117.649C65.4395 118.75 64.2839 120.153 63.5961 119.947C62.5643 119.644 61.8627 118.213 61.0098 117.264C61.9728 116.466 62.867 115.159 63.9263 115.022C64.6554 114.98 65.6046 116.48 66.9528 117.649Z" fill="#394F6B"/>
<path d="M67.0747 105.97C65.4514 107.125 64.4746 108.377 63.5942 108.308C62.7137 108.24 61.8608 106.933 60.9941 106.08C61.8883 105.186 62.6587 103.81 63.7455 103.562C64.4059 103.397 65.4926 104.787 67.0747 105.97Z" fill="#394F6B"/>
</svg>
