<svg width="83" height="85" viewBox="0 0 83 85" fill="none" xmlns="http://www.w3.org/2000/svg">
<path d="M37.7587 84.9539C37.7587 77.7296 37.7587 70.5054 37.7587 63.2811C37.7587 61.805 37.3278 61.1816 35.8334 60.604C32.918 59.4764 30.186 57.8537 27.3715 56.4327L26.0146 55.7451L29.966 49.0159C34.5499 52.683 39.5556 54.5166 45.4597 53.1689C48.2753 52.8934 50.8979 51.6146 52.849 49.5659L56.5895 55.3142C53.1882 57.6703 49.7686 59.9623 45.6797 61.0716C45.1205 61.2183 44.5337 62.4834 44.5245 63.2352C44.442 70.4687 44.4787 77.7113 44.5245 84.9539H37.7587Z" fill="#3480BA"/>
<path d="M41.0318 65.3713C41.7052 65.3713 42.2512 64.8664 42.2512 64.2436C42.2512 63.6208 41.7052 63.116 41.0318 63.116C40.3584 63.116 39.8125 63.6208 39.8125 64.2436C39.8125 64.8664 40.3584 65.3713 41.0318 65.3713Z" fill="#394F6B"/>
<path d="M41.1324 72.0639C41.8058 72.0639 42.3517 71.559 42.3517 70.9363C42.3517 70.3135 41.8058 69.8086 41.1324 69.8086C40.459 69.8086 39.9131 70.3135 39.9131 70.9363C39.9131 71.559 40.459 72.0639 41.1324 72.0639Z" fill="#394F6B"/>
<path d="M41.0318 78.6557C41.7052 78.6557 42.2512 78.1508 42.2512 77.528C42.2512 76.9053 41.7052 76.4004 41.0318 76.4004C40.3584 76.4004 39.8125 76.9053 39.8125 77.528C39.8125 78.1508 40.3584 78.6557 41.0318 78.6557Z" fill="#394F6B"/>
<path d="M56.6269 55.3143C63.1819 58.1747 69.7002 61.0992 76.2919 63.8588C80.4633 65.6098 82.1135 67.746 82.1777 72.3299C82.2327 75.832 82.1135 79.3525 82.2419 82.8546C82.2969 84.5506 81.7376 85.0091 80.0783 84.9999C68.2242 84.9266 56.3793 84.9999 44.5253 84.9999C44.5253 77.7573 44.4794 70.5147 44.5253 63.2812C44.5253 62.5294 45.1212 61.2643 45.6804 61.1176C49.806 59.9624 53.2256 57.6705 56.6269 55.3143Z" fill="#394F6B"/>
<path d="M37.7585 84.954H17.8276C12.556 84.954 7.27536 84.954 1.99466 84.899C1.35291 84.899 0.16109 84.1838 0.16109 83.7713C-0.075885 79.9725 -0.0513779 76.1619 0.234435 72.3665C0.692828 68.1034 3.05813 65.1239 7.30285 63.5103C13.6287 61.1083 19.817 58.3488 26.0603 55.736L27.4172 56.4236C30.2317 57.8446 32.9179 59.4673 35.8791 60.5949C37.3735 61.1725 37.8135 61.7959 37.8044 63.272C37.731 70.5054 37.7677 77.7297 37.7585 84.954Z" fill="#394F6B"/>
<path d="M26.2808 24.9594C27.0509 28.8282 27.818 32.694 28.582 36.5567C25.7674 36.6392 24.4473 35.8325 23.6772 33.1279C23.1975 31.5022 22.9475 29.8173 22.9346 28.1223C22.9529 26.1145 23.9522 24.7302 26.2808 24.9594Z" fill="#4A4C4B"/>
<path d="M54.3438 36.7676C54.9549 32.8744 55.5661 28.978 56.1773 25.0786C56.5097 25.0059 56.8536 25.003 57.1872 25.0702C57.5207 25.1373 57.8367 25.273 58.1151 25.4686C58.3935 25.6643 58.6282 25.9156 58.8044 26.2067C58.9806 26.4978 59.0943 26.8223 59.1385 27.1597C59.5038 28.493 59.5816 29.8887 59.3667 31.2543C59.1517 32.6199 58.649 33.9242 57.8917 35.0808C57.2591 36.025 55.5631 36.2267 54.3438 36.7676Z" fill="#4A4C4B"/>
<path d="M59.1475 17.0292C59.0425 16.9758 58.9615 16.8848 58.9207 16.7743C58.8799 16.6639 58.8824 16.5421 58.9275 16.4333C58.933 16.3661 58.9517 16.3007 58.9825 16.2408V16.1399V16.0299C58.9962 15.8805 58.9962 15.7301 58.9825 15.5807C58.987 15.538 58.987 15.495 58.9825 15.4523C58.9825 15.379 58.9825 15.3056 58.9825 15.2414C58.9876 15.208 58.9876 15.174 58.9825 15.1406L58.9091 14.9939C58.8509 14.9016 58.8299 14.7906 58.8503 14.6834C58.8707 14.5762 58.9311 14.4808 59.0192 14.4163C57.5431 12.9128 53.1792 12.9678 52.3724 14.4805C51.4557 16.1766 55.1228 19.4862 55.4895 22.3832C55.6284 23.666 55.6284 24.9601 55.4895 26.2429C55.4895 26.5454 55.407 26.7838 55.3795 26.9946C55.0819 29.0454 54.6314 31.071 54.0318 33.0546C53.409 35.1295 52.4821 37.1006 51.2815 38.9037C50.7978 39.6134 50.2142 40.2495 49.5487 40.7923C48.6372 41.548 47.5377 42.0423 46.3675 42.2225C45.5893 42.3386 44.7963 42.3075 44.0297 42.1308C43.4613 41.9933 42.8837 41.8741 42.3061 41.7824C41.5458 41.6762 40.7727 41.7073 40.0233 41.8741C39.4733 41.9841 38.9232 42.1216 38.3731 42.2041C37.6579 42.3216 36.9303 42.3432 36.2095 42.2683C35.7034 42.1985 35.215 42.0337 34.7701 41.7824C33.7769 41.2463 32.901 40.5169 32.194 39.6371C31.1849 38.3788 30.3322 37.0028 29.6544 35.5391C28.7665 33.7381 28.1015 31.8354 27.6742 29.8734C27.5734 29.3875 27.61 29.4608 27.0783 26.5729C26.9591 25.9128 26.8766 25.4544 26.7941 24.8127C26.7 24.046 26.648 23.2748 26.6382 22.5024C26.5807 20.9474 26.895 19.401 27.555 17.9918C28.3603 16.4475 29.6 15.1727 31.1213 14.3246C29.6269 14.1321 24.7038 13.6371 23.3653 15.9015C23.1819 16.2041 23.0536 16.5891 23.5487 20.3938C23.7528 22.5516 24.0896 24.6949 24.5571 26.8113C24.907 28.0616 25.1795 29.3322 25.3731 30.616C25.4281 31.2394 25.4464 31.872 25.4739 32.4954V32.6237L25.6114 34.5948C25.6114 35.0899 25.6848 35.5758 25.7306 36.0708C25.7764 36.5659 25.859 37.1068 25.914 37.6294C25.9965 38.3628 26.0331 39.1054 26.1707 39.8388C26.3082 40.5723 26.3815 41.0582 26.4915 41.6724C26.7671 43.1655 27.1909 44.6274 27.7567 46.0363C28.1143 46.9531 28.5451 47.7874 28.9302 48.6675C29.7248 50.4991 30.7508 52.2214 31.9831 53.7923C33.1361 55.2747 34.5651 56.52 36.1911 57.4595C38.4472 58.7887 41.1175 59.2299 43.6813 58.6972C45.3731 58.3343 46.9693 57.6189 48.3661 56.5977C50.2801 55.1937 51.8998 53.4276 53.1334 51.3995L53.4359 50.9411L53.5459 50.7211C54.384 49.2616 55.0838 47.7269 55.6362 46.1372C56.3386 44.1298 56.8512 42.0611 57.1672 39.958C57.2589 39.3529 57.3414 38.757 57.4056 38.1245C57.4698 37.4919 57.5431 36.6301 57.6073 35.8875V35.7591C57.6073 34.3564 57.6073 31.8445 57.6073 31.3219C57.6717 29.7347 57.8248 28.1523 58.0657 26.5821C58.2949 24.7027 58.3499 24.7485 58.5791 22.8233C58.8541 20.5588 58.7533 20.7422 59.01 18.5694C59.0742 17.9735 59.1383 17.4967 59.1933 17.0934L59.1475 17.0292Z" fill="#4A4C4B"/>
<path d="M23.1543 12.1703C23.1146 10.642 23.3768 9.12082 23.9259 7.69397C24.4749 6.26711 25.3 4.96257 26.3539 3.85503C28.4992 1.68225 31.2221 1.20551 34.7242 0.527091C36.9831 0.119851 39.2781 -0.052199 41.5726 0.0136924C43.7385 -0.0226742 45.9029 0.149248 48.0359 0.527091C51.3088 1.13217 52.9316 1.44388 54.5176 2.61736C55.7052 3.50315 56.7027 4.61858 57.4507 5.89741C58.1988 7.17623 58.6823 8.59235 58.8723 10.0617C58.9732 10.7676 59.1199 11.4644 59.2482 12.1611L23.1543 12.1703Z" fill="#3480BA"/>
<path d="M23.1543 12.1703H59.2482C59.2482 13.0412 59.2482 13.9213 59.2482 14.7923H23.1543V12.1703Z" fill="#394F6B"/>
<path d="M23.1547 14.7738H59.2577L59.1752 17.0566H56.2507C55.2697 17.0566 54.793 17.0566 53.9954 17.0566L51.7767 17.1299L32.2767 17.2125C31.6991 17.2125 30.6173 17.1391 29.0588 17.0933C26.5651 17.0199 24.5207 17.0107 23.1455 17.0199L23.1547 14.7738Z" fill="#3480BA"/>
</svg>
