<svg width="130" height="139" viewBox="0 0 130 139" fill="none" xmlns="http://www.w3.org/2000/svg">
<path d="M129.695 123.578C128.805 115.492 127.083 107.318 119.479 102.56C110.24 96.7223 100.593 91.6286 90.8283 86.0532L72.7448 100.794C71.7368 101.919 70.5164 102.833 69.1538 103.484C67.7912 104.136 66.3133 104.511 64.805 104.589C62.2801 104.589 60.4265 103.495 57.9453 102.064C56.1087 100.991 54.3999 99.7133 52.8516 98.2548C52.1072 97.5543 51.5964 96.9851 51.392 96.7953C47.824 93.2042 44.0781 89.7943 40.1683 86.5787C40.0603 86.6979 39.9172 86.7796 39.7597 86.8122C39.5676 86.8567 39.3725 86.886 39.1758 86.8998H39.0737H38.9423C38.8795 86.937 38.8102 86.9617 38.738 86.9727C38.7246 87.074 38.6843 87.1698 38.6212 87.25C38.2563 87.6587 37.5412 87.5857 37.0741 87.4836C36.8192 87.4619 36.5745 87.3737 36.3644 87.2277C36.1544 87.0817 35.9864 86.883 35.8773 86.6516C35.8706 86.5886 35.8706 86.525 35.8773 86.4619C31.7469 88.7825 28.2878 90.8405 25.6607 92.5773C22.0078 94.8223 18.4757 97.2582 15.0791 99.8749C11.697 102.446 8.51582 105.271 5.56308 108.326C-2.30374 117.287 0.0898665 132.729 1.35965 138.975H129.87C130.089 133.843 130.031 128.703 129.695 123.578Z" fill="#3480BA"/>
<path d="M66.5585 119.549L64.9238 115.17L66.5585 119.549Z" fill="#3480BA"/>
<path d="M68.9503 126.132L65.5059 123.33L68.9503 126.132Z" fill="#3480BA"/>
<path d="M67.3148 109.201C65.6948 110.354 64.7169 111.61 63.8412 111.537C62.9655 111.464 62.1189 110.077 61.2578 109.318C62.1335 108.428 62.9071 107.056 63.9433 106.822C64.6585 106.633 65.7386 108.092 67.3148 109.201Z" fill="#394F6B"/>
<path d="M78.2772 100.327C78.7907 100.186 79.3291 100.161 79.8535 100.254C80.7438 100.254 81.6341 100.415 82.5244 100.502L83.3125 100.634C83.248 100.742 83.1748 100.844 83.0936 100.94C82.2471 101.728 81.4297 102.531 80.554 103.275C79.6783 104.02 78.3793 105.114 77.2701 105.99C75.3284 107.487 73.2957 108.861 71.1839 110.106C69.8744 110.903 68.479 111.549 67.0243 112.033C64.9418 112.691 62.6911 112.572 60.6899 111.697C59.0564 110.974 57.5292 110.031 56.1508 108.895C54.1513 107.333 52.1809 105.757 50.2106 104.166L45.832 100.59L46.7077 100.459L50.3711 100.24C51.1009 100.75 51.8307 101.291 52.5458 101.772C55.4649 103.699 58.3839 105.625 61.3029 107.523C62.4601 108.263 63.8328 108.592 65.1999 108.457C66.4174 108.334 67.5806 107.891 68.5714 107.172L77.708 100.794C77.9061 100.649 78.0962 100.493 78.2772 100.327Z" fill="#394F6B"/>
<path d="M77.4022 100.138C76.4681 100.138 75.5195 100.211 74.5708 100.225C73.2337 100.244 71.8986 100.337 70.5717 100.503C68.8207 100.69 67.0813 100.972 65.3612 101.349L64.9379 101.437C64.9094 101.598 64.8389 101.749 64.7336 101.875C64.5965 102.007 64.4132 102.08 64.2228 102.079C63.8994 102.061 63.5776 102.022 63.2595 101.962H63.1135C62.922 101.955 62.74 101.877 62.6027 101.743C62.4665 101.608 62.388 101.424 62.3838 101.232C62.3773 101.184 62.3773 101.135 62.3838 101.086C61.6102 100.94 60.8367 100.809 60.0631 100.707C58.516 100.503 56.9543 100.327 55.4073 100.254C53.8602 100.182 52.0212 100.254 50.3281 100.254C51.0579 100.765 51.7876 101.305 52.5028 101.787C55.4218 103.714 58.3409 105.64 61.2599 107.537C62.4171 108.278 63.7898 108.607 65.1568 108.472C66.3743 108.349 67.5376 107.905 68.5284 107.187L77.7087 100.794C77.9231 100.637 78.1278 100.466 78.3217 100.284C78.0208 100.205 77.7128 100.156 77.4022 100.138Z" fill="#3480BA"/>
<path d="M66.0332 34.4885L66.3251 34.5615V34.6491H66.0332V34.4885Z" fill="#4A4C4B"/>
<path d="M64.499 117.097C65.5308 117.097 66.3672 116.326 66.3672 115.375C66.3672 114.424 65.5308 113.653 64.499 113.653C63.4673 113.653 62.6309 114.424 62.6309 115.375C62.6309 116.326 63.4673 117.097 64.499 117.097Z" fill="#394F6B"/>
<path d="M64.5127 127.387C65.5445 127.387 66.3809 126.616 66.3809 125.665C66.3809 124.714 65.5445 123.943 64.5127 123.943C63.4809 123.943 62.6445 124.714 62.6445 125.665C62.6445 126.616 63.4809 127.387 64.5127 127.387Z" fill="#394F6B"/>
<path d="M64.6013 137.195C65.6734 137.195 66.5425 136.391 66.5425 135.4C66.5425 134.408 65.6734 133.604 64.6013 133.604C63.5292 133.604 62.6602 134.408 62.6602 135.4C62.6602 136.391 63.5292 137.195 64.6013 137.195Z" fill="#394F6B"/>
<path d="M62.002 102.56C68.0355 99.42 73.5212 95.3242 78.2464 90.4315C82.3331 86.053 83.924 82.9734 84.7267 79.9522C85.147 78.336 85.3675 76.6743 85.3835 75.0044C90.5502 76.785 92.3746 81.1636 93.98 85.7319C95.6522 94.6128 95.5331 103.738 93.6298 112.573C93.4984 113.2 93.3671 113.813 93.1919 114.426C93.0834 114.661 92.9462 114.882 92.7832 115.083C92.5497 114.981 92.2724 114.937 92.1703 114.791C87.7917 108.486 81.3552 105.596 74.116 104.166C70.8028 103.523 67.373 103.494 64.0161 103.129C63.3301 102.996 62.6564 102.806 62.002 102.56Z" fill="#394F6B"/>
<path d="M42.5325 75.501C42.5325 82.9591 46.6192 88.3594 51.9172 93.0152C56.4709 97.0143 61.229 100.809 67.0087 103.071C63.7113 103.145 60.4213 103.418 57.1569 103.889C45.2326 106.341 44.0212 107.07 35.2641 115.652C32.7375 106.072 32.3291 96.0558 34.0673 86.3014C35.5852 81.7039 37.3658 77.2962 42.5325 75.501Z" fill="#394F6B"/>
<path d="M64.3979 0H66.8645C70.5902 0.252027 74.2395 1.17671 77.6357 2.7293C80.0996 3.8315 82.4262 5.21773 84.5684 6.85977C87.2449 8.96781 89.3438 11.7194 90.6693 14.8579C91.8649 17.6036 92.6516 20.5098 93.0045 23.4837H92.8439C92.5412 22.3214 92.0212 21.227 91.3114 20.2582L91.0779 20.01V19.9225V20.083C91.4136 20.9733 91.7785 21.849 92.0996 22.7393C92.3478 23.6134 92.4803 24.5163 92.4937 25.4248C92.6567 27.3079 92.6957 29.1996 92.6104 31.0878C92.6104 32.2554 92.4499 33.423 92.3185 34.5761C92.0565 37.1582 91.4579 39.6949 90.5379 42.1218C90.1292 43.1434 89.6476 44.1359 89.0784 45.1138C88.6438 46.0002 88.3814 46.961 88.3048 47.9453C88.1175 50.4559 88.0688 52.975 88.1589 55.491C88.1589 57.8554 88.1589 60.2199 88.1589 62.5843V62.847C87.7745 67.235 86.7161 71.5376 85.0209 75.6032C83.8533 78.1865 76.1032 95.1608 63.6827 95.0002C53.145 94.8835 46.1684 82.5068 43.8478 78.5514C41.6568 74.4656 40.1156 70.0635 39.2795 65.5033C39.1044 64.2919 38.9876 63.0221 38.9876 63.0221C38.9146 62.234 38.8708 61.4458 38.8125 60.6577L38.5935 57.5051V57.3154C38.5935 56.3083 38.5205 55.3013 38.433 54.3088C38.2401 52.24 37.8191 50.1989 37.1778 48.2226C35.9518 44.3257 34.7842 40.3995 33.8355 36.4296C33.4998 34.9701 33.2517 33.5982 32.9598 32.1824C32.6855 30.6391 32.5197 29.0785 32.4635 27.512C32.3611 26.103 32.3611 24.6884 32.4635 23.2794C32.7978 18.2026 34.7058 13.3561 37.9222 9.41393C39.5263 7.4966 41.6118 6.04074 43.9646 5.19589C45.8293 4.50849 47.8224 4.23942 49.8027 4.40774C50.8973 4.49531 51.9919 4.71423 53.072 4.90397C53.1857 4.93997 53.3077 4.94116 53.4221 4.90736C53.5365 4.87355 53.6382 4.80632 53.7142 4.71427C54.6389 3.65876 55.7342 2.76575 56.9543 2.0725C58.6531 1.12579 60.5147 0.50691 62.4421 0.248094C63.1135 0.0875463 63.7411 0.0875713 64.3979 0ZM65.1714 36.021C63.1136 35.9699 61.0634 35.7503 59.0414 35.3642C55.2804 34.6297 51.7364 33.0474 48.6788 30.7375C46.7217 29.228 44.983 27.4549 43.5121 25.4687L43.118 24.987C42.6611 28.1533 42.8097 31.3776 43.5559 34.4885C42.2188 32.5829 41.4818 30.3211 41.4396 27.9936C41.3774 28.0595 41.3323 28.1397 41.3082 28.2271C41.0017 29.4969 40.6514 30.7667 40.3887 32.0511C40.1844 33.029 40.0385 34.0214 39.9217 34.9701C39.8415 35.6872 39.8123 36.409 39.8341 37.1302C39.8341 38.7795 39.8341 40.4287 39.9363 42.0634C39.9363 43.0559 40.0822 44.063 40.2136 44.9825C40.3449 45.902 40.4909 46.6755 40.6806 47.522C41.0601 49.361 41.4542 51.2146 41.8921 53.0536C42.5934 56.1673 43.6157 59.1998 44.9424 62.1026C45.9894 64.4305 47.3019 66.6295 48.854 68.6559C49.9416 70.0465 51.2901 71.2115 52.8239 72.0857C53.5081 72.4781 54.2611 72.7358 55.0423 72.8447C56.1552 72.9688 57.2798 72.9394 58.3846 72.7571C59.2457 72.6258 60.0777 72.4068 60.9388 72.2317C62.09 71.9525 63.2843 71.898 64.4562 72.0712C65.3465 72.2317 66.2369 72.4215 67.1126 72.6258C68.2974 72.9124 69.5266 72.9669 70.7322 72.7863C72.5427 72.4898 74.2353 71.6965 75.6216 70.4949C76.6581 69.6272 77.5585 68.6088 78.2925 67.4737C80.1676 64.5862 81.6085 61.4389 82.5689 58.1327C83.4925 54.9565 84.1851 51.7177 84.6414 48.4415C84.7144 48.0474 84.7436 47.6388 84.8166 47.2447C85.1084 46.1299 85.1084 44.9588 84.8166 43.844C84.0592 41.4898 82.5126 39.4689 80.438 38.1227C78.5337 36.8821 76.4155 36.0061 74.1912 35.5394C72.1333 35.0431 70.0316 34.7804 67.9445 34.4593C67.0688 34.3133 66.1931 34.2112 65.3174 34.0506C63.7703 33.7587 62.2378 33.423 60.6907 33.1019L60.3988 33.029V33.1019L60.7053 33.2917C62.0805 34.3548 63.6248 35.1788 65.2736 35.7291L65.1714 36.021Z" fill="#4A4C4B"/>
</svg>
