<svg width="142" height="139" viewBox="0 0 142 139" fill="none" xmlns="http://www.w3.org/2000/svg">
<path d="M83.6449 39.1411C85.1936 39.5658 86.653 40.3279 87.9398 41.2838C89.2256 42.2394 90.0852 43.4321 90.959 44.7515L90.9593 44.7523C91.2319 45.0795 91.4603 45.4764 91.6479 45.8882C92.248 46.9642 92.7244 48.0761 93.1494 49.2649C93.751 50.9469 93.9826 52.6227 94.0404 54.4036C94.0927 56.0178 93.8518 57.6101 93.6962 59.213C93.6844 60.4928 93.6142 61.7744 93.4731 63.0545C93.4478 63.2813 93.3449 63.4394 93.2052 63.5358C93.2032 63.552 93.2006 63.5679 93.1984 63.5833C93.9726 62.8144 94.7984 62.1111 95.721 61.4725C97.2782 60.3955 98.8996 59.8082 100.704 59.2864C102.452 58.7806 104.182 58.3037 106.008 58.1953C107.905 58.0837 109.789 58.1507 111.675 58.3607C112.597 58.463 113.524 58.4841 114.446 58.5747C115.385 58.6667 116.293 58.9131 117.192 59.1941C119.05 59.7758 120.831 60.4923 122.497 61.5099C123.974 62.4121 125.245 63.7774 126.377 65.077C127.499 66.3667 128.063 68.0286 128.209 69.7189C128.363 71.4968 127.803 73.3599 127.339 75.0605C126.847 76.8671 125.688 78.4657 124.377 79.7831C123.74 80.4224 123.031 80.9779 122.352 81.5694C121.666 82.166 121.022 82.815 120.284 83.3509C118.754 84.4617 117.074 85.3757 115.379 86.2038C113.694 87.0263 112.054 87.9425 110.396 88.8154C109.561 89.255 108.736 89.7298 107.871 90.1064C107.076 90.4528 106.235 90.6714 105.428 90.9843C104.55 91.3239 103.736 91.8005 102.907 92.2421C102.064 92.6912 101.197 93.0689 100.303 93.4068C99.4607 93.7249 98.6093 94.0246 97.8088 94.4411C97.0116 94.8559 96.2549 95.3492 95.4288 95.7076C94.604 96.0659 93.7324 96.2946 92.8805 96.5754C92.0287 96.8561 91.2094 97.2198 90.3855 97.5718C89.5097 97.946 88.6333 98.3145 87.7225 98.5969C86.812 98.8788 85.8915 99.1226 85.0055 99.4779C83.2714 100.174 81.5565 100.906 79.8105 101.575C79.1381 101.833 78.4476 102.019 77.7545 102.193C77.5557 102.548 77.0988 102.654 76.7516 102.441C76.0556 102.614 75.3635 102.801 74.6908 103.06C74.6082 103.091 74.5266 103.125 74.4442 103.158C74.3145 103.468 74.0364 103.69 73.6441 103.689C73.5111 103.689 73.3919 103.661 73.2852 103.614C72.9195 103.757 72.5528 103.899 72.1776 104.019C71.3069 104.298 70.7667 102.977 71.6431 102.696C71.984 102.586 72.3195 102.467 72.6528 102.344C72.5277 101.226 72.4962 100.085 72.409 98.9658C72.3432 98.1185 72.2718 97.2719 72.2018 96.4246C72.0057 95.1978 71.8128 93.9705 71.6372 92.7396C71.4075 91.1294 71.0909 89.5242 70.8981 87.9097C70.7177 86.4004 70.6153 84.8728 70.4982 83.3559C70.484 83.3607 70.4708 83.3661 70.4566 83.3709C70.2558 83.4372 70.0755 83.4207 69.9254 83.3545C70.0505 86.4075 70.2258 89.4563 70.4379 92.5068C70.5013 93.421 69.086 93.6056 69.0222 92.6882C68.7161 88.2857 68.4934 83.8883 68.3735 79.477C68.315 77.3293 68.199 75.1758 68.2047 73.0268C68.2112 70.863 68.3216 68.693 68.3663 66.5291C68.3798 65.8579 69.1379 65.7852 69.5382 66.1484C69.5599 65.365 69.5625 64.5837 69.4787 63.8148C69.3949 63.0514 69.2404 62.2961 69.2148 61.5271C69.1851 60.6563 69.2443 59.7815 69.2782 58.9123C69.4065 55.6494 69.3947 52.2712 70.1782 49.0852C70.9522 45.9387 72.6298 42.8978 75.2429 40.9067C77.5357 39.1589 80.8554 38.3756 83.6449 39.1411ZM79.239 100.229C79.1114 100.106 79.0277 99.9388 79.0029 99.7646C78.6846 99.9119 78.3733 100.07 78.0699 100.241C78.0554 100.373 78.0387 100.506 78.0229 100.638C78.4319 100.51 78.8369 100.374 79.239 100.229ZM78.4691 44.1823C78.4289 44.327 78.3934 44.4719 78.361 44.6182C78.3638 44.6272 78.3666 44.6363 78.3694 44.6454C78.4157 44.5208 78.4656 44.3989 78.5152 44.2764C78.4993 44.2454 78.485 44.2133 78.4691 44.1823ZM86.9865 52.941C86.9348 52.8173 86.8893 52.6919 86.8418 52.5668C86.8966 53.0228 86.9473 53.4801 87 53.937C87.0006 53.8142 87.0025 53.6914 87.0019 53.5687C87.0009 53.3641 86.9969 53.1593 86.9954 52.9545C86.9931 52.9499 86.9891 52.9464 86.9865 52.941ZM84.5325 43.3941C84.4844 43.4234 84.4392 43.4654 84.3967 43.5171C84.4941 43.8329 84.5654 44.1547 84.6117 44.4695C84.6523 44.3298 84.6972 44.1925 84.7487 44.0598C84.6895 43.8365 84.6167 43.6141 84.5325 43.3941ZM85.0308 51.8405C84.9221 51.5513 84.8282 51.2557 84.7446 50.9572C84.835 51.7179 84.9241 52.4787 85.0159 53.2389C85.0211 52.7727 85.0293 52.3065 85.0308 51.8405ZM112.517 64.3173C112.221 64.4927 111.923 64.6655 111.625 64.838C111.637 65.0168 111.659 65.1926 111.661 65.3744C111.663 65.5425 111.664 65.7127 111.666 65.8813C111.812 65.8122 111.958 65.7441 112.104 65.6753C112.15 65.52 112.19 65.3635 112.237 65.2081C112.328 64.9143 112.421 64.6158 112.517 64.3173ZM83.0467 51.2866C83.0427 51.2788 83.0407 51.2707 83.0365 51.2635C83.0834 51.6482 83.1291 52.0331 83.1756 52.4176C83.1642 52.0904 83.1523 51.7629 83.1422 51.4356C83.1061 51.3906 83.0731 51.3414 83.0467 51.2866ZM94.032 89.5063C94.0502 89.4947 94.069 89.4833 94.0878 89.4719C94.0429 89.4092 94.0115 89.3389 93.9961 89.2626C93.8738 89.295 93.7511 89.3271 93.6292 89.3602C93.4917 89.5242 93.3568 89.6906 93.2185 89.8537C93.4877 89.7334 93.7602 89.6212 94.032 89.5063ZM99.2832 85.8662C99.2686 85.8406 99.2574 85.8129 99.2459 85.7856C98.4707 86.0528 97.7326 86.3854 97.0034 86.7383C96.9292 86.8559 96.8576 86.9746 96.784 87.0924C97.3083 86.9708 97.8339 86.8533 98.3604 86.7423C98.4517 86.7229 98.5364 86.7231 98.6149 86.7382C98.8367 86.4469 99.0598 86.1568 99.2832 85.8662ZM110.108 71.1485C110.141 70.5613 110.156 69.9741 110.171 69.3871C110.143 69.4066 110.114 69.4258 110.086 69.4454C109.978 70.3549 109.912 71.2698 109.906 72.1846C109.956 72.1585 110.004 72.1312 110.054 72.1049C110.073 71.7863 110.09 71.467 110.108 71.1485ZM90.3823 91.181C90.382 91.1191 90.3906 91.0561 90.4121 90.9925C90.3011 91.0684 90.186 91.1425 90.0737 91.2185C90.1783 91.2077 90.2652 91.1986 90.3121 91.1924C90.3353 91.189 90.3591 91.1845 90.3823 91.181ZM86.4811 83.7299C86.4733 83.7812 86.4647 83.8327 86.4571 83.8834C86.7332 83.757 87.0082 83.6289 87.284 83.5017C87.6795 83.1666 88.0735 82.8297 88.4653 82.4906C87.8592 82.869 87.2501 83.2431 86.6463 83.6249C86.5907 83.6601 86.5364 83.6952 86.4811 83.7299ZM95.4415 75.1799C94.9093 75.8182 94.3859 76.4644 93.8734 77.1177C94.0755 77.0399 94.2774 76.9614 94.4798 76.8843C94.8324 76.5734 95.1922 76.2698 95.5635 75.9747C95.6011 75.9446 95.6406 75.9172 95.678 75.8876C95.9064 75.4652 96.1338 75.0423 96.3654 74.6225C96.0578 74.8089 95.7518 74.9971 95.4415 75.1799ZM87.1113 79.6516C87.5715 79.4912 88.0308 79.3287 88.4898 79.1654C88.6976 78.9657 88.9091 78.7701 89.126 78.5803C89.1817 78.5319 89.2394 78.486 89.2951 78.4376C88.5811 78.7775 87.8636 79.1086 87.1397 79.4261C87.1297 79.5012 87.1219 79.5767 87.1113 79.6516ZM98.8326 75.439C98.9394 75.3644 99.0465 75.2892 99.1519 75.2122C99.3076 75.0595 99.4636 74.9076 99.6197 74.7556C99.5716 74.7904 99.523 74.8249 99.4749 74.8596C99.2626 75.0555 99.0479 75.2474 98.8326 75.439ZM99.4722 76.8929C100.032 76.6529 100.59 76.4094 101.148 76.1643C101.174 75.9137 101.205 75.6643 101.237 75.4145C100.846 75.7223 100.453 76.0288 100.052 76.3234C99.8588 76.5134 99.6654 76.7034 99.4722 76.8929ZM80.6282 79.5683C80.5974 79.9006 80.5718 80.2334 80.547 80.5659C80.9021 80.3748 81.2596 80.1866 81.6149 79.9963C81.6295 79.7164 81.6443 79.4373 81.6612 79.1578C81.3177 79.2974 80.9736 79.4355 80.6282 79.5683ZM84.2059 78.0315C84.2044 78.2078 84.2041 78.3841 84.2024 78.5609C84.2413 78.532 84.2802 78.5031 84.3197 78.4744C84.3373 78.3 84.3562 78.1256 84.3741 77.9508C84.3183 77.978 84.2622 78.0045 84.2059 78.0315ZM104.37 73.1846C104.266 73.7035 104.175 74.2253 104.09 74.7483C104.203 74.701 104.318 74.6583 104.432 74.614C104.449 74.1048 104.475 73.5952 104.515 73.0874C104.467 73.1196 104.418 73.1524 104.37 73.1846ZM93.5255 83.3461C93.5185 83.3613 93.5116 83.376 93.5046 83.3912C93.5605 83.3495 93.6164 83.3077 93.6722 83.266C93.6234 83.2925 93.5743 83.3196 93.5255 83.3461ZM86.4893 87.4763C86.7142 87.2536 86.9435 87.0346 87.1715 86.8144C87.0171 86.8955 86.8626 86.9766 86.7121 87.0642C86.482 87.198 86.2581 87.34 86.0354 87.4848C86.0247 87.5942 86.0143 87.7043 86.0042 87.8139C86.1187 87.7468 86.2346 87.6809 86.3486 87.6135C86.3955 87.5674 86.443 87.5227 86.4893 87.4763ZM81.5558 81.6329C81.5118 81.6567 81.4673 81.6802 81.423 81.7044C81.4672 81.6904 81.511 81.6757 81.5553 81.6612C81.5555 81.6522 81.5559 81.6427 81.5558 81.6329ZM103.707 78.9037C103.796 78.8954 103.878 78.9026 103.952 78.9179C104.071 78.4738 104.189 78.0301 104.308 77.5865C104.107 77.7235 103.908 77.8644 103.708 78.0038C103.685 78.3064 103.661 78.6083 103.642 78.9112C103.665 78.9091 103.686 78.9053 103.707 78.9037ZM96.9116 80.7377C96.9228 80.7655 96.9313 80.794 96.9391 80.8228C97.1772 80.6445 97.4167 80.4686 97.653 80.2889C97.4074 80.4434 97.16 80.5935 96.9116 80.7377ZM81.4249 85.2632C81.4565 84.5664 81.4863 83.8694 81.5109 83.172C81.4927 83.1776 81.4759 83.1844 81.458 83.1895C81.1591 83.2741 80.8617 83.3594 80.5654 83.4463C80.639 84.1908 80.7061 84.9363 80.7658 85.6822C80.9853 85.542 81.2054 85.4034 81.4249 85.2632ZM98.4941 81.935C98.5095 81.9331 98.5255 81.9296 98.5404 81.9286C98.5468 81.9192 98.5536 81.9106 98.5605 81.9014C98.5384 81.912 98.5164 81.9239 98.4941 81.935ZM94.9566 84.7203C94.5569 84.8482 94.1555 84.9699 93.7514 85.0838C93.4791 85.307 93.2102 85.5322 92.9477 85.7607C92.3366 86.2922 91.7019 86.7894 91.0616 87.2799C91.6553 86.955 92.2475 86.6277 92.8124 86.2536C93.5398 85.7721 94.254 85.2547 94.9566 84.7203ZM82.8544 89.4633C82.8539 89.4558 82.8532 89.4489 82.8525 89.4419C82.8332 89.4519 82.8136 89.4623 82.794 89.4728C82.7939 89.4788 82.7935 89.4853 82.7934 89.4913C82.8136 89.4823 82.8342 89.4723 82.8544 89.4633ZM84.2035 74.7809C84.3303 74.6851 84.4576 74.5907 84.5842 74.4953C84.5252 74.4472 84.4753 74.3891 84.4322 74.3265C84.3542 74.3661 84.2756 74.4055 84.1974 74.4456C84.1991 74.5573 84.2025 74.669 84.2035 74.7809ZM108.752 77.8163C108.76 77.8123 108.767 77.8086 108.774 77.8051C108.772 77.781 108.771 77.7571 108.769 77.7332C108.763 77.7611 108.758 77.7884 108.752 77.8163ZM109.078 79.9001C109.069 79.8465 109.059 79.7931 109.049 79.7394C108.794 79.8873 108.541 80.0386 108.293 80.1982C108.32 80.3607 108.346 80.5236 108.377 80.6856C108.594 80.5341 108.813 80.3845 109.03 80.2311C109.046 80.1203 109.062 80.0103 109.078 79.9001ZM104.887 82.6153C104.79 82.6867 104.693 82.7596 104.596 82.831C104.692 82.7912 104.788 82.7515 104.885 82.7118C104.886 82.6794 104.887 82.6471 104.887 82.6153ZM81.1486 88.7234C81.1842 88.7051 81.2205 88.6866 81.2562 88.6684C81.2693 88.4176 81.2819 88.1666 81.2945 87.9157C81.1744 87.9659 81.0536 88.0164 80.933 88.0664C80.9478 88.3169 80.9582 88.568 80.9713 88.8184C81.0309 88.7879 81.089 88.7538 81.1486 88.7234ZM81.7422 73.8378C81.7364 73.5832 81.7302 73.3279 81.7238 73.0731C81.7091 73.0778 81.694 73.0835 81.6796 73.0889C81.695 73.3409 81.7097 73.5932 81.7255 73.8459C81.7308 73.8433 81.7364 73.8402 81.7422 73.8378ZM106.81 67.5449C106.752 67.7744 106.698 68.004 106.646 68.2355C106.703 68.2099 106.76 68.1842 106.816 68.1591C106.883 67.9052 106.951 67.6521 107.018 67.3982C106.949 67.447 106.879 67.4961 106.81 67.5449ZM110.799 78.707C110.762 78.7313 110.723 78.7529 110.685 78.777C110.672 78.8706 110.658 78.9644 110.645 79.058C110.732 78.9933 110.821 78.9303 110.908 78.8656C110.899 78.7927 110.891 78.7202 110.883 78.6475C110.854 78.667 110.827 78.6882 110.799 78.707ZM101.163 81.0222C101.157 80.9711 101.149 80.9199 101.144 80.869C101.126 80.8743 101.109 80.8791 101.091 80.8845C100.984 81.0254 100.875 81.1652 100.768 81.3071C100.807 81.2926 100.845 81.2775 100.884 81.2631C100.978 81.1835 101.07 81.102 101.163 81.0222ZM84.1488 72.5572C84.1515 72.6195 84.1541 72.6819 84.1562 72.744C84.2291 72.7149 84.3025 72.6849 84.3757 72.6566C84.2944 72.6384 84.2173 72.6057 84.1488 72.5572ZM113.975 79.4508C113.617 79.6501 113.259 79.8516 112.9 80.0514C112.894 80.0838 112.886 80.116 112.879 80.1482C113.253 79.9519 113.621 79.7446 113.985 79.5314C113.982 79.5044 113.979 79.4778 113.975 79.4508ZM81.2164 91.6157C81.1748 91.6295 81.1334 91.6428 81.0917 91.6567C81.0958 91.7984 81.1016 91.9402 81.1057 92.082C81.1452 92.066 81.1844 92.0493 81.2234 92.0332C81.2207 91.8938 81.2186 91.7547 81.2164 91.6157ZM100.91 83.7841C101.119 83.5201 101.325 83.254 101.536 82.9912C101.506 82.8809 101.476 82.7702 101.449 82.6592C100.848 83.1677 100.241 83.6694 99.6284 84.1638C100.053 84.0314 100.48 83.9055 100.91 83.7841ZM77.5473 68.5759C77.5615 68.9964 77.571 69.418 77.5805 69.8396C77.6856 69.2394 77.8291 68.6501 78.02 68.082C77.8426 66.0917 77.7048 64.0993 77.6334 62.1018C77.6279 62.1904 77.625 62.2788 77.6197 62.3669C77.4995 64.4315 77.4781 66.509 77.5473 68.5759ZM78.8651 53.5706C78.879 53.8504 78.8837 54.1318 78.8952 54.4118C78.9387 54.8133 78.9861 55.214 79.0264 55.6159C79.1819 57.1625 79.1439 58.7196 79.2116 60.2731C79.2209 59.5559 79.2192 58.8376 79.1739 58.1136C79.0665 56.4123 79.1712 54.7181 79.197 53.017C79.1743 53.0207 79.1512 53.0193 79.1278 53.0203C79.0397 53.2035 78.9501 53.3861 78.8651 53.5706ZM80.8485 58.647C80.8503 58.7114 80.8533 58.7757 80.8551 58.84C80.9081 60.9049 81.2222 62.943 81.2905 65.0077C81.3198 64.8401 81.3443 64.6711 81.3756 64.5032C81.406 64.3373 81.4921 64.206 81.6044 64.107C81.3896 62.3547 81.159 60.6066 80.9069 58.8578C80.891 58.7511 80.869 58.646 80.8518 58.5393C80.8506 58.5751 80.8503 58.6114 80.8485 58.647ZM117.621 74.6741C117.609 74.7041 117.596 74.7336 117.584 74.7641C117.597 74.8668 117.615 74.9694 117.629 75.072C117.668 75.0484 117.706 75.024 117.744 75.0001C117.762 74.858 117.772 74.7157 117.787 74.5735C117.732 74.607 117.677 74.6406 117.621 74.6741ZM107.774 83.8579C107.583 84.0215 107.394 84.1865 107.204 84.3508C107.41 84.2312 107.618 84.1128 107.826 83.9949C107.808 83.9493 107.791 83.9036 107.774 83.8579ZM81.2287 93.8535C81.0473 93.9141 80.8649 93.9724 80.6816 94.0273C80.6792 94.1602 80.6762 94.2929 80.6732 94.4255C80.8557 94.3212 81.0376 94.2166 81.2187 94.1099C81.2221 94.0247 81.2263 93.9392 81.2287 93.8535ZM76.4827 91.2829C76.595 91.2197 76.7078 91.1567 76.8201 91.0935C76.8156 90.86 76.8113 90.6261 76.8062 90.3924C76.6733 90.413 76.538 90.3876 76.4165 90.3082C76.4405 90.6329 76.4625 90.958 76.4827 91.2829ZM85.2496 69.6689C85.295 69.4591 85.3412 69.249 85.3894 69.0398C85.3355 68.5842 85.2784 68.1291 85.2173 67.6735C85.2265 68.3386 85.234 69.0047 85.2496 69.6689ZM88.9791 68.6311C89.0442 68.6006 89.1104 68.573 89.1755 68.5424C89.1126 68.5393 89.0545 68.5262 89.0003 68.5056C88.9929 68.5473 88.986 68.5892 88.9791 68.6311ZM98.0921 66.0984C97.8041 66.2258 97.5193 66.36 97.2355 66.4947C97.1386 66.6057 97.0439 66.7188 96.9437 66.8265C97.594 66.4966 98.2472 66.1715 98.9009 65.8478C99.1802 65.6767 99.4612 65.5088 99.7456 65.3471C99.1937 65.5964 98.6458 65.8535 98.0921 66.0984ZM113.684 82.0838C113.637 82.1137 113.591 82.1443 113.543 82.174C113.571 82.203 113.596 82.2334 113.624 82.2617C113.644 82.2015 113.665 82.1429 113.684 82.0838ZM76.8487 92.6607C76.8385 92.6618 76.8294 92.6634 76.8192 92.6645C76.7272 92.6757 76.6384 92.6635 76.5547 92.6365C76.5717 93.0619 76.5815 93.4884 76.5874 93.9157C76.6792 93.8765 76.7721 93.839 76.8644 93.8C76.8582 93.4205 76.8536 93.0403 76.8487 92.6607ZM88.7858 70.2969C88.7814 70.3859 88.7661 70.4691 88.7374 70.5424C89.6764 70.0562 90.6048 69.551 91.5153 68.9994C90.6123 69.4463 89.7038 69.8818 88.7858 70.2969ZM119.613 78.179C119.546 78.5226 119.476 78.8656 119.403 79.2084C119.389 79.27 119.377 79.3343 119.364 79.3996C119.491 79.3274 119.619 79.2597 119.745 79.1858C119.953 79.0642 120.163 78.9469 120.372 78.8264C120.153 78.601 119.975 78.3279 119.826 78.0325C119.755 78.0811 119.685 78.1305 119.613 78.179ZM116.301 81.0215C116.415 80.7477 116.522 80.4703 116.618 80.1861C116.332 80.3747 116.044 80.5625 115.757 80.7502C115.829 80.9042 115.916 81.046 116.021 81.1709C116.115 81.1213 116.208 81.0705 116.301 81.0215ZM112.331 82.9326C112.278 82.9659 112.225 82.9984 112.172 83.0317C112.145 83.1352 112.118 83.2396 112.09 83.343C112.079 83.385 112.068 83.4279 112.055 83.4707C112.224 83.3802 112.394 83.2933 112.559 83.1986C112.48 83.1133 112.404 83.0248 112.331 82.9326ZM87.0495 67.3077C87.1036 67.4173 87.1346 67.5456 87.1249 67.6955C87.1161 67.836 87.1026 67.9763 87.0911 68.1163C87.0943 68.2073 87.1029 68.2982 87.1048 68.3894C87.114 68.749 87.1132 69.1092 87.1108 69.4688C87.1627 69.4466 87.2131 69.4219 87.265 69.3997C87.2701 69.3619 87.2753 69.3241 87.2809 69.2865C87.2342 68.6643 87.1907 68.0416 87.1278 67.4203C87.0971 67.117 87.0519 66.8167 87.0023 66.5168C87.0212 66.7806 87.0329 67.0443 87.0495 67.3077ZM115.295 71.1927C115.249 71.3616 115.202 71.5307 115.155 71.6999C115.103 72.5202 115.075 73.3408 115.076 74.1606C115.177 74.1026 115.278 74.043 115.38 73.9855C115.462 73.0343 115.447 72.0849 115.428 71.1327C115.383 71.1518 115.34 71.1737 115.295 71.1927ZM117.41 71.336C117.592 70.8593 117.767 70.3817 117.943 69.9034C117.784 69.9887 117.623 70.0702 117.464 70.1534C117.438 70.5467 117.419 70.941 117.41 71.336ZM120.32 73.454C120.366 73.4274 120.412 73.3995 120.458 73.3731C120.652 73.2636 120.849 73.2451 121.024 73.2879C120.996 73.08 120.965 72.8697 120.935 72.6606C120.743 72.7772 120.552 72.8939 120.359 73.0111C120.346 73.1589 120.335 73.3063 120.32 73.454ZM121.005 77.2212C121.018 77.2482 121.027 77.2786 121.041 77.3052C121.048 77.319 121.058 77.3367 121.067 77.3524C121.088 77.2813 121.106 77.2097 121.125 77.138C121.086 77.166 121.045 77.1935 121.005 77.2212ZM101.504 87.5577C100.591 88 99.68 88.4534 98.7669 88.9026C98.7611 88.9105 98.7551 88.9189 98.7488 88.9265C99.5524 88.6083 100.347 88.2661 101.136 87.9091C101.257 87.791 101.382 87.6748 101.504 87.5577ZM82.5578 96.4716C82.5558 96.4962 82.5541 96.5203 82.5518 96.5442C82.7036 96.4735 82.8547 96.4031 83.0063 96.3329C82.8582 96.3834 82.7068 96.4246 82.5578 96.4716ZM88.686 64.4136C88.6848 64.6506 88.6793 64.8877 88.6726 65.1248C88.8328 65.1086 88.9962 65.1391 89.1331 65.2148C88.9715 63.6112 88.7985 62.0087 88.6164 60.4078C88.6834 61.7417 88.6941 63.0813 88.686 64.4136ZM112.147 61.8048C112.002 62.0028 111.876 62.2171 111.764 62.44C112.025 62.3413 112.289 62.2469 112.546 62.1386C112.598 62.1166 112.649 62.0922 112.701 62.0705C112.696 61.9823 112.691 61.8947 112.685 61.8073C112.505 61.8062 112.326 61.8046 112.147 61.8048ZM76.9369 52.1339C76.9525 52.1756 76.9679 52.2179 76.984 52.2599C76.9974 52.1541 77.0106 52.0488 77.0238 51.9435C76.9955 52.0072 76.9662 52.0705 76.9369 52.1339ZM114.896 63.9113C114.843 63.6326 114.696 63.4046 114.621 63.1455C114.611 63.1104 114.6 63.0888 114.59 63.0722C114.57 63.084 114.55 63.0957 114.531 63.1079C114.503 63.1538 114.48 63.2028 114.459 63.2521C114.503 63.6245 114.535 63.9982 114.561 64.3718C114.564 64.4233 114.566 64.4748 114.569 64.526C114.666 64.4812 114.764 64.4364 114.861 64.3916C114.884 64.2995 114.905 64.2069 114.929 64.115C114.917 64.0475 114.908 63.979 114.896 63.9113ZM120.524 70.0811C120.517 70.4702 120.503 70.859 120.485 71.2469C120.566 71.2018 120.646 71.1558 120.727 71.1108C120.624 70.2946 120.55 69.4766 120.523 68.6637C120.53 69.1359 120.533 69.6086 120.524 70.0811ZM80.844 48.5879C80.8998 48.4807 80.9523 48.3715 81.0009 48.2612C80.9057 47.8844 80.841 47.503 80.803 47.1185C80.8028 47.1347 80.8015 47.1506 80.8011 47.1673C80.8515 47.6439 80.8625 48.1176 80.844 48.5879ZM117.642 68.3623C117.717 68.3239 117.793 68.2865 117.868 68.2488C117.845 67.968 117.819 67.6879 117.788 67.4081C117.734 67.7257 117.684 68.0435 117.642 68.3623ZM120.491 67.4386C120.5 67.4491 120.507 67.4611 120.515 67.4726C120.528 67.1538 120.551 66.8359 120.58 66.5182C120.543 66.6807 120.507 66.8425 120.474 67.0055C120.48 67.1498 120.485 67.2945 120.491 67.4386ZM81.2336 97.3609C81.2417 97.3419 81.2523 97.324 81.2617 97.3062C81.1739 97.1961 81.1166 97.0585 81.1054 96.895C80.9414 96.9387 80.7777 96.9831 80.6126 97.0251C80.608 97.2056 80.606 97.386 80.602 97.5667C80.8116 97.4956 81.0225 97.427 81.2336 97.3609ZM75.0329 47.033C75.0766 46.7188 75.1276 46.4059 75.1938 46.0959C75.3089 45.5605 75.4584 45.0313 75.6417 44.514C75.307 45.2367 75.061 45.9862 74.9015 46.75C74.9466 46.8436 74.99 46.9384 75.0329 47.033ZM76.7665 45.6545C76.4091 46.9033 76.2708 48.244 76.3706 49.542C76.5675 48.8086 76.6987 48.0584 76.7541 47.3013C76.7201 46.7802 76.7278 46.2568 76.7695 45.7346C76.7683 45.7074 76.7679 45.6812 76.7665 45.6545ZM116.52 63.6245C116.524 63.6225 116.527 63.621 116.531 63.6195C116.735 63.5233 116.934 63.5475 117.099 63.6384C117.004 63.3591 116.89 63.0897 116.75 62.838C116.671 63.0991 116.594 63.3607 116.52 63.6245ZM118.815 63.5061C118.792 63.4033 118.764 63.3058 118.725 63.2103C118.677 63.3762 118.633 63.5429 118.59 63.7095C118.69 64.0708 118.772 64.4386 118.843 64.8066C118.9 65.0991 118.945 65.3934 118.993 65.6871C118.977 65.3232 118.958 64.96 118.93 64.5967C118.903 64.2398 118.891 63.8566 118.815 63.5061ZM122.153 65.0325C122.234 65.2057 122.307 65.3856 122.372 65.5676C122.384 65.5648 122.397 65.5662 122.41 65.5644C122.348 65.2938 122.281 65.0233 122.201 64.7581C122.183 64.8482 122.17 64.9412 122.153 65.0325ZM103.159 88.8147C103.088 88.7474 103.02 88.6769 102.958 88.602C102.808 88.6806 102.651 88.7509 102.498 88.8268C102.523 88.969 102.536 89.1067 102.532 89.2374C102.621 89.2179 102.711 89.197 102.8 89.176C102.92 89.0563 103.04 88.9356 103.159 88.8147ZM91.7907 61.1445C91.7612 62.2647 91.6999 63.3841 91.6113 64.5022C91.6147 64.5 91.6178 64.4983 91.621 64.4966C91.7885 63.4338 91.9462 62.3687 92.0669 61.3006C91.9625 61.2696 91.8683 61.2175 91.7907 61.1445ZM114.756 61.1652C114.96 61.0738 115.167 60.9864 115.371 60.8942C115.141 60.8442 114.912 60.796 114.683 60.7518C114.744 60.876 114.766 61.0218 114.756 61.1652ZM117.744 61.7638C117.795 61.7039 117.85 61.6527 117.911 61.6102C117.788 61.5656 117.665 61.5258 117.542 61.4845C117.612 61.5761 117.681 61.6683 117.744 61.7638ZM120.311 63.7601C120.552 63.7352 120.764 63.7595 120.956 63.8168C121.019 63.6536 121.1 63.5001 121.209 63.3645C121.232 63.3366 121.258 63.3162 121.282 63.2913C120.858 63.0015 120.409 62.7512 119.998 62.5401C120.168 62.9115 120.26 63.3317 120.311 63.7601ZM125.028 73.1727C124.981 73.7842 124.881 74.3894 124.764 74.9945C124.805 74.9942 124.844 74.9848 124.886 74.9532C124.992 74.8717 124.99 73.7842 125.002 73.6532C125.017 73.5036 125.024 73.3532 125.036 73.2034C125.033 73.1931 125.031 73.183 125.028 73.1727ZM124.84 76.4156C124.914 76.5882 124.93 76.7847 124.86 76.9695C124.954 76.8357 125.049 76.7018 125.137 76.5666C125.185 76.4926 125.228 76.4182 125.272 76.3434C125.133 76.3861 124.988 76.4111 124.84 76.4156ZM79.0246 97.4224C79.0211 97.4234 79.0169 97.4246 79.0135 97.4256C78.8395 97.4687 78.6892 97.4358 78.5668 97.3602C78.5618 97.6974 78.5557 98.0343 78.5537 98.3716C78.7358 98.2883 78.9195 98.2081 79.1051 98.1305C79.0782 97.8943 79.0517 97.6582 79.0246 97.4224ZM73.5887 83.9188C73.561 83.5386 73.5252 83.1592 73.4831 82.7801C73.5029 83.0946 73.5297 83.4083 73.5545 83.7225C73.5661 83.788 73.5771 83.8533 73.5887 83.9188ZM73.0065 51.9203C73.0087 51.9709 73.0146 52.0226 73.0178 52.0736C73.2647 52.0203 73.5392 52.1047 73.7234 52.2944C73.4306 51.2683 73.2724 50.2121 73.253 49.1542C73.1934 49.4174 73.1454 49.6703 73.1002 49.8838C73.0942 49.911 73.0904 49.9384 73.085 49.9653C73.0075 50.6063 72.976 51.2571 73.0065 51.9203ZM79.6949 41.6374C79.442 41.7293 79.2395 42.0906 79.0822 42.4596C79.1467 42.5391 79.2074 42.623 79.2653 42.7094C79.4726 42.3466 79.7076 41.993 79.979 41.6949C79.8803 41.6361 79.7832 41.6051 79.6949 41.6374ZM124.041 66.4267C124.178 67.1356 124.285 67.8478 124.36 68.5635C124.376 68.6137 124.393 68.6632 124.409 68.7137C124.401 68.157 124.42 67.5992 124.463 67.0403C124.436 66.9456 124.412 66.8496 124.383 66.7554C124.289 66.452 124.39 66.1905 124.57 66.0136C124.595 65.8271 124.615 65.6411 124.645 65.4551C124.652 65.4103 124.664 65.3704 124.676 65.3309C124.527 65.1774 124.378 65.0255 124.23 64.8727C124.318 65.1982 124.37 65.5394 124.352 65.9057C124.339 66.1687 124.212 66.3373 124.041 66.4267ZM87.9543 96.9603C87.8491 96.9926 87.7427 97.0219 87.637 97.054C87.5474 97.0978 87.458 97.1429 87.368 97.1865C87.6464 97.0889 87.9236 96.9884 88.1985 96.8833C88.1168 96.9087 88.036 96.9349 87.9543 96.9603ZM71.3258 78.1444C71.2912 77.8376 71.2537 77.532 71.2169 77.2261C71.227 77.5407 71.248 77.8538 71.2819 78.1664C71.2965 78.1593 71.3112 78.1516 71.3258 78.1444ZM76.7541 41.604C76.9445 41.6908 77.1058 41.8205 77.2416 41.983C77.3889 41.9044 77.549 41.8457 77.728 41.8223C77.7717 41.8166 77.8136 41.8162 77.8558 41.8141C77.8662 41.7937 77.8747 41.7724 77.8846 41.7518C78.055 41.4132 78.2575 41.0719 78.5168 40.7924C77.8968 40.9994 77.3007 41.27 76.7541 41.604ZM80.5862 40.3146C80.5334 40.3219 80.4795 40.3317 80.4263 40.34C80.7168 40.4737 80.9805 40.682 81.2132 40.9232C81.4513 40.8721 81.7067 40.8672 81.9823 40.9218C82.3842 40.6688 82.8199 40.532 83.2553 40.5114C82.39 40.2798 81.4979 40.1883 80.5862 40.3146ZM85.0931 41.2128C85.2012 41.3151 85.3066 41.4253 85.4026 41.5503C85.6102 41.8178 85.7655 42.1128 85.897 42.4183C85.9663 42.4835 86.0318 42.5519 86.0929 42.6251C86.171 42.6037 86.2494 42.5819 86.335 42.5715C86.8587 42.5072 87.2384 42.729 87.5312 43.063C87.5474 43.0347 87.5609 43.0059 87.5771 42.9776C87.6001 42.9377 87.6311 42.9048 87.6599 42.8697C86.8928 42.1969 85.9946 41.6489 85.0931 41.2128ZM126.636 68.825C126.577 68.543 126.498 68.2594 126.408 67.9799C126.53 69.2473 126.572 70.5245 126.537 71.7874C126.537 71.9334 126.536 72.0797 126.533 72.2261C126.757 71.1106 126.883 70.0119 126.636 68.825ZM74.7069 101.58C74.498 101.493 74.3227 101.312 74.2697 101.038C74.0879 100.102 73.9268 99.1593 73.7705 98.2154C73.8165 98.7652 73.8657 99.3146 73.9072 99.8649C73.942 100.324 73.9766 100.782 74.0109 101.241C74.0251 101.433 74.04 101.625 74.0547 101.817C74.2711 101.736 74.4887 101.657 74.7069 101.58ZM72.7267 90.4689C72.6682 89.7902 72.6109 89.1114 72.5488 88.4353C72.48 87.6837 72.4019 86.9312 72.3264 86.1786C72.2647 86.1524 72.2089 86.1184 72.159 86.076C72.1918 86.4426 72.2207 86.81 72.2555 87.1763C72.3613 88.2775 72.545 89.3737 72.7267 90.4689ZM72.0697 85.0587C72.1078 85.0131 72.1542 84.971 72.207 84.9322C72.1696 84.5206 72.132 84.1082 72.1023 83.6957C72.0522 83.4083 72.0037 83.1199 71.9523 82.8326C71.951 82.8272 71.9504 82.8215 71.9496 82.8163C71.9298 82.8243 71.9096 82.8321 71.8893 82.8398C71.9479 83.5798 72.0079 84.3192 72.0697 85.0587ZM69.9221 82.0477C70.0759 81.9766 70.231 81.9067 70.3853 81.8359C70.3536 81.4394 70.315 81.0436 70.2561 80.6514C70.2414 80.556 70.2235 80.4612 70.2073 80.3664C70.0815 80.4173 69.9541 80.4662 69.8272 80.5153C69.8425 81.0346 69.8583 81.554 69.8772 82.0735C69.8929 82.065 69.9055 82.0552 69.9221 82.0477ZM69.7758 78.9148C69.8267 78.8891 69.8781 78.8637 69.9293 78.8388C69.899 78.6532 69.8714 78.4682 69.8508 78.2812C69.6754 76.7044 69.8579 75.1098 69.708 73.5257C69.6766 73.1899 69.6518 72.8558 69.6282 72.5215C69.6261 72.6806 69.6218 72.8394 69.6209 72.9984C69.6106 74.9685 69.7151 76.9437 69.7758 78.9148ZM70.842 63.2173C70.8465 63.2537 70.8488 63.2898 70.8533 63.3263C70.8378 63.013 70.8196 62.7005 70.7924 62.3877C70.7365 61.7471 70.6792 61.1082 70.6435 60.4671C70.6386 60.6413 70.6302 60.8153 70.6286 60.9892C70.6234 61.7409 70.743 62.474 70.842 63.2173ZM70.7815 56.4106C70.8798 55.5937 71.0246 54.783 71.2345 53.9946C71.2376 53.5232 71.2515 53.0509 71.2864 52.5761C71.3627 51.5498 71.505 50.5308 71.7267 49.5274C71.825 48.8334 71.972 48.1474 72.1658 47.4697C71.9347 48.0655 71.7421 48.6704 71.5934 49.2733C71.0237 51.5846 70.8683 54.0106 70.7815 56.4106ZM14.6016 93.8928C12.8468 90.0637 11.1637 86.1142 9.99329 82.0617C8.80208 77.9355 9.17805 73.2341 11.6384 69.637C12.7507 68.0106 14.4003 66.7188 16.2746 66.0825C18.2332 65.4176 20.3503 65.7595 22.1056 66.8126C24.1369 68.0306 25.6359 69.99 26.8395 71.9912C27.485 73.0646 28.0703 74.1797 28.5802 75.324C28.8787 75.9944 29.1147 76.686 29.3466 77.3802C30.4983 75.8323 31.7502 74.3553 33.2765 73.1568C35.0143 71.7928 37.0746 70.7869 39.2333 70.3173C41.5324 69.8165 43.6734 70.1552 45.7716 71.1956C47.6707 72.137 49.3033 73.7088 49.9307 75.7739C50.2363 76.78 50.4038 77.8444 50.3791 78.8962C50.352 80.055 49.9704 81.1536 49.4619 82.1843C48.426 84.2832 47.2403 86.3167 45.8 88.1633C44.3368 90.0384 42.794 91.9166 40.9992 93.4861C39.2791 94.9897 37.5414 96.4421 35.6665 97.7492C33.55 99.2244 31.3468 100.564 29.2001 101.993C27.8222 102.911 26.3425 103.682 24.8548 104.43C24.8662 104.987 24.1429 105.269 23.7225 104.997C23.2753 105.221 22.8284 105.446 22.3861 105.674C21.9406 105.904 21.5828 105.614 21.4794 105.235C20.0578 103.594 18.8202 101.73 17.7121 99.8677C16.5633 97.9358 15.5379 95.9357 14.6016 93.8928ZM15.6697 68.8722C15.4952 69.126 15.3235 69.3822 15.165 69.647C15.165 69.647 15.1667 69.6471 15.1676 69.6481C15.3416 69.445 15.5295 69.2581 15.7298 69.0874C15.712 69.015 15.6894 68.9442 15.6697 68.8722ZM21.8213 95.0949C21.7916 94.8108 21.761 94.5245 21.7303 94.2387C21.696 94.2623 21.6612 94.2857 21.6269 94.3093C21.6616 94.4489 21.7013 94.5882 21.7345 94.7283C21.7468 94.7808 21.7526 94.8312 21.7543 94.8786C21.7771 94.9506 21.7991 95.023 21.8213 95.0949ZM42.5737 75.682C42.6037 75.8741 42.6291 76.0655 42.6565 76.2577C42.7224 76.2439 42.7875 76.2291 42.8534 76.2165C42.9194 75.8712 42.9923 75.5282 43.0781 75.1877C43.0592 75.0124 43.0435 74.8366 43.0194 74.6621C42.8558 74.9975 42.7093 75.3383 42.5737 75.682ZM32.6479 87.4438C32.6488 87.4902 32.6472 87.5368 32.6476 87.583C32.6578 87.5746 32.6675 87.566 32.6772 87.5574C32.6686 87.5192 32.657 87.4822 32.6479 87.4438ZM30.7764 88.6874C30.7228 88.8949 30.6625 89.1226 30.6062 89.3593C30.6967 89.279 30.7888 89.1993 30.88 89.1198C30.85 88.9737 30.8104 88.8315 30.7764 88.6874ZM28.8177 90.743C28.8943 90.684 28.9703 90.6247 29.0474 90.566C29.0486 90.4816 29.0459 90.3968 29.0519 90.3127C29.0577 90.2219 29.0693 90.1304 29.0783 90.0391C29.0038 90.1262 28.9305 90.2145 28.856 90.3017C28.8434 90.4484 28.8313 90.5954 28.8177 90.743ZM34.0745 79.0171C34.1535 78.9567 34.2336 78.898 34.3133 78.8373C34.429 78.7488 34.5554 78.708 34.6816 78.7033C34.7152 78.5715 34.7467 78.4388 34.7812 78.3075C34.5605 78.5119 34.3411 78.7176 34.1166 78.918C34.1026 78.9509 34.0887 78.9837 34.0745 79.0171ZM38.04 88.2469C38.0321 88.3854 38.0244 88.5264 38.0166 88.6691C38.0393 88.5854 38.0599 88.5014 38.0824 88.417C38.0674 88.361 38.0541 88.3038 38.04 88.2469ZM36.5735 89.7885C36.557 89.4591 36.5605 89.1267 36.5744 88.7944C36.4294 89.0673 36.2795 89.3376 36.1252 89.6054C36.1247 89.658 36.12 89.7105 36.12 89.7632C36.12 89.8275 36.125 89.8914 36.1257 89.9553C36.2738 89.8964 36.424 89.8438 36.5735 89.7885ZM29.96 85.9881C29.9498 85.9608 29.939 85.9332 29.9291 85.9053C29.7961 85.9816 29.6583 86.0534 29.5219 86.1264C29.4908 86.2338 29.4649 86.3434 29.4364 86.4519C29.6118 86.2985 29.7848 86.1423 29.96 85.9881ZM27.7776 85.6071C27.2838 85.9865 26.7852 86.3615 26.2825 86.7292C26.3126 86.8396 26.3434 86.9496 26.3735 87.06C26.8419 86.5764 27.3096 86.0914 27.7776 85.6071ZM20.138 86.0509C20.2692 86.4242 20.3995 86.7982 20.5297 87.1723C20.5557 87.1027 20.5914 87.0343 20.6421 86.9691C20.4704 86.6654 20.3022 86.3594 20.138 86.0509ZM31.4627 91.8259C31.395 91.8996 31.3258 91.9726 31.2582 92.0463C31.344 92.0712 31.432 92.088 31.5216 92.0939C31.502 92.0044 31.4823 91.9154 31.4627 91.8259ZM27.6375 87.9941C27.6489 87.9844 27.6598 87.9745 27.6717 87.965C27.6833 87.8833 27.6983 87.8024 27.711 87.7211C27.4116 88.031 27.1113 88.3399 26.8114 88.6495C26.8125 88.6542 26.8137 88.6583 26.8153 88.6632C27.0891 88.4395 27.3659 88.2213 27.6375 87.9941ZM24.7406 88.4254C24.7444 88.5277 24.7495 88.6298 24.7536 88.7316C24.7978 88.6861 24.8417 88.6411 24.8859 88.5956C24.8374 88.5387 24.7884 88.4827 24.7406 88.4254ZM30.2799 93.1673C30.1187 93.36 29.9569 93.5526 29.8015 93.7502C30.0071 93.5757 30.2149 93.4033 30.4262 93.2367C30.3789 93.2124 30.325 93.1937 30.2799 93.1673ZM26.1784 96.3004C26.0941 96.3961 26.0069 96.493 25.9185 96.59C25.9522 96.7104 25.984 96.8312 26.0175 96.952C26.2326 96.5282 26.4577 96.1093 26.7084 95.7C26.5314 95.9 26.3546 96.0995 26.1784 96.3004ZM25.5993 94.8079C25.555 94.8352 25.5113 94.8639 25.467 94.8912C25.4713 94.9081 25.4758 94.9246 25.4802 94.9416C25.5201 94.8974 25.5596 94.8529 25.5993 94.8079ZM26.072 91.3021C26.0551 91.2404 26.0378 91.1785 26.0206 91.1161C25.6804 91.3807 25.3408 91.6468 24.9962 91.906C25.0019 91.9526 25.0053 91.9989 25.0109 92.0455C25.0254 92.1698 25.0439 92.2947 25.0592 92.4187C25.398 92.0474 25.735 91.6748 26.072 91.3021ZM20.9984 88.1955C20.9953 88.1669 20.9936 88.1383 20.9903 88.1102C20.9333 88.0933 20.8788 88.0702 20.8294 88.0395C20.9144 88.2877 20.9934 88.537 21.0714 88.7858C21.0476 88.5891 21.0214 88.3925 20.9984 88.1955ZM18.2827 73.0238C18.2858 73.0336 18.2889 73.0434 18.2923 73.0527C18.3415 72.8754 18.3783 72.7202 18.3957 72.6621C18.4138 72.6007 18.4304 72.5374 18.4478 72.4751C18.4687 72.3658 18.495 72.2582 18.5287 72.1531C18.5961 71.8587 18.6424 71.5584 18.6336 71.2607C18.6277 71.0649 18.5829 70.8435 18.5045 70.6314C18.3561 71.2235 18.3234 71.8702 18.2965 72.446C18.2877 72.6296 18.2828 72.8238 18.2827 73.0238ZM22.6864 90.0108C22.6763 89.9975 22.6648 89.9859 22.6559 89.9712C22.6902 90.2446 22.7225 90.5183 22.7572 90.7918C22.8016 90.7458 22.846 90.6998 22.8907 90.6545C22.8225 90.4395 22.7547 90.2253 22.6864 90.0108ZM24.3018 96.2812C24.2607 96.0796 24.2211 95.8773 24.1803 95.6751C24.0625 95.747 23.9443 95.8186 23.8268 95.8911C23.6771 95.9839 23.5128 96.0111 23.3553 95.9939C23.4031 96.4094 23.457 96.825 23.5155 97.2395C23.7628 96.9112 24.0303 96.5938 24.3018 96.2812ZM27.4111 79.4099C27.4062 79.4072 27.4012 79.4033 27.3959 79.3999C27.4868 79.6954 27.5735 79.9922 27.6595 80.2893C27.7103 80.1897 27.7662 80.0922 27.8208 79.9936C27.6822 79.802 27.5467 79.6057 27.4111 79.4099ZM42.8382 82.9703C42.8231 82.9803 42.8082 82.9909 42.7931 83.0009C42.7919 83.0609 42.7899 83.1213 42.7883 83.1806C42.7821 83.4622 42.7618 83.7384 42.7397 84.0145C42.7949 83.7676 42.8477 83.5204 42.8962 83.2719C42.8757 83.1717 42.8574 83.0706 42.8382 82.9703ZM24.6781 98.0185C24.597 98.1253 24.5203 98.2345 24.4464 98.3444C24.5364 98.288 24.6259 98.2315 24.7156 98.1744C24.7024 98.1227 24.6906 98.0705 24.6781 98.0185ZM23.0999 93.622C23.1319 93.9107 23.1615 94.1978 23.1914 94.4857C23.3809 94.2734 23.5717 94.0623 23.7628 93.8507C23.6922 93.5559 23.6206 93.2619 23.5466 92.968C23.3851 93.0843 23.2258 93.204 23.063 93.3191C23.0748 93.4198 23.0889 93.5209 23.0999 93.622ZM24.7579 99.8177C24.5257 99.9592 24.2916 100.098 24.057 100.235C24.0797 100.355 24.1038 100.473 24.1267 100.592C24.3264 100.396 24.5288 100.202 24.732 100.009C24.7318 99.9448 24.7408 99.8808 24.7579 99.8177ZM18.2774 93.8425C18.2689 93.8225 18.2597 93.8028 18.2505 93.7832C18.2621 93.8099 18.2723 93.8373 18.284 93.8641C18.2818 93.8564 18.2798 93.8496 18.2774 93.8425ZM14.0435 87.3446C13.4969 85.5775 12.983 83.8 12.5313 82.0089C12.4749 81.785 12.546 81.5946 12.6809 81.4567C12.4526 80.644 11.9877 79.2637 12.1087 78.2079C12.0362 78.1146 11.971 78.0155 11.918 77.9063C11.9619 78.5552 12.0185 79.2028 12.1088 79.8466C12.4988 82.6381 13.2738 85.3464 14.1793 88.0083C14.2708 88.2768 14.3702 88.5409 14.4691 88.8047C14.3214 88.3189 14.1801 87.8323 14.0435 87.3446ZM13.5969 69.5249C13.0919 70.0947 12.6764 70.768 12.364 71.5268C11.8778 72.7076 11.7517 73.8771 11.778 75.1197C11.9034 74.1463 12.1278 73.1895 12.4284 72.2559C12.7295 71.3226 13.1236 70.4027 13.5969 69.5249ZM16.8991 67.9675C16.9347 67.9281 16.9652 67.8847 17.0024 67.8471C17.1128 67.734 17.2271 67.6419 17.3433 67.5622C17.1555 67.5849 16.9724 67.618 16.7923 67.6567C16.8289 67.7589 16.8649 67.8627 16.8991 67.9675ZM20.0382 68.2578C20.0845 68.2787 20.1305 68.3 20.1763 68.3237C20.2126 68.3094 20.2462 68.2903 20.2841 68.278C20.5047 68.2038 20.7507 68.1839 21.0066 68.198C20.5172 67.9418 19.9878 67.754 19.4266 67.6412C19.6522 67.8037 19.8585 68.013 20.0382 68.2578ZM32.286 95.708C32.2794 95.6821 32.2731 95.657 32.2672 95.6309C31.4401 96.1573 30.6458 96.7164 29.8895 97.3602C29.1196 98.0145 28.3446 98.6709 27.5796 99.3394C27.5993 99.3374 27.6192 99.3362 27.6388 99.3342C28.964 98.5381 30.09 97.5574 31.2758 96.5657C31.6168 96.2808 31.9535 95.9959 32.286 95.708ZM21.2342 100.356C21.2372 100.376 21.2407 100.397 21.2437 100.417C21.2994 100.788 21.1063 101.036 20.844 101.138C20.9062 101.263 20.9637 101.39 21.0264 101.515C21.13 101.721 21.6598 103.088 21.8569 103.091C22.0393 103.094 21.4418 101.048 21.2342 100.356ZM39.4424 71.8103C39.5878 71.7563 39.7322 71.6988 39.8777 71.6472C39.7217 71.675 39.5659 71.7021 39.4113 71.7365C39.4243 71.7602 39.4317 71.7857 39.4424 71.8103ZM47.9221 81.8815C47.8226 82.1271 47.6791 82.3468 47.448 82.5086C47.1984 82.6839 46.9208 82.7454 46.6448 82.7289C46.6237 82.8599 46.6003 82.9906 46.576 83.1208C46.8173 83.1675 47.0369 83.3456 47.136 83.5689C47.4281 83.0735 47.7236 82.5632 47.9902 82.0407C47.9662 81.9887 47.9456 81.9345 47.9221 81.8815ZM26.0169 101.853C25.5218 102.111 25.0202 102.357 24.5144 102.595C24.5364 102.712 24.5596 102.829 24.5816 102.945C25.1852 102.631 25.7857 102.312 26.3842 101.987C26.2528 101.985 26.1259 101.943 26.0169 101.853ZM23.1413 103.687L23.1406 103.689L23.1416 103.688L23.1413 103.687ZM44.1101 71.9859C44.1379 72.0304 44.1637 72.0766 44.1783 72.1307C44.2038 72.2221 44.2233 72.3146 44.247 72.4071C44.5832 72.2747 45.0144 72.4196 45.192 72.7864C45.249 72.9034 45.2987 73.022 45.3522 73.1399C45.3584 73.1225 45.3641 73.1049 45.3702 73.0875C45.429 72.9192 45.5335 72.8072 45.6582 72.7389C45.1703 72.4421 44.6509 72.1852 44.1101 71.9859ZM46.773 73.5449C46.8802 74.2673 46.9568 74.9919 47.0062 75.7177C47.0609 75.2592 47.1331 74.805 47.2442 74.3649C47.2686 74.2674 47.3075 74.1845 47.3549 74.1113C47.1933 73.9294 47.0198 73.7557 46.8342 73.5933C46.8147 73.5765 46.7925 73.5617 46.773 73.5449ZM28.7074 100.596C28.5058 100.638 28.3043 100.682 28.1011 100.709C27.7858 100.889 27.4692 101.067 27.151 101.243C27.1468 101.39 27.1016 101.522 27.0278 101.633C27.1515 101.564 27.2763 101.498 27.4 101.428C27.8516 101.174 28.2811 100.887 28.7074 100.596ZM8.84563 80.8836C9.88089 86.8774 11.9257 92.6459 14.8847 97.954C15.3313 98.7551 14.0035 99.2817 13.5615 98.4886C10.5442 93.0751 8.48541 87.1752 7.4299 81.0649C7.2732 80.1579 8.68967 79.9804 8.84563 80.8836ZM65.3378 28.0092C63.9999 29.2878 62.5905 30.3507 60.9706 31.2471C59.4024 32.1146 57.8551 33.0213 56.188 33.6892C54.9854 34.1708 53.7516 34.616 52.5083 35.0179C51.8325 35.5491 51.1534 36.0766 50.4273 36.5379C49.8973 36.8741 49.3253 36.4398 49.2722 35.9755C49.1231 35.914 48.9889 35.8019 48.9004 35.6207C48.1388 34.0586 47.3395 32.5139 46.5667 30.9567C46.3503 30.52 46.1453 30.0779 45.943 29.635C45.536 29.7313 45.0302 29.5409 45.0311 29.0564C45.032 28.5774 45.0265 28.0993 45.0225 27.6207C44.8462 27.2465 44.6646 26.8748 44.4735 26.507C43.01 23.6974 41.7538 20.6678 41.1857 17.5352C40.9069 16.0006 40.8542 14.3631 41.0613 12.8147C41.2358 11.5071 41.7266 10.1082 42.9143 9.39492C43.2046 9.22062 43.5174 9.10492 43.8401 9.03284C43.8411 8.99204 43.8433 8.95116 43.844 8.91087C43.8615 8.05892 45.1112 8.1701 45.2595 8.91424C45.2652 8.94213 45.2688 8.9709 45.2745 8.99879C45.6801 9.06252 46.0788 9.17843 46.4481 9.34491C47.822 9.96452 48.743 11.1925 49.4912 12.4537C50.3744 13.9419 51.1387 15.4579 51.6104 17.129C51.8824 18.0941 52.079 19.06 52.221 20.036C52.9501 19.2722 53.7109 18.5365 54.5166 17.8379C55.662 16.8443 56.8091 15.8368 57.9959 14.8928C58.9807 14.1103 60.0493 13.4562 61.1297 12.8185C61.2188 12.5072 61.5169 12.3817 61.8174 12.4135C61.8406 12.4003 61.8632 12.3869 61.8859 12.3735C62.0822 12.258 62.3296 12.2504 62.5463 12.3181C62.6876 12.2508 62.831 12.1887 62.9745 12.126C63.1106 11.9395 63.3419 11.8632 63.5741 11.8842C65.4687 11.1789 67.4967 10.9956 69.2716 12.0952C70.748 13.0099 71.1138 14.6166 71.0223 16.251C70.9922 16.7915 70.9118 17.3107 70.794 17.8165C71.1433 17.9417 71.4362 18.3109 71.2974 18.7665C70.7341 20.6115 69.98 22.3064 68.863 23.8854C67.8131 25.3706 66.6536 26.7528 65.3378 28.0092ZM59.9457 26.6164C60.2015 26.4323 60.4534 26.2429 60.7044 26.0513C60.6389 25.7587 60.5728 25.4663 60.5122 25.1722C60.3708 25.2812 60.2304 25.3907 60.0889 25.4997C60.0411 25.8751 59.9922 26.2501 59.9362 26.6233C59.9395 26.6211 59.9424 26.6187 59.9457 26.6164ZM55.3613 29.7979C55.3356 29.7385 55.3149 29.6745 55.3048 29.6012C55.2903 29.4968 55.2744 29.3931 55.2599 29.2888C55.2144 29.3258 55.1682 29.3619 55.1225 29.3995C55.1107 29.526 55.0983 29.6523 55.0859 29.7785C55.1562 29.7914 55.2205 29.8169 55.2797 29.8517C55.3071 29.8342 55.3342 29.816 55.3613 29.7979ZM49.9903 20.464C49.9677 20.4175 49.9449 20.3696 49.9223 20.323C50.011 20.708 50.1006 21.0921 50.1904 21.4744C50.2634 21.4296 50.336 21.3841 50.4093 21.3401C50.5048 21.1879 50.6542 21.0829 50.818 21.0282C50.798 20.9784 50.7781 20.9282 50.7577 20.8777C50.4741 20.9276 50.1609 20.8146 49.9903 20.464ZM55.96 23.6838C55.9401 23.6966 55.9195 23.7078 55.8994 23.7181C55.9135 23.8162 55.9276 23.9143 55.9418 24.0124C55.9494 23.903 55.9536 23.7932 55.96 23.6838ZM57.4973 18.7294L57.4988 18.7288C57.4957 18.6548 57.4921 18.5805 57.4884 18.5063C57.4774 18.5137 57.4664 18.5211 57.4553 18.5286C57.4569 18.5377 57.4606 18.5448 57.4627 18.5541C57.4741 18.6129 57.4857 18.6712 57.4973 18.7294ZM58.8789 17.7948C58.8857 17.8759 58.8923 17.9575 58.8991 18.0385C58.9746 18.0033 59.0512 17.9686 59.1272 17.9336C59.1269 17.7674 59.1263 17.6017 59.1245 17.4361C59.0299 17.4947 58.9368 17.557 58.8425 17.6164C58.8599 17.671 58.8735 17.7289 58.8789 17.7948ZM53.9885 25.934C54.0458 25.265 54.0608 24.6029 54.0622 23.9417C53.9866 23.9854 53.9101 24.0287 53.8336 24.0719C53.8631 24.7275 53.9096 25.3817 53.9802 26.0335C53.9831 26.0008 53.9858 25.9674 53.9885 25.934ZM55.367 20.0516C55.3706 20.0489 55.3742 20.0462 55.3777 20.0434C55.5996 19.8806 55.8305 19.735 56.0586 19.5859C56.0587 19.5544 56.058 19.5232 56.0573 19.492C55.8223 19.6558 55.5865 19.8187 55.3506 19.9816C55.3563 20.0053 55.3632 20.0263 55.367 20.0516ZM60.6118 16.5694C60.6414 16.8395 60.6752 17.1096 60.709 17.3797C60.8312 17.2988 60.9496 17.2127 61.0732 17.1343C61.0877 16.8974 61.1007 16.6612 61.1057 16.4239C61.1067 16.3843 61.1053 16.3449 61.1061 16.3059C60.9402 16.3912 60.776 16.4797 60.6118 16.5694ZM63.7832 21.0404C63.904 20.9729 64.0264 20.9086 64.1496 20.8469C64.0752 20.2826 63.9971 19.7186 63.9172 19.1544C63.8792 19.7837 63.8335 20.4121 63.7832 21.0404ZM67.9291 20.4721C67.9237 20.5377 67.9221 20.6043 67.9156 20.6694C67.8931 20.9096 67.7519 21.0781 67.5679 21.1745C67.5403 21.298 67.502 21.4168 67.4598 21.5334C67.7066 21.2019 67.9408 20.8613 68.1572 20.5102C68.0811 20.5082 68.0041 20.4967 67.9291 20.4721ZM64.3375 22.3515C64.1015 22.4846 63.87 22.6288 63.6418 22.7809C63.6168 23.0867 63.5934 23.3931 63.57 23.6995C63.8525 23.4552 64.131 23.2062 64.4097 22.9579C64.3859 22.7556 64.3618 22.5539 64.3375 22.3515ZM57.1279 28.3346C57.1221 28.1612 57.1096 27.9881 57.1008 27.8146C57.0598 27.8469 57.0188 27.8792 56.9778 27.9115C56.9371 28.2088 56.8923 28.5055 56.8463 28.8023C56.9583 28.7256 57.0694 28.6479 57.1811 28.5705C57.1516 28.5016 57.1312 28.4239 57.1279 28.3346ZM62.6941 14.0541C62.72 14.0445 62.7463 14.0369 62.7722 14.0273C62.7761 13.9453 62.7805 13.8635 62.7851 13.7813C62.743 13.8034 62.7012 13.8262 62.6594 13.8491C62.6704 13.9174 62.6831 13.9858 62.6941 14.0541ZM52.3842 24.8178C52.2574 24.8767 52.1312 24.937 52.003 24.9935C52.0821 25.7094 52.1676 26.4245 52.2612 27.1376C52.277 27.2588 52.3004 27.3778 52.3176 27.4985C52.3555 26.6043 52.3761 25.7106 52.3842 24.8178ZM64.7679 15.2848C64.81 15.5354 64.8469 15.7868 64.8872 16.0373C64.8954 15.7226 64.9055 15.4075 64.9142 15.093C64.8657 15.1573 64.8167 15.2213 64.7679 15.2848ZM52.4595 33.2627C52.2306 33.1752 52.0309 32.9862 51.9634 32.7169C51.862 32.3133 51.7632 31.9108 51.6659 31.5089C51.6035 32.2999 51.5278 33.089 51.436 33.8748C51.5734 33.8325 51.7092 33.7853 51.8464 33.7418C52.0507 33.5819 52.2547 33.4224 52.4595 33.2627ZM50.4438 25.597C50.3464 25.6295 50.2479 25.6574 50.1498 25.6885C50.2244 26.5692 50.3159 27.4486 50.4146 28.3281C50.4437 27.4174 50.4527 26.5068 50.4438 25.597ZM48.5444 31.38C48.4905 31.3929 48.4362 31.4008 48.3817 31.4006C48.4445 31.5255 48.5068 31.6501 48.5697 31.7744C48.5613 31.6429 48.5529 31.5115 48.5444 31.38ZM46.7279 26.166C46.4708 24.4418 46.5133 22.7471 46.4937 21.0117C46.4863 20.3497 46.4548 19.6843 46.4149 19.0189C46.4737 20.662 46.4774 22.312 46.4438 23.9558C46.4209 25.0733 46.4376 26.1888 46.4466 27.3053C46.7247 27.9021 46.9938 28.503 47.2671 29.1027C47.0403 28.1337 46.874 27.1492 46.7279 26.166ZM64.4513 13.4996C64.5148 13.4829 64.5769 13.462 64.6412 13.4463C64.7608 13.4158 64.8659 13.4295 64.9618 13.4605C64.9669 13.2943 64.9703 13.1278 64.976 12.9617C64.9767 12.953 64.9792 12.9455 64.9799 12.9368C64.7779 12.9843 64.5784 13.039 64.3804 13.1028C64.4048 13.235 64.4273 13.3676 64.4513 13.4996ZM59.025 30.7066C60.0028 30.1593 61.0115 29.6506 61.9357 29.0139C63.5396 27.9095 64.9757 26.501 66.2204 24.9938C65.981 25.2122 65.7382 25.4272 65.4887 25.6352C64.0538 26.8339 62.62 27.9657 60.974 28.8608C59.4405 29.6951 58.1273 30.817 56.7554 31.8757C57.5266 31.5152 58.2823 31.1228 59.025 30.7066ZM49.8492 34.335L49.8507 34.3345C49.9104 34.318 49.9705 34.2993 50.0297 34.2826C50.0133 34.2411 49.9999 34.1972 49.9907 34.1503C49.9351 33.88 49.8756 33.6105 49.8159 33.3415C49.711 33.4358 49.5822 33.4993 49.4478 33.5289C49.5823 33.7975 49.7162 34.0659 49.8492 34.335ZM44.9424 22.1106C44.8173 22.3981 44.4762 22.5193 44.1648 22.4719C44.4201 23.0967 44.6923 23.7146 44.9797 24.3239C44.967 23.5858 44.9536 22.848 44.9424 22.1106ZM46.5883 11.0959C46.9577 12.1145 47.2305 13.1678 47.4028 14.2379C47.4216 14.2338 47.44 14.2289 47.4588 14.2259C47.2112 13.3075 47.0323 12.3728 46.9591 11.4175C46.8793 11.3412 46.8007 11.2636 46.7166 11.1934C46.6765 11.1594 46.6306 11.129 46.5883 11.0959Z" fill="#FFE4F4"/>
</svg>
