<svg width="31" height="31" viewBox="0 0 31 31" fill="none" xmlns="http://www.w3.org/2000/svg">
<path d="M15.5153 31C12.4444 31.003 9.44174 30.0938 6.88838 28.3876C4.33502 26.6814 2.34603 24.2552 1.17376 21.4168C0.00148868 18.5784 -0.301219 15.4558 0.304042 12.4451C0.909302 9.43437 2.39525 6.6713 4.57335 4.50646C6.75145 2.34161 9.52353 0.87255 12.5379 0.285678C15.5522 -0.301194 18.673 0.0205708 21.5041 1.21014C24.3353 2.39972 26.7493 4.40348 28.4399 6.96721C30.1305 9.53093 31.0214 12.5391 30.9996 15.6099C30.9768 19.7009 29.3351 23.6164 26.4335 26.5004C23.5318 29.3844 19.6064 31.0021 15.5153 31ZM4.40855 23.0144C7.5062 19.9757 11.1927 18.3582 15.5192 18.3621C19.8457 18.366 23.5441 19.9875 26.6221 23.0184C27.9871 21.0015 28.7771 18.651 28.9074 16.2191C29.0378 13.7872 28.5034 11.3657 27.3618 9.21446C26.2201 7.06325 24.5142 5.26351 22.4272 4.00838C20.3401 2.75325 17.9507 2.09009 15.5153 2.09009C13.0799 2.09009 10.6905 2.75325 8.60346 4.00838C6.51642 5.26351 4.81054 7.06325 3.66888 9.21446C2.52722 11.3657 1.99287 13.7872 2.12318 16.2191C2.2535 18.651 3.04355 21.0015 4.40855 23.0184V23.0144Z" fill="#606060"/>
<path d="M15.5276 4.13805C16.7517 4.14039 17.9476 4.50507 18.9648 5.18611C19.9819 5.86715 20.7746 6.83407 21.2431 7.96498C21.7115 9.09589 21.8346 10.3402 21.5969 11.5409C21.3593 12.7417 20.7714 13.8453 19.9075 14.7125C19.0436 15.5796 17.9423 16.1717 16.7424 16.4139C15.5425 16.6561 14.2978 16.5377 13.1651 16.0735C12.0325 15.6094 11.0625 14.8203 10.3777 13.8058C9.69277 12.7912 9.32357 11.5967 9.31659 10.3726C9.31035 9.55411 9.46657 8.74252 9.7762 7.98483C10.0858 7.22714 10.5427 6.53842 11.1204 5.95855C11.6981 5.37868 12.3851 4.91919 13.1416 4.6067C13.8981 4.2942 14.7091 4.13491 15.5276 4.13805Z" fill="#606060"/>
</svg>
